<?xml version="1.0" encoding="UTF-8"?>
<svg width="29px" height="29px" viewBox="0 0 29 29" version="1.1" xmlns="http://www.w3.org/2000/svg" xmlns:xlink="http://www.w3.org/1999/xlink">
    <title>9EEAD2F2-40D8-4EB0-BBFB-AD7EAEEF78C9</title>
    <g id="Page-1" stroke="none" stroke-width="1" fill="none" fill-rule="evenodd">
        <g id="16.-Cart-screen" transform="translate(-35.000000, -409.000000)" fill="#000000" fill-rule="nonzero">
            <g id="noun_Coupon_1796132" transform="translate(35.000000, 409.000000)">
                <path d="M16.5,21 C17.8783333,21 19,19.8786111 19,18.5 C19,17.1213889 17.8783333,16 16.5,16 C15.1216667,16 14,17.1213889 14,18.5 C14,19.8786111 15.1216667,21 16.5,21 Z M16.5,17.1538462 C17.2422692,17.1538462 17.8461538,17.7577308 17.8461538,18.5 C17.8461538,19.2422692 17.2422692,19.8461538 16.5,19.8461538 C15.7577308,19.8461538 15.1538462,19.2422692 15.1538462,18.5 C15.1538462,17.7577308 15.7577308,17.1538462 16.5,17.1538462 Z" id="Shape"></path>
                <path d="M11.5,14 C12.8783333,14 14,12.8786111 14,11.5 C14,10.1213889 12.8783333,9 11.5,9 C10.1216667,9 9,10.1213889 9,11.5 C9,12.8786111 10.1216667,14 11.5,14 Z M11.5,10.1538462 C12.2422692,10.1538462 12.8461538,10.7577308 12.8461538,11.5 C12.8461538,12.2422692 12.2422692,12.8461538 11.5,12.8461538 C10.7577308,12.8461538 10.1538462,12.2422692 10.1538462,11.5 C10.1538462,10.7577308 10.7577308,10.1538462 11.5,10.1538462 Z" id="Shape"></path>
                <path d="M9.24133724,19.8842235 C9.35539765,19.9620495 9.49039517,20 9.62476771,20 C9.8110143,20 9.99538592,19.9268491 10.1185087,19.7876973 L18.8683483,9.88757106 C19.0802194,9.64804301 19.0311578,9.3023636 18.7586628,9.11563622 C18.4861678,8.92945885 18.0933625,8.9726344 17.8814913,9.21243745 L9.13165175,19.1125637 C8.91978063,19.3520917 8.96884223,19.6974961 9.24133724,19.8842235 Z" id="Path"></path>
                <path d="M27.1704985,11.1046983 L27.3672654,8.60898302 C27.4433068,7.64511246 26.9078812,6.71769572 26.0349728,6.30102455 L23.7752886,5.22387273 L22.6977739,2.96412738 C22.281506,2.09041144 21.3533304,1.55732321 20.3902698,1.63179877 L17.8950139,1.82857104 L15.8320966,0.410399546 C15.0352296,-0.136799849 13.9639864,-0.136799849 13.1675114,0.410399546 L11.1045941,1.82857104 L8.60973022,1.63179877 C7.64588571,1.55967506 6.71810207,2.09119539 6.30183413,2.96412738 L5.22431947,5.22387273 L2.9646352,6.30102455 C2.09172681,6.71769572 1.55630119,7.64511246 1.63234261,8.60898302 L1.82910956,11.1046983 L0.410976401,13.1672794 C-0.136992134,13.9641679 -0.136992134,15.0354401 0.410976401,15.8319366 L1.82910956,17.8949097 L1.63234261,20.390625 C1.55630119,21.3544956 2.09172681,22.2819123 2.9646352,22.6985835 L5.22431947,23.7757353 L6.30183413,26.0354806 C6.71810207,26.9088046 7.64588571,27.439933 8.60933825,27.3678093 L11.1045941,27.171037 L13.1675114,28.5892085 C13.5661409,28.8628082 14.0329725,29 14.499804,29 C14.9666356,29 15.4338591,28.8628082 15.8320966,28.5892085 L18.1239221,27.0134624 C18.4810032,26.768085 18.5711554,26.2800741 18.3257846,25.9233753 C18.0808058,25.5662846 17.5924161,25.47613 17.235727,25.7211154 L14.9439015,27.2968615 C14.6781486,27.4799146 14.3218514,27.4799146 14.0557065,27.2968615 L11.5353648,25.5639327 L8.48586895,25.8042144 C8.16484876,25.8363565 7.85597951,25.6513435 7.71722353,25.3604969 L6.40100154,22.5994134 L3.6399927,21.2827638 C3.34876193,21.1440041 3.17041738,20.8347345 3.19589517,20.5137057 L3.43617036,17.4645194 L1.70368043,14.9433256 C1.52102425,14.6779574 1.52102425,14.3212587 1.70368043,14.0554985 L3.43617036,11.5346967 L3.19589517,8.48551038 C3.17080934,8.16448151 3.34915389,7.85521194 3.6399927,7.71645221 L6.40100154,6.39980266 L7.71722353,3.63871918 C7.85597951,3.34787251 8.16288892,3.16285954 8.48626091,3.19500162 L11.5353648,3.4352833 L14.0560985,1.70235456 C14.3218514,1.51930147 14.6781486,1.51930147 14.9442935,1.70235456 L17.4646352,3.4352833 L20.5141311,3.19500162 C20.8367191,3.16638733 21.1444125,3.34826449 21.2827765,3.63871918 L22.5989985,6.39980266 L25.3600073,7.71645221 C25.6512381,7.85521194 25.8295826,8.16448151 25.8041048,8.48551038 L25.5638296,11.5346967 L27.2963196,14.0558905 C27.4789758,14.3212587 27.4789758,14.6779574 27.2963196,14.9437176 L25.5638296,17.4645194 L25.8041048,20.5137057 C25.8291907,20.8347345 25.6508461,21.1440041 25.3600073,21.2827638 L22.5989985,22.5994134 L21.2827765,25.3604969 C21.1440205,25.6513435 20.8324075,25.828909 20.5133471,25.8042144 L20.0488674,25.7677606 C19.6161368,25.7340506 19.2398494,26.0562554 19.2061404,26.4882137 C19.1724313,26.9201719 19.4950193,27.2968615 19.9265739,27.3309635 L20.3902698,27.3674173 C21.3592099,27.4407169 22.2822899,26.9084126 22.6981659,26.0350887 L23.7756805,23.7753433 L26.0353648,22.6981915 C26.9082732,22.2815203 27.4436988,21.3541036 27.3676574,20.390233 L27.1708904,17.8945177 L28.5890236,15.8319366 C29.1369921,15.0350481 29.1369921,13.963776 28.5890236,13.1672794 L27.1704985,11.1046983 Z" id="Path"></path>
            </g>
        </g>
    </g>
</svg>