<?xml version="1.0" encoding="UTF-8"?>
<svg width="25px" height="15px" viewBox="0 0 25 15" version="1.1" xmlns="http://www.w3.org/2000/svg" xmlns:xlink="http://www.w3.org/1999/xlink">
    <title>891D2F69-7802-485F-AEE3-FADB1E548D98</title>
    <g id="Page-1" stroke="none" stroke-width="1" fill="none" fill-rule="evenodd">
        <g id="19.-Payment-method" transform="translate(-35.000000, -693.000000)" fill="#353535" fill-rule="nonzero">
            <g id="Wallet-Method" transform="translate(34.000000, 528.000000)">
                <g id="Group" transform="translate(1.000000, 165.000000)">
                    <path d="M7.48588867,9.16405316 C7.01240234,10.2690199 6.32875977,11.2104319 5.65424805,11.7514784 C4.4409668,12.7246844 3.92109375,11.486412 2.79453125,11.486412 C2.01391602,11.486412 1.52460938,12.0805316 0.894042969,12.1221927 C0.317480469,10.6548339 0.000146484375,9.05262458 0.000146484375,7.37536545 C0.000146484375,5.75282392 0.297070313,4.20109635 0.838427734,2.77330565 C1.7175293,2.85976744 1.98334961,3.31903654 2.79453125,3.31903654 C3.68994141,3.31903654 3.92104492,2.75875415 5.04760742,2.75875415 C5.77871094,2.75875415 6.68232422,3.21752492 7.3175293,4.02254153 C6.36801758,4.45524917 5.70581055,5.42795681 5.70581055,6.55843854 C5.70576172,7.75445183 6.44707031,8.77400332 7.48588867,9.16405316 Z" id="Path"></path>
                    <path d="M2.40961914,2.65450166 C2.40961914,2.72865449 2.41337891,2.8019103 2.41918945,2.87456811 C3.81464844,2.82747508 4.93198242,1.65892027 4.93198242,0.22320598 C4.93198242,0.149053156 4.92822266,0.0757973422 4.92241211,0.00313953488 C3.52695312,0.0501827243 2.40961914,1.21878738 2.40961914,2.65450166 Z" id="Path"></path>
                    <path d="M8.98911133,3.21847176 C8.98911133,2.98848837 9.18945312,2.78401993 9.50244141,2.78401993 L11.9438477,2.78401993 C13.4838379,2.78401993 14.6857422,3.53790698 14.6857422,5.5951495 L14.6857422,5.6973588 C14.6857422,7.74184385 13.4462402,8.52124585 11.8687012,8.52124585 L10.3162109,8.52124585 L10.3162109,11.6773754 C10.3162109,11.9712458 9.99072266,12.1246346 9.65263672,12.1246346 C9.32714844,12.1246346 8.98911133,11.9712957 8.98911133,11.6773754 L8.98911133,3.21847176 L8.98911133,3.21847176 Z M10.3162598,3.98511628 L10.3162598,7.44792359 L11.86875,7.44792359 C12.7952148,7.44792359 13.3586426,6.91121262 13.3586426,5.78681063 L13.3586426,5.63347176 C13.3586426,4.50901993 12.7952148,3.98516611 11.86875,3.98516611 L10.3162598,3.98511628 L10.3162598,3.98511628 Z" id="Shape"></path>
                    <path d="M19.4047852,8.47011628 L19.4047852,11.6773256 C19.4047852,11.9201163 19.1293945,12.1245847 18.7662109,12.1245847 C18.4282227,12.1245847 18.1652832,11.9201661 18.1652832,11.6773256 L18.1652832,11.2301163 C17.7270508,11.7540199 17.1261719,12.2267442 16.274707,12.2267442 C15.360791,12.2267442 14.6096191,11.6900831 14.6096191,10.5401163 C14.6096191,9.09622924 15.7990723,8.71285714 17.5393066,8.71285714 L18.0901855,8.71285714 L18.0901855,8.48287375 C18.0901855,7.83119601 17.7646973,7.10287375 16.8506836,7.10287375 C15.9367676,7.10287375 15.711377,7.48624585 15.4609863,7.48624585 C15.147998,7.48624585 14.9852051,7.1157309 14.9852051,6.80900332 C14.9852051,6.34898671 16.0244141,5.99122924 16.8757812,5.99122924 C18.7161621,5.99122924 19.4047852,7.19237542 19.4047852,8.47011628 Z M18.0901855,9.45403654 L17.7771973,9.45403654 C16.8257324,9.45403654 15.9367676,9.55624585 15.9367676,10.3740698 C15.9367676,10.9490532 16.2873535,11.2046512 16.7505371,11.2046512 C17.3765137,11.2046512 18.0901855,10.5401661 18.0901855,9.92681063 L18.0901855,9.45403654 L18.0901855,9.45403654 Z" id="Shape"></path>
                    <path d="M19.6039063,6.79624585 C19.5663574,6.74516611 19.5538574,6.69403654 19.5538574,6.61739203 C19.5538574,6.27234219 20.0671387,5.97847176 20.4176758,5.97847176 C20.5929687,5.97847176 20.7557129,6.05516611 20.8183594,6.22126246 L22.3958984,10.3740698 L23.7480469,6.22126246 C23.8231934,6.05516611 23.9733887,5.97847176 24.123584,5.97847176 C24.4365723,5.97847176 25,6.25958472 25,6.64295681 C25,6.69403654 25,6.75792359 24.975,6.79624585 L23.1220703,11.792392 C22.5586426,13.3002159 21.9452148,14.9996512 20.1673828,14.9996512 C19.8293457,14.9996512 19.5538574,14.9101993 19.5538574,14.4246179 C19.5538574,14.11799 19.6540527,13.8496346 19.9169434,13.8496346 C20.5554199,13.8496346 21.5319824,13.1979568 21.7073242,11.7540698 L19.6039063,6.79624585 Z" id="Path"></path>
                </g>
            </g>
        </g>
    </g>
</svg>