<?xml version="1.0" encoding="UTF-8"?>
<svg width="38px" height="35px" viewBox="0 0 38 35" version="1.1" xmlns="http://www.w3.org/2000/svg" xmlns:xlink="http://www.w3.org/1999/xlink">
    <title>52047F5D-68EB-461D-B68C-02C09E5126E2</title>
    <g id="Page-1" stroke="none" stroke-width="1" fill="none" fill-rule="evenodd">
        <g id="13.-Landing-screen" transform="translate(-14.000000, -580.000000)" fill="#60951D">
            <g id="Categories" transform="translate(6.000000, 570.000000)">
                <g id="Asset-2" transform="translate(8.000000, 10.000000)">
                    <path d="M31.9989037,2.9796812 C31.514504,3.08884757 31.1172962,2.73123359 30.7297763,2.54678006 C30.3422565,2.36232653 29.8481688,2.21175222 29.421897,2.02353434 C28.6022325,1.59863498 27.72305,1.24754898 26.8012942,0.977042889 C26.2345465,0.849054727 25.6048268,0.736123995 24.9799511,0.638250694 C24.3536913,0.513906431 23.717826,0.420861807 23.07626,0.359688222 C22.8728121,0.359688222 22.0299565,0.476383312 22.0008925,0.205349555 C21.9718285,-0.0656842012 22.6596762,0.00960295339 23.032664,0.00960295339 C24.1208152,0.137735924 25.1957188,0.32643929 26.2490785,0.574256612 C27.1414327,0.72791387 27.9977035,0.988241751 28.7873333,1.34594995 C29.6883168,1.77885109 30.5166404,2.06494227 31.403092,2.47525726 C31.6404479,2.59948107 32.0231237,2.71617616 31.9989037,2.9796812 Z" id="Path"></path>
                    <path d="M28.1223778,0 L28.2397076,0 C28.5163749,0.178115251 28.814685,0.323389246 29.1280619,0.432619628 C29.4185929,0.52341634 30.0164162,0.534098306 29.9996548,0.827852374 C29.9828934,1.12160644 29.2118689,0.972058916 28.882228,0.870580238 C28.4184959,0.721032713 27.714517,0.368527831 28.1223778,0 Z" id="Path"></path>
                    <path d="M9.06055988,3 C8.81994441,2.54565485 9.35464545,2.38187927 9.64427518,2.22338678 C10.6278509,1.73106114 11.6405586,1.32493523 12.6742477,1.00827766 C12.807923,0.966012993 12.9906125,1.09280699 12.9995242,1.22488407 C13.0218034,1.54715214 12.2553986,1.6211153 12.0147831,1.70036155 C11.3073227,1.92615236 10.6135905,2.20856465 9.93836075,2.54565485 C9.62645181,2.68829809 9.39920387,2.97358458 9.06055988,3 Z" id="Path"></path>
                    <path d="M32.8471423,9.73386141 C33.4138461,9.60488718 33.998242,9.85980774 34.2935923,10.3648204 C34.5889427,10.8698331 34.5277618,11.5095456 34.1421622,11.9481856 C34.5764994,12.3749712 34.6580217,13.0494265 34.3380877,13.5691288 C34.6343653,13.9598919 35.0835604,14.5918668 34.8159548,15.3058537 C34.9210856,15.5277685 35.1552405,15.6242532 35.2460352,15.8606408 C35.2460352,16.029489 35.2842646,16.2658766 35.2078059,16.3720097 C35.5900996,16.9846877 36.2877856,17.9205894 35.8720412,19.0205152 C35.6139929,19.7007324 34.7872828,19.9371199 34.5818,20.5980402 C34.1712273,20.9327834 33.6796568,21.1509369 33.1577559,21.2300151 C33.3823535,21.5435904 33.7455325,21.678669 33.9032286,22.0983775 C34.1352355,23.0903239 34.1072367,24.126179 33.8219912,25.1038764 C33.6525772,25.7012329 33.4033908,26.272523 33.0812972,26.8020074 C32.85987,27.2229614 32.5615285,27.5978072 32.2020217,27.9067573 C31.8531787,28.2348054 31.5043357,28.5435564 31.107706,28.8716045 C30.8492007,29.0823525 30.5761224,29.2742015 30.2905532,29.4456885 C30.0850704,29.5855914 29.9225955,29.7978577 29.7027767,29.9618817 C28.9845964,30.4019459 28.2409811,30.7982411 27.4759159,31.1486437 C26.6875722,31.5213379 25.8767823,31.8435902 25.0483509,32.1134909 C24.6278279,32.2775149 24.2264195,32.4656601 23.7963391,32.5959144 C23.3662587,32.7261688 22.8883915,32.7888839 22.4248604,32.9094898 C21.558297,33.2188763 20.6680784,33.4560574 19.7631406,33.6186524 C19.3808469,33.6524221 19.0081105,33.6186524 18.6305955,33.6186524 C17.0918634,33.7054887 15.7156061,34.101076 13.8519243,33.9756459 C12.7738278,33.8994735 11.7094425,33.6871598 10.6836653,33.343671 C9.91907792,33.0735138 9.09714648,32.9287867 8.4137965,32.6345083 C8.13663357,32.5139024 7.89292133,32.3257572 7.63009442,32.2003271 C7.3672675,32.074897 7.03753919,32.0073577 6.7699336,31.8819276 C5.98055221,31.4493329 5.26698088,30.8886789 4.65776094,30.2223905 C4.06876089,29.5324156 3.53203393,28.7986676 3.05212742,28.0273632 C2.88487392,27.7620303 2.66505505,27.5159942 2.54558827,27.2747825 C2.01515577,26.2134506 2.13940122,24.4381319 2.42612149,23.2079518 C1.15021628,23.3285576 1.64719808,22.4167771 1.83834493,21.5484147 C1.92849784,21.0761903 2.05962014,20.6128864 2.23019597,20.163859 C2.04860646,19.9322957 1.75232885,19.8647564 1.60419004,19.5318841 C1.49826656,19.1952854 1.51178403,18.8319512 1.64241941,18.5043219 C0.519431683,18.0653165 1.04508551,15.9715982 1.8765743,15.5808351 C1.73947044,14.4350002 1.79276806,13.274099 2.03427045,12.1459793 C2.11550786,11.8372282 2.30187604,11.5767194 2.38789212,11.2776168 C2.4739082,10.9785142 2.46912953,10.7662479 2.54558827,10.5250361 C3.0501966,8.97298361 3.8325055,7.52752795 4.85368646,6.2604117 C5.63010406,5.38078639 6.54175504,4.63310907 7.55363568,4.0460875 C10.2774783,2.23217488 13.8375883,1.33486703 18.1957364,1.08400678 C18.7452836,1.05506136 19.4286336,1.03576442 19.9542874,1.00681901 C21.8219615,0.951557872 23.6844581,1.23253436 25.454538,1.83658755 C26.7086513,2.29572825 27.903848,2.90469323 29.014648,3.65050018 C30.1380644,4.27025131 31.0743464,5.18545414 31.7241546,6.29900558 C31.9064165,6.73736607 32.065922,7.18501917 32.2020217,7.64014311 C32.4552913,8.2335241 32.9283797,8.82690509 32.8471423,9.73386141 Z M20.0546395,1.83658755 C18.0997163,1.82179023 16.1477614,1.9930034 14.2246607,2.34795653 C12.5521198,2.63302609 10.930536,3.16624451 9.41253877,3.93030585 C8.00457046,4.56091688 6.72951426,5.45836367 5.65650322,6.57398702 C4.62674494,7.77741119 3.84239055,9.17418528 3.34840503,10.6842358 C3.25761028,10.9447446 3.20982357,11.2776168 3.10947147,11.5911922 C3.00911937,11.9047675 2.86098057,12.1797489 2.79885784,12.4595546 C2.50165163,13.9587547 2.58883226,15.5097569 3.05212742,16.9653907 C3.13747795,17.1059828 3.21563217,17.2509001 3.2862823,17.399572 C3.34840503,17.6166626 3.2862823,17.8289289 3.36751971,18.0315468 C3.66462691,18.6231108 4.06070615,19.158428 4.53829416,19.6138961 C4.96236989,20.1161905 5.44354894,20.5663347 5.97189552,20.9550337 C6.5214427,21.2734332 7.13789129,21.4036876 7.53929967,21.7848022 C8.13185489,22.354062 9.32174402,22.4987891 10.353937,22.6531646 C11.3120217,22.8048988 12.2800254,22.883916 13.2498117,22.8895522 C15.4002138,22.8895522 17.3546903,22.8895522 19.2757161,22.7303524 C21.0449707,22.5325522 22.7890256,22.1493729 24.479689,21.5870086 C25.0394814,21.4580733 25.5889616,21.2871422 26.1235519,21.0756396 C26.8213807,20.636227 27.4772817,20.1323432 28.0828071,19.570478 C28.7415923,19.086393 29.3330537,18.5152529 29.8413581,17.8723471 C30.6746641,16.6337693 31.319005,15.2758825 31.7528266,13.8441102 C31.9334107,13.0797323 32.0390505,12.2992699 32.0682189,11.5140044 C32.1673232,10.6720462 32.1399354,9.81980762 31.9869815,8.98610487 C31.8866294,8.54709942 31.5521224,8.09362127 31.3609756,7.56295534 C30.6155029,5.45958857 29.2105735,4.66841391 27.3707851,3.65050018 C25.5309967,2.63258644 22.983965,1.63396965 20.1310983,1.83658755 L20.0546395,1.83658755 Z M32.6798888,13.2507292 C32.8735605,13.3970759 33.0556962,13.5583675 33.2246573,13.7331528 C33.3250094,13.3327412 33.8745566,13.2217838 33.7025245,12.6669967 C32.211579,12.3678941 33.89845,11.5960164 33.621287,10.7373024 C33.4091172,10.5861689 33.1451656,10.5286953 32.8901503,10.5781027 C32.8964176,11.4734281 32.8260689,12.367627 32.6798888,13.2507292 L32.6798888,13.2507292 Z M32.3644965,14.3554792 C32.6607741,14.8041331 32.8997077,14.9922783 32.8423636,15.7400349 C32.7787056,16.8708027 32.3059633,17.9386063 31.513893,18.7407095 C30.8759956,19.5058335 29.9231988,19.929774 28.9334106,19.8888776 C28.7550808,20.0238607 28.5843746,20.1688145 28.4220928,20.3230588 C28.2500606,20.4629616 27.9442257,20.5835675 27.9920124,20.7186461 C29.4601267,20.6449648 30.8571977,20.0582963 31.9439735,19.059109 C32.4890535,18.4603999 32.8247622,17.6978531 32.8997077,16.888203 C32.9283797,16.6807608 33.0335105,16.5263853 33.0526252,16.3334159 C33.0829848,15.5580611 32.8940281,14.7900078 32.5078567,14.1190917 C32.4409553,14.1818067 32.4457339,14.3072369 32.3788325,14.3554792 L32.3644965,14.3554792 Z M34.1134902,14.9488602 C34.1045214,14.7244467 34.0369281,14.5064184 33.9175647,14.3168853 C33.7760945,14.2777004 33.6287781,14.264626 33.4827056,14.2782914 C33.535271,14.6545818 33.6929671,14.9199148 34.1134902,14.9488602 Z M29.9130382,19.0205152 C29.7696781,19.1748907 29.4972938,19.3051451 29.5211872,19.5029387 C30.4834942,19.1967963 31.3044955,18.5511997 31.834064,17.6842019 C32.1446776,17.2017783 32.7897983,15.3830414 32.182907,14.8813209 C31.7109592,16.401655 30.938806,17.8097065 29.9130382,19.0205152 L29.9130382,19.0205152 Z M30.7349696,20.8344278 C30.7349696,21.104585 30.5199294,21.1431789 30.5390441,21.4278088 C31.0338291,21.5696572 31.5625151,21.5286013 32.0299895,21.3120271 C32.0299895,20.9936276 31.9583095,20.8006581 31.9869815,20.4822586 C32.2020217,20.0287804 32.5413074,20.4002466 32.8089129,20.4436647 C33.168288,20.4553117 33.5228589,20.3578412 33.8267699,20.163859 C33.7694258,19.9757138 33.6547377,19.9033503 33.6690738,19.7296778 C33.7216391,19.2810239 34.232957,19.4595206 34.5722426,19.3726844 C34.3954318,18.8902608 34.7681681,18.6779944 35.1600192,18.6249278 L35.1600192,18.0315468 C34.290301,18.2727586 33.7742045,17.1921298 34.682152,17.0666997 C34.5101199,16.7483001 33.9844661,16.4829672 34.2520716,15.9619497 C34.0561461,15.9619497 33.9653514,16.0439617 33.8219912,15.9619497 C33.8028765,18.6152794 32.5078567,19.9660654 30.7349696,20.8344278 Z M1.81923025,17.5973656 C1.95303304,17.7420927 2.21585996,17.7517412 2.44523617,17.7951593 C2.34404334,17.3651144 2.21310522,16.9427621 2.05338514,16.5312095 C1.8752742,16.8564204 1.79396622,17.2266326 1.81923025,17.5973656 Z M2.48346554,19.2954966 C2.5452693,19.0906983 2.57588375,18.8776071 2.5742603,18.6635217 C2.36399876,18.6731702 2.258868,19.2279573 2.48346554,19.2954966 Z M3.05212742,20.3616527 C2.81191897,21.0034448 2.62802956,21.6653017 2.50258023,22.3395893 C3.80294861,22.350727 5.1011851,22.2311394 6.37808257,21.9825959 C4.78200639,21.3843907 3.89317355,20.0529016 2.89443127,18.8613154 C2.5742603,19.3292662 2.96133266,19.8937018 3.05212742,20.3616527 Z M27.8582096,21.5484147 C27.7949565,21.6599703 27.743693,21.7780303 27.7052921,21.9005839 C28.0589138,21.86199 28.8330585,21.7558568 28.8760665,22.2189834 C28.9047386,22.5229103 28.6036823,22.7592978 28.0971431,22.701407 C27.953783,23.2320729 27.9633403,24.0570172 27.4281292,24.2017443 C27.0071297,24.3537845 26.5396183,24.1682945 26.3338135,23.7675631 C25.5495764,24.3607432 24.679109,24.8277918 23.753331,25.1521187 C25.4307732,24.9735504 27.1221656,24.9735504 28.7996078,25.1521187 C28.7362872,24.0661296 28.9381239,22.98106 29.3873844,21.9922444 C29.4877365,21.7462083 29.741006,21.5435904 29.697998,21.2782575 C29.0864588,21.4180322 28.4648556,21.5083707 27.8390949,21.5484147 L27.8582096,21.5484147 Z M25.8272743,22.0308382 C25.1917111,22.6917585 24.4701317,23.8543993 23.2420132,24.0039506 C22.9744076,24.0377203 22.6972447,24.0039506 22.4200818,24.0039506 C21.7118979,24.1381163 20.9807288,24.0713162 20.3079091,23.8109812 C20.1072049,23.704848 20.0307462,23.4974059 19.8013699,23.4539878 C19.6293378,23.4877574 19.5337644,23.704848 19.4095189,23.8495751 C19.2852735,23.9943022 19.0367826,24.134205 19.132356,24.2451624 C19.9877381,24.3947137 20.948251,24.5297923 21.7940758,24.5973316 C22.1665707,24.6342063 22.5421514,24.6244842 22.9122849,24.5683862 C24.0367116,24.2971627 25.0733269,23.7390297 25.9228477,22.947443 C26.3433708,22.5132618 26.8164593,22.1417957 26.9407047,21.5291177 C26.9837128,21.5291177 26.9741554,21.4760511 26.9024753,21.4856996 C26.5958811,21.7660911 26.2161221,21.9519215 25.8081596,22.0211898 L25.8272743,22.0308382 Z M32.5938727,21.9102323 C32.2817317,22.1138361 31.9375263,22.2622931 31.5760158,22.3492378 C32.0538829,23.5359998 32.139899,25.1231733 32.2832591,26.652456 C32.4218406,26.5029047 32.4600699,26.2568687 32.5938727,26.1024932 C32.5938727,25.9288207 32.4696273,25.9384692 32.4791846,25.7840936 C32.5451917,25.3026405 32.5306536,24.8134156 32.4361766,24.3368229 C32.3119311,23.7675631 31.7193759,22.8895522 32.2402511,22.4408983 C32.4361766,22.4843164 32.4600699,22.6965828 32.4361766,22.9522673 C32.6747774,23.6752206 32.8584911,24.4154694 32.9857238,25.1665914 C33.2342147,24.2789321 33.6356231,22.190038 32.5747581,21.9005839 L32.5938727,21.9102323 Z M2.99478336,25.8516329 C3.09740468,26.471219 3.35204379,27.05501 3.7354774,27.5497639 C4.16397902,28.268579 4.64307929,28.9553883 5.16907875,29.6048883 C6.19649306,30.7868261 7.64443043,31.4332736 8.96334368,31.9349942 C8.72441012,31.7372005 9.07803179,31.298195 9.24050661,30.9074319 C9.38733362,30.5629854 9.50405876,30.2062426 9.58934961,29.8412759 C9.63235765,29.6290095 9.49377618,29.2527191 9.78527513,29.2527191 C10.0767741,29.2527191 10.0289874,29.6869003 9.98120065,30.0004756 C9.90494495,30.3804063 9.78797592,30.7508352 9.63235765,31.1052256 C9.51236195,31.4436511 9.32538361,31.753876 9.08281046,32.0170062 C10.3491583,32.3064603 11.3048926,32.9046655 12.7193792,33.0445684 C12.8149527,32.1183151 13.3214918,31.2210073 13.4266226,30.3188752 C13.4505159,30.0969603 13.2928198,29.619361 13.6607775,29.6048883 C13.9092684,29.7351427 13.842367,30.3044025 13.8184736,30.5166689 C13.7181215,31.3850313 13.216361,32.2582179 13.1112303,33.0831623 C14.9701334,33.4883981 16.7860284,32.9384352 18.4728994,32.8467747 C18.8695291,32.8467747 19.2613801,32.8805444 19.6484525,32.8467747 C20.7188748,32.75029 21.6889451,32.2533937 22.620786,32.0556 C24.0963881,31.7254207 25.5285988,31.221877 26.8881393,30.5552627 C27.1748596,30.4153599 27.4520225,30.2175662 27.7865295,30.0728392 C28.4139196,29.832075 28.995786,29.4845214 29.5068511,29.045277 C29.9178169,28.6834593 30.8257644,28.3409385 30.9404525,27.858515 C31.016957,27.3338925 31.016957,26.8007881 30.9404525,26.2761657 C30.8422787,25.2901181 30.6567612,24.3149375 30.3861266,23.3623273 C30.3192252,23.0776974 30.1758651,22.7110555 30.3431186,22.455371 C30.8209857,22.4119529 30.715855,22.9377946 30.7779777,23.2079518 C31.0360259,24.4333076 31.4613277,25.9722388 31.4039836,27.51117 C31.6333598,27.3664429 31.8101707,27.1590008 32.0299895,26.999801 C31.6715892,26.9515587 31.8101707,26.4739593 31.791056,26.1314386 C31.7091813,24.8524598 31.5140702,23.5834466 31.2080581,22.3395893 C30.8574814,22.2675782 30.5033598,22.2144366 30.1471931,22.1803895 C30.1806438,22.5663284 29.669326,22.8992007 29.7171127,23.3237334 C29.7171127,23.4925817 29.8748088,23.5987148 29.9560462,23.806157 C30.2809959,24.6214528 30.1615291,25.6634877 30.2284305,26.7296438 C30.2523239,27.1445281 30.4769214,28.1769145 30.0707343,28.1479691 C29.7792354,28.1479691 29.8939235,27.4436307 29.8748088,27.183122 C29.8174648,26.3195838 29.8365795,24.8578404 29.6024246,24.1776231 C29.552858,24.7317344 29.5785825,25.290086 29.6788833,25.8371602 C29.4399497,26.3195838 28.8473945,25.9432934 28.3504127,25.9191722 C28.4412075,26.5270259 28.3504127,27.2796067 28.3886421,27.9742966 C28.3886421,28.5290837 28.5750103,29.1948283 28.2691753,29.5518217 C27.8629883,29.4263916 28.0636924,28.8330106 28.0350204,28.4470717 C27.9388513,27.5803869 27.9260484,26.7063368 27.996791,25.8371602 C26.5100846,25.740351 25.0177286,25.7807204 23.5382908,25.9577661 C23.5048401,26.9226132 22.4439751,26.8550739 21.5025769,26.9226132 C21.1967419,27.5304669 19.9781808,27.6317759 19.3473962,27.2410128 C19.1658067,27.4581034 18.7357263,27.6703698 18.449006,27.4388065 C18.114499,27.92123 16.9007165,28.533908 16.4563001,27.7957999 C16.0118837,27.0576918 16.5996602,25.9674146 16.8863805,25.3836821 C16.5271138,25.4848984 16.1590674,25.5511323 15.7872861,25.5814757 C15.8780809,27.0769888 15.4623365,28.7075805 13.9905058,28.1479691 C13.7324575,28.514611 12.8484034,28.8957257 12.5569044,28.3071689 C12.0790373,29.0404527 10.9273775,28.7075805 10.4829611,28.1479691 C10.2201342,28.9101984 8.78653285,28.7027562 8.74352481,27.9067573 C8.48069789,27.9694724 8.3468951,28.3216416 7.92637203,28.2637508 C7.09488325,28.1479691 7.19523534,26.7006984 7.14266996,25.6972574 C6.71762981,25.8651762 6.25068936,25.8922094 5.80942069,25.7744451 C4.85368646,25.4222759 5.37456162,23.9171144 5.69473259,23.3623273 C4.91035746,23.1844456 4.10930475,23.0922549 3.30539699,23.0873459 C3.04044337,23.9829181 2.93526992,24.9189028 2.99478336,25.8516329 Z M20.4464906,23.4057454 C20.9912591,23.7193207 21.7319531,23.622836 22.5204339,23.560121 C22.7975968,23.560121 23.055645,23.5938906 23.2611279,23.560121 C23.7268785,23.4516219 24.1496888,23.2045915 24.4749104,22.8509583 C24.6756146,22.6724616 24.9766709,22.4505467 24.9527775,22.2961712 C23.4804545,22.7798905 21.9740853,23.1508008 20.4464906,23.4057454 L20.4464906,23.4057454 Z M9.93341393,23.8013327 C11.1810303,24.3880168 12.5165361,24.7613504 13.885375,24.9060827 C15.8541875,25.055634 17.5123864,24.5056712 18.5445794,23.5215271 C18.1527284,23.6614299 17.7847707,23.5215271 17.4072557,23.6035391 C17.1444288,23.6710784 16.9293886,23.9943022 16.704791,24.1149081 C16.4934076,24.244327 16.26918,24.3510422 16.035777,24.4333076 C15.0035841,24.727586 14.1864313,24.399538 13.1016729,24.235514 C12.867518,24.1969201 12.6715925,24.235514 12.475667,24.1920958 C12.1316027,24.0859626 12.0408079,23.7965085 11.6537356,23.642133 C10.9034842,23.3478546 9.9716433,23.4781089 9.14971186,23.2851395 C9.41635062,23.44121 9.67328554,23.6135962 9.91907792,23.8013327 L9.93341393,23.8013327 Z M8.05539616,23.4057454 C7.37682485,23.4057454 7.14266996,23.2658426 6.6217948,23.4829332 C6.37808257,23.8929932 5.94800216,24.3271744 6.07702628,24.9832705 C6.84639234,25.4319244 8.16530559,23.8158054 8.30388706,24.8240707 C8.34211643,25.0845794 8.09362553,25.2100096 7.99327343,25.5380576 C7.89222505,26.1267619 7.90520777,26.7296614 8.0315028,27.3133763 C8.37556713,27.0094495 8.2799937,26.3195838 8.77697551,26.2472202 C9.68014436,26.1169659 9.06847445,27.4918731 9.67536569,27.8295696 C10.1866835,27.6414244 9.93341393,26.6042137 10.5355265,26.6042137 C11.1376391,26.6042137 10.7983534,28.0080663 11.7110796,27.9453512 C12.0455866,27.6607213 12.0121359,26.9805041 12.4947817,26.9805041 C12.9774275,26.9805041 12.8722967,27.5015215 13.159017,27.7716787 C13.3740572,27.3664429 13.4314012,26.8647224 13.9809484,27.019098 C14.1816526,27.0769888 14.2724474,27.4581034 14.4874876,27.4532792 C15.0609281,27.4532792 14.903232,26.343705 14.9653547,25.6779604 C14.4568185,25.693257 13.9478315,25.6787599 13.4409586,25.6345423 C13.5460894,25.7406755 13.5317533,26.2279233 13.2068037,26.2279233 C12.9057474,26.0976689 13.0968943,25.6200696 13.3644999,25.5959484 C13.2305089,25.5926824 13.0980274,25.5665859 12.9726488,25.5187607 C12.9726488,26.425717 12.1889467,26.1796809 12.5807978,25.4367486 C12.3896509,25.4078032 12.2176188,25.3547366 12.0312506,25.320967 C11.9595705,25.6538393 11.9882425,26.0928447 11.6824076,26.1893294 C11.3048926,26.0880205 11.6011702,25.484991 11.6824076,25.2244823 C11.5196677,25.1672242 11.3481828,25.1394596 11.1758684,25.1424703 C11.1758684,25.6248938 11.108967,26.0735478 10.745788,26.2086264 C10.3778304,25.9336449 10.8509188,25.4126275 10.8222468,24.9832705 C10.6788866,24.9832705 10.6072066,24.8867858 10.4734038,24.8674888 C10.2822569,25.1907126 10.3157076,26.0735478 9.96208596,26.0494266 C9.48421884,26.0204812 10.1006674,25.0845794 10.0433234,24.7082891 C9.90474191,24.7082891 9.86651254,24.5925074 9.72793107,24.5876832 C9.51766954,24.8867858 9.58934961,25.4753425 9.14015452,25.5525303 C8.82476222,25.2148338 9.31696535,24.7854768 9.33608004,24.4043622 C8.9107783,24.052193 8.43291118,23.7723873 8.04106014,23.4057454 L8.05539616,23.4057454 Z M26.6922138,23.4829332 C26.6922138,23.7965085 27.0840648,23.8495751 27.3564491,23.7579146 C27.3564491,23.642133 27.2656544,23.6373087 27.2799904,23.5215271 C26.9454834,23.5745937 26.84991,23.4298666 26.6683205,23.4829332 L26.6922138,23.4829332 Z M12.4852244,23.7193207 C12.756676,23.7724313 13.0357041,23.7724313 13.3071558,23.7193207 C14.1195299,24.298229 16.007105,24.2885805 16.6522256,23.6035391 C15.3667631,23.7530904 13.7945803,23.6035391 12.461331,23.7193207 L12.4852244,23.7193207 Z M18.449006,24.9060827 C17.616161,25.4176927 17.111487,26.3340346 17.1205354,27.3182006 C17.9042375,27.347146 18.042819,26.0638993 18.840857,26.6090379 C18.9696902,26.3646814 19.232353,26.2235132 19.5050923,26.2520445 C19.7153539,26.2906384 19.8348206,26.589741 19.9829595,26.6476318 C20.6471948,26.9226132 20.8048909,26.3195838 21.1202832,26.1652082 C21.5981503,25.9432934 22.0330094,26.1652082 22.7259167,26.0060085 C22.7512963,25.781099 22.663381,25.5583095 22.4917618,25.4126275 C21.132182,25.3623749 19.7795037,25.1928886 18.449006,24.9060827 L18.449006,24.9060827 Z" id="Shape"></path>
                    <path d="M18.9966059,2.79264667 C18.8203349,3.05904875 18.7118605,2.79264667 18.5175105,2.72604615 C17.9860153,2.6997785 17.4541997,2.74708697 16.9265523,2.86757226 C16.7638407,2.86757226 16.0225988,3.27550045 16,2.65944563 C16,2.21821718 16.2395477,2.3097929 16.5559314,2.25151744 C16.8723151,2.19324199 17.1435012,2.17659186 17.5548,2.1183164 C17.9660989,2.06004095 19.0689221,1.65211276 18.9966059,2.79264667 Z" id="Path"></path>
                    <path d="M13.17,3.825 C13.0394993,3.63710677 13.063239,3.382543 13.2262317,3.22201989 C13.3892244,3.06149678 13.6441209,3.0416461 13.83,3.175 C13.9605007,3.36289323 13.936761,3.617457 13.7737683,3.77798011 C13.6107756,3.93850322 13.3558791,3.9583539 13.17,3.825 L13.17,3.825 Z" id="Path"></path>
                    <path d="M7.06078269,7 C6.8576506,6.76437588 7.21555,6.54978962 7.37515379,6.41514727 C8.38138463,5.57106872 9.58355471,4.92404916 10.9009465,4.51753156 C11.4320755,4.29254642 11.9900039,4.11899522 12.5646951,4 C12.796846,4 12.9951416,4 13,4.17251052 C13.0048146,4.34502104 12.2067957,4.49649369 12.0085,4.55119215 C11.1616542,4.78478146 10.3409234,5.08474943 9.55640552,5.44740533 C9.10889649,5.64050324 8.6844437,5.87164287 8.2892482,6.13744741 C7.85396514,6.45301543 7.65083305,6.94950912 7.06078269,7 Z" id="Path"></path>
                    <path d="M23.6760675,4.01272847 C23.9343281,4.31712352 24.0401814,4.64256966 23.986358,4.96671706 C23.8923306,4.96671706 23.8453169,4.96671706 23.8265114,4.99989927 C23.0084729,5.0123426 22.5383358,3.86755629 23.6760675,4.01272847 Z" id="Path"></path>
                    <path d="M24.3624893,4.00343962 C24.683896,4.54926118 24.6067583,5.30795316 24.780318,5.96839725 C24.87674,6.31772305 25.1917185,6.74346387 24.831743,7 C24.3110642,6.84171175 24.1889296,6.09939442 24.0989358,5.56994751 C23.9906196,5.091507 23.9710993,4.6016251 24.0410825,4.11806215 C24.1632171,4.06893821 24.1953578,3.98160676 24.3624893,4.00343962 Z" id="Path"></path>
                    <path d="M24.8373781,5.98522454 C24.1912661,6.10960031 24.1994447,5.42226051 24.1013012,4.91821133 C24.0440507,4.59090666 23.7986917,3.9624817 24.371196,4.00175826 C24.9437003,4.04103482 24.7392345,4.78074337 24.8373781,5.2389699 C24.9355217,5.69719643 25.1481661,5.76920346 24.8373781,5.98522454 Z" id="Path"></path>
                    <path d="M25.2522578,5.00193181 C25.6333071,5.0852632 25.5657016,5.51580874 25.6578909,5.83524575 C25.7500803,6.15468276 25.922167,6.45097217 25.9590428,6.71022539 C25.9959185,6.96947862 26.1126917,8.06204579 25.6578909,7.99723248 C25.3014255,7.94630774 25.4735122,7.21484328 25.4550744,7.01114432 C25.3936148,6.36764077 24.9879817,5.78432101 25.0002736,5.11766986 C25.1231927,5.10378129 25.0986089,4.98341372 25.2522578,5.00193181 Z" id="Path"></path>
                    <path d="M27,5.11105689 C27.5486557,4.67298667 27.8293633,5.63822613 27.8931605,6.14312062 C27.9314388,6.47724198 27.8931605,6.75196398 27.8931605,6.9338745 C27.8931605,7.20117158 28.2185261,7.97707561 27.7336675,7.99935037 C27.248809,8.02162513 27.4338208,7.4647562 27.4210614,7.30140798 C27.4008244,6.56515671 27.2598309,5.83171163 27,5.11105689 L27,5.11105689 Z" id="Path"></path>
                    <path d="M28.3215328,6.04093512 C28.6763035,6.09509965 28.5021433,6.40654571 28.5343952,6.59612157 C28.6182501,7.11519833 28.8956162,7.81030982 28.9536696,8.37000999 C28.9923718,8.71756573 29.1149289,9.97237739 28.6892042,9.99945965 C28.134472,10.0310556 28.4118381,8.66791491 28.3731358,8.29779061 C28.289281,7.54851459 27.8442051,6.83083454 28.0570675,6.08155851 C28.1602735,6.07253109 28.3215328,5.93260605 28.3215328,6.04093512 Z" id="Path"></path>
                    <path d="M3.7487941,6.00660522 C3.838776,5.98542922 3.93192788,6.01581078 4,6.08853624 C3.81809228,6.70301886 3.33300503,7.03074293 3.04281891,7.55817384 C2.74724931,8.08960817 2.50865413,8.66238914 2.33251258,9.26336312 C1.91087363,10.5647252 1.60178611,11.9132251 1.40998058,13.2882243 C1.37966263,13.5596208 1.49660331,13.918069 1.232404,14 C0.890244246,13.8873449 1.01584719,13.3906381 1.05482742,13.1192416 C1.19070647,12.1968185 1.38028341,11.2865859 1.62220625,10.3950353 C1.86265695,9.25734113 2.24510626,8.16833963 2.75696393,7.16388083 C3.05930408,6.74566142 3.39110343,6.3585152 3.7487941,6.00660522 L3.7487941,6.00660522 Z" id="Path"></path>
                    <path d="M14.0261583,7.50035451 C13.8865482,6.88448112 14.3155172,6.27458654 15.0801051,6.00188628 C15.1003604,5.99937124 15.1210467,5.99937124 15.141302,6.00188628 C16.2564457,5.96192712 16.2156477,7.73011964 15.4200879,7.96487966 C14.8081188,8.12971116 14.447737,7.67018091 14.0261583,7.50035451 Z M14.5837302,7.05081404 C14.726523,7.24561491 14.8421171,7.46039535 15.141302,7.55030345 C15.4200879,7.39046684 15.4064886,6.84102849 15.3044938,6.55132463 C14.9645109,6.46641143 14.7741206,6.85601317 14.5837302,7.05081404 Z" id="Shape"></path>
                    <path d="M29.5552673,7.00216857 C29.9071722,7.21197767 29.7355112,7.77309502 29.7698434,8.15855825 C29.8213417,8.80262338 29.9758365,9.92485809 29.9758365,10.8372837 C29.9758365,11.3252118 30.1646635,12.0766212 29.4866029,11.9936734 C29.0059523,11.935122 29.314942,10.4225448 29.2720267,9.95901306 C29.1947793,8.87093332 28.8600405,8.0658519 29.0660336,7.11927132 C29.0231184,6.96313432 29.3321081,7.00704785 29.5552673,7.00216857 Z" id="Path"></path>
                    <path d="M22.4518997,7.00866071 C23.9243452,7.91022977 22.0820762,9.91289546 21,8.52359232 C21.0616373,8.21321609 21.0547887,7.82155084 21.1095773,7.49639479 C21.4721918,7.134895 21.9604973,6.95746871 22.4518997,7.00866071 L22.4518997,7.00866071 Z M21.5889782,8.27972528 C21.849718,8.39702674 22.1489761,8.35170575 22.3697167,8.16148672 C22.3697167,7.92500959 22.2532908,7.85111048 22.2053507,7.67375264 C21.7601928,7.59985353 21.6643126,7.91022977 21.5889782,8.27972528 Z" id="Shape"></path>
                    <path d="M29.1393185,14 C28.8500709,13.7889516 29.0936478,13.39774 29.1393185,13.1146263 C29.3306244,12.0235575 29.4560296,10.9216505 29.5148328,9.81506498 C29.4952022,9.25195143 29.5087584,8.6881511 29.555429,8.12667791 C29.5770225,8.06808857 29.6237006,8.02263297 29.6822919,8.0031374 C30.103477,7.93107209 29.9918376,9.12014957 29.9715395,9.54739386 C29.9410924,10.2526043 29.8345275,11.1482731 29.7228881,11.9512864 C29.6112487,12.7542998 29.692441,13.7735091 29.1393185,14 Z" id="Path"></path>
                    <path d="M33.3946866,8.00031345 C33.6471313,8.24203381 33.4591406,8.59362704 33.5289657,8.90127113 C33.6149043,9.29681352 34.2111034,9.57698938 33.9210606,10 C33.5665638,10 33.1207573,9.39020548 33.045561,9.00565037 C32.9703647,8.62109527 32.9327666,7.98383252 33.3946866,8.00031345 Z" id="Path"></path>
                    <path d="M5.99405141,8.3176232 C5.99706511,8.52254259 5.90471385,8.71723483 5.74410975,8.84454296 C5.58350565,8.97185109 5.37287408,9.01732816 5.17405141,8.9676232 C4.58405141,8.3876232 5.71405141,7.5576232 5.99405141,8.3176232 Z" id="Path"></path>
                    <path d="M18.9080917,8.0443711 C20.6252234,7.55469957 22.360242,11.2859967 19.3969973,10.9824003 C19.1406199,10.7179777 18.3416767,10.6004565 18.1270352,10.1009915 C17.8169975,9.35669081 18.0733749,8.07864811 18.9080917,8.0443711 Z M19.2240916,8.79356855 C18.937903,8.92577986 19.1346577,9.44483169 19.075035,9.77291161 C19.3850727,9.90512293 19.5102803,10.1891324 20.0051481,10.1744423 C20.0782217,9.63060964 19.7772393,9.09848599 19.2240916,8.79356855 Z" id="Shape"></path>
                    <path d="M7.90087602,8.01892687 C9.41447823,7.75741859 9.41447823,10.2977847 7.59058756,9.97089934 C6.61431413,9.77009834 6.93973861,8.16836017 7.90087602,8.01892687 Z M7.84033193,9.55061818 C8.3700927,9.443213 8.54415696,8.65401839 8.09007629,8.4018497 C7.59058756,8.64467881 7.66626767,9.07429954 7.84033193,9.53193902 L7.84033193,9.55061818 Z" id="Shape"></path>
                    <path d="M1.14861334,11 C0.867150855,10.7511312 1.04746276,10.2850679 1.18379615,9.9638009 C1.35089839,9.62744313 1.54353574,9.30517602 1.75991468,9 C2.31404395,9.05882353 1.75991468,9.70135747 1.57960278,10.0769231 C1.39929087,10.4524887 1.44766723,10.9230769 1.14861334,11 Z" id="Path"></path>
                    <path d="M4.99710874,9.04233833 C5.04179878,9.46723984 4.55659264,9.80625701 4.3586796,10.2628001 C4.17324484,10.7482843 4.03459942,11.2421259 3.94370066,11.740915 C3.84793629,12.2652615 3.69471329,12.7986485 3.63087038,13.2958737 C3.56702746,13.7930989 3.87985774,14.6519424 3.36911443,15 C2.87752399,14.8463122 2.99882553,13.8925439 3.05628415,13.4088794 C3.11374277,12.9252149 3.31165581,12.314984 3.42018876,11.740915 C3.54460158,10.7917436 3.93528777,9.86969348 4.56936122,9.02877764 C4.70720249,8.98610158 4.86520604,8.99111069 4.99710874,9.04233833 L4.99710874,9.04233833 Z" id="Path"></path>
                    <path d="M29.0001328,13.9982634 C28.995299,13.596591 29.1225223,13.1988367 29.3733794,12.8313354 C29.7009223,12.0632309 29.8761197,11.147414 30.1351072,10.2069783 C30.2112799,9.93617224 30.2112799,9.02035533 30.6378475,9.00066034 C31.3157852,8.97111786 30.8511313,9.94109599 30.7597239,10.251292 C30.4778847,11.2606601 30.4017119,12.1321633 29.9979962,13.033209 C29.8380333,13.3975663 29.8227988,14.0376534 29.0001328,13.9982634 Z" id="Path"></path>
                    <path d="M24.3743543,9.01463649 C24.6212396,9.37178797 25.0437933,9.74351706 24.9963153,10.3266215 C24.9250984,11.172123 23.6669331,11.0190581 23.1304324,10.9243036 C22.6793919,9.73622825 23.4722735,8.87614918 24.3743543,9.01463649 Z M23.4770213,10.384932 C23.825014,10.3149685 24.1753557,10.2760295 24.5262838,10.2683111 C24.5167882,9.2843223 23.3630743,9.57587453 23.4770213,10.384932 Z" id="Shape"></path>
                    <path d="M10.9400973,11.0345173 C13.1421825,10.6002101 14.1408025,14.4162573 11.0425199,13.9624308 C9.89026606,13.6062013 9.47417439,11.3663475 10.9400973,11.0345173 Z M11.4586116,13.1523747 L11.8298934,13.1523747 C12.1213886,12.6535455 11.8371685,12.0685535 11.1897524,11.8348136 C10.8056677,12.3423186 11.3881961,12.7327071 11.4586116,13.1523747 Z" id="Shape"></path>
                    <path d="M15.9300013,11.1037083 C16.1427666,11.9230949 15.8382202,12.8866935 15.4502365,12.9850199 C14.5282536,13.2275583 15.1915806,10.4350888 15.9300013,11.1037083 Z M15.3834866,12.3426208 C15.5211582,12.2967352 15.7214079,11.8182134 15.5879081,11.6871115 C15.5378457,11.9427602 15.3876584,12.0279764 15.3834866,12.3426208 L15.3834866,12.3426208 Z" id="Shape"></path>
                    <path d="M28.5673001,12.0067575 C29.0724303,12.3732914 29.1579139,12.9841812 29.3988222,13.5266513 C29.6397304,14.0691215 30.2303442,14.5773818 29.9039524,14.9927869 C29.3133386,15.0612065 29.3366523,14.626253 29.2045413,14.3916713 C28.8392933,13.7172489 28.4274179,12.7935836 28,12.109387 C28.0621699,12.0067575 28.2797644,11.987209 28.5673001,12.0067575 Z" id="Path"></path>
                    <path d="M20.0381401,14.4924913 C19.5635391,12.6748971 23.6899316,12.4124107 22.8989298,14.2894358 C22.5693458,15.0719424 20.6577582,15.3047133 20.0381401,14.4924913 Z M21.2773762,13.962566 C21.2986668,14.0471533 21.3364249,14.128923 21.3894348,14.2052421 C21.6399187,14.1408587 21.923361,14.0962855 21.8706275,13.7991311 C21.5674102,13.7743683 21.4289849,13.8882774 21.2773762,13.962566 Z" id="Shape"></path>
                    <path d="M28.764601,17 C28.3447281,16.834214 28.4298375,16.35867 28.3447281,16.0358237 C28.2683435,15.6729035 28.1602944,15.3143453 28.0213125,14.9625776 C27.7262667,14.2994337 27.1815667,13.7104572 27,13.0691273 C27.4425687,12.7724577 27.7205927,13.5054062 27.9305292,13.8544293 C28.3451557,14.514384 28.6556455,15.2100992 28.8553844,15.926754 C28.9518416,16.2932282 29.1674521,16.7993117 28.764601,17 Z" id="Path"></path>
                    <path d="M26.0407337,14.0688424 C26.1214199,14.0688424 26.251759,13.9402601 26.2952053,14.0345538 C26.5566272,14.2363589 26.7477035,14.4768022 26.8538015,14.7374703 C27.2779102,15.5837137 27.6017206,16.4523606 27.8220349,17.3348325 C27.8903077,17.5405641 28.2130522,17.9605996 27.7723819,17.9991743 C27.3317116,18.037749 27.1517195,16.7133514 27.0586201,16.4218982 C26.8980546,15.8795244 26.6589315,15.3496725 26.3448583,14.8403361 C26.2145192,14.6303184 25.8855681,14.3902981 26.0407337,14.0688424 Z" id="Path"></path>
                    <path d="M25,14.147748 C25.4207859,13.6344049 25.8560816,14.6006978 26.0084351,14.8897229 C26.3567034,15.5867828 26.6352959,16.2954859 26.8427519,17.0121162 C26.9660857,17.3701622 27.1982435,18.0042919 26.6613787,18 C26.2623576,18 26.3639266,17.7023254 26.3058872,17.4348693 C26.0882393,16.434066 25.3409817,15.0709028 25,14.147748 Z" id="Path"></path>
                    <path d="M6.27757426,15.9248816 C5.30415782,15.0070596 7.15364906,13.5522807 7.79332273,14.1329435 C8.25685436,14.5512705 7.86285247,15.8062515 7.37614425,15.9748311 C7.00985564,16.0206469 6.64073544,16.0038639 6.27757426,15.9248816 L6.27757426,15.9248816 Z M6.46762224,15.2068576 C6.72256464,15.756302 7.7284283,15.4690924 7.56619222,14.6449258 C7.14968195,14.5223563 6.71874416,14.7427861 6.46762224,15.2068576 Z" id="Shape"></path>
                    <path d="M25.2428458,15 C25.5453379,15.509434 25.5666401,16.2358491 25.6987142,16.9339623 C25.8228076,17.6346361 25.9039415,18.3438027 25.9415599,19.0566038 C25.9415599,19.3537736 26.1418012,20 25.800965,20 C25.4601288,20 25.5836819,18.6226415 25.5581192,18.259434 C25.478225,17.5575627 25.3615762,16.8614218 25.2087622,16.1745283 C25.1119298,15.8344256 25.0420776,15.4856193 25,15.1320755 C25.0190507,15.0780089 25.0576775,15.035243 25.1065113,15.0141509 L25.2428458,15 Z" id="Path"></path>
                    <path d="M15.5246176,14.0410227 C16.5176227,13.815786 17.2651046,14.5434737 16.9104599,15.6003533 C16.692217,16.2471867 15.3663916,17.2809652 14.6298218,16.928672 C14.1933184,16.6321416 13.952531,16.1000331 14.0078296,15.5541509 C14.0678464,15.3000378 14.2315286,15.3635661 14.4061229,15.1325541 C14.5807172,14.9015422 14.5752611,14.6243278 14.7225751,14.4683948 C14.9515346,14.2565258 15.2274627,14.1094963 15.5246176,14.0410227 Z M15.0772197,16.0277254 C15.4973373,15.7967135 15.933823,15.5772521 16.0593127,15.034374 C15.4536887,14.762935 15.1536047,15.479072 15.0663076,16.0277254 L15.0772197,16.0277254 Z" id="Shape"></path>
                    <path d="M24.7700283,20 C24.3307173,19.7382715 24.5479047,19.1053642 24.5281604,18.6723225 C24.4689275,17.4255429 24.0937855,15.9931739 24,15.0890208 C24.4936079,14.6131507 24.626882,16.1740046 24.7256036,16.7260138 C24.8431119,17.3973276 24.9254842,18.0739197 24.9724075,18.7532204 C24.9970879,19.2100557 25.0760651,19.8334455 24.7700283,20 Z" id="Path"></path>
                    <path d="M24.7925927,20 C24.4515376,19.8198187 24.4995736,19.1141087 24.4803592,18.7287209 C24.4613036,17.5248123 24.2999687,16.3279353 24,15.1651353 C24.4515376,14.5345008 24.6148598,15.8708454 24.706128,16.4764547 C24.8310214,17.3373209 24.8406286,18.0280159 24.9030753,18.8938871 C24.9367004,19.2642597 25.1576656,19.8798791 24.7925927,20 Z" id="Path"></path>
                    <path d="M12.0580575,15.0200373 C12.5861398,14.9105805 13.0642684,15.252633 12.9929059,15.9709431 C12.9001347,16.8192332 10.9305304,17.6743643 11.0018929,16.1966977 C11.1010003,15.6479326 11.5067995,15.1958366 12.0580575,15.0200373 Z M11.8225613,16.3882471 C12.0794662,16.1966977 12.5361861,16.0325126 12.2864174,15.5536391 C12.0788894,15.5662198 11.8925476,15.6798303 11.7926697,15.8546713 C11.6927919,16.0295124 11.6933001,16.2412128 11.7940163,16.4156113 L11.8225613,16.3882471 Z" id="Shape"></path>
                    <path d="M36.4644665,16.0054495 C37.0121865,16.6308381 37.1743116,18.3529224 36.7887167,19.3453868 C36.6616457,19.6716765 36.3505408,20.2245562 36,19.9027983 C36.0569629,19.5946358 36.3417773,19.476809 36.4644665,19.1233285 C36.6050021,18.6421534 36.6541055,18.1373831 36.6090646,17.6368979 C36.5561968,17.1104803 36.3980239,16.6011935 36.1445981,16.1414036 C36.1796521,16.0099813 36.3023414,15.9873223 36.4644665,16.0054495 Z" id="Path"></path>
                    <path d="M22.0718018,16.1182343 C22.0996774,16.0652592 22.1646719,16.0230554 22.2484457,16.0035316 C22.8666993,15.9484744 22.6238139,16.5495164 22.6753351,16.9440936 C22.7268562,17.3386709 22.9108603,17.6185454 22.9771017,18.1094729 C23.0286229,18.5224025 22.9771017,19.2840283 22.9771017,19.6877818 C22.9771017,20.2016498 23.124305,21.0045685 22.6090936,21 C22.0938823,20.9953923 22.3441278,20.4585838 22.3735684,20.2521189 C22.4325266,19.6638854 22.4325266,19.0739312 22.3735684,18.4856977 C22.2999668,17.6047811 21.8215562,16.8569196 22.0718018,16.1182343 Z" id="Path"></path>
                    <path d="M23,16.1698806 C23.4764301,15.5869863 23.6438245,16.6597077 23.7403982,17.0515694 C23.9472565,17.9437461 24.0292655,18.8500885 23.9850515,19.755415 C23.9850515,20.2452421 24.0945016,20.9750845 23.7210834,20.9995759 C23.3476652,21.0240672 23.4056094,19.9807355 23.4056094,19.7162288 C23.4275441,18.526742 23.2916526,17.338607 23,16.1698806 L23,16.1698806 Z" id="Path"></path>
                    <path d="M21.3062757,16.0035586 C21.6499548,16.3911148 21.6312087,17.1503004 21.7186906,17.8298511 C21.8061725,18.5094018 21.924898,19.2473514 21.968639,19.7410874 C22.0061313,20.1498796 22.0748671,20.9780821 21.7186906,20.999318 C21.2125451,21.031172 21.4250012,19.93752 21.4062551,19.7410874 C21.3187731,18.6368175 20.9938402,17.1343734 21.0000889,16.0885024 C21.106317,16.0619574 21.1438092,15.9823226 21.3062757,16.0035586 Z" id="Path"></path>
                    <path d="M19.4371445,17.0413889 C19.91141,17.229191 19.7166224,17.7164613 19.7843746,18.0819141 C19.9406566,18.9788325 20.0085267,19.880495 19.9876313,20.7822039 C19.9876313,21.2288684 20.1316048,22.1018944 19.4371445,21.9902283 C18.9713479,21.9140923 19.2084807,21.5181852 19.2254187,21.2440956 C19.2254187,20.7009922 19.2847019,19.9041021 19.2254187,19.0818334 C19.1661355,18.2595647 18.7934983,17.4931291 19.1576665,17.0870704 C19.2113812,17.0479682 19.2815536,17.0181783 19.3609232,17.000783 C19.4286754,16.9957073 19.4286754,17.0160102 19.4371445,17.0413889 Z" id="Path"></path>
                    <path d="M7.6992805,18 C8.44531425,18.4623377 7.58875698,19.5064935 7.42297171,19.9584416 C7.35389451,19.9584416 7.31935591,19.9584416 7.30554047,20 C6.46970636,19.6103896 7.63711102,18.8675325 7.42297171,18.1298701 C7.50051362,18.1065426 7.56092708,18.059217 7.58875698,18 L7.6992805,18 Z" id="Path"></path>
                    <path d="M18.4537044,23 C17.6143995,22.8519563 18.1817074,22.3708142 18.2594208,21.9425449 C18.4614757,20.8057807 18.057366,19.1720126 18.3293629,18.1304193 C18.3587722,18.0705315 18.4278507,18.0235335 18.5158751,18.0035247 C19.1997532,17.9242156 18.9588416,19.2037363 18.9588416,19.7800493 C18.9588416,20.4568205 19.0210123,21.2816355 18.9588416,21.7680648 C18.8966709,22.2544942 18.7878721,22.7990835 18.4537044,23 Z" id="Path"></path>
                    <path d="M19.8053471,18.03289 C19.9801893,19.0174836 20.0373672,20.0090808 19.9763896,20.9991652 C19.933629,21.3976876 19.8694881,21.9909427 19.1639378,22 C18.786219,21.7554521 19.1639378,21.6377068 19.2779662,21.406745 C19.6343046,20.4693114 19.1425575,19.0563681 19.3349803,18.0691193 C19.4133748,17.9694887 19.6485582,17.9966607 19.8053471,18.03289 Z" id="Path"></path>
                    <path d="M37,18.9226556 C37.1904762,18.6153609 37.3129252,17.6934768 38,18.1032031 C37.8027211,18.4309841 37.7210884,19.2545339 37,18.9226556 Z" id="Path"></path>
                    <path d="M7,18.1581626 C6.87929979,18.4654843 6.67341233,18.7518895 6.39483041,19 L6.08850999,19 C5.74483343,18.6006669 6.47701393,17.6185233 7,18.1581626 Z" id="Path"></path>
                    <path d="M8.99684791,18.0708229 C9.01915405,18.6195985 8.92276856,19.1658911 8.71732485,19.6551005 C8.62093759,20.0130298 8.49081479,21.0398764 8.16791747,20.9988025 C7.76791034,20.951861 8.19683365,20.0071621 8.28358218,19.702042 C8.43121768,19.1921544 8.55036705,18.6706961 8.64021504,18.1412353 C8.64021504,18.0766906 8.70768613,18.0649552 8.71732485,18.0004106 C8.84744765,17.9945429 8.90046065,18.0532198 8.99684791,18.0708229 Z" id="Path"></path>
                    <path d="M8.81757866,18 C9.06213713,18.2171946 8.99855193,18.7239819 8.97409608,19.0361991 C8.93404474,19.4169015 8.84031688,19.7911189 8.69529943,20.1493213 C8.56323786,20.4841629 8.46541447,20.9411765 8.13281495,21 C7.82467129,20.760181 8.13281495,20.39819 8.25509419,20.0950226 C8.49011319,19.437402 8.59774147,18.7465507 8.57302019,18.0542986 C8.66106124,18.0723982 8.69040826,18 8.81757866,18 Z" id="Path"></path>
                    <path d="M9.95056473,18 C10.1112723,18.4438481 9.83930566,19.0677478 9.71568448,19.6120898 C9.65387389,19.8633246 9.596184,20.1815553 9.51376988,20.4495391 C9.43135576,20.7175228 9.34482093,21.027379 9.07285432,20.9980683 C8.90390537,20.8138295 9.07285432,20.5584075 9.13878562,20.3490451 C9.35306234,19.6958347 9.50140776,18.8123258 9.71568448,18.1172429 C9.71568448,18.0753704 9.77337437,18.0669959 9.78161578,18.016749 L9.95056473,18 Z" id="Path"></path>
                    <path d="M13.4013623,19.0188835 C13.7249502,18.9595822 13.838206,19.0505109 14,19.1453929 C13.8130181,19.9284107 13.4578088,20.6996274 12.9402495,21.4462821 C12.8269937,21.6123256 12.6490203,22.0472016 12.2040869,21.9958071 C11.7591535,21.9444127 12.1636384,21.4897697 12.2768942,21.3158193 C12.7541169,20.5630177 13.1297465,19.7957241 13.4013623,19.0188835 L13.4013623,19.0188835 Z" id="Path"></path>
                    <path d="M16.83373,18 C17.0005756,18.9580236 17.0419514,19.9234357 16.9574167,20.8859557 C16.9064869,21.2290742 16.8046272,22.0093163 16.3608103,21.9999158 C15.7642039,21.9999158 16.0261287,21.2055729 16.3026048,20.9987618 C16.4117401,20.1010134 16.3389832,19.0716578 16.3608103,18.1128061 C16.3862036,18.0587254 16.4517135,18.0164047 16.5354268,18 L16.83373,18 Z" id="Path"></path>
                    <path d="M11.9740931,19.0264156 C12.1068765,19.4727526 11.7007155,19.9430006 11.4039055,20.6204766 C11.2867437,20.8755263 10.7634209,22.1149088 10.1854226,21.9913691 C9.60742424,21.8678293 10.5525296,20.9074076 10.6931238,20.5885954 C10.8853067,20.065927 11.1649142,19.5526216 11.5288781,19.0543116 C11.6147968,18.9746086 11.8100665,18.9985195 11.9740931,19.0264156 Z" id="Path"></path>
                    <path d="M15,19.0354507 C14.9446406,19.8289738 14.8032974,20.6172171 14.5775431,21.3914086 C14.5071336,21.6079626 14.4789698,21.8954567 14.2301897,22 C13.8124267,21.9253262 14.0752888,21.6004952 14.1550862,21.3914086 C14.3850905,20.7566815 14.450806,19.7672538 14.6526466,19.0989234 C14.6736357,19.0561274 14.7161929,19.0222764 14.7699957,19.0055812 C14.8873448,18.983179 14.9108147,19.0354507 15,19.0354507 Z" id="Path"></path>
                    <path d="M15.8837217,19 C16.1535604,19.6131105 15.8837217,20.3457584 15.7757862,20.9897172 C15.7083265,21.3753213 15.7757862,21.8766067 15.2226169,22 C15.1717159,21.9585984 15.088525,21.9341017 15,21.9344473 C15.1484113,21.1169666 15.3912661,20.0796915 15.4452338,19.096401 C15.4707833,19.0518785 15.5303541,19.0164086 15.607137,19 L15.8837217,19 Z" id="Path"></path>
                    <path d="M13,19.0409226 C12.9700689,19.8702556 12.7978846,20.6889655 12.4905133,21.4634527 C12.4240585,21.6825113 12.3664643,22.0604947 12.0208994,21.9917705 C11.9190021,21.5364723 12.2158335,21.0811741 12.348743,20.6215806 C12.500756,20.1274504 12.6089538,19.6216337 12.6721564,19.1096469 C12.694308,18.9936747 12.9202542,18.9679031 13,19.0409226 Z" id="Path"></path>
                    <path d="M13.8500109,19.0024774 C14.1271287,19.2943511 13.9638271,19.9714981 13.8104227,20.594162 C13.7164006,20.9833269 13.5283564,21.9756975 13.2413416,21.9990474 C12.9543267,22.0223973 12.9345326,21.6098824 13.1225768,21.4892413 C13.3520891,20.6900473 13.5173674,19.8802785 13.6174299,19.0647438 C13.6916579,19.0491772 13.7262976,18.9869108 13.8500109,19.0024774 Z" id="Path"></path>
                    <path d="M1.36857471,24.0011987 C1.38404172,25.0035726 1.58041723,25.9987217 1.95146356,26.9550358 C2.14392686,27.3604645 2.5013587,27.6589669 2.72131675,28.0510297 C2.936829,28.3349597 3.03148069,28.6683132 2.99076537,29 C2.44087023,29 2.44087023,28.5321977 2.27040274,28.2336953 C1.79199397,27.4584802 1.17061246,26.6298019 1.01114287,25.6050922 C0.983463862,25.0949805 1.00737249,24.583889 1.08262924,24.0769381 C1.08262924,24.0011987 1.22560198,23.9967435 1.36857471,24.0011987 Z" id="Path"></path>
                    <path d="M36,26.0475766 C35.9590444,27.1691718 35.3242321,27.9345523 34.6587031,28.7240013 C33.9171373,29.5672819 33.0558371,30.3107354 32.0989761,30.9334958 C31.7942073,31.1900843 31.4709085,31.4265218 31.1313993,31.6411117 C30.8139932,31.8095917 30.3737201,32.156179 30,31.9203071 C30,31.6170431 30.3634812,31.5400237 30.5477816,31.4389357 C31.1687587,31.0950009 31.7563485,30.7003593 32.3037543,30.2595759 C33.0349212,29.7448289 33.6967789,29.1483612 34.274744,28.4833156 C34.9076844,27.7952281 35.3802929,26.99009 35.662116,26.1197823 C35.6262799,25.956116 35.9283276,25.989812 36,26.0475766 Z" id="Path"></path>
                    <path d="M0.415586845,25 C0.567431527,25.6436043 0.762696745,26.2758416 1,26.8922356 C0.948300251,26.906725 0.906985433,26.9462064 0.889610848,26.9977261 C0.194808542,27.0636577 -0.246748065,25.679095 0.149354185,25.0197795 L0.415586845,25 Z" id="Path"></path>
                    <path d="M26.4605178,26.0047651 C26.7420689,26.7784678 26.9174669,27.5671664 26.9846097,28.361408 C26.9846097,28.7983399 27.1404208,30.0626532 26.4605178,29.9975783 C25.9151789,29.946448 26.3967769,29.3328841 26.4038592,29.0679361 C26.4463531,28.2452028 26.0214137,26.9018698 26.0001668,26.134915 C25.9930844,26.0001169 26.2126365,25.9908204 26.4605178,26.0047651 Z" id="Path"></path>
                    <path d="M29.406329,26 C29.7559684,26.4623849 29.9100645,26.9799722 29.8519442,27.496759 C29.8910333,27.9573002 30.2584705,28.9621174 29.6643168,28.9987514 C29.070163,29.0353853 29.3046974,28.2556053 29.2734261,28.0148679 C29.2030658,27.2664884 28.780904,26.3506393 29.1483411,26 L29.406329,26 Z" id="Path"></path>
                    <path d="M26.0829114,28.0967769 C26.1213613,28.0538694 26.2044771,28.0205803 26.3088059,28.0063029 C26.8599883,27.9384474 26.9322745,28.4360544 26.9684176,28.6546999 C27.0316681,28.9374312 26.9684176,29.4651963 26.9684176,29.9175663 C26.9684176,30.2945414 27.1762405,31.0221032 26.5256645,30.9994847 C25.8750885,30.9768662 26.1551976,30.2116069 26.1551976,29.8685596 C26.1551976,29.3973408 26.2094123,28.9035035 26.1551976,28.6358512 C26.1190545,28.4624427 25.8750885,28.2551064 26.0829114,28.0967769 Z" id="Path"></path>
                    <path d="M24.4515175,28.010329 C25.3783164,28.4040967 24.8713495,29.7787037 24.7762932,30.4409492 C24.7762932,30.7130069 24.8475854,30.9814848 24.4515175,30.9993833 C24.0554495,31.0172819 24.0316854,30.6414127 24.0633709,30.4123116 C24.1901126,29.6963704 24.5465738,28.7012122 24,28.1248796 C24,28.010329 24.1901126,27.9816914 24.4515175,28.010329 Z" id="Path"></path>
                    <path d="M24.0849787,27.1141545 C24.1230776,27.0618164 24.2003259,27.0204178 24.2979869,27 C24.9455319,27 24.8603286,27.8036478 24.9284913,28.1598099 C24.9966539,28.5844647 25.1841011,31.0091066 24.4343122,31 C23.6845233,30.9908419 24.1275803,30.2465545 24.1531413,30.0867381 C24.3065073,29.2008991 23.9912551,27.8036478 24.0849787,27.1141545 Z" id="Path"></path>
                    <path d="M36,28.1660892 C35.9116883,28.8305135 35.3558442,29.217268 34.8935065,29.623856 C34.6597403,29.8321084 34.2441558,30.194071 34,29.8717756 C34.2961039,29.2668519 35.1168831,29.0585995 35.4493506,28.4883846 C35.5168831,28.3743416 35.5168831,28.1561724 35.6207792,28.0817965 C35.6207792,28.037171 35.7038961,28.0570046 35.7038961,28.0024623 C35.8753247,27.9826287 35.9272727,28.0867549 36,28.1660892 Z" id="Path"></path>
                    <path d="M22.3985787,32 C21.6266128,31.8221442 22.2035557,31.3615433 22.2604374,30.9191839 C22.3904527,30.0071029 22.0897924,28.8305183 22.1954298,28.119095 C22.2317652,28.0668231 22.305438,28.0254769 22.3985787,28.0050849 C22.9592697,27.9366788 22.902388,28.5751356 22.9267659,28.917166 C23.0244114,29.7249495 23.0244114,30.5355181 22.9267659,31.3433016 C22.8861361,31.5713219 22.7642467,31.9133523 22.3985787,32 Z" id="Path"></path>
                    <path d="M21.1825121,30.511324 C21.2381289,29.7164914 21.1907208,28.920888 21.0405253,28.1285001 C21.1658078,28.1023972 21.1574556,28.0166304 21.3161468,28.0054434 C21.7922204,27.9495086 21.8840942,28.3373235 21.9342072,28.5871657 C22.0219309,29.237907 22.0219309,29.8904146 21.9342072,30.5411559 C21.8840942,30.7798112 21.7588117,31.0072795 21.3829642,30.9998215 C21.0071166,30.9923635 20.8484254,30.6604835 21.1825121,30.511324 Z" id="Path"></path>
                    <path d="M7,28.2693448 C6.72035732,28.8672832 6.74467408,30.1053675 6.00301306,29.9928143 C5.96045874,29.2893574 6.37992275,28.6632807 6.55014004,28.037204 C6.79330758,27.9246509 6.87841623,28.086446 7,28.2693448 Z" id="Path"></path>
                    <path d="M20.7648222,29.0084959 C21.1125915,29.2466426 20.9718277,29.7191559 20.9718277,30.1425278 C20.9718277,30.5658997 21.0132289,31.0497533 20.9718277,31.3483817 C20.9718277,31.5751881 20.8559046,32.0288008 20.3590912,31.99856 C19.6635525,31.9569788 20.1852065,31.5147064 20.2266077,31.4088634 C20.4418935,30.7738055 20.0361625,29.722936 20.2928494,29.0878781 C20.3176901,29.0198362 20.4832946,28.9820352 20.7648222,29.0084959 Z" id="Path"></path>
                    <path d="M7.97059279,29.0475027 C8.04706454,29.415774 7.97322742,29.7965221 7.762671,30.119671 C7.64925911,30.3976406 7.53584723,30.9819439 7.24601685,30.9989625 C6.51514025,31.0500181 7.64925911,29.2006696 7.61145515,29.00212 C7.74376902,29.00212 7.90128553,28.9851014 7.97059279,29.0475027 Z" id="Path"></path>
                    <path d="M19.8999433,29.0015111 C20.0483832,29.7167944 20.0315892,30.4407288 19.8500253,31.1533243 C19.7813879,31.4823817 19.7377096,31.9630273 19.1823708,32 C18.7830262,31.8040445 19.151172,31.6302726 19.2385287,31.3936471 C19.4943589,30.7318351 19.3695637,29.7668467 19.544277,29.0939429 C19.5130782,28.9719329 19.7439493,29.0052083 19.8999433,29.0015111 Z" id="Path"></path>
                    <path d="M16,29.0747864 C15.7380932,30.1862657 15.359006,31.2843386 14.865498,32.3610117 C14.7686502,32.6074786 14.6925556,32.9680506 14.2429054,33 C13.730996,32.8083035 14.1668108,32.4386032 14.298247,32.2149573 C14.7039398,31.4364094 15.0071353,30.6362322 15.204465,29.8233155 C15.3082305,29.4125374 15.2805597,28.7826775 16,29.0747864 Z" id="Path"></path>
                    <path d="M18.3328626,32 C17.8093111,31.9220107 18.039163,31.5156456 18.1221651,31.2611543 C18.3863696,30.5352381 18.4576077,29.7858141 18.3328626,29.0446171 C19.0734965,28.7860211 19.0288031,29.7095782 18.9713401,30.3211783 C18.9180494,30.6266192 18.8348826,30.9295986 18.7223339,31.2283167 C18.6457166,31.5607973 18.632947,31.9302201 18.3328626,32 Z" id="Path"></path>
                    <path d="M8.88819888,29 C9.15007019,29.2885086 8.88819888,29.7334963 8.74890563,30.0806846 C8.60961238,30.4278729 8.51489297,30.9022005 8.15830225,31 C8.15830225,30.9559902 8.0747263,30.9657702 8.019009,30.9608802 C7.88528748,30.3643032 8.49817778,29.792176 8.576182,29.1173594 C8.576182,29.0684597 8.65418622,29.0586797 8.66532968,29 L8.88819888,29 Z" id="Path"></path>
                    <path d="M16.8984659,30 C17.0183385,30.3725418 17.0322357,30.7595581 16.9392695,31.1363149 C16.8960348,31.4799058 16.8262132,31.8213646 16.730151,32.1589982 C16.6638451,32.4051998 16.4700279,32.9771449 16.2711103,32.9960835 C15.7610651,33.0453238 16.1129963,32.6173119 16.1895031,32.4392892 C16.4139229,31.9127967 16.4649275,30.7461801 16.6077401,30.1098438 C16.6270419,30.0669411 16.6723792,30.0332725 16.730151,30.0189386 L16.8984659,30 Z" id="Path"></path>
                    <path d="M18.4460915,30.1239919 C19.0110077,29.5935806 19.0524695,30.9097865 18.9643633,31.3459024 C18.9125361,31.5816408 18.76742,31.9156035 18.6637657,32.2142054 C18.5601113,32.5128074 18.4720051,33 18.2387828,33 C17.7516073,33 18.1454939,32.4342279 18.2387828,32.2142054 C18.5354251,31.5412751 18.6066658,30.8229833 18.4460915,30.1239919 Z" id="Path"></path>
                    <path d="M8.01104698,31.8850449 C7.95009812,31.554063 8.15732423,31.4076671 8.24265263,31.2039858 C8.49460529,30.5585423 8.64243228,29.8266968 8.67335788,29.071698 C9.26659341,28.6197803 8.90902679,30.4274512 8.70992719,31.0512249 C8.54333365,31.5731581 8.27109543,32.2796773 8.01104698,31.8850449 Z" id="Path"></path>
                    <path d="M13.9872945,30.0422151 C14.0294707,30.569883 13.9664971,31.0994066 13.8005541,31.6124509 C13.6986957,32.1257136 13.6534253,32.7216202 13.2346742,33 C12.8498758,32.917356 13.042275,32.5650316 13.0932042,32.3605965 C13.240333,31.7298924 13.4440497,30.7207658 13.6024961,30.1161597 C13.6024961,30.0596139 13.6477665,30.0552642 13.6477665,30.0074176 C13.7835777,29.9943686 13.9250477,29.9943686 13.9872945,30.0422151 Z" id="Path"></path>
                    <path d="M12.8535556,30.0028001 C13.2133938,30.5669789 12.8188724,31.2722024 12.641121,31.8804577 C12.5153944,32.3212224 12.4807112,32.8809935 12.1078667,33 C11.8434073,32.6606112 12.1338791,32.2286618 12.2509349,31.8407889 C12.4812798,31.2807809 12.6133382,30.6840741 12.641121,30.0777301 C12.7148228,30.0556919 12.7451706,29.9851695 12.8535556,30.0028001 Z" id="Path"></path>
                    <path d="M10.9395379,30 C11.1059337,30.483871 10.8945661,31.2239089 10.719176,31.8614801 C10.6562155,32.0721063 10.3998761,33 10.1660226,33 C9.73879033,32.9373814 10.2604634,32.0037951 10.3504071,31.6907021 C10.4943169,31.1783681 10.5437859,30.626186 10.6787014,30.1537002 C10.6787014,30.0910816 10.7461591,30.0796964 10.7551535,30.0170778 L10.9395379,30 Z" id="Path"></path>
                    <path d="M11.8672486,30 C12.1607313,30.4712042 11.8981415,31.1413613 11.7436769,31.6701571 C11.5892123,32.1989529 11.5789147,32.9685864 11.027991,33 C10.8374847,32.026178 11.6870399,31.3874346 11.542873,30.1675393 C11.5924434,30.1186229 11.634143,30.0620863 11.6664446,30 L11.8672486,30 Z" id="Path"></path>
                    <path d="M29.4436948,32.0859858 C30.5436948,31.7259858 29.3636948,33.7759858 29.1136948,32.5759858 C29.0436948,32.2659858 29.1736948,32.1759858 29.4436948,32.0859858 Z" id="Path"></path>
                    <path d="M14,34.5163683 C14.2182269,34.1028282 14.4562926,34.3341303 14.6893986,34.3411395 C15.4928704,34.3831944 16.3211407,34.3902036 17.1246125,34.3411395 C18.2768998,34.1870884 19.4182086,33.8987318 20.5368878,33.4790135 C20.9207133,33.3545375 21.2997965,33.2024749 21.6726596,33.0234185 C21.7867328,32.9743544 21.9851209,32.9813635 22,33.2547206 C22,33.6962973 20.8939864,34.0257275 20.5765654,34.1098374 C19.4321984,34.4927166 18.2729511,34.7805844 17.1047737,34.9719634 C16.5790453,35.0350458 15.9293242,34.9719634 15.3589585,34.9719634 C14.7885927,34.9719634 14.1934284,35.1682197 14,34.5163683 Z" id="Path"></path>
                </g>
            </g>
        </g>
    </g>
</svg>