<?xml version="1.0" encoding="UTF-8"?>
<svg width="40px" height="45px" viewBox="0 0 40 45" version="1.1" xmlns="http://www.w3.org/2000/svg" xmlns:xlink="http://www.w3.org/1999/xlink">
    <title>A8E20E8F-AC95-4B9A-9F79-1E45FFD0F671</title>
    <g id="Page-1" stroke="none" stroke-width="1" fill="none" fill-rule="evenodd">
        <g id="13.-Landing-screen" transform="translate(-187.000000, -575.000000)" fill="#60951D">
            <g id="Categories" transform="translate(6.000000, 570.000000)">
                <g id="Asset-4" transform="translate(201.000000, 27.500000) rotate(14.000000) translate(-201.000000, -27.500000) translate(186.000000, 9.000000)">
                    <path d="M19.2299584,1.62211982 C19.2299584,1.8202765 19.2116587,1.96313364 19.1253887,2 C18.7933798,1.69124424 19.2168872,1.12903226 19.2953145,0.829493088 C19.5018397,0.589861751 19.6273234,0.207373272 19.8521483,0 C20.1946142,0.142857143 19.8521483,0.428571429 19.7240504,0.640552995 C19.5462819,0.921658986 19.3397566,1.4562212 19.2299584,1.62211982 Z" id="Path"></path>
                    <path d="M24.6315223,4.05376694 C25.3012025,3.64382882 26.4867175,3.62560935 27.043276,4.12664483 C27.7960698,4.81751815 28.1386907,5.85219588 27.9482493,6.8595656 C27.7070329,7.47510397 27.2713724,7.9936803 26.7084359,8.33534281 C25.8677799,8.85938962 24.8766064,9.08396252 23.8939691,8.97302433 C22.9889958,9.68813859 22.5365092,10.7949715 21.8894533,11.7697132 C22.6677303,12.1386576 21.8577793,12.7717842 21.5591381,13.1862772 C21.4143424,13.3866914 21.2966958,13.641764 21.1066515,13.8922817 C20.5956519,14.5787249 20.2418029,15.3704423 20.0704571,16.2107095 C19.871363,17.7320354 20.2062031,19.1349347 20.0704571,20.6107119 C20.038783,20.9659916 19.9166116,21.3030519 19.8849376,21.6583316 C19.8849376,21.8997396 19.8849376,22.1548122 19.8849376,22.400775 C19.8125397,23.2616451 19.5862964,24.1407346 19.5138985,25.0152693 C19.4776996,25.470756 19.5138985,25.9763464 19.4415007,26.4318332 C19.3166896,26.9479137 19.1656622,27.4572098 18.989014,27.957714 C18.8487432,28.4769689 18.5998755,28.9415654 18.4686544,29.4152717 C18.4188809,29.5974664 18.4686544,29.7978806 18.3962566,29.9755205 C18.3238587,30.1531603 18.2062122,30.3444648 18.1338143,30.5312143 C17.5863055,32.025211 16.58631,33.3051289 15.8397071,34.4848397 C15.1807518,35.0734356 14.4772718,35.6094933 13.7356443,36.0881532 C13.1254476,36.5175947 12.4312742,36.8110806 11.6994545,36.9490233 C9.43702131,37.23598 7.98453923,36.2566834 6.77187506,35.3821487 C6.3510625,35.0815274 5.83975261,34.890223 5.43703951,34.5987114 C4.77698786,34.0630801 4.17076531,33.4635173 3.62709299,32.8086483 C3.03811437,32.1449455 2.58456189,31.3711155 2.29225744,30.5312143 C1.78999728,29.0964309 2.01624059,26.9784173 2.3646553,25.4616463 C2.56694232,24.6164606 2.87881779,23.8017394 3.29225289,23.0384566 C3.45062321,22.7105061 3.5320708,22.3415618 3.69949085,22.0318307 C4.06497607,21.4509523 4.46069947,20.8899214 4.88500582,20.3510845 C5.65423309,19.2214772 6.40083603,17.9734434 7.36915741,17.1080185 C8.38238891,16.1981383 9.45904369,15.3624605 10.5908622,14.607396 C11.7580123,13.893528 12.8725106,13.0958764 13.9256887,12.2206452 C14.4369986,11.1775804 15.6949114,9.90221739 16.147398,8.67695791 C16.2876689,8.29890387 16.2243207,7.85252681 16.5998846,7.82064273 C17.3148135,7.75231972 17.0885702,9.66536425 17.2695649,10.2073935 C18.2559857,9.15066418 18.8668427,7.38793028 19.8261143,6.18089027 C19.3238541,5.60242204 19.2921801,5.14693525 19.2967049,4.27695547 C19.2274057,3.64481091 19.3881709,3.00881475 19.7491916,2.48689236 C20.1247555,1.91753387 21.0568779,1.12043198 21.7537073,1.02933462 C23.4867311,0.80159122 24.9708873,1.90842413 24.6315223,4.05376694 Z M24.0387648,5.16970959 C23.4822063,5.08772196 23.8487204,4.500144 23.8939691,4.16308377 C23.966367,3.58006067 23.9256432,2.67819682 23.5953279,2.30014278 C23.0777104,1.84419474 22.3755179,1.66325512 21.7039338,1.81277191 C21.3101325,1.9887389 20.9478174,2.22880604 20.6315405,2.52333131 C20.3882322,2.78712928 20.1990918,3.09671377 20.074982,3.4343049 C19.9573354,3.98999879 20.1609544,4.54113781 20.074982,5.224368 C20.074982,5.56142823 20.7672865,5.63886099 20.7808611,6.04424423 C20.7808611,6.30387171 20.1247555,7.14196741 20.0025841,7.31049752 C19.3691028,8.18503217 19.0297378,9.04590221 18.482229,9.88399792 C17.9799689,10.6537706 17.3283881,11.1183671 17.296714,12.1978708 C17.6858526,12.0065664 17.9663943,11.5510796 18.3691074,11.1548061 C18.6677485,10.8587397 19.2740806,10.1937289 19.7265672,10.293936 C20.4279215,10.4533564 19.6360699,11.7105 19.4686499,12.1158832 C19.2444371,12.6070858 19.0700986,13.1198347 18.9482902,13.6463188 C19.5180111,13.1457556 20.1400573,12.7089635 20.8034854,12.3436266 C20.9301817,12.0111213 21.1926239,11.847146 21.323845,11.5191955 C21.3690937,11.4007689 21.323845,11.2504583 21.3962429,11.1092574 C21.5527209,10.7885626 21.7390756,10.4835377 21.9528015,10.1982838 C22.1518956,9.89766252 22.3464648,9.52416335 22.5455589,9.26453588 C22.8080012,8.91836591 23.3600349,8.27612953 23.7310739,8.22147111 C23.9303165,8.22928867 24.1285767,8.25366422 24.3238314,8.294349 C25.5161853,8.33411902 26.6311999,7.70177669 27.215221,6.65459654 C27.3075932,5.82099626 26.9373035,5.00375735 26.2514244,4.5274732 C25.2559539,4.23596166 24.5953234,5.25625208 24.0387648,5.16970959 L24.0387648,5.16970959 Z M15.2198004,11.5875185 C14.8840506,12.1978291 14.4867854,12.7717302 14.0342855,13.3001489 C13.3419809,13.537002 12.9166435,14.0243729 12.2967368,14.4206464 C11.3495944,14.961743 10.4422865,15.5706255 9.58181703,16.2425936 C9.16552933,16.6024281 8.6994681,16.9076043 8.31937933,17.2492194 C7.52588989,17.9739328 6.81832654,18.7885933 6.21079164,19.676964 C5.90310074,20.1324508 5.63613363,20.6152668 5.30581839,21.0434244 C4.96289882,21.4618882 4.64845865,21.9031971 4.3646462,22.3643361 C4.19270128,22.7059512 4.07957962,23.1113344 3.88501037,23.4848336 C3.68139473,23.8433724 3.50735725,24.2181297 3.36465075,24.6053311 C3.06159583,25.6873695 2.87500376,26.7990743 2.8080922,27.921275 C2.69205174,28.9979421 2.88520774,30.0855229 3.36465075,31.0550242 C3.86505082,32.0000142 4.54450906,32.8371729 5.36464165,33.5192077 C5.55250909,33.7032236 5.75040066,33.8765764 5.95739913,34.0384627 C6.34653763,34.2889804 6.83974806,34.4347362 7.25603576,34.7490221 C8.24245661,35.4869107 9.61801596,36.4798719 11.5908577,36.2020249 C12.1999977,36.0728574 12.776109,35.818556 13.2831577,35.4550266 C13.9779272,35.0282627 14.6349457,34.5421369 15.2469496,34.0020237 C15.9890277,32.8177581 16.9301999,31.6835959 17.43246,30.2715869 C17.500333,30.0802824 17.6451288,29.8798682 17.6903774,29.7113381 C17.7356261,29.542808 17.6903774,29.4107168 17.7265763,29.2558513 C17.8577975,28.7593707 18.0840408,28.3175485 18.210737,27.8392874 C18.4778202,27.0527645 18.6643096,26.2408119 18.7672956,25.4160976 C18.8442183,24.3320391 19.0297378,23.2343159 19.1338098,22.2276901 C19.1654838,21.9635077 19.1338098,21.7175449 19.1338098,21.4806917 C19.1745336,21.0252049 19.2786055,20.6653704 19.2831304,20.2873163 C19.2831304,19.1804834 19.2062076,18.1100894 19.3193293,16.8575008 C19.3510033,16.5432149 19.3193293,16.1970449 19.3600531,15.8873139 C19.4505504,14.9080173 20.106656,14.0653667 20.545568,13.3502524 C20.1980373,13.5725712 19.8853974,13.845834 19.6179705,14.1610189 C19.3691028,14.365988 18.8442183,14.8624686 18.5048533,14.8305845 C17.8487477,14.7713712 18.1654884,13.7191967 18.3193338,13.1179542 C18.4435293,12.7222845 18.5947178,12.3357197 18.7718205,11.9610177 C18.5998755,11.9063593 18.5365274,12.156877 18.4007814,12.2935231 C18.2478072,12.43815 18.0877278,12.5749677 17.9211456,12.7034612 C17.6858526,12.9129851 17.2469405,13.5324471 16.9573491,13.5278923 C16.4550889,13.5278923 16.5501111,12.6670222 16.5501111,12.0703345 C16.5911907,11.3105078 16.566968,10.5485289 16.4777133,9.79290056 C16.4777133,9.77012622 16.4777133,9.74735188 16.4415143,9.75190675 C16.0696624,10.3869055 15.6617475,10.9997932 15.2198004,11.5875185 L15.2198004,11.5875185 Z" id="Shape"></path>
                    <path d="M21.2842892,4.63532141 C21.3299729,4.72494294 21.4594099,4.69984891 21.449258,4.86833741 C21.3959604,5.04758049 21.2284536,5.01890159 21.1167825,4.92928005 C20.8198386,4.19079857 21.1421623,3.38778957 21.4924037,3.04722772 C21.6878283,3.04722772 22,2.87156951 22,3.19779191 C22,3.43080791 21.8147274,3.25873456 21.6269167,3.34118637 C21.2892636,3.5778241 21.1394173,4.14380685 21.2842892,4.63532141 L21.2842892,4.63532141 Z" id="Path"></path>
                    <path d="M28,8.91014204 C28.024692,8.57874582 28.2253143,8.58724316 28.3549472,8.31957699 C28.6796702,7.5404541 28.8036602,6.63317391 28.7068079,5.7448833 C28.6852025,5.56219051 28.2623523,4.89514941 28.7068079,5.01411215 C29.0463227,5.08633953 29.0432362,6.80705066 28.9352088,7.34238301 C28.8579864,7.71886261 28.7481409,8.08118659 28.60804,8.42154505 C28.4691476,8.74019526 28.2345738,9.19480289 28,8.91014204 Z" id="Path"></path>
                    <path d="M25.9045147,6 C26.1616825,6.36900369 25.9045147,6.95202952 25.0706678,7 C24.7901212,6.68634686 25.4291441,6.33210332 25.5226596,6 L25.9045147,6 Z" id="Path"></path>
                    <path d="M30,6.06789683 C29.8632479,6.45953682 30,6.9490868 29.1452991,7 C29.1452991,6.9686688 29.0512821,6.9725852 29,6.9647524 C29,6.67493881 29.1025641,5.74283564 30,6.06789683 Z" id="Path"></path>
                    <path d="M20,7.03422102 C19.9892043,7.43461754 19.8724947,7.82049477 19.6667753,8.13596279 C19.5095448,8.45168973 19.3193915,8.74204683 19.100922,9 C18.8242827,8.7736147 19.1889437,8.33216338 19.330407,8.07559338 C19.5192298,7.77337479 19.6775172,7.44533966 19.8019514,7.09836352 C19.8019514,7.05685955 19.8459622,7.04931337 19.8522494,7.00403631 C19.9029262,6.99335734 19.9551207,7.00402042 20,7.03422102 L20,7.03422102 Z" id="Path"></path>
                    <path d="M14.8731744,7.00315908 C15.1466008,7.53523375 14.9139843,8.33085943 14.7711497,8.91763338 C14.6691367,9.49020386 14.4501612,10.0221341 14.1345152,10.4641308 C13.8386552,10.8355903 13.4239027,11.0301044 13,10.9962055 C13.0857008,10.4144042 13.6039865,10.4989394 13.9018988,10.1409079 C14.4895614,9.47457135 14.5262903,8.3358321 14.6691249,7.08769431 C14.7425828,7.062831 14.7670687,6.98326843 14.8731744,7.00315908 Z" id="Path"></path>
                    <path d="M13.3565573,8.07992397 C13.3565573,8.01071017 13.5064001,8.01071017 13.6386143,8.00082249 C13.7708286,7.9909348 13.8325286,8.07333218 14,8.07992397 C14,8.4721355 14,9.0192541 13.2772287,8.99947873 C12.5544574,8.97970335 13.4887715,8.36666685 13.3565573,8.07992397 Z" id="Path"></path>
                    <path d="M15,12.0152822 C14.9576458,12.6916622 14.7233043,13.3389542 14.3274489,13.872985 C14.1613927,14.1275247 13.9729788,14.3650079 13.7647021,14.5822897 C13.5862701,14.7704726 13.3071843,15.1468384 13.014373,14.9393547 C12.9320198,14.6739685 13.2248311,14.5099117 13.3529361,14.3844564 C13.9962109,13.747885 14.4695413,12.9441778 14.7254893,12.0538838 C14.7529404,11.962205 14.9039213,12.0152822 15,12.0152822 Z" id="Path"></path>
                    <path d="M21.9920457,14.0895645 C22.0432041,14.3572467 21.8346355,14.4545856 21.7362541,14.6492636 C21.5113918,15.1371678 21.3769787,15.6807599 21.3427284,16.2407559 C21.3427284,16.4792365 21.4489803,16.9707983 21.1499009,17 C20.9452675,16.7907212 21.0042964,16.3721636 21.0200374,16.0801466 C21.067039,15.3125359 21.3173925,14.5855135 21.7323188,14.0116933 C21.8239696,13.9814395 21.9217717,14.0107625 21.9920457,14.0895645 L21.9920457,14.0895645 Z" id="Path"></path>
                    <path d="M18,16.0778062 C17.8048118,16.5812122 17.1837583,16.9807407 16.6913516,17.2524201 C16.4384941,17.4002456 16.1634562,17.5680476 15.8928543,17.7118779 C15.6222524,17.8557081 15.3161618,18.0794441 15.0056351,17.9715714 C14.9479658,17.6799156 15.3472145,17.5720429 15.5512749,17.4481891 C16.3519108,17.08315 17.076725,16.5965985 17.6939094,16.0098864 C17.8021239,15.9840358 17.9175051,16.0096383 18,16.0778062 Z" id="Path"></path>
                    <path d="M11.8859464,15.2693187 C11.9530105,15.5173065 11.8519033,15.7801851 11.6359464,15.9193187 C10.6059464,16.0293187 11.2459464,14.5593187 11.8859464,15.2693187 Z" id="Path"></path>
                    <path d="M18,16.1216526 C17.7894263,16.4952365 17.5012031,16.8218923 17.1537515,17.0807424 C16.5156361,17.6304371 15.8382426,18.135231 15.1266913,18.5913087 C14.9477107,18.7097078 14.7602705,18.8154776 14.5658057,18.9078084 C14.5215252,18.9078084 14.0246002,19.1619671 14,18.8262857 C14,18.6248769 14.3247232,18.5577406 14.403444,18.5145816 C15.2988247,17.9803908 16.147901,17.375749 16.9421894,16.7066974 C17.2472325,16.457334 17.5867159,15.709244 18,16.1216526 Z" id="Path"></path>
                    <path d="M6.1334881,21 C5.82551342,20.8313514 6.1334881,20.507027 6.23203999,20.3643243 C6.62615536,19.7850886 7.07765332,19.251638 7.57891591,18.772973 C8.22005083,18.0424053 8.98269475,17.4415227 9.8291842,17 C9.9277361,17.0648649 9.97701204,17.0562162 9.99754369,17.1427027 C10.0550323,17.3978378 9.08593865,17.8994595 8.92168549,18.0291892 C8.01234433,18.7257229 7.21750859,19.5744409 6.56875897,20.5416216 C6.45788809,20.7016216 6.36344252,20.9913514 6.1334881,21 Z" id="Path"></path>
                    <path d="M17,17.1501358 C16.8735371,17.629245 16.6148017,18.051006 16.2610281,18.3547241 C15.9473946,18.7064639 15.5907977,19.0196568 15.2771643,19.3424865 C14.9678696,19.7064205 14.6393208,20.0491434 14.2933004,20.3687957 C13.9457884,20.7092465 13.5172666,20.9286085 13.0602484,21 C12.8969872,20.754264 13.0903229,20.5181647 13.3438074,20.5181647 C14.6482959,19.5609847 15.8085219,18.376899 16.7808862,17.0104036 C16.8264938,16.9926375 16.8767181,16.9977981 16.9186878,17.0245628 C16.9606576,17.0513276 16.9902932,17.0970949 17,17.1501358 L17,17.1501358 Z" id="Path"></path>
                    <path d="M18,18.0725362 C17.9272597,18.4652062 17.7404091,18.8170891 17.4706496,19.0694252 C16.6284987,20.0139039 15.7153834,20.8696253 14.7421279,21.6264454 C14.5355522,21.7959166 14.2816361,22.1248899 14.0018981,21.9504344 C13.9717725,21.6065077 14.3074581,21.4121143 14.4968192,21.2575965 C15.6545043,20.3155364 16.8939589,19.2937252 17.7546913,18.0127229 C17.8399294,17.9832352 17.9322621,18.0057486 18,18.0725362 L18,18.0725362 Z" id="Path"></path>
                    <path d="M17.9970249,20.0799491 C18.0348015,20.4257979 17.7042568,20.657943 17.4917638,20.8569246 C16.3045357,22.0584279 14.9008691,23.0230172 13.3552332,23.6995177 C13.0246885,23.8226968 12.2738799,24.2632987 12,23.7753202 C12.3258226,23.4578973 12.8546941,23.5005362 13.3174567,23.3015547 C13.7189198,23.1258549 14.105781,22.9183197 14.474363,22.6809218 C15.6462507,21.9644093 16.7140526,21.0891735 17.647592,20.0799491 C17.6915387,20.0291659 17.7552764,20 17.8223085,20 C17.8893405,20 17.9530782,20.0291659 17.9970249,20.0799491 Z" id="Path"></path>
                    <path d="M3,21.0686125 C2.87290871,21.572724 2.70664461,22.0593092 2.5036949,22.5210891 C2.32847471,23.0109248 2.17294009,23.5118745 2.03769852,24.0219815 C1.70061261,25.0972238 1.46038554,26.218002 1.32165529,27.3626776 C1.30271235,27.5902322 1.38606129,27.9533514 1.20042046,27.9969257 C0.931430672,28.0501831 1.01099103,27.3965687 1.01099103,27.193222 C1.15143919,26.0652426 1.39034789,24.9609263 1.72324567,23.9009418 C1.8559479,23.3880691 2.01153498,22.885334 2.18924206,22.3952078 C2.35215136,21.94494 2.60219821,20.9717807 2.87118799,21.0056719 C2.95832553,20.9766223 2.935594,21.0686125 3,21.0686125 Z" id="Path"></path>
                    <path d="M5.995,21.1553823 C5.995,21.7253823 5.805,22.0053823 5.255,21.9753823 C5.1888644,21.8533533 5.10456879,21.7420831 5.005,21.6453823 C5.065,21.1553823 5.595,20.8253823 5.995,21.1553823 Z" id="Path"></path>
                    <path d="M18,21.1484883 C17.753485,21.7345614 17.1768158,22.027598 16.705796,22.3913675 C15.778664,23.1644579 14.8015088,23.8552656 13.782832,24.4577804 C13.4985612,24.6092709 13.2041434,24.734298 12.9024211,24.8316546 C12.647102,24.9175447 12.2729274,25.1398483 12,24.8720735 C12.083639,24.4628328 12.5194424,24.4981993 12.7571533,24.4173616 C14.6104182,23.7908697 16.1995598,22.1336974 17.6610418,21.0676507 C17.7931034,20.9969177 17.9031548,20.9312371 18,21.1484883 Z" id="Path"></path>
                    <path d="M1,21.091556 C0.879098322,21.8518547 0.583097661,22.5196847 0.420505749,23.3621779 C0.370477469,23.6241727 0.387153562,24.0556936 0.145350206,23.9940478 C-0.204847758,23.901579 0.178702393,22.8176396 0.249575791,22.5659191 C0.355668044,22.0745989 0.495127598,21.5951518 0.666478129,21.1326532 C0.666478129,21.0761446 0.724844457,21.0658703 0.733182503,21.0093616 C0.827669226,20.9828541 0.926752647,21.0133772 1,21.091556 L1,21.091556 Z" id="Path"></path>
                    <path d="M3.992805,22.1228603 C4.03011744,22.3558713 3.91320511,22.5465166 3.85101771,22.745635 C3.52171981,23.7847672 3.31390649,24.9228293 3.23909361,26.096756 C3.23909361,26.2407991 3.316206,26.9737244 3.13710626,26.9991438 C2.95800653,27.0245632 3.00029397,26.4780466 3.01521895,26.1518313 C3.07375122,25.1571577 3.22489274,24.1846985 3.46296828,23.2709688 C3.54533769,22.7962106 3.69186969,22.3609228 3.89081765,22 C3.90823012,22 3.91071762,22 3.91071762,22.0338925 C3.95300506,22.0593119 3.96544254,22.0974409 3.992805,22.1228603 Z" id="Path"></path>
                    <path d="M17.8091544,22 C17.8557021,22.0403635 17.9487975,22.0403635 18,22.0807269 C17.8882855,22.7164516 17.2831652,23.0898137 16.8176881,23.442994 C15.8593874,24.2034708 14.8388315,24.8671959 13.768813,25.4258495 C13.484872,25.5671216 13.1636928,25.6377577 12.8378588,25.7588481 C12.6004655,25.8496659 12.2606672,26.1725737 12,25.8799385 C12.0372382,25.5065764 12.4654771,25.4308949 12.6842514,25.3451225 C12.9030256,25.2593502 13.2986811,25.1836687 13.5640031,25.0575328 C14.0612845,24.7814391 14.5445252,24.4765921 15.0116369,24.1443093 C15.5050427,23.8365379 15.9705198,23.5388573 16.4080683,23.1957678 C16.8970194,22.8283199 17.364911,22.4289942 17.8091544,22 L17.8091544,22 Z" id="Path"></path>
                    <path d="M17,24.116604 C16.9114391,24.510906 16.4199262,24.6526775 16.1143911,24.8387526 C14.7903279,25.6583502 13.3794879,26.3284781 11.9077491,26.8368447 C11.6464945,26.9165912 11.1904059,27.160261 11,26.8368447 C11.1107011,26.5665928 11.4693727,26.544441 11.6907749,26.4735553 C13.4438837,25.8939106 15.1140314,25.0881866 16.6590406,24.0767308 C16.7121771,24.0279968 16.9158672,23.9128075 17,24.116604 Z" id="Path"></path>
                    <path d="M5,25.0672599 C4.70975538,25.3346454 4.73675488,25.745051 4.39251126,26 C3.55552677,25.8569799 4.26426363,25.1667522 4.61525713,25.0081864 C4.82450325,24.9802042 4.87175238,25.0299503 5,25.0672599 Z" id="Path"></path>
                    <path d="M16.6888635,26.0119801 C16.8609408,26.0119801 16.9214003,25.9467549 16.9958121,26.1206888 C17.0702239,26.2946227 16.1307752,26.725109 15.9447457,26.8338177 C14.4340102,27.6292955 12.8377226,28.273518 11.1823919,28.7557871 C11.0335684,28.8036189 10.0383108,29.2341053 10.0011049,28.8253606 C9.97785126,28.5253247 10.3266565,28.6427301 10.5731455,28.5775049 C11.1405353,28.4296611 11.814892,28.1426702 12.5543591,27.864376 C13.2008114,27.6382619 13.9263263,27.4295413 14.5355727,27.1512471 C15.2936427,26.8033793 16.028459,26.3641962 16.5911981,26.0467669 C16.6191025,26.0337219 16.6191025,26.0163285 16.6888635,26.0119801 Z" id="Path"></path>
                    <path d="M17,27.1140215 C16.7750643,27.5653982 16.2172237,27.7685177 15.7448586,28.0167749 C14.4672237,28.6487023 12.8206941,29.4972905 11.214653,29.7906853 C11.0661954,29.8177679 10.8907455,29.7906853 10.7377892,29.8267955 C10.4948586,29.8809607 10.2114396,30.165328 10,29.8629056 C10.0764781,29.4972905 10.5128535,29.4656941 10.7737789,29.4115289 C12.3139121,29.1074423 13.802972,28.5846035 15.1960154,27.858793 C15.753856,27.5834533 16.3386889,27.1907555 16.8155527,27.0102048 C16.9505141,26.9650672 16.9325193,27.0824251 17,27.1140215 Z" id="Path"></path>
                    <path d="M20,28.0361478 C19.9563862,28.7442785 19.7583857,29.4414341 19.4145007,30.0976788 C18.8926161,31.6748068 18.0422709,33.1743911 16.8974008,34.5365863 C16.7222982,34.7286544 16.4213406,35.121327 16,34.9634043 C16,34.6603635 16.3392613,34.4469545 16.5471956,34.2292773 C18.002736,32.6329779 18.9110807,30.3879151 19.5950752,28.112975 C19.6178256,28.0656358 19.6657116,28.0282842 19.7264022,28.0105387 C19.8686731,27.9763933 19.8905609,28.0361478 20,28.0361478 Z" id="Path"></path>
                    <path d="M3.22035369,28.0322862 C4.14035369,27.7746099 4.22035369,29.1488833 3.30035369,28.9866427 C3.30035369,28.9102941 3.20035369,28.9293813 3.14035369,28.9102941 C2.99338797,28.6262839 3.02422686,28.287824 3.22035369,28.0322862 Z" id="Path"></path>
                    <path d="M17,28.1308284 C17,28.469397 16.5864769,28.5854777 16.347331,28.7257418 C14.9460289,29.4917797 13.4688255,30.118877 11.9380783,30.5975424 C11.6790036,30.6894396 11.3850534,30.7668267 10.941637,30.8732339 C10.8170819,30.9070908 10.0049822,31.1827824 10,30.7958468 C10,30.5781956 11.0911032,30.3944012 11.4298932,30.2831573 C13.2733096,29.654387 15.2163701,29.0159434 16.5715302,28.1018083 C16.6711744,28.0389312 16.8505338,27.8938304 17,28.1308284 Z" id="Path"></path>
                    <path d="M16,30.127206 C15.9705263,30.4875563 15.6217544,30.5025709 15.3564912,30.6577217 C15.0912281,30.8128725 14.8652632,31.08814 14.5508772,31.27332 C13.2326025,31.9691157 11.8256366,32.4744566 10.3705263,32.7747795 C9.97754386,32.8698719 9.25052632,33.275266 9,32.6896968 C9.36353914,32.5472349 9.74306194,32.4514065 10.1298246,32.4044195 C11.2233037,32.1452078 12.2982818,31.8107838 13.3473684,31.4034465 C13.9532076,31.0848838 14.5316274,30.7148836 15.0764912,30.2973714 C15.317193,30.1422206 15.8378947,29.8219092 16,30.127206 Z" id="Path"></path>
                    <path d="M4.25528362,29.0031604 C4.3950358,29.0720811 4.43230304,29.2493056 4.40901102,29.4954509 C4.96113612,30.5952764 5.69834351,31.5795344 6.58448658,32.3999648 C6.7521892,32.5427291 7.11088645,32.5919581 6.96647587,32.961176 C6.58448658,33.1433235 6.31895745,32.6362643 6.03479468,32.4393481 C5.43971336,31.8165802 4.90735968,31.1302654 4.44627826,30.3914196 C4.21801637,30.0025101 3.90590318,29.6775984 4.02702173,29.0622352 C4.10621463,29.0622352 4.13882347,28.9834688 4.25528362,29.0031604 Z" id="Path"></path>
                    <path d="M20,30.0227674 C19.9886077,30.4084074 19.8983372,30.7903905 19.7323944,31.1551502 C19.6056338,31.4746312 19.5023474,31.9751515 19,32 C19.0181298,31.667394 19.1217818,31.3406439 19.3051643,31.0380071 C19.4366197,30.7078767 19.5633803,30.3635472 19.6901408,30.0511657 C19.7764161,29.9953432 19.8985844,29.9841466 20,30.0227674 L20,30.0227674 Z" id="Path"></path>
                    <path d="M14.8547415,31 C15.4420414,31.2469319 14.0824652,31.6859219 13.7217613,31.8348649 C12.4494313,32.3428134 11.1048942,32.709067 9.72164767,32.9245007 C9.57829099,32.9480181 8.98636666,33.1283175 9.00023989,32.8304315 C9.00023989,32.6226951 10.2534547,32.465913 10.517046,32.4110392 C11.5303507,32.2152039 12.5185418,31.9355762 13.4674188,31.5761744 C13.9096054,31.3509003 14.3737422,31.1581378 14.8547415,31 Z" id="Path"></path>
                    <path d="M10,34.9258864 C10.1217002,34.7073525 10.5203731,34.7632565 10.8393114,34.7175168 C11.2841465,34.6489073 11.7877333,34.5091473 12.282927,34.4049625 C12.7837074,34.300698 13.2670677,34.1679695 13.7265427,34.0085521 C13.8146703,33.9755179 13.9909257,34.0441274 13.9993189,34.1127369 C14.0244982,34.2550381 13.344656,34.3668461 13.1096488,34.4252912 C12.4466078,34.615815 11.7605893,34.7755177 11.0575324,34.9030166 C10.738594,34.9614617 10.2601865,35.0758108 10,34.9258864 Z" id="Path"></path>
                    <path d="M6,35.7891387 C5.7032967,36.2340659 4.84065934,35.8632933 4.38461538,35.690266 C3.41208791,35.3194934 2.38461538,34.9116435 2,34.1371407 C2.07692308,34.0753453 2.12637363,33.9888317 2.31318681,34.0011908 C2.88317677,34.5825941 3.63893137,35.0472497 4.51098901,35.352451 C5.01759982,35.4774948 5.51468322,35.6232763 6,35.7891387 L6,35.7891387 Z" id="Path"></path>
                    <path d="M10.001028,35.5045613 C10.0697219,35.3812186 10.1745513,35.3598481 10.2559751,35.4525881 C10.4375813,35.3746281 10.975415,34.6275123 10.999862,35.2381983 C11.0138317,35.5825212 9.96261126,36.6024968 10.001028,35.5045613 Z" id="Path"></path>
                </g>
            </g>
        </g>
    </g>
</svg>