<?xml version="1.0" encoding="UTF-8"?>
<svg width="35px" height="29px" viewBox="0 0 35 29" version="1.1" xmlns="http://www.w3.org/2000/svg" xmlns:xlink="http://www.w3.org/1999/xlink">
    <title>EB63806E-8330-4B82-88BD-0CA17A163B9D</title>
    <g id="Page-1" stroke="none" stroke-width="1" fill="none" fill-rule="evenodd">
        <g id="16.-Cart-screen" transform="translate(-315.000000, -805.000000)" fill="#FFFFFF" fill-rule="nonzero">
            <g id="Group" transform="translate(35.000000, 781.000000)">
                <g id="commerce-and-shopping-(1)" transform="translate(280.000000, 24.000000)">
                    <path d="M34.4803962,9.73190349 C34.0182186,9.1617647 33.3248496,8.83468437 32.5779553,8.83468437 L25.8374491,8.83468437 L22.1823426,0.605044839 C21.9557313,0.0947968362 21.3512979,-0.138380653 20.8323136,0.084579777 C20.3133294,0.307405772 20.0763275,0.901810078 20.3030071,1.4121253 L23.5996372,8.83475159 L11.4003628,8.83475159 L14.6969929,1.4121253 C14.9236041,0.901810078 14.6866706,0.30747299 14.1676864,0.084579777 C13.6487705,-0.138380653 13.0442687,0.0946624012 12.8176574,0.605044839 L9.16255088,8.83475159 L2.42204473,8.83475159 C1.67515038,8.83475159 0.981781408,9.1617647 0.519603788,9.73197071 C0.0659027274,10.291758 -0.101509341,11.0113885 0.0602972601,11.7065518 L3.65989598,27.1665756 C3.91125334,28.2460886 4.88243475,29 6.02164345,29 L28.9783566,29 C30.1175653,29 31.0887467,28.2460886 31.340104,27.1665756 L34.9397027,11.7064846 C35.1015093,11.0113213 34.9340973,10.2916908 34.4803962,9.73190349 Z M28.9783566,26.9834079 L6.02164345,26.9834079 C5.84753216,26.9834079 5.69502244,26.8711547 5.65899705,26.7164201 L2.05939833,11.2565307 C2.03116592,11.1352031 2.07853895,11.0439218 2.12338269,10.9887362 C2.16494518,10.937382 2.25907602,10.8512764 2.42204473,10.8512764 L8.26697493,10.8512764 L7.99839101,11.4560322 C7.77177974,11.9663474 8.00871327,12.5606845 8.52769752,12.7835777 C8.66127171,12.8409815 8.80045136,12.8681374 8.93751187,12.8681374 C9.33276568,12.8681374 9.70942575,12.6420849 9.87772648,12.2631799 L10.5047869,10.8512764 L24.4953498,10.8512764 L25.1224102,12.2631799 C25.290711,12.6421521 25.667371,12.8681374 26.0626248,12.8681374 C26.199617,12.8681374 26.338865,12.8409815 26.4724392,12.7835777 C26.9914234,12.5607518 27.2284253,11.9663474 27.0017457,11.4560322 L26.7331618,10.8512764 L32.578092,10.8512764 C32.7410607,10.8512764 32.8351915,10.937382 32.876754,10.9887362 C32.9215294,11.043989 32.9689708,11.1352703 32.9407384,11.2564635 L29.3411397,26.7164873 C29.3050459,26.8711547 29.1524678,26.9834079 28.9783566,26.9834079 Z" id="Shape"></path>
                    <path d="M11.5,14 C10.6716,14 10,14.4797143 10,15.0714286 L10,22.9285714 C10,23.5202857 10.6716,24 11.5,24 C12.3284,24 13,23.5202857 13,22.9285714 L13,15.0714286 C13,14.4797143 12.3285,14 11.5,14 Z" id="Path"></path>
                    <path d="M17.5,14 C16.6716,14 16,14.4797143 16,15.0714286 L16,22.9285714 C16,23.5202857 16.6716,24 17.5,24 C18.3284,24 19,23.5202857 19,22.9285714 L19,15.0714286 C19,14.4797143 18.3284,14 17.5,14 Z" id="Path"></path>
                    <path d="M23.5,14 C22.6716,14 22,14.4797143 22,15.0714286 L22,22.9285714 C22,23.5202857 22.6716,24 23.5,24 C24.3284,24 25,23.5202857 25,22.9285714 L25,15.0714286 C24.9999,14.4797143 24.3284,14 23.5,14 Z" id="Path"></path>
                </g>
            </g>
        </g>
    </g>
</svg>