<?xml version="1.0" encoding="UTF-8"?>
<svg width="27px" height="20px" viewBox="0 0 27 20" version="1.1" xmlns="http://www.w3.org/2000/svg" xmlns:xlink="http://www.w3.org/1999/xlink">
    <title>3C429D24-2A08-429C-99F7-13F8AA43635E</title>
    <g id="Page-1" stroke="none" stroke-width="1" fill="none" fill-rule="evenodd">
        <g id="19.-Payment-method" transform="translate(-35.000000, -305.000000)" fill="#2C2627" fill-rule="nonzero">
            <g id="card1" transform="translate(33.750000, 305.000000)">
                <g id="noun_credit-cart_3267011" transform="translate(1.250000, 0.000000)">
                    <path d="M2.64084578,0 C1.18692512,0 0,1.19951672 0,2.67353182 L0,4.84363054 L0,7.70785655 L0,17.3264669 C0,18.8004814 1.18692512,20 2.64084578,20 L24.3591542,20 C25.8130749,20 27,18.8004814 27,17.3264669 L27,7.70785655 L27,4.84363054 L27,2.67353182 C27,1.19951672 25.8130749,0 24.3591542,0 L2.64084578,0 Z M2.64084578,0.976353957 L24.3591542,0.976353957 C25.2962147,0.976353957 26.0369583,1.72352872 26.0369583,2.67353182 L26.0369583,4.35354677 L0.963041744,4.35354677 L0.963041744,2.67353182 C0.963041744,1.72352872 1.70378163,0.976353957 2.64084578,0.976353957 L2.64084578,0.976353957 Z M0.963041744,5.32990073 L26.0369583,5.32990073 L26.0369583,7.21777222 L0.963041744,7.21777222 L0.963041744,5.32990073 Z M0.963041744,8.19507953 L26.0369583,8.19507953 L26.0369583,17.3264669 C26.0369583,18.2764718 25.2962147,19.0236455 24.3591542,19.0236455 L2.64084578,19.0236455 C1.70378163,19.0236455 0.963041744,18.2764718 0.963041744,17.3264669 L0.963041744,8.19507953 Z M17.4955959,11.2118612 C16.7676792,11.211935 16.0691692,11.5052545 15.5544565,12.0270777 C15.0397494,12.5489027 14.7503542,13.2570694 14.7503542,13.9950416 C14.7503542,14.7330139 15.0397494,15.4411807 15.5544565,15.9630057 C16.0691692,16.4848308 16.7676792,16.7791023 17.4955959,16.7791761 C18.0791854,16.7787923 18.641742,16.586954 19.1075606,16.2433248 C19.5740834,16.5875961 20.1382052,16.7791761 20.7223516,16.7791761 C21.4503556,16.7791761 22.1487004,16.4858529 22.6634858,15.9639578 C23.1782512,15.4420645 23.4675882,14.7331098 23.4675882,13.9950416 C23.4675882,13.2569716 23.1782512,12.548971 22.6634858,12.0270777 C22.1487004,11.5051844 21.4503556,11.2118612 20.7223516,11.2118612 C20.1380978,11.2118612 19.5741362,11.4033213 19.1075606,11.7477107 C18.641742,11.4040815 18.0791854,11.212245 17.4955959,11.2118612 L17.4955959,11.2118612 Z M4.02709804,11.9536602 C3.85251738,11.9497288 3.6895128,12.0419055 3.60108384,12.1945648 C3.51265487,12.3472242 3.51265487,12.5364505 3.60108384,12.6891098 C3.6895128,12.8417692 3.85251738,12.9339458 4.02709804,12.9300145 L10.0874986,12.9300145 C10.2620792,12.9339458 10.4250838,12.8417692 10.5135128,12.6891098 C10.6019417,12.5364505 10.6019417,12.3472242 10.5135128,12.1945648 C10.4250838,12.0419055 10.2620792,11.9497288 10.0874986,11.9536602 L4.02709804,11.9536602 Z M17.4955959,12.1882139 C17.8300942,12.1884685 18.1538496,12.2841949 18.4332424,12.4599533 C18.3637577,12.5664328 18.3031725,12.6780489 18.2489114,12.792715 C18.2425417,12.8063686 18.236354,12.8200037 18.2300934,12.8337127 C18.1258118,13.0636039 18.0532879,13.306883 18.0137846,13.5583505 C18.0108727,13.5771334 18.0079608,13.5957318 18.0052309,13.614607 C17.9881237,13.7403121 17.9760758,13.8667148 17.9760758,13.9950418 C17.9760758,14.123367 17.9880873,14.2507254 18.0052309,14.3764305 C18.0077788,14.3952872 18.0106907,14.4139041 18.0137846,14.432687 C18.0532951,14.6841527 18.1258191,14.9274336 18.2300934,15.1573248 C18.2362812,15.1709784 18.2424689,15.1847058 18.2489114,15.1983225 C18.3029814,15.3125882 18.3630935,15.4239811 18.4323033,15.5301303 C18.1530688,15.7056157 17.829814,15.8016132 17.4955959,15.8018697 C17.0228325,15.8017701 16.5696624,15.6116089 16.2353628,15.272692 C15.9010428,14.933753 15.7134706,14.474371 15.7133978,13.9950418 C15.7134706,13.5157126 15.9010428,13.0572826 16.2353628,12.7183456 C16.5696624,12.3794288 17.0228325,12.1883137 17.4955959,12.1882139 L17.4955959,12.1882139 Z M20.7223516,12.1882139 C21.1952405,12.1882139 21.6482068,12.3783843 21.9825814,12.7173897 C22.3169742,13.0563968 22.5045446,13.5156146 22.5045446,13.9950416 C22.5045446,14.4744686 22.3169742,14.9336864 21.9825814,15.2726919 C21.6482068,15.6116992 21.1952405,15.8028216 20.7223516,15.8028216 C20.2494589,15.8028216 19.7964927,15.6116992 19.4621199,15.2726919 C19.459026,15.2695552 19.4566601,15.2662341 19.4535663,15.2630975 C19.4532545,15.2624818 19.4529415,15.2618667 19.4526272,15.2612524 C19.1248225,14.9235016 18.9404715,14.4688688 18.940073,13.9950435 C18.9404715,13.5212181 19.1248425,13.0675374 19.4526272,12.7297868 C19.4577945,12.7241881 19.462831,12.7184667 19.4677326,12.7126276 C19.8016158,12.3769488 20.2519395,12.1882139 20.7223516,12.1882139 L20.7223516,12.1882139 Z M3.98101576,14.5947751 C3.71959174,14.613454 3.52074631,14.8403981 3.53327185,15.1057892 C3.5457974,15.3711804 3.7651074,15.5778396 4.02709622,15.5711277 L6.61809612,15.5711277 C6.79268118,15.5750664 6.955693,15.4828916 7.04412632,15.3302294 C7.13255963,15.1775673 7.13255963,14.9883355 7.04412632,14.8356733 C6.955693,14.6830112 6.79268118,14.5908364 6.61809612,14.5947751 L4.02709622,14.5947751 C4.01174487,14.5940296 3.99636711,14.5940296 3.98101576,14.5947751 L3.98101576,14.5947751 Z" id="Shape"></path>
                </g>
            </g>
        </g>
    </g>
</svg>