<?xml version="1.0" encoding="UTF-8"?>
<svg width="18px" height="18px" viewBox="0 0 18 18" version="1.1" xmlns="http://www.w3.org/2000/svg" xmlns:xlink="http://www.w3.org/1999/xlink">
    <title>5B9D140D-0C27-4247-8333-41F8EA0CB611</title>
    <g id="Page-1" stroke="none" stroke-width="1" fill="none" fill-rule="evenodd">
        <g id="27.-Orders-list" transform="translate(-33.000000, -695.000000)" fill="#31AB5F" fill-rule="nonzero">
            <g id="Group" transform="translate(33.000000, 695.000000)">
                <path d="M9,0 C4.02943725,0 0,4.02943725 0,9 C0,13.9705627 4.02943725,18 9,18 C13.9705627,18 18,13.9705627 18,9 C18,6.61305159 17.0517884,4.32386638 15.363961,2.63603897 C13.6761336,0.948211563 11.3869484,0 9,0 Z M9,16.875 C4.6507576,16.875 1.125,13.3492424 1.125,9 C1.125,4.6507576 4.6507576,1.125 9,1.125 C13.3492424,1.125 16.875,4.6507576 16.875,9 C16.875,11.0885799 16.0453149,13.0916169 14.5684659,14.5684659 C13.0916169,16.0453149 11.0885799,16.875 9,16.875 Z" id="Shape"></path>
                <path d="M12.78,6.37875 L7.610625,11.548125 L5.22,9.163125 C4.99682234,8.97200055 4.66414078,8.9848506 4.45637069,9.19262069 C4.2486006,9.40039078 4.23575055,9.73307234 4.426875,9.95625 L6.811875,12.34125 C7.02288929,12.5524992 7.3092271,12.6711975 7.6078125,12.6711975 C7.9063979,12.6711975 8.19273571,12.5524992 8.40375,12.34125 L13.573125,7.171875 C13.7642494,6.94869734 13.7513994,6.61601578 13.5436293,6.40824569 C13.3358592,6.2004756 13.0031777,6.18762555 12.78,6.37875 L12.78,6.37875 Z" id="Path"></path>
            </g>
        </g>
    </g>
</svg>