<?xml version="1.0" encoding="UTF-8"?>
<svg width="34px" height="32px" viewBox="0 0 34 32" version="1.1" xmlns="http://www.w3.org/2000/svg" xmlns:xlink="http://www.w3.org/1999/xlink">
    <title>9695A10B-0A8A-417E-8BF6-AC41ECFFBD0C</title>
    <g id="Page-1" stroke="none" stroke-width="1" fill="none" fill-rule="evenodd">
        <g id="13.-Landing-screen" transform="translate(-364.000000, -582.000000)" fill="#60951D">
            <g id="Categories" transform="translate(6.000000, 570.000000)">
                <g id="Asset-1" transform="translate(358.000000, 12.000000)">
                    <path d="M16,0.167773188 C15.6623377,0.432500783 14.965368,0.303288504 14.3333333,0.322197618 C12.8209466,0.342415488 11.3188235,0.50771909 9.86580087,0.813834579 C9.6017316,0.880016478 9.29437229,1.12898648 9,0.914683187 C9.0995671,0.700379896 9.48917749,0.599531289 9.81385281,0.530197871 C10.1754788,0.454593779 10.542559,0.393571684 10.9134199,0.34740977 C11.9022012,0.209217345 12.9033288,0.122854069 13.9090909,0.0889852135 C14.4949649,0.0243330188 15.087143,-0.00518036194 15.6796537,0.000742682056 C15.8658009,0.0291063529 15.965368,0.000742682056 16,0.167773188 Z" id="Path"></path>
                    <path d="M18.1199496,2.01237522 C18.2059737,2.28488419 18.3247689,3.0693797 17.8536846,2.99505907 C17.7728316,2.67089595 17.7841888,2.33033416 17.8864557,2.01237522 C17.9634262,1.99587493 18.0429791,1.99587493 18.1199496,2.01237522 Z" id="Path"></path>
                    <path d="M18.9408737,2.04618929 C19.0707239,2.7968901 19.0490822,3.77628122 18.2194839,4 C17.6928693,3.85085414 18.2699812,3.42330269 18.3421202,3.06535264 C18.3156534,2.75325903 18.3349885,2.44012115 18.3998313,2.13070528 C18.3998313,2.07601847 18.5008259,2.06607541 18.5152537,2.00641707 C18.6883873,1.98155942 18.7965958,2.03624624 18.9408737,2.04618929 Z" id="Path"></path>
                    <path d="M19.8025389,2 C20.036003,2 20.0095731,2.45788985 19.9831432,2.71430816 C19.8909065,3.12278028 19.7701846,3.52373045 19.6219347,3.91397956 C19.542645,4.17497677 19.4149005,4.9808629 19.1814365,4.9991785 C18.7409383,5.03580968 19.2342962,3.83613829 19.287156,3.65298235 C19.49142,3.15159255 19.6192311,2.62016341 19.6659845,2.07784127 C19.6659845,2.03663119 19.7408692,2.05036788 19.7408692,2 L19.8025389,2 Z" id="Path"></path>
                    <path d="M19.9843626,3 C20.0765903,3.83119995 19.741838,4.72285082 19.4788184,5.44070532 C19.3968383,5.66739622 19.338769,6.00743256 19.062086,5.9998762 C18.8981257,5.8147453 19.1030761,5.62205804 19.1713929,5.44070532 C19.4584889,4.66566457 19.664771,3.85695044 19.7862439,3.03022545 C19.8682241,3 19.8750558,3 19.9843626,3 Z" id="Path"></path>
                    <path d="M26.6017839,6.99696297 C26.259708,6.92051402 26.4606097,6.60122724 26.4660395,6.40785638 C26.50405,5.8926812 26.50405,5.37606462 26.4660395,4.86088944 C26.3302951,3.77711319 25.3800843,2.92718077 25,2.09973334 C25.4995394,1.65003365 25.9990788,2.84173783 26.2434187,3.27794653 C26.8622863,4.24270068 27.1104654,5.34103001 26.9547194,6.42584436 C26.9330003,6.6641852 26.9058514,7.03743594 26.6017839,6.99696297 Z" id="Path"></path>
                    <path d="M11,3.09664845 C11,3.34515578 10.57277,3.3670829 10.342723,3.42555521 C9.81220657,3.56077243 9.2629108,3.6667535 8.72769953,3.84582496 C8.49295775,3.92256987 8.22065728,4.06875065 8,3.96276958 C8,3.59731763 8.69014085,3.48768204 9.19248826,3.3670829 C9.66323845,3.20958547 10.1521282,3.08721957 10.6525822,3.00163094 C10.7652582,3.00163094 10.915493,2.97970383 11,3.09664845 Z" id="Path"></path>
                    <path d="M21,3.07297406 C20.9173741,3.44921228 20.7932254,3.81422349 20.6300322,4.1607217 C20.3751654,4.89730672 20.0915234,5.54824232 19.7873276,6.22915521 C19.6557835,6.52464571 19.5242394,6.96574023 19.14605,7 C18.8048574,6.78159398 19.14605,6.65311985 19.3145909,6.43899629 C19.6014712,5.90344502 19.836925,5.3397101 20.0175298,4.75598518 C20.1940418,4.169283 20.4325574,3.60481907 20.7286902,3.07297406 C20.7581279,3.03800808 20.7966902,3.01271393 20.8396806,3.00017205 C20.9136742,2.99588958 20.9342279,3.07297406 21,3.07297406 Z" id="Path"></path>
                    <path d="M21.926083,3.01219789 C22.1153919,3.4187943 21.8980372,3.89044612 21.7543027,4.2319871 C21.4321461,4.92788567 21.0678041,5.59638377 20.6640237,6.23244141 C20.5027606,6.51705889 20.3625318,7.04563421 20.0014426,6.99684264 C19.9769026,6.59024624 20.2713831,6.31782665 20.4326462,6.03320917 C20.7551725,5.45584228 21.1688474,4.81341996 21.4387879,4.19945939 C21.5860281,3.86198437 21.6526368,3.45945394 21.7893599,3.06912139 C21.8125579,3.03719756 21.8428772,3.01328564 21.8770029,3 L21.926083,3.01219789 Z" id="Path"></path>
                    <path d="M27.0234239,4 C27.6674081,4 27.8840756,4.69105691 27.9623167,5.16666667 C28.0104651,5.45528455 28.064632,5.84552846 27.7637048,6 C27.2220359,5.95121951 27.4567591,5.48373984 27.4206478,5.18699187 C27.3604624,4.71138211 26.891016,4.28861789 27.0234239,4 Z" id="Path"></path>
                    <path d="M23,4.07091645 C22.75194,4.86532019 22.3570918,5.61588756 21.8322269,6.29073766 C21.595793,6.62703302 21.3381275,6.95067887 21.0605167,7.26005959 C20.8073631,7.55233605 20.5582926,7.95930328 20.0928166,8 C19.8682449,7.8224143 20.0928166,7.58563337 20.3255546,7.54863635 C21.3164607,6.51931212 22.1187737,5.35265833 22.701932,4.09311466 C22.7161828,4.05054627 22.752947,4.01723438 22.799927,4.00432181 C22.9020051,3.9858233 22.9305869,4.03021972 23,4.07091645 Z" id="Path"></path>
                    <path d="M7.20507463,3.92636081 C7.21298117,4.01914416 7.1692635,4.10866467 7.09171164,4.15849376 C7.01415978,4.20832286 6.91570054,4.21015473 6.83639993,4.16324393 C6.65615896,3.88064652 7.10266499,3.6520751 7.20507463,3.92636081 Z" id="Path"></path>
                    <path d="" id="Path"></path>
                    <path d="M6,5.16721889 C5.94183169,5.45639879 5.63309218,5.57574287 5.45411276,5.73180821 C4.95526495,6.12621836 4.50456726,6.58086137 4.1117671,7.08590453 C3.76371805,7.69094709 3.48019111,8.33267809 3.26608933,9 C2.81864077,8.91737717 3.0557885,8.30229613 3.12290579,8.13705048 C3.70044075,6.88694177 4.58374732,5.81159092 5.68678601,5.01574371 C5.74785421,4.99228264 5.81557363,4.99513949 5.87455782,5.02366517 C5.93354201,5.05219084 5.97878241,5.10396313 6,5.16721889 L6,5.16721889 Z" id="Path"></path>
                    <path d="M2.99741168,6.09316838 C3.03156332,6.32210298 2.71931972,6.41367682 2.55831911,6.5319597 C1.25972006,7.53241072 0.501776445,8.88457348 0.440917141,10.3093806 C0.440917141,10.5993644 0.57752372,10.9885533 0.123794727,11 C-0.0859939463,10.8511925 0.0310974065,10.5917333 0.0457338256,10.40477 C0.196976823,8.43974804 1.1776169,6.85246814 2.64125881,6.06264377 C2.74859255,6.00922569 2.89495674,5.94054531 2.99741168,6.09316838 Z" id="Path"></path>
                    <path d="M24,5.07233601 C23.7318732,6.10823656 22.9789144,6.97823116 22.4353149,7.82394685 C22.2725717,8.11660709 22.0803603,8.38809182 21.8623317,8.63324415 C21.6713372,8.81938253 21.34077,9.0985901 21.0212216,8.96505605 C20.973473,8.8598474 21.0212216,8.81938253 21.0212216,8.70203442 C21.0895813,8.61823879 21.1983205,8.59071782 21.2930214,8.63324415 C22.0276153,8.02222469 22.7107876,6.92158035 23.276425,5.95042359 C23.4674194,5.66312304 23.6290301,4.73647763 24,5.07233601 Z" id="Path"></path>
                    <path d="M9.44922239,10.3474444 C9.01528237,9.82016717 8.9214575,9.46144578 9.05828544,8.57976912 C9.08312881,8.30920884 9.14783613,8.04496286 9.24984454,7.79749718 C9.51530001,7.32619592 9.92428691,6.97520545 10.4031086,6.80777191 C10.9113266,6.71268914 11.317901,7.05844469 11.7792066,7.01954719 C12.4359807,6.96768386 12.8347364,6.31507025 13.5696979,6.09897303 C14.8363336,5.73160775 15.6064794,6.4274408 15.9153196,7.5165708 C16.1506765,8.39549633 15.8855448,9.34470302 15.242908,9.92389384 C14.5353122,10.5116783 13.1592141,10.8833655 11.9473095,10.9827702 C11.0749176,11.0664058 10.2008612,10.8441115 9.44922239,10.3474444 L9.44922239,10.3474444 Z M13.7065258,6.80777191 C12.9637456,7.0109033 12.533715,7.72402413 11.8183003,7.76292163 C11.3648135,7.7888533 11.0364264,7.45606358 10.6024864,7.5165708 C9.96916854,7.60300969 9.51568167,8.57112523 9.6407815,9.31882162 C9.75024384,9.97143522 10.6689457,10.1832105 11.0168796,10.2393958 C12.353884,10.4036297 14.4023936,9.92389384 15.020074,9.1805194 C15.3561409,8.74933029 15.4424551,8.14498234 15.242908,7.62029746 C15.0630771,7.10166413 14.7620556,6.72133302 14.3163875,6.75590858 C14.1120896,6.75240677 13.9079357,6.76976825 13.7065258,6.80777191 L13.7065258,6.80777191 Z" id="Shape"></path>
                    <path d="M1,6.17839556 C0.775466512,6.79543613 0.440867589,7.26969045 0.317594301,7.99892022 C-0.215122405,8.02951727 0.0578398742,7.40227768 0.172307927,7.08100862 C0.306464655,6.69519544 0.48892825,6.33436115 0.713829868,6.01011176 C0.832449326,5.97191666 0.956619101,6.04493533 1,6.17839556 L1,6.17839556 Z" id="Path"></path>
                    <path d="M15.1640023,8.90472105 C15.2003467,8.99702063 15.1609118,9.10217723 15.0732848,9.14662666 C14.9856579,9.19107608 14.8790752,9.15998801 14.8280986,9.07511066 C14.8066342,8.98649279 14.8485122,8.89460675 14.9289646,8.85379665 C15.009417,8.81298656 15.1070009,8.83412955 15.1640023,8.90472105 L15.1640023,8.90472105 Z" id="Path"></path>
                    <path d="M14,9.24390022 C13.9221417,9.58494048 13.5133857,9.67164563 13.1708093,9.76413112 C12.8233512,9.85906196 12.4723506,9.92276159 12.1197224,9.95488245 C11.6953948,9.98956451 10.9518482,10.1629748 11.002456,9.4808943 C11.9208485,9.50036605 12.8369983,9.34101273 13.727496,9.00690614 C13.8456726,8.97177936 13.9628295,9.07366953 14,9.24390022 Z" id="Path"></path>
                    <path d="M7.99561194,13.9152917 C7.73246516,14.1644845 7.42754904,13.7928071 7.21034852,13.708335 C6.73128307,13.5545248 6.26249864,13.3697123 5.80689902,13.1550424 C5.02107224,12.658152 4.32703526,12.026396 3.75602488,11.2882082 C3.43568136,10.9448236 3.17953394,10.5455767 3,10.1098218 C3.062654,10.0802566 3.10024639,10.0295733 3.17125426,10.0084553 C3.24226212,9.98733724 3.20466972,10.0084553 3.20884665,10.0422441 C3.5779936,10.4118937 3.9096242,10.8179761 4.19877979,11.2544193 C4.87036919,12.0652571 5.71224345,12.7145396 6.66317029,13.1550424 C6.90543241,13.2648562 7.21870239,13.3155395 7.4985569,13.4295769 C7.65310343,13.5098254 8.04573514,13.6238628 7.99561194,13.9152917 Z" id="Path"></path>
                    <path d="M28.796293,12 C28.4070962,12 28.5967049,11.6089066 28.5517976,11.421681 C28.3871374,10.7559902 27.553857,10.5354801 27,10.1735106 C27.269444,9.69088475 28.2224772,10.3274517 28.5917152,10.718545 C28.9609532,11.1096384 29.1854898,11.5839432 28.796293,12 Z" id="Path"></path>
                    <path d="M18,12.1749677 C17.8453842,12.5687242 17.1164809,12.3449989 16.7365676,12.4702851 C16.2758199,12.6976626 15.8780937,13.0374712 15.5791576,13.4591509 C15.4377945,13.6426057 15.389201,14.1258524 15.0004525,13.9692446 C14.9921964,13.6835498 15.0971935,13.4063958 15.2920139,13.1996296 C15.6551354,12.716407 16.125894,12.3269758 16.6658861,12.063105 C17.0237114,11.9825639 17.7261091,11.9422933 18,12.1749677 Z" id="Path"></path>
                    <path d="M26.0816487,13.023201 C26.2086367,13.2176404 26.3233355,14.0393038 25.946468,13.9985342 C25.6842993,13.8762256 25.8563475,13.283499 25.8112873,13.0765151 C25.8153837,12.969887 25.9956246,12.9981121 26.0816487,13.023201 Z" id="Path"></path>
                    <path d="M27.0703226,13.0378583 C27.2792383,13.1881294 27.2300817,13.737558 27.2055033,14.1132358 C27.180925,14.4889135 27.1194793,15.0524301 26.7712865,14.9960784 C26.7750845,14.3531021 26.8188905,13.7112555 26.9023708,13.0754261 C26.9720094,13.0754261 27.0416479,12.9345469 27.0703226,13.0378583 Z" id="Path"></path>
                    <path d="M27.881505,14 C28.0559089,14.3716196 28.0375147,14.7603526 27.8281701,15.1271478 C27.7081666,15.4707904 27.641498,15.9587629 27.0081462,16 C26.9281439,15.419244 27.4614928,14.6769759 27.5548288,14 L27.881505,14 Z" id="Path"></path>
                    <path d="M8.90075974,14.165469 C8.87208504,14.1363781 8.90075974,14.0740404 8.83521757,14.0615729 C8.85160311,13.4672871 9.52341034,14.2194949 8.90075974,14.165469 Z" id="Path"></path>
                    <path d="M27.8180021,14.0012009 C28.0980851,14.1420841 27.9797402,14.5647336 27.9481815,14.8585757 C27.9057543,15.1580198 27.8478157,15.4549612 27.774609,15.7481523 C27.6483744,16.2674075 27.470857,16.9919495 27.0290359,17 C26.9304152,16.7826374 27.1079325,16.5693 27.190774,16.3720635 C27.2859281,16.1482368 27.3624646,15.9166405 27.4195742,15.6797234 C27.5376963,15.1489728 27.6233331,14.6112357 27.6759882,14.0696299 C27.7062406,14.0205625 27.7616469,13.9938652 27.8180021,14.0012009 L27.8180021,14.0012009 Z" id="Path"></path>
                    <path d="M14.0746854,13.7883724 C14.0746854,13.8216192 14.1156492,13.8133075 14.1402275,13.8216192 C14.230348,13.9504503 14.177095,14.0709698 14.1074565,14.1956451 C14.0169026,14.2254463 13.9180084,14.2132851 13.837095,14.1623984 C13.7988159,14.0805622 13.8049522,13.9844662 13.8533192,13.9083246 C13.9016861,13.8321831 13.9854114,13.7868146 14.0746854,13.7883724 L14.0746854,13.7883724 Z" id="Path"></path>
                    <path d="M28.9751127,15.0134588 C29.103462,15.8568139 28.7049037,16.7360564 28.475226,17.4825154 C28.4076737,17.7050176 28.3333663,18.0890133 28.0327587,17.981351 C27.9246751,17.7947362 28.1138214,17.6870739 28.1712409,17.5399353 C28.2793245,17.2671907 28.3738976,16.8903725 28.475226,16.5422642 C28.6175191,16.0428376 28.7192205,15.5313601 28.7792111,15.0134588 C28.8434196,14.9955137 28.9109042,14.9955137 28.9751127,15.0134588 Z" id="Path"></path>
                    <path d="M14,15.2368359 C13.8285157,15.494766 13.2876808,15.2945815 13.0282559,15.3600264 C12.3467159,15.5371128 12.5885527,16.5149374 12.2719663,17 C11.9333949,17 11.9993503,16.6689255 12.0169385,16.4648913 C12.0565118,16.0414239 12.4082743,15.1251945 12.8479776,15.0443508 C13.1909461,14.9827555 13.8329128,14.9404088 14,15.2368359 Z" id="Path"></path>
                    <path d="M30,15.0298452 C29.8594604,16.170796 29.4379178,17.2654797 28.7686691,18.2274293 C28.590149,18.5149973 28.4619807,18.9442032 28.0957856,19 C27.7982521,18.6695114 28.2743057,18.3647752 28.4345161,18.1415882 C28.9795879,17.1889269 29.406544,16.1808824 29.7070439,15.1371467 C29.6841567,14.9482961 29.9404933,14.9998008 30,15.0298452 Z" id="Path"></path>
                    <path d="M33.2542532,15.0147044 C33.3350866,15.8565304 33.1674321,16.8527525 33.5536362,17.4225475 C33.7182968,17.6614937 34.0356428,17.6063523 33.996723,17.9960185 C33.1973704,18.0879209 32.9309196,16.5696931 33.0147468,15.4227511 C33.029716,15.2499746 33.0416913,15.0808741 33.1374938,15 L33.2542532,15.0147044 Z" id="Path"></path>
                    <path d="M24.9997194,16.8921547 C24.7731576,17.1947697 24.5350758,16.7740611 24.3699545,16.6818004 C23.6557088,16.2758536 21.896975,16.2684727 20.9139272,16.4677557 C20.6028848,16.530493 20.2419219,16.7777515 20,16.5600164 C20.2035216,16.1208557 21.2134496,16.0987131 21.8547346,16.0138333 C22.4110628,15.9828846 22.9692032,16.0038955 23.5213078,16.0765706 C23.8299025,16.129739 24.1271048,16.2320147 24.4006747,16.3791855 C24.6656368,16.50466 25.0112395,16.6448962 24.9997194,16.8921547 Z" id="Path"></path>
                    <path d="M30.9555088,16.0345031 C31.1006454,16.3687746 30.854353,16.7259414 30.7356049,17.0464757 C30.6168567,17.36701 30.4805163,17.7104396 30.3397778,18.0218157 C29.9660086,18.9542801 29.4424877,19.8136851 28.7916541,20.5631947 C28.6245272,20.7555153 28.2990693,21.1951052 28,20.9020453 C28,20.5998272 28.2726809,20.5448785 28.4398079,20.3754532 C29.3678024,19.3955341 30.2342239,17.5364352 30.7092164,16.0665566 C30.7356049,15.9841335 30.8631491,15.9841335 30.9555088,16.0345031 Z" id="Path"></path>
                    <path d="M4,19.8651865 C3.72479541,20.1910749 3.31898525,19.8455547 3.06710308,19.6727945 C2.46858975,19.247134 1.96475807,18.735284 1.5791325,18.1611435 C1.41121105,17.9020034 0.944762594,17.3758703 1.00540089,17.1324356 C1.13600646,16.5984498 1.8496726,17.8470342 1.882324,17.9177088 C2.27152301,18.573075 2.83496654,19.1440956 3.52888706,19.5864145 C3.76211129,19.6963527 3.88338789,19.5628563 4,19.8651865 Z" id="Path"></path>
                    <path d="M26,18.6426063 C25.9443475,19.2795785 25.5652743,19.855565 24.9764193,20.1978962 C24.2390111,20.5950466 23.4200229,20.8483409 22.5707886,20.9419026 C21.1801009,21.076457 20.3076818,20.9933499 19.3877549,20.5224097 C18.6233085,20.1266616 17.9063701,19.8298505 18.0100238,18.7732032 C18.1007209,17.8352802 19.1718096,16.739058 20.3767843,17.0556565 C21.037577,17.2297857 21.1498685,18.5397118 22.1043468,18.38537 C22.7780961,18.2745606 22.968128,16.9488045 24.0824057,17.1981258 C24.6179501,17.3089353 24.574761,17.989622 25.036884,18.2666456 C25.4428611,18.4684771 25.771098,18.2231133 26,18.6426063 Z M24.3026699,18.5436693 C24.1515082,18.3734976 24.0780868,17.8985999 23.8448659,17.8669401 C23.611645,17.8352802 23.2834081,18.2983055 23.1365653,18.4486897 C22.9446013,18.6953604 22.6895301,18.8951144 22.3937135,19.0304394 C21.8056226,19.1670929 21.1845784,18.9768867 20.804356,18.5436693 C20.5193082,18.2626881 20.4329301,17.7521731 20.0960555,17.669066 C19.4784519,17.5345117 18.7442379,18.3022629 18.7183244,18.8563103 C18.6794543,19.5726143 19.2625066,19.6478064 19.7764564,19.9287876 C20.0708135,20.1043924 20.392672,20.2378421 20.7309346,20.3245356 C21.2954339,20.3887428 21.8670847,20.37808 22.4282647,20.2928758 C23.564137,20.1820663 24.7431983,19.7507009 25.1534944,18.9631622 C24.8302835,18.9049598 24.533755,18.7587585 24.3026699,18.5436693 Z" id="Shape"></path>
                    <path d="" id="Path"></path>
                    <path d="M30.9785756,18.0813467 C31.070688,18.3500884 30.8422491,18.5012557 30.7390832,18.7322057 C30.4074783,19.4292547 30.1495635,20.3194619 29.6337337,20.7603664 C29.5231987,20.8569454 29.1952784,21.1802754 29,20.8653436 C29.0552675,20.605 29.2468614,20.605 29.3905568,20.4874255 C30.057451,19.9373446 30.2343069,18.9001693 30.6875002,18.1149394 C30.6875002,18.0687494 30.7427677,18.0603512 30.7501367,18.0099621 C30.8320057,17.9833921 30.920047,18.010904 30.9785756,18.0813467 L30.9785756,18.0813467 Z" id="Path"></path>
                    <path d="M19.3475175,19.0059708 C19.5371941,19.4627254 20.2080063,19.7738182 20.9568405,19.752303 C20.9206177,19.8272622 21.0137618,19.820744 20.9982378,19.8859258 C20.2944824,20.2900533 18.897321,19.5176484 19.0059891,19.1656664 C19.0318625,19.08093 19.1094826,18.9733799 19.3475175,19.0059708 Z" id="Path"></path>
                    <path d="M2.09909392,19.206199 C1.73041922,19.2519133 1.74270838,18.7906146 1.9639132,18.7906146 C2.18511802,18.7906146 2.2752385,18.9984068 2.09909392,19.206199 Z" id="Path"></path>
                    <path d="M20,23.8352149 C19.8211179,24.1004814 19.4872046,23.9722693 19.2526702,23.9457426 C19.0181359,23.919216 18.6683219,23.9236371 18.4059614,23.8750049 C17.9191267,23.7133841 17.4412793,23.5199938 16.9749044,23.2958398 C16.6608669,23.180891 16.3110529,23.1941543 16.0606179,23.0747844 C15.937388,23.01731 15.810183,22.8758346 15.6631021,22.7874124 C15.1662073,22.4735138 14.808443,22.1286674 14.2956476,21.7749788 C13.6294182,21.3339311 13.0353118,20.7703454 12.5386275,20.1082212 C12.3120435,19.8075859 11.9105525,19.4273706 12.0178818,19.0206287 C12.2365155,18.9189433 12.3478199,19.2195786 12.4392486,19.3477907 C13.0167605,20.1887708 13.7216335,20.9113798 14.5222316,21.4831857 C15.0231016,21.8324532 15.3411143,22.1375096 15.8578849,22.4602505 C15.9771396,22.5354093 16.0765186,22.6636214 16.1838479,22.7166747 C16.4263325,22.8272024 16.7840968,22.8183602 17.0941592,22.933309 C17.5188734,23.1414281 17.9542453,23.3215319 18.3980111,23.4726841 C18.644471,23.5257374 19.0380116,23.5566851 19.3401237,23.5832118 C19.5547823,23.6008962 19.9483229,23.4638419 20,23.8352149 Z" id="Path"></path>
                    <path d="" id="Path"></path>
                    <path d="M6.98246521,21.989514 C6.30851803,22.0503154 5.63590889,21.8457951 5.04268466,21.3996848 C5.04268466,21.3341483 5.04268466,21.30138 5,21.2882726 C5.10908301,20.6722288 5.72089644,21.2161824 6.20465589,21.3407019 C6.59356055,21.4455604 7.1010337,21.4586678 6.98246521,21.989514 Z" id="Path"></path>
                    <path d="M28.1721469,20.9626878 C28.1721469,21.0998306 28.0902192,21.1954151 27.9058818,21.1663242 C27.6560023,20.9419086 28.07793,20.6551553 28.1721469,20.9626878 Z" id="Path"></path>
                    <path d="M28,22.0974583 C27.9175258,22.4321352 27.5092784,22.6013539 27.1752577,22.774333 C26.3645826,23.2698234 25.4761072,23.6501996 24.5402062,23.9024576 C24.3835052,23.9400617 24.1278351,24.1017596 24,23.9024576 C24.1360825,23.5489785 24.6226804,23.5640202 24.9443299,23.4700098 C25.9258067,23.1412449 26.8390824,22.66317 27.6453608,22.0560937 C27.7278351,22.0147291 27.9257732,21.9357604 28,22.0974583 Z" id="Path"></path>
                    <path d="M22.1860255,23.8931465 C22.1860255,24.1134063 22.1204834,24.2339258 21.8869894,24.200679 C21.6616882,23.9762634 22.0139774,23.6188608 22.1860255,23.8931465 Z" id="Path"></path>
                    <path d="M10.1529271,24.0033639 C10.3716594,24.2157046 10.2987486,24.6492335 10.3508277,24.9810158 C10.5035932,25.9542438 11.0452161,26.6487747 11.5451756,27.2636779 C11.701413,27.467171 11.9756964,27.6220028 12,27.9537851 C11.701413,28.1528544 11.4306016,27.6618166 11.2049254,27.374272 C10.6389989,26.6531985 9.90294727,25.5428338 10.0105775,24.0785679 C10.0417588,24.01918 10.0979125,23.9895137 10.1529271,24.0033639 Z" id="Path"></path>
                    <path d="M33,25.1258094 C32.501548,26.5689177 31.797313,27.7160037 30.4162807,28.4560592 C30.0307385,28.7076558 29.5856572,28.892765 29.1084157,29 C29.0004547,28.9325014 28.9686729,28.8117185 29.0332883,28.7144875 C29.0979038,28.6172565 29.2399542,28.5721111 29.3690742,28.6077706 C30.5594789,28.1435462 31.5028832,27.3473287 32.0259607,26.3654024 C32.2454625,25.9435708 32.4100889,25.4514339 32.6616014,25.0629047 C32.6918615,25.0338521 32.7314108,25.0120908 32.7759252,25 C32.8856761,25.0111008 32.9359786,25.0814061 33,25.1258094 Z" id="Path"></path>
                    <path d="M33,27.0643588 C32.9851577,27.5144367 32.6323677,27.8988839 32.1414039,28 C31.6539429,27.6237633 32.5734716,27.3415858 32.6953369,27.0099035 C32.8008803,26.9859482 32.9128848,27.0059678 33,27.0643588 Z" id="Path"></path>
                    <path d="M24,31.461803 C24,32.0084168 23.1557971,32.0624775 22.7246377,31.9543561 C22.5289855,31.9063021 22,31.5639177 22,31.2155265 C22.0362319,30.6568993 22.5144928,31.3536816 22.6847826,31.4137491 C23.1956522,31.5759312 23.7246377,31.1254254 24,31.461803 Z" id="Path"></path>
                    <path d="M25.6753479,10.30448 C26.2154116,10.4227256 26.7400531,10.6054076 27.2385127,10.8487793 C27.6891181,11.1616162 28.1116824,11.5147901 28.5012251,11.9041383 C28.9437834,12.2656195 29.2564164,12.7351296 29.6664934,13.0259766 C30.0765704,13.3168236 30.6652948,13.5370363 31.0631913,13.9109824 C31.5230632,14.3622921 31.8662608,14.9233712 32.0619928,15.5438804 C32.1107148,15.7266985 32.1107148,15.9593761 32.1594368,16.154659 C32.2081588,16.349942 32.2934224,16.5119853 32.3259037,16.6989584 C32.3989867,17.1144541 32.3259037,17.5798092 32.4274079,18.0285445 C32.4801901,18.3401663 32.5898146,18.6393232 32.6588375,18.94679 C32.7278604,19.2542568 32.910568,19.5077091 32.95929,19.7777813 C33.0482238,20.3508163 32.9908794,20.9376476 32.7928231,21.4813136 C32.6913189,21.7513858 32.4477088,21.9466687 32.3868062,22.1959661 C32.3254684,22.8172178 32.314604,23.4426064 32.3543249,24.0656967 C32.309663,25.2415494 32.2568808,26.2802886 31.8224428,27.0614205 C31.3562001,27.8980401 30.6789151,28.591137 29.8613815,29.0682646 C28.8290107,29.678721 27.7216334,30.1454273 26.5685849,30.4560201 C25.962616,30.6673142 25.3406574,30.8271287 24.7090278,30.9338402 C23.706499,31.0320376 22.6966097,31.0208951 21.6963828,30.9006005 C21.0832974,30.8216563 20.4336705,30.6055986 19.7678029,30.4851048 C17.94485,30.2083308 16.1800146,29.6212985 14.5464263,28.7483329 C13.1700292,27.9464263 11.8829558,26.8495177 11.3551339,25.2083098 C11.1991673,24.6182517 11.0878599,24.0167728 11.0222001,23.4092135 C10.9897188,23.2014657 10.9978391,22.9937178 10.9572374,22.7942799 C10.8638536,22.3787842 10.3603927,21.9632886 10.4253554,21.3317351 C8.05015686,21.0865927 5.95917014,20.5547582 4.4731485,19.324891 C3.94863225,18.9358666 3.49857468,18.4513583 3.14547344,17.8955859 C2.64983305,16.6469935 2.33390686,15.3313932 2.20757454,13.9899266 C2.10586917,13.2463792 2.05026899,12.4969879 2.04110763,11.7462499 C1.98629746,10.9411641 1.98629746,10.133151 2.04110763,9.32806512 C2.22784585,8.68736613 2.50848353,8.07936512 2.87344215,7.52481389 C3.50841838,6.45114502 4.31866821,5.49690161 5.26894151,4.70359827 C6.70927847,3.43060056 8.37982466,2.4593635 10.1858054,1.84498803 C11.4363373,1.3962527 13.1010063,1.27991391 14.6073288,1.09709582 C15.8670219,0.979891824 17.1339942,0.96877456 18.3954659,1.06385616 C19.6705968,1.1454904 20.9260967,1.42571085 22.1186404,1.89484751 C23.6655645,2.54717572 24.7902312,3.40309681 25.3667751,4.72021809 C25.6631674,5.38501117 25.6266258,6.02071955 25.6997089,6.89741543 C25.7727919,7.7741113 25.9595597,9.41947417 25.6753479,10.30448 Z M10.5837019,14.1935195 C10.7582892,13.9151374 11.4200966,14.1935195 11.7814516,14.0605608 C11.8951363,14.0938005 11.9073168,14.2766186 11.911377,14.330633 C12.2384202,13.8995034 12.7422605,13.6478401 13.2755936,13.6492201 C13.6816104,13.279429 14.0876273,13.1921749 14.4408619,12.8680883 C14.6479305,12.6686503 14.7778559,12.3861133 14.972744,12.1866754 C15.8432021,11.2812155 16.9885577,10.7054238 18.2208787,10.5537774 C19.0856946,10.4706782 19.6459978,10.7573702 20.5148738,10.7947648 C21.0339039,10.8612446 21.5590086,10.8612446 22.0780387,10.7947648 C22.423153,10.7033558 22.784508,10.1715213 23.0443587,9.90975906 C23.4097739,9.531658 23.8076704,9.33222008 24.0715814,9.05799293 C24.6977075,8.32222282 25.041138,7.37862874 25.0379241,6.40297557 C25.0253624,5.360557 24.5829616,4.37209854 23.8198509,3.68147891 C22.9144334,2.82555782 21.5664575,2.36020267 20.157579,2.04858091 C17.2545586,1.40871757 13.1984504,1.79512855 10.7339282,2.41006215 C9.54883807,2.75431171 8.41808591,3.27062196 7.37616891,3.94324118 C5.34408012,5.15030304 3.74221697,6.99046714 2.80441929,9.1951065 C2.86532182,9.73109592 2.7394566,10.4415935 2.80441929,11.064837 C2.86126165,11.6382211 3.16983445,12.7268197 3.50276826,12.9719622 C4.17675621,13.466402 5.49631094,12.5813962 6.29616411,12.9345676 C6.57021298,13.134658 6.78739606,13.4056637 6.92549021,13.7198544 C7.15691981,14.2142942 7.33150705,15.0162009 7.62383918,15.6602192 C7.8390281,16.154659 8.40745168,17.0105801 8.88655155,17.0189764 C9.36565142,17.0272 9.66204371,16.4330411 10.1858054,16.3374771 C10.4091147,16.3000825 10.7217477,16.4122664 10.9166357,16.2709978 C11.1723109,15.6090729 11.4833939,14.9709917 11.8464143,14.3638727 C11.4403975,14.4594367 10.8110714,14.625635 10.5837019,14.1935195 Z M23.4828569,10.5205377 C24.0066187,10.4665233 24.424816,10.30448 24.9769989,10.2837052 C25.1613087,9.80722287 25.2078191,9.28654827 25.1109845,8.78376579 C24.7415091,9.54412287 23.9944382,9.90975906 23.4828569,10.5205377 Z M32.0944741,21.3234252 C32.2915552,20.8994438 32.3608136,20.4250129 32.2934224,19.9605994 C32.2650012,19.8027111 32.1513165,19.615738 32.0944741,19.4163001 C31.9726691,19.0008044 31.826503,18.5853087 31.7615403,18.1947428 C31.6843971,17.7584723 31.7615403,17.2848073 31.6600361,16.8651566 C31.6316149,16.732198 31.5219904,16.6200142 31.4935692,16.4912105 C31.440787,16.2336032 31.4935692,15.9801509 31.4286065,15.7433183 C31.264825,15.2416886 30.9864377,14.7872946 30.6165728,14.4178871 C30.1171721,13.9691518 29.3051384,13.7032346 28.7570157,13.088301 C28.5005727,12.8128485 28.2294833,12.5520754 27.944982,12.3071691 C27.6804354,12.0374989 27.399741,11.7849431 27.1045271,11.550967 C26.4199196,11.1450649 25.6378837,10.9435522 24.8470735,10.969273 C24.0350398,11.064837 23.2230062,11.4138534 22.4109725,11.4803327 C21.4249557,11.5693511 20.4323605,11.5470572 19.4511097,11.4138534 C19.1455853,11.3342836 18.8348542,11.2773517 18.5213312,11.2435002 C17.2180171,11.2435002 16.0486886,12.0744915 15.4274828,12.706045 C15.2610159,12.8763982 15.1595117,13.1215406 14.997105,13.2835839 C14.7749226,13.4933777 14.5296673,13.6760361 14.2662747,13.8278833 C14.0119621,14.0146562 13.7399108,14.1747377 13.454241,14.3057033 C13.1748755,14.3492356 12.9020251,14.4288134 12.6422073,14.5425358 C12.1590473,14.8790873 11.525661,16.2626879 11.4444576,17.0355099 C11.3997958,17.4510055 11.4160365,17.8041769 11.3429534,18.1573482 C11.2698704,18.5105195 11.0993433,18.7764367 11.042501,19.1129882 C10.8516731,20.2472914 11.042501,21.9092741 11.5419017,22.4120239 C11.9194973,22.781815 12.5285226,22.6156168 13.0725852,22.7194907 C13.5472195,22.8719008 13.9586766,23.1818499 14.2419137,23.6003415 C14.7575551,24.4313329 14.6966525,25.960357 15.2366549,26.6999393 C15.4441187,26.9573233 15.7301175,27.1358554 16.0486886,27.206844 C16.3166597,27.206844 16.8972638,26.6833194 17.0434299,26.5628257 C17.3157069,26.2693682 17.6448284,26.037284 18.0097499,25.8814128 C18.6737908,25.7154954 19.3746112,25.8134954 19.9708113,26.1556399 C20.6023464,26.6898841 21.1228271,27.3482565 21.5014948,28.0918498 C21.9075116,28.9685456 21.9521735,29.8452415 23.3610519,29.6250288 C23.8726331,29.413126 23.8360916,29.0474898 23.9944382,28.5031905 C24.112183,28.0876948 24.400455,27.6306496 24.5263202,27.107125 C24.6366698,26.606177 24.7916028,26.1166191 24.9891794,25.6445802 C25.293692,25.0462665 26.0854249,24.5019671 26.8527967,24.896688 C27.2534433,25.1605822 27.5762789,25.5311739 27.7866354,25.9686669 C27.9815235,26.434022 27.969343,26.8370528 28.3509988,26.8536727 C28.5981835,26.8045701 28.8151571,26.6545437 28.9519038,26.438177 C29.7355163,25.2747891 28.692053,21.6018073 30.1699543,21.1322972 C30.9413863,20.8871548 31.1809362,21.4688487 31.6640963,21.7098362 C31.6925174,21.4730037 31.9889097,21.5228632 32.0944741,21.3400451 L32.0944741,21.3234252 Z M4.59901372,18.5520691 C4.98066955,18.8055214 5.55721346,18.751507 5.86172609,19.1296081 C5.9510498,19.233482 5.76022188,19.2750316 5.76022188,19.3996803 C6.65523203,19.8277789 7.591427,20.1591979 8.55361774,20.38856 C9.1746573,20.1664294 9.7752106,19.8883417 10.3482122,19.5575686 C10.3711381,19.4119019 10.3833529,19.2646802 10.3847537,19.1171432 C9.97873685,19.3373559 9.64174287,19.4744695 9.16670317,19.6946822 C8.94745408,19.7944011 7.94865265,20.2597563 7.9039908,19.9315147 C7.9039908,19.7486966 8.2247441,19.6406678 8.4683542,19.5575686 C8.68644407,19.483237 8.90057378,19.3972497 9.10986081,19.2999613 C9.84475129,18.9841846 10.4618969,18.8844656 10.6080629,18.2113626 C9.82445045,18.5520691 9.06113879,19.2791865 8.04609669,19.1628477 C8.04929323,19.1251696 8.03759312,19.0877531 8.01361534,19.0589738 C8.12730006,18.7889016 8.44399319,18.8636908 8.67948296,18.7889016 C9.08628536,18.6267133 9.4788362,18.4293307 9.85287163,18.1988978 C10.2142266,17.9953049 10.7623493,17.8207967 10.7501688,17.3679064 C10.4807054,17.5884159 10.1910935,17.7818238 9.88535298,17.9454454 C9.33498786,18.134302 8.7657495,18.2597266 8.18820259,18.3193915 C7.96895349,18.3609411 7.65226036,18.564534 7.62383918,18.2861519 C7.62383918,18.1033338 7.88775012,18.0160797 8.05421703,17.98284 C9.12204132,17.7709372 10.0843012,17.7169228 10.5512206,16.9939603 C9.7797886,17.0687495 9.67422422,17.6088939 9.02053711,17.6753732 C8.57571522,17.6989969 8.14532592,17.5102382 7.85526878,17.1643135 C7.44929158,16.7483009 7.1326155,16.2501683 6.92549021,15.7017688 C6.69812078,15.1283847 6.56413523,14.4552817 6.29616411,13.9317572 C6.21905719,13.7794543 6.10425883,13.6505146 5.9632303,13.5578111 C5.67901852,13.4539372 5.15119662,13.6990796 4.83044332,13.6242904 C4.83044332,13.8361932 5.27300168,13.8985175 5.32984403,14.1685897 C5.27300168,14.2018294 5.27706185,14.2973934 5.19585848,14.3057033 C4.8588645,14.3555628 4.62337473,13.856968 4.23359857,13.761404 C4.05495116,13.7198544 3.86412324,13.7863337 3.70171651,13.761404 C3.26727849,13.6990796 3.08051074,13.4082326 2.80441929,13.2503443 C3.56398067,13.9154584 4.4148655,14.4628267 5.32984403,14.8749324 C5.64684771,14.9834719 5.93275532,15.1704392 6.16217856,15.4192317 C5.95917014,15.7973328 5.57751431,15.4192317 5.35014488,15.2821181 C4.50420226,14.867579 3.68264852,14.402817 2.88968283,13.8902076 C2.90769228,14.0850811 2.95139759,14.2765628 3.01960822,14.4594367 C3.01960822,14.3846475 3.18201495,14.4594367 3.25103782,14.426197 C4.05500766,14.8259969 4.83220279,15.2798818 5.57751431,15.7848679 C5.80082357,15.8097976 5.98353115,15.8638121 5.98353115,16.1255743 C5.95510997,16.1255743 5.94292946,16.154659 5.94698963,16.1962086 C5.54097279,16.3042375 5.256761,15.963531 4.98472972,15.7807129 C4.35982116,15.3963788 3.70207589,15.0709539 3.01960822,14.8084531 C2.97494636,15.1366946 3.32818101,15.3319776 3.55149028,15.489866 C4.06385617,15.8468126 4.60755353,16.1542184 5.17555764,16.4081114 C5.40698723,16.5036754 6.028193,16.6241692 6.00789216,16.8485368 C5.98759131,17.0729045 5.74804138,17.0147351 5.54097279,16.9524107 C4.6152544,16.6698737 3.88036392,16.067405 3.14953361,15.6228246 C3.14953361,15.8056427 3.23073697,15.9469112 3.24697765,16.1338843 C3.65299449,16.3333222 4.05901133,16.6033944 4.51375019,16.8152972 C4.96848905,17.0272 5.56127363,17.0438198 5.80894391,17.4967101 C5.74804138,17.5257948 5.75210155,17.6213588 5.67495835,17.6296687 C4.88609421,17.3639022 4.11903207,17.0346317 3.3809632,16.6449439 C3.4343654,16.8959419 3.5189639,17.1389063 3.63269364,17.3679064 C4.03741333,17.4819082 4.42829947,17.6421916 4.79796197,17.8457264 C4.96848905,17.9205157 5.90638795,18.2155176 5.89420744,18.4232654 C5.88202694,18.6310133 5.57345414,18.5686889 5.43134824,18.5229844 C4.89540602,18.3609411 4.36758412,17.9620652 3.96562745,17.8789661 C4.23765874,18.0285445 4.31480194,18.3609411 4.59901372,18.5520691 Z M9.25196671,20.5215186 C9.68771001,20.6295119 10.1394294,20.4206365 10.3482122,20.0146139 C9.97467668,20.1725022 9.63362253,20.3677852 9.25196671,20.5215186 Z M30.0643899,22.7361105 C30.3328032,22.488876 30.5484346,22.1875826 30.6977762,21.8511047 C30.2227365,21.6142722 29.995367,22.30815 30.0643899,22.7361105 Z M29.9304043,23.7914695 C30.4562866,23.3844796 30.8979193,22.8746314 31.2296582,22.2915302 C31.1240939,22.2499806 31.0834922,22.1461067 30.9616871,22.1211769 C30.766799,22.8316745 29.9507052,22.9023088 29.9304043,23.7914695 Z M31.5950734,22.4286437 C31.0932563,23.1502231 30.5249349,23.8208596 29.897923,24.4313329 L29.897923,25.0795061 C30.5559689,24.4444699 31.1679651,23.7612512 31.7290589,23.0352674 C31.7290589,22.8399844 31.7656005,22.5699123 31.6925174,22.4244888 L31.5950734,22.4286437 Z M11.7002482,23.3801288 C11.838294,24.6889402 12.1712278,25.66951 12.8289751,26.4090923 C13.0522843,26.6583897 13.2349919,26.9783214 13.4623613,27.1902241 C13.9211671,27.5676068 14.4163589,27.8961606 14.9402626,28.1707939 C16.3880108,28.9439854 17.9482395,29.4729296 19.5607343,29.7372126 C19.9139689,29.8036919 20.2875044,29.8286217 20.6569797,29.9034109 C21.1766813,30.0155947 21.6679617,30.3189066 22.2201446,30.177638 C21.3187872,29.9698902 21.2741253,29.0724196 20.8884093,28.3411472 C20.6703225,27.963293 20.4145159,27.6096133 20.1250977,27.2857882 C19.7190808,26.8038132 19.4023877,26.3924725 18.5944142,26.4547968 C17.8960652,26.5254311 17.8635839,26.7622636 17.433206,27.1029701 C17.1978545,27.2976199 16.9525439,27.4793101 16.6983155,27.6472694 C16.3593009,27.8583013 15.94746,27.9083302 15.5695887,27.784383 C14.2784552,27.2940981 14.201312,25.3329585 13.6734901,23.941048 C13.3933385,23.7706948 13.3040148,23.4923126 12.9426598,23.3967486 C12.5813048,23.3011846 12.0372422,23.4258333 11.6799474,23.2596351 L11.7002482,23.3801288 Z M30.7830397,24.709715 C30.3770229,25.1252106 29.8207798,25.5781009 29.8207798,26.1722597 C30.1049916,25.8980326 30.4257449,25.5656361 30.7830397,25.2166197 C31.2134176,24.801124 31.8305632,24.3440788 31.6803369,23.6875956 C31.3717641,24.0158372 31.103793,24.3565437 30.7627389,24.709715 L30.7830397,24.709715 Z M29.6543129,27.7012838 C29.2482961,27.4436765 29.8532611,27.1528295 30.0603297,26.9866313 C30.6200543,26.4482564 31.152626,25.8810628 31.6559759,25.287254 L31.6559759,24.8717583 C31.0347702,25.4950018 30.2267966,26.2221192 29.5934104,26.9492367 C29.1143105,27.0448007 29.1183707,27.3647323 28.7813767,27.493536 C27.0639255,28.0419903 27.4415211,25.5282415 26.3858773,25.4160576 C26.0529435,25.378663 25.7443707,25.7318343 25.6225657,25.960357 C25.421514,26.477153 25.2652721,27.0110449 25.1556463,27.5558603 C25.0703828,27.8591722 24.8876752,28.2123435 24.7496295,28.54474 C24.6559464,28.9019963 24.5448291,29.2542242 24.4166957,29.6000991 C24.2421084,29.8992559 23.8807534,30.0446794 23.653384,30.2441174 C24.9769989,30.2939768 25.8174538,29.9698902 26.8446764,29.6665784 C27.9457537,29.342641 28.9879591,28.8374395 29.9304043,28.1707939 C30.0075475,28.0752299 29.8167196,28.0378353 29.8654417,27.8633271 C30.571911,27.4187468 31.367704,26.8869123 31.489509,25.960357 C30.9662628,26.6387576 30.3397564,27.2265795 29.6340121,27.7012838 L29.6543129,27.7012838 Z" id="Shape"></path>
                </g>
            </g>
        </g>
    </g>
</svg>