<?xml version="1.0" encoding="UTF-8"?>
<svg width="27px" height="42px" viewBox="0 0 27 42" version="1.1" xmlns="http://www.w3.org/2000/svg" xmlns:xlink="http://www.w3.org/1999/xlink">
    <title>E5A79516-795E-4085-B48B-919F508306E9</title>
    <g id="Page-1" stroke="none" stroke-width="1" fill="none" fill-rule="evenodd">
        <g id="13.-Landing-screen" transform="translate(-281.000000, -576.000000)" fill="#60951D">
            <g id="Categories" transform="translate(6.000000, 570.000000)">
                <g id="Asset-5" transform="translate(275.000000, 6.000000)">
                    <path d="M24,0.896182303 C23.9437364,0.91127984 23.8997074,0.950228507 23.8826406,1 C23.3398533,0.762084444 22.8801956,0.381419554 22.0391198,0.329510705 C22.0391198,0.286253331 22.0391198,0.264624644 22,0.255973169 C22,0.0310348253 22.1662592,-0.0251997608 22.4889976,0.00940613833 C23.0268949,0.0656407244 23.99022,0.463608564 24,0.896182303 Z" id="Path"></path>
                    <path d="M23.9804135,1.98613497 C23.6466521,2.06926954 23.5477598,1.75591615 23.3705779,1.6472017 C22.758696,1.30011887 21.9690507,1.20255345 21.2485148,1.38500805 C21.0300349,1.47299614 20.8253976,1.58029135 20.6386792,1.70475641 C20.4903408,1.79108847 20.2266281,2.02450477 20,1.81027337 C20,1.62481932 20.3337614,1.53209229 20.5397869,1.41698288 C21.1397382,1.05276728 21.9192291,0.917697285 22.66185,1.04927227 C23.0177788,1.14036801 23.3498851,1.28005217 23.6425316,1.46174765 C23.8279546,1.58325203 24.0710647,1.79108847 23.9804135,1.98613497 Z" id="Path"></path>
                    <path d="M16.8101691,7.00771513 C16.9162132,6.97431646 16.9389369,7.05781314 16.9957462,7.09677825 C17.0487682,7.71465364 16.5942937,7.80371676 16.2913107,8.00967522 C15.9727218,8.28697656 15.6411306,8.53065817 15.2990414,8.73887951 C14.9242504,8.85254883 14.5446538,8.92879789 14.1628551,8.96710376 C13.6856569,9.02276821 13.0266689,8.96710376 12.488874,8.96710376 C12.0760597,8.96710376 10.973959,9.13966355 11.00047,8.69434795 C11.00047,8.39932637 11.44737,8.46612371 11.6821818,8.46612371 C12.8183681,8.46612371 14.1363441,8.56631972 15.1248262,8.28243103 C15.3772642,8.16642513 15.6170512,7.99770771 15.8368362,7.78145098 C16.2496506,7.46416362 16.5602081,7.45859717 16.8101691,7.00771513 Z" id="Path"></path>
                    <path d="M26.5381724,7 C27.0230596,7.28882738 27.2989437,9.0444448 26.4712914,8.99913855 C25.9362434,8.96515886 26.3291693,8.43281035 26.2622883,7.92877825 C26.2121275,7.52102194 25.7941213,7.23785784 26.1285263,7 L26.5381724,7 Z" id="Path"></path>
                    <path d="M3.05082994,12 C2.82900268,11.5498113 3.38962068,10.9780715 3.64774696,10.7079583 C3.96800888,10.4004332 4.3233294,10.1415776 4.70445141,9.93813554 C5.07181875,9.68088829 5.45763729,9.45803391 5.85795321,9.2718562 C6.38678388,9.12694194 6.92719686,9.04098458 7.47124245,9.01524862 C7.65677071,9.01524862 7.97942856,8.92971275 7.99959467,9.1638109 C8.01976079,9.39790905 7.28168096,9.42492037 7.07195336,9.45643359 C6.72724987,9.49310354 6.38504805,9.55475947 6.0475147,9.64101097 C5.03916249,9.98565489 4.13688508,10.6373227 3.44205258,11.5227999 C3.304923,11.7388905 3.44608581,11.9099623 3.05082994,12 Z" id="Path"></path>
                    <path d="M4.0910297,10 C4.0910297,9.96153846 4.05935826,9.96634615 4.04035539,9.96153846 C3.95484251,9.82692308 4.02135253,9.59615385 4.0910297,9.48076923 C4.3149024,9.26439186 4.5595864,9.1021963 4.81630565,9 C4.94299141,9 4.99366571,9.11538462 5,9.19711538 C5,9.47596154 4.59460558,9.54807692 4.4014098,9.70673077 C4.27789119,9.82692308 4.24621975,9.97596154 4.0910297,10 Z" id="Path"></path>
                    <path d="M15.1683227,12.0958199 C15.0935535,12.1249288 15.052015,12.1831467 14.9273996,12.1623546 C14.5867842,11.9461169 15.2306304,11.5801764 15.1683227,12.0958199 Z" id="Path"></path>
                    <path d="M14.821631,13.1185149 C14.8050311,13.0403788 14.8050311,12.9596212 14.821631,12.8814851 C15.3200926,12.5529703 15.307631,13.4470297 14.821631,13.1185149 Z" id="Path"></path>
                    <path d="M26,14.9566226 C25.5748365,15.1195299 25.1120002,14.7841327 24.7675639,14.6020599 C23.8365095,14.122921 22.9485097,13.3658817 23.0023279,12.1297034 C23.4274914,11.6984784 23.4436369,12.4555178 23.5405096,12.7573753 C23.7770072,13.3608221 24.2460868,13.8701121 24.8644366,14.1947919 C25.2573092,14.4151957 25.9246546,14.405613 26,14.9566226 Z" id="Path"></path>
                    <path d="M12.9897194,13.0937779 C13.0725421,13.5533479 12.6325466,14.0129178 12.4720776,14.4341903 C12.3944314,14.6530331 12.4306663,15.0961898 12.0476113,14.9812973 C11.8198489,14.2044053 12.4720776,13.6244718 12.6791344,13.0117119 C12.7891272,12.9808729 12.9063978,13.0118593 12.9897194,13.0937779 Z" id="Path"></path>
                    <path d="M13.9680501,13.0290824 C14.1108636,13.3121137 13.7406064,13.5049482 13.5343203,13.6666804 C13.4708476,13.8253023 13.4655582,13.9777037 13.2328252,13.9994754 C12.5557835,14.0243573 13.5554778,13.156602 13.7088701,13.0042006 C13.7975406,12.9938836 13.8895643,13.0027181 13.9680501,13.0290824 L13.9680501,13.0290824 Z" id="Path"></path>
                    <path d="M1.78681446,13.0034269 C2.30405022,14.0305937 1.78681446,15.355639 1.22683194,16.1157425 C0.884857877,16.5779676 0.427467573,17.2404902 0,16.9117968 C0,16.5985109 0.303501977,16.5060659 0.453115628,16.3673984 C1.04304591,15.8850033 1.45740962,15.1501845 1.61155275,14.3130646 C1.65857418,13.9124696 1.53460859,13.496467 1.57735535,13.0958719 C1.65002483,13.059921 1.67567289,12.9828835 1.78681446,13.0034269 Z" id="Path"></path>
                    <path d="M11.8819352,14.7974637 C12.1103967,14.7766716 12.2017813,14.8847904 12.1893198,15.101028 C12.1386308,15.12853 12.0924109,15.1635836 12.0522428,15.2049884 C11.9546632,15.2074234 11.8655915,15.1496604 11.8279188,15.0595144 C11.7902461,14.9693683 11.8116942,14.8653166 11.8819352,14.7974637 L11.8819352,14.7974637 Z" id="Path"></path>
                    <path d="M0.927147226,14.0339878 C1.16393469,14.429627 0.804541753,14.8619713 0.124134517,15 C-0.315776794,14.6834078 0.557063108,14.3952277 0.529132231,14.0015168 C0.675769335,14.0015168 0.850337315,13.9893402 0.927147226,14.0339878 Z" id="Path"></path>
                    <path d="M22.8476607,19.0053507 C22.8939082,18.9920826 22.9425634,19.0037545 22.9813615,19.0374242 C23.0563645,19.4383434 22.8867926,19.4383434 22.7954847,19.6628581 C22.4303481,20.7418946 22.265473,21.9074401 22.3128572,23.0746798 C22.3128572,23.287167 22.4041651,23.9406652 22.2085053,23.9967938 C21.9247985,24.0769777 22.0095845,22.6296596 22.0193675,22.2888784 C22.0682824,20.9538177 22.3682941,19.6788948 22.8476607,19.0053507 Z" id="Path"></path>
                    <path d="M17,20.157751 C17,20.4610257 16.7367089,20.6275295 16.5848101,20.7880867 C16.4329114,20.948644 16.2759494,21.138934 16.078481,21.3232775 C16.0379747,21.37085 15.0658228,22.4709643 15,21.7633232 C15,21.4778881 15.1063291,21.6384453 15.2936709,21.4719416 C15.4810127,21.3054378 16.356962,20.062606 16.6607595,20.0090869 C16.8379747,19.9793541 16.9696203,20.02098 17,20.157751 Z" id="Path"></path>
                    <path d="M22.1764747,22 C22.1486257,21.9606436 22.0836935,21.9292894 22,21.9147848 C22.1787484,21.6213267 22.3187174,21.3230877 22.4191273,21.0217291 C23.4265035,20.8274384 22.9779637,22 22.1764747,22 Z" id="Path"></path>
                    <path d="M7.91430038,27 C7.59113263,27 7.61477905,26.5830617 7.55960406,26.3495763 C7.28184134,25.0478122 6.90489415,23.7719811 6.43245801,22.5345909 C6.2354045,22.0717894 5.93982424,21.6089879 6.01076351,21.0669681 C6.05805635,21.0669681 6.14475989,20.9418866 6.17234738,21.033613 C6.38910624,21.1962189 6.36940089,21.5089227 6.46398657,21.7507469 C6.77514098,22.4469607 7.03855861,23.1659496 7.25220059,23.9021485 C7.44531303,24.6901619 7.66601296,25.4740058 7.86306646,26.2578498 C7.9379468,26.4704884 8.09953067,26.7748533 7.91430038,27 Z" id="Path"></path>
                    <path d="M21,23.1935486 C20.9011981,23.7472702 20.2459853,24.1071892 19.6791743,24.4615711 C19.1123633,24.8159529 18.6027534,25.1758719 18.1503446,25.4582699 C18.0879434,25.4970304 16.9595214,26.4494316 17.0011222,25.7351307 C17.0011222,25.535791 17.1883259,25.5136421 17.3391288,25.4582699 C18.379149,24.7495063 19.4191693,24.0905776 20.4591895,23.3762767 C20.5222112,23.2493398 20.5934513,23.1272262 20.6723936,23.0108205 C20.8751976,22.9609855 20.9427989,23.0938787 21,23.1935486 Z" id="Path"></path>
                    <path d="M7.83905544,34 C7.46745501,33.9370743 7.57226538,33.3204024 7.48651144,33.0015788 C7.23002687,32.1715965 6.91173057,31.357393 6.53368982,30.5642563 C6.35741782,30.1447516 6.24307922,29.7252469 6.05727901,29.3267174 C5.87147879,28.9281879 5.65709393,28.5967792 5.47605782,28.227615 C4.91389306,27.0823671 4.43271814,25.9035589 3.6418762,24.9638683 C3.4084349,24.6869952 2.89867534,24.4688527 3.01777804,24.0367629 C3.1130602,24.0787133 3.17975771,23.9360817 3.21310647,24.0367629 C4.91389306,25.647661 5.9953456,28.1059587 6.95769544,30.4258198 C7.11967511,30.8201542 7.24830603,31.2648292 7.38646517,31.6843339 C7.5246243,32.1038387 7.74377328,32.4688078 7.86287598,32.8505571 C7.96292225,33.1316252 8.12490192,33.7105417 7.83905544,34 Z" id="Path"></path>
                    <path d="" id="Path"></path>
                    <path d="M9.26889224,29 C8.91518247,28.9479844 9.00485537,28.5370611 9.02478268,28.3654096 C9.31966821,27.1950481 9.99840701,26.169769 10.9427864,25.4681404 C11.2217687,25.3172952 11.5505693,25.2912874 11.7199515,25 C12.3227526,25.0364109 11.7946789,25.603381 11.5954058,25.7230169 C11.1867858,25.8867957 10.8127757,26.1324083 10.4944219,26.4460338 C10.1155336,26.9191621 9.80041755,27.4441858 9.55783825,28.006502 C9.41834707,28.396619 9.57776556,28.656697 9.26889224,29 Z" id="Path"></path>
                    <path d="M16,27.0865875 C15.9543192,27.4574023 15.8327571,27.811353 15.6448142,28.1207771 C15.497542,28.4315196 15.3372753,28.7568281 15.18134,29.0918472 C14.920554,29.7625016 14.5998269,30.4018165 14.2240709,31 C13.7519337,30.8009306 14.1504349,30.44649 14.2933755,30.1648797 C14.7655127,29.2666399 15.2419815,27.8343115 15.6794665,27.1448517 C15.748771,27.0137572 15.8613909,26.9263609 16,27.0865875 Z" id="Path"></path>
                    <path d="M15,27.1441672 C14.5990254,28.1561968 14.1338949,29.1682264 13.6527254,30.1296545 C13.5315203,30.4657727 13.3520046,30.7632171 13.1274487,31 C12.8146885,30.6963911 13.1595266,30.2763988 13.2918482,29.9879704 C13.7449495,29.0569032 14.2461678,27.8576481 14.7393665,27.0075432 C14.8404031,26.9788622 14.944802,27.0335881 15,27.1441672 Z" id="Path"></path>
                    <path d="M15,27.0479632 C14.9573545,27.8428418 14.5735447,28.434154 14.1939996,29.1127089 C14.0575339,29.3598968 13.8954809,29.8009575 13.741957,30.0820731 C13.5992288,30.4081824 13.4231667,30.7140279 13.217417,30.9932754 C12.7227289,31.085365 13.217417,30.2032436 13.2856498,30.0820731 C13.7973962,29.1127089 14.2835552,28.0948765 14.7185395,27.1012782 C14.6631003,26.9558736 14.9189735,26.9946481 15,27.0479632 Z" id="Path"></path>
                    <path d="M14,27.0824937 C13.7423643,27.9614505 13.0626447,28.5913696 12.607671,29.3580153 C12.4870756,29.5679884 12.4651492,30.0367654 12.0266203,29.9977006 C11.8895801,29.4703265 12.3116641,28.9038876 12.607671,28.4790585 C12.9694573,27.9907491 13.3476884,27.5024397 13.6436953,27.0141303 C13.7677696,26.9810776 13.9022018,27.0068707 14,27.0824937 L14,27.0824937 Z" id="Path"></path>
                    <path d="M17,27.0510069 C16.6526129,28.0774727 15.705703,28.8082488 15.5320095,29.8558353 C15.4121176,29.9699714 15.2162935,30.022463 15.027738,29.9910077 C14.8876625,29.5685938 15.3078888,28.9772143 15.6216578,28.4703176 C15.913719,28.0009987 16.2430261,27.5453741 16.6077888,27.1059207 C16.6417351,27.0522061 16.7077408,27.0139911 16.7853362,27.0031269 C16.8629315,26.9922627 16.9427358,27.0100628 17,27.0510069 L17,27.0510069 Z" id="Path"></path>
                    <path d="M8.16141192,27.8894986 C8.19464269,28.1057363 8.10325808,28.1972214 7.88725808,28.1597957 C7.81269964,28.0840069 7.81362951,27.9620599 7.889335,27.8874194 C7.96504049,27.812779 8.08685348,27.8137099 8.16141192,27.8894986 L8.16141192,27.8894986 Z" id="Path"></path>
                    <path d="M16.0119486,29.9941653 C15.9119054,29.3598888 16.4666905,28.6444249 16.6849665,28.0811874 C16.712251,28.0456679 16.7850097,28.0811874 16.7941046,28 C17.2715835,28.0862616 16.7941046,28.7865028 16.6076604,29.2076624 C16.4212163,29.628822 16.3211731,30.0550558 16.0119486,29.9941653 Z" id="Path"></path>
                    <path d="M21,28.0749106 C20.9487876,28.3697844 20.7919557,28.634222 20.5604396,28.8160626 C19.778022,29.5662531 18.5868132,30.1718285 17.6461538,30.7367309 C17.4527473,30.8587498 17.2901099,31.1344222 17,30.9220189 C17,30.4926931 17.4791209,30.4113471 17.756044,30.2576936 C18.032967,30.1040402 18.3494505,29.8825984 18.6351648,29.7018296 C19.3736264,29.2047155 20.1604396,28.7979857 20.6879121,28.0749106 C20.7230769,27.9619301 20.9428571,27.9890454 21,28.0749106 Z" id="Path"></path>
                    <path d="M9.19843558,30.0027635 C9.43167983,30.4685965 9.60004598,30.967458 9.69834061,31.4839602 C10.0417868,32.7478073 10.4195776,34.1082543 10.8431613,35.3077016 C10.9118505,35.5009011 11.1408146,35.8027754 10.8736898,36 C10.6103811,35.9436501 10.6370936,35.5975009 10.5607722,35.4043013 C10.4844508,35.2111018 10.3470723,35.0018023 10.2821991,34.8126277 C10.0265225,34.0599544 9.87006371,33.2388562 9.59149068,32.441908 C9.46174434,32.0394089 9.34726227,31.6369098 9.24804448,31.2344107 C9.12886372,30.8412267 9.04580006,30.4368672 9,30.0269135 C9.07632138,30.0470384 9.09921779,29.9866636 9.19843558,30.0027635 Z" id="Path"></path>
                    <path d="M22.9195093,29.0345946 C23.0595684,30.1313643 23.0167687,31.2333271 22.7916957,32.3254054 C22.7916957,32.5718919 22.7315481,32.9567568 22.242849,33 C21.806779,32.8659459 22.0849616,32.6151351 22.1150354,32.3989189 C22.2578859,31.4172973 22.310515,30.132973 22.4232917,29.0691892 C22.5135131,29.0691892 22.5811791,29.0172973 22.6714005,29 C22.7430756,29.0297243 22.8321251,29.0421408 22.9195093,29.0345946 L22.9195093,29.0345946 Z" id="Path"></path>
                    <path d="M5.96046085,31.9915855 C5.66136741,32.0749456 5.71121632,31.5174752 5.66136741,31.267395 C5.5975622,30.998735 5.51509206,30.7418989 5.41544614,30.5015245 C5.22934355,30.0169941 4.95351294,29.5168338 5.0066851,29.0062534 C5.30245528,28.9124733 5.50849743,29.897164 5.6879535,30.3712744 C5.91061195,30.9287448 6.08009823,31.4914252 5.96046085,31.9915855 Z" id="Path"></path>
                    <path d="M20,30.106168 C20,30.61173 19.5286344,30.8847334 19.2070485,31.117292 C18.5370017,31.6729406 17.8249008,32.1585382 17.0792952,32.5682548 C16.7665198,32.7401459 16.3348018,33.2052629 16,32.8968701 C16.1365639,32.4418643 16.6167401,32.3609744 16.9339207,32.1941389 C17.9248526,31.6081148 18.8569716,30.8994864 19.7136564,30.0808899 C19.7136564,30.040445 19.784141,30.0808899 19.784141,30 C19.8986784,30.0050556 19.9251101,30.0859455 20,30.106168 Z" id="Path"></path>
                    <path d="M16,31.168633 C15.8330341,31.9184782 14.9712747,31.982918 13.9263914,31.982918 C13.5709156,31.982918 13.0969479,32.0942231 13,31.7485914 C13.3285458,31.1627749 14.3087971,31.6021373 14.9874327,31.4556831 C15.4183124,31.3619525 15.7360862,30.6941217 16,31.168633 Z" id="Path"></path>
                    <path d="M20,33.1002408 C19.9555556,33.593127 19.4488889,33.7607083 19.1111111,34.0268669 C18.4913885,34.6126003 17.8266301,35.1370607 17.1244444,35.594245 C16.8222222,35.7716841 16.3688889,36.2152817 16,35.8751902 C16.2044444,35.4907389 16.6311111,35.4118771 16.9466667,35.2295092 C17.2553413,35.0215528 17.5521974,34.7927507 17.8355556,34.5443974 C18.4755556,34.0515112 19.1066667,33.5142652 19.7288889,33.0115213 C19.8271275,32.9799226 19.9329676,33.0145582 20,33.1002408 L20,33.1002408 Z" id="Path"></path>
                    <path d="M20,36.1373191 C19.8120014,36.8686544 19.0105339,37.0975456 18.5158008,37.5106663 C18.0210677,37.923787 17.2938101,38.2643324 16.813919,38.6272087 C16.6753937,38.738863 16.0916087,39.319465 16.0025568,38.7611938 C15.9481361,38.4206484 16.7792877,38.1024338 16.8930763,38.0354412 C17.8399245,37.449575 18.7551392,36.8008408 19.6338975,36.0926574 C19.6682325,36.0521922 19.7106371,36.0215679 19.7575808,36.003334 C19.9010534,35.9810032 19.9356847,36.0759093 20,36.1373191 Z" id="Path"></path>
                    <path d="" id="Path"></path>
                    <path d="M20,37.1390394 C19.9500664,37.460748 19.627768,37.6042795 19.4053367,37.787406 C19.1808908,37.9802144 18.9442544,38.1555267 18.6971881,38.3120385 C18.1956824,38.6770955 17.6243103,38.9124029 17.0266837,39 C16.8905013,38.6139497 17.3081274,38.5347598 17.5441769,38.4357726 C18.306178,38.068366 19.0192425,37.5905691 19.6640834,37.0153053 C19.6913198,36.9955079 19.9500664,36.9658117 20,37.1390394 Z" id="Path"></path>
                    <path d="M21.9820209,37.0496336 C22.0493337,37.8873514 21.9265949,38.7335269 21.6312992,39.4675506 C21.5716765,39.6005114 21.0350722,40.3588804 21,39.7925659 C21,39.5955869 21.3051279,39.4380037 21.3717651,39.3001184 C21.6207775,38.807671 21.6242847,37.6848908 21.8031528,37.0053134 C21.8978477,36.980691 21.9153838,37.0496336 21.9820209,37.0496336 Z" id="Path"></path>
                    <path d="M18.5148492,37.6325653 C18.9576662,37.4953561 19.3578304,37.2854558 19.6884201,37.0169859 C19.7946256,36.9462775 19.9804853,37.1168096 19.9911058,37.1542435 C20.1185524,37.4869891 18.838776,37.9861076 18.5573314,37.9861076 C17.8404442,38.0900906 17.8032722,37.5743348 18.5148492,37.6325653 Z" id="Path"></path>
                    <path d="M10.1160823,39 C11.6176839,39.7496161 13.4027511,40.8977623 15.7317659,40.5134655 C15.992145,40.463915 16.2485052,40.3861239 16.4978892,40.2809896 C16.6702669,40.2003347 16.7660323,39.9156703 16.9652244,40.0105585 C17.1299409,40.5514207 16.6740975,40.6036092 16.3408339,40.7127305 C16.127027,40.8135776 15.9065854,40.8913588 15.6819679,40.9452064 C14.5941309,41.086386 13.4944776,40.9540615 12.4489277,40.5561651 C11.9815925,40.3521557 11.6330064,40.2145679 11.1311956,39.9726032 C10.748134,39.7875714 9.80580237,39.3985301 10.0356393,39.0806549 C10.0570556,39.0464252 10.0845918,39.0188164 10.1160823,39 Z" id="Path"></path>
                    <path d="M14.9658568,41.4392389 C14.9658568,41.5162983 14.9658568,41.5548281 15,41.562534 C14.8890346,42.1327739 14.2787248,42.0017729 13.8818101,41.9478313 C13.4848954,41.8938896 13.1306597,41.8091242 13.0068906,41.5008864 C12.9727474,41.1695308 13.0709091,41.0770595 13.1818745,41 C13.6214682,41.4392389 14.5219952,41.0154119 14.9658568,41.4392389 Z" id="Path"></path>
                    <path d="M21.0640991,5.11241098 C20.7911336,5.25085546 20.4716389,5.25085546 20.1986734,5.11241098 C19.7314248,6.68078019 19.1422852,8.12721185 18.6669105,9.69137632 C19.1456396,9.74090833 19.6157517,9.85687846 20.0645934,10.0361653 C20.8000021,10.2968593 21.7791927,10.9864372 21.9945334,11.7180625 C22.0514158,11.9198902 21.9945334,12.1385369 22.0270376,12.3361598 C22.1164243,12.7818626 22.4333408,13.1098325 22.6243033,13.5092831 C22.778762,13.9315301 22.9564723,14.3442713 23.1565604,14.7454776 C23.4315275,14.9810025 23.7346911,15.1788549 24.0585535,15.3341417 C24.3267135,15.460284 24.9321053,15.5948358 24.9889877,15.884963 C25.0905635,16.4021465 24.4648566,16.6502263 24.123562,16.8814872 C23.255352,17.460654 22.3436659,17.9668451 21.3972677,18.3951947 C21.3241332,19.5641133 21.2144313,20.7624652 21.1291076,21.9776359 C21.0762882,22.7597182 21.173801,23.5628241 21.1291076,24.3533158 C21.0722252,25.2993831 20.921893,26.2412455 20.8609476,27.1746985 C20.8000021,28.1081515 20.7674978,28.9364859 20.6984263,29.7942535 C20.6456069,30.3787128 20.5074638,30.9547627 20.4627705,31.5139935 C20.3733838,32.6492742 20.271808,33.8980829 20.1986734,35.1300726 C20.149917,35.9037454 20.1986734,36.6942371 20.1296019,37.366996 C20.0849085,37.8169035 20.1946104,38.3382917 20.0320891,38.628419 C19.8317936,38.8437456 19.5948966,39.0190632 19.3332477,39.1456024 C18.9142839,39.3124505 18.4779463,39.4281618 18.0330775,39.4903913 C17.5373877,39.5744862 17.0782651,39.7721091 16.7369704,39.8351803 C15.3699532,40.0294979 13.9852497,40.0520871 12.6129933,39.9024562 C12.0327369,39.8323181 11.4688916,39.6572647 10.9471504,39.3852728 C10.5002169,39.2212878 10.0939137,39.1456024 9.9517076,38.922751 C9.89183634,38.7664966 9.84692775,38.6045385 9.81762756,38.4392055 C9.74855602,38.2457874 9.59822385,38.0565739 9.54946747,37.9220221 C9.37475711,37.4342719 9.24880313,36.908679 9.08628186,36.3746766 C8.64747444,34.9408592 7.89175056,33.4818133 7.55451893,31.9302631 C7.09945939,29.8278915 6.3559246,27.7591578 5.75865895,25.7703143 C5.1613933,23.7814708 4.2756524,21.9313838 3.96279896,19.6061608 C3.0466938,19.3788982 2.20019639,18.917758 1.50060179,18.2648477 C1.32995446,18.096658 0.980533741,17.8023259 1.0008489,17.5037892 C1.02116406,17.2052524 1.31776537,17.1842287 1.56154726,16.9908105 C1.92722011,16.7006832 2.06536319,16.246571 2.39446875,15.9228057 C2.54480092,14.9304863 2.63418762,13.9171432 2.86171739,12.9248238 C2.90566592,12.6181255 2.98336852,12.3176358 3.09331019,12.0292135 C3.16238173,11.9030712 3.33709209,11.7979527 3.45898304,11.6507866 C3.72118374,11.2875756 4.04133849,10.9733182 4.40566941,10.7215384 C5.13603406,10.3570258 5.92545443,10.1360348 6.73378654,10.0698032 C7.59108622,9.93525142 8.46870105,9.71660478 9.26505525,9.64932889 C10.9146461,9.52318659 12.6576867,9.60307671 14.2869624,9.51057236 C15.1342999,9.41435909 15.9861241,9.3666327 16.8385462,9.36761109 C17.6684937,7.61105468 18.3693204,5.79225658 18.9350706,3.9266734 C19.0285203,3.59870343 19.2194828,2.95117298 19.4673277,2.89651132 C19.7801811,2.82503068 19.8736309,3.0899295 20.0645934,3.16981962 C20.1986734,2.7493453 20.1336649,2.10181485 20.531842,2.03453896 C20.9300191,1.96726307 20.9787755,2.45501328 21.1941161,2.75775479 C21.5354108,2.61479352 21.3769526,2.02192473 21.7954448,2.00090102 C22.3723953,1.97146781 22.1326765,2.66945518 22.2261262,3.16981962 C22.3769451,3.49508107 22.5550469,3.80602251 22.7583833,4.09906787 C22.9412198,4.45647104 23.0346695,4.81387421 23.1931277,5.09979675 C23.3515859,5.38571929 23.5994309,5.70948451 23.7578891,5.99540705 C23.9163473,6.28132959 24.0544904,6.6429375 24.2210747,6.95829324 C24.3307766,7.16012092 24.517676,7.40820076 24.6558191,7.68150907 C24.8184663,7.91834935 24.9319089,8.18750872 24.9889877,8.47200079 C24.9540218,9.10606983 24.4362389,9.59523601 23.8228976,9.57364351 C23.4496526,9.49074841 23.1120572,9.28584355 22.8599591,8.98918421 C22.6451848,8.70272147 22.4864713,8.37565135 22.3927105,8.02629801 C22.075794,7.03397862 21.6694908,5.83142207 21.0640991,5.11241098 Z M19.6664163,3.85098802 C18.9757009,6.61770904 17.6349004,8.89667986 16.7694747,11.4952111 C16.6597728,11.8189764 16.3631715,12.2814981 16.6394577,12.6304918 C16.9016811,12.1464731 17.1232532,11.6400432 17.3017318,11.1167843 C17.5048834,10.6080103 17.7811696,10.0950317 18.0005733,9.56523402 C18.1793467,9.1447597 18.2443552,8.67803321 18.4068764,8.25755889 C18.7278559,7.37456282 18.9716378,6.65134699 19.2682391,5.70948451 C19.4957689,4.99047343 19.7558029,3.98133506 20.6334178,4.50692796 C21.1453598,3.78371213 21.4460241,4.43124258 21.8523273,4.95263074 C22.2367926,5.59037827 22.5489948,6.27183291 22.7827615,6.9835217 C22.9534088,7.40399602 23.0062283,7.78662765 23.1484344,8.11880236 C23.3353338,8.53927668 24.0585535,9.19942137 24.3145244,8.49722925 C23.4369096,6.77748929 22.4902232,5.1334347 21.6207345,3.4010805 C21.330094,3.47888051 21.0219328,3.44294706 20.7553087,3.30016666 C20.7471827,4.1116821 20.1011606,4.19577696 19.6664163,3.87201174 L19.6664163,3.85098802 Z M15.8065362,10.0824174 C13.8440919,10.36834 11.5606681,10.1454886 9.35037892,10.3220878 C8.71654598,10.3725447 7.85112024,10.5533487 6.95725328,10.7005147 C6.14464695,10.8350665 5.30766244,10.940185 4.75915317,11.2891787 C4.42172723,11.490921 4.1414898,11.7809326 3.94654684,12.1301274 C3.79240104,12.8194888 3.92507875,13.5441556 4.31221968,14.1273804 C4.76727923,14.7286587 5.53112918,14.9052579 6.37623976,15.1617472 C8.32243191,15.737797 11.0040328,15.426646 13.3280869,15.2626611 C13.6246882,15.2416373 13.9131634,15.2878895 14.1935126,15.2626611 C15.2864681,15.1743614 16.3997388,14.9304863 17.4195598,14.7454776 C17.6684455,14.6979288 17.9130727,14.6290131 18.1509054,14.5394452 C18.8527038,14.3276 19.5330463,14.0459713 20.1824213,13.6984966 C20.7146784,13.3705266 21.4744653,12.6977677 21.3119441,11.9409139 C21.1900531,11.3732736 20.3246274,10.8644997 19.7801811,10.679491 C19.3307718,10.4735389 18.84084,10.3799131 18.349994,10.4061827 C18.2116993,10.6785464 18.0895817,10.9593838 17.9843212,11.2471313 C18.7034778,11.2723598 19.382004,11.4531637 19.6501641,11.9703471 C19.7918307,12.2302616 19.8255486,12.5385327 19.7436045,12.8246409 C19.6616604,13.1107492 19.4710654,13.3502153 19.2154197,13.4882594 C18.4856069,13.7807409 17.7265433,13.9880554 16.9523111,14.1063567 C15.9649944,14.3165938 14.7054546,14.526831 13.6287512,14.657178 C13.3849693,14.6866112 13.0314856,14.8926437 12.9299098,14.5184215 C13.2387002,14.198861 13.9741089,14.3165938 14.4901139,14.2114753 C14.5348073,14.2114753 14.3844751,13.9844191 14.4901139,13.9003243 C14.7013916,13.5176926 14.7095177,12.9290286 15.1239469,12.7650436 C15.4936828,13.1434705 14.6770134,13.7069061 14.8923541,14.1399946 C15.1280099,14.1862468 15.0630014,13.8793005 15.1239469,13.7195203 C15.2458378,13.412574 15.5830695,13.1560847 15.53025,12.6851535 C15.5546282,12.5842396 15.7659059,12.6851535 15.7659059,12.5506017 C15.9468695,11.6814473 16.2193662,10.8354445 16.5785122,10.0277558 C16.3194564,10.0277558 16.0609797,10.0530776 15.8065362,10.1034412 L15.8065362,10.0824174 Z M19.3332477,12.1133084 C19.0447724,11.7306768 18.5206413,11.6003297 17.833989,11.6297629 C17.7527283,11.9030712 17.6064592,12.1048989 17.5373877,12.3908215 C18.4068764,12.2436554 18.8903772,12.6851535 19.4307604,12.7692483 C19.5526514,12.6094681 19.3698149,12.3571835 19.3332477,12.1343321 L19.3332477,12.1133084 Z M17.1717148,13.7321345 C17.2626911,13.7246859 17.3518895,13.7019635 17.4358119,13.6648586 C17.4033076,13.3032507 17.7486653,12.9794855 17.6349004,12.7692483 C17.3921912,13.0442296 17.2313561,13.3858794 17.1717148,13.7531582 L17.1717148,13.7321345 Z M17.833989,13.5723543 C18.0046363,13.5723543 17.968069,13.3915503 18.0005733,13.2612033 C18.0994851,13.1073367 18.189045,12.9472468 18.2687334,12.7818626 L18.0330775,12.7818626 C18.0493297,13.118242 17.8136738,13.3452982 17.833989,13.5723543 Z M15.39617,14.0895377 C15.5505652,14.0895377 15.648078,14.0264666 15.8024732,14.0180571 C15.7374647,13.5050784 16.2494066,13.1771084 15.8674817,12.8155005 C15.8999859,13.4378025 15.5424391,13.6522444 15.4083591,14.0979472 L15.39617,14.0895377 Z M18.354057,13.3999598 C18.5206413,13.4335978 18.4881371,13.2906365 18.4231286,13.2275653 C18.4190655,13.3032507 18.3621831,13.3242744 18.3662461,13.4083693 L18.354057,13.3999598 Z M21.94984,13.7111108 C21.8495912,13.5683731 21.7599474,13.4179726 21.6816799,13.2612033 C21.5029066,13.2612033 21.4663393,13.593378 21.6166714,13.6816776 C21.7223103,13.4924642 21.9173358,13.7657725 21.9620291,13.7195203 L21.94984,13.7111108 Z M16.1884612,13.9591907 C16.3276137,13.9418914 16.4641162,13.9065755 16.5947643,13.8540721 C16.3631715,13.7867962 16.5378819,13.5807638 16.5297558,13.3747314 C16.1884612,13.3326839 16.2331545,13.7027013 16.1884612,13.9591907 Z M3.09737322,16.0952002 C3.34115512,15.5107409 3.24364236,14.5730832 3.50367639,13.9928286 C3.45898304,13.9381669 3.47523517,13.8162294 3.40616363,13.7867962 C3.24973735,14.5475803 3.14653947,15.3190499 3.09737322,16.0952002 L3.09737322,16.0952002 Z M21.1941161,13.7867962 C21.169738,13.9129385 21.0031537,13.88771 20.9950276,14.0264666 C21.1900531,14.3081843 21.2550616,14.7244539 21.4947805,14.9599195 C21.5394738,14.9599195 21.5394738,14.9136674 21.5963563,14.9220769 C21.4704023,14.657178 21.3241332,14.1484041 21.1941161,13.7867962 Z M21.8929576,14.2072705 C21.7670036,14.2072705 21.7263733,14.1063567 21.6613648,14.034876 C21.7137704,14.2776898 21.8029006,14.5104156 21.9254618,14.7244539 C22.0879831,14.6866112 22.2505044,14.6487685 22.2951977,14.4847836 C22.1945364,14.3072911 22.1049662,14.1233072 22.0270376,13.9339622 C22.0514158,14.0895377 22.0067225,14.1820421 21.8767055,14.198861 L21.8929576,14.2072705 Z M20.7634348,15.2542516 C20.9014406,15.2443613 21.0313273,15.1831269 21.1291076,15.0818571 C20.9381452,14.821163 20.9015779,14.396484 20.6293547,14.2409085 C20.5034008,14.5058073 20.7024893,14.968329 20.7634348,15.2542516 Z M3.49555033,16.3895322 C3.75831515,16.5243754 4.03904364,16.6179086 4.32847181,16.6670453 C4.24314815,16.065767 4.51130824,15.4897172 4.32847181,15.0145812 C4.02780747,15.1407235 4.24314815,16.5030603 3.86122317,16.4610129 C3.77183648,16.4610129 3.71495403,16.3558943 3.69463888,16.2213425 C3.63775643,15.8345061 3.966862,15.1743614 3.93029471,14.6697923 C3.86122317,14.6025164 3.82059286,14.5058073 3.73120616,14.4637598 C3.70682797,15.165952 3.45085698,15.8597346 3.49555033,16.4021465 L3.49555033,16.3895322 Z M19.8980091,14.6025164 C19.9383276,14.9396982 20.0049071,15.2729573 20.0970976,15.5990405 C20.2839971,15.6284737 20.3246274,15.5107409 20.4302662,15.460284 C20.3524476,15.1361433 20.2927573,14.8076279 20.2514928,14.4763741 C20.0767824,14.4763741 20.015837,14.5730832 19.8980091,14.6151306 L19.8980091,14.6025164 Z M19.2641761,14.9094626 C19.3698149,15.2500468 19.4023192,15.6663164 19.629849,15.8765536 C19.6542272,15.8050729 19.7883072,15.8513251 19.7964333,15.771435 C19.6827218,15.469777 19.6049511,15.1549042 19.5648405,14.8337772 C19.4388865,14.8337772 19.373878,14.8968484 19.2641761,14.9220769 L19.2641761,14.9094626 Z M18.4515698,15.1533377 C18.4959293,15.52713 18.5734542,15.8959011 18.6831626,16.2549804 C18.8811055,16.2001845 19.0710526,16.1181616 19.247924,16.0111053 C19.0893055,15.7103599 18.9781997,15.3852903 18.9188184,15.0482191 C18.761845,15.0518741 18.6076889,15.0921167 18.4678219,15.165952 L18.4515698,15.1533377 Z M20.913767,15.9438294 C20.6334178,16.0952002 20.409951,16.3012326 20.1011606,16.4273749 C18.4997574,17.1610152 16.8108649,17.6700826 15.0792535,17.9410825 C13.6711304,18.1683371 12.2456629,18.2598324 10.8211964,18.2143908 C10.00859,18.1681386 9.04158851,18.2143908 8.1924149,18.1471149 C7.35166091,18.0976629 6.51681318,17.9710229 5.69771347,17.768688 C4.55193855,17.4785607 3.44273091,17.276733 2.70325916,16.7006832 C2.41072088,17.0202437 2.13037169,17.3482137 1.83783342,17.6635694 C2.89828467,18.8366928 4.72258588,19.0763631 6.71347138,19.3454667 C8.16824742,19.5405971 9.63815785,19.5856691 11.1015456,19.4800185 C12.0319798,19.4127426 12.954288,19.1730722 13.7993986,19.1015916 C15.5686845,18.9599637 17.3249489,18.6788314 19.0528985,18.260643 C19.8005164,18.1298315 20.5359126,17.9328881 21.2509986,17.6719789 C22.2263211,17.2857407 23.1357217,16.7406583 23.9447886,16.0573575 C23.4264107,15.8514079 22.9434908,15.5603526 22.5146014,15.1953852 C22.0920461,15.5359694 21.5150956,15.6452927 20.9300191,15.9564437 L20.913767,15.9438294 Z M17.2042191,15.4728982 C17.2651646,15.8933725 17.2042191,16.4315797 17.3708034,16.7132975 C17.7138555,16.6365839 18.0476872,16.5209554 18.3662461,16.3685085 C18.241508,16.0253612 18.1635615,15.6659063 18.1346533,15.3005037 C17.8306358,15.3890185 17.5190271,15.4467545 17.2042191,15.4728982 Z M4.69414466,16.7847781 C4.83635077,16.7847781 4.9054223,16.8646682 5.05981751,16.852054 C5.05981751,16.3727133 5.16545633,16.0111053 5.12482601,15.5107409 C4.99969827,15.4609328 4.87758583,15.4033636 4.75915317,15.3383464 C4.70131018,15.8180196 4.67957524,16.3016194 4.69414466,16.7847781 L4.69414466,16.7847781 Z M13.4784191,15.9438294 C11.5525421,16.0783812 9.51290018,16.3306658 7.52201468,16.1498619 L7.52201468,17.3566232 C9.29755951,17.4701512 11.0974825,17.4869702 12.3448332,17.4911749 C13.9135476,17.4384136 15.4733024,17.2243195 17.0010675,16.852054 C17.0010675,16.7132975 16.8873026,16.4904461 16.8669875,16.196114 C16.8466723,15.901782 16.9563741,15.6158595 16.8019789,15.5443788 C15.7115132,15.8041039 14.5973088,15.9422462 13.4784191,15.9564437 L13.4784191,15.9438294 Z M5.42549035,16.9908105 C5.67739832,16.9908105 5.83179352,17.1253623 6.09182754,17.1253623 C6.06881797,16.6883179 6.09060905,16.2499805 6.15683605,15.8176872 C5.93795601,15.755123 5.71537314,15.7073683 5.49049886,15.6747259 C5.51894008,16.1666808 5.38486004,16.4862413 5.42549035,16.9908105 Z M6.45750039,17.2304809 C6.68448589,17.2990138 6.91989839,17.3330078 7.15634183,17.3313947 C7.1943541,16.9205759 7.20521411,16.5075503 7.18884609,16.0952002 C6.96050282,16.0268708 6.72657016,15.980423 6.49000464,15.9564437 C6.4561858,16.3801612 6.44533404,16.8055069 6.45750039,17.2304809 L6.45750039,17.2304809 Z M19.8655048,18.8156691 C19.8751675,18.9192089 19.8641025,19.0236986 19.8330005,19.1226153 C19.3115431,19.8660597 18.7074208,20.5434698 18.0330775,21.140892 C17.5292616,21.5950043 16.9604372,22.0112739 16.4363061,22.402315 C16.2941,22.5158431 15.9974987,22.7807419 15.8065362,22.5410715 C15.8065362,22.2845822 16.0787593,22.1836684 16.2372175,22.0617308 C17.317984,21.2207822 18.3703092,20.5059758 19.1341591,19.4085378 C19.251987,19.2361434 19.4835798,19.0259062 19.4307604,18.8913544 C19.0244573,18.9628351 18.6912887,19.0889774 18.3012376,19.1688675 C18.2565443,19.2277339 18.3621831,19.3202382 18.3012376,19.4421758 C17.578018,20.1233442 16.8547984,20.9853165 15.9731205,21.5445474 C15.8715447,21.6076185 15.1239469,22.1878731 15.0426862,21.8178557 C14.9979929,21.6244375 15.270216,21.5403426 15.3717918,21.4730668 C16.3377517,20.8759574 17.2036105,20.120485 17.9355648,19.2361434 C16.551954,19.5155924 15.1550283,19.7191059 13.7506422,19.8458311 C12.962414,19.9215165 12.1254295,20.1275489 11.288445,20.1906201 C9.0848887,20.2888792 6.87744823,20.1479518 4.70227072,19.7701458 C4.84412063,20.7103845 5.07827977,21.6331965 5.40111216,22.5242525 C5.51487705,22.8269941 5.53925524,23.1465545 5.63270497,23.4535008 C5.7261547,23.760447 5.92930628,24.1094407 6.03900813,24.4542297 C6.61189559,26.3379546 7.27823278,28.3015697 7.80236386,30.1684757 C8.04208273,31.0094243 8.20866703,31.8882156 8.46870105,32.7165501 C9.08221883,34.6591414 9.95983366,36.5765043 10.5652254,38.4980719 C11.241507,38.8484086 11.9645884,39.0921734 12.7105061,39.2212878 C14.0029133,39.3616027 15.3068816,39.3418409 16.5947643,39.1624214 C16.8344832,39.1161692 17.1229584,38.9479795 17.4073707,38.8849083 C18.2443552,38.7209233 19.0772767,38.6872854 19.4023192,38.1280545 C19.4835798,37.0390261 19.4266974,35.811241 19.5363992,34.76426 C18.6790532,35.4129756 17.7789285,35.9988634 16.8426093,36.5176379 C16.5988274,36.6521897 16.1193896,37.1189162 15.912175,36.6900324 C16.1153266,36.3957003 16.4891255,36.3368339 16.7776008,36.1770537 C17.6620737,35.6713478 18.5070433,35.0949481 19.3048064,34.453109 C19.3860671,34.3606046 19.5323362,34.5287944 19.5363992,34.3858331 C19.5973447,33.7256884 19.6948575,32.9183777 19.7029835,32.3213042 C19.0163312,33.1075912 17.959943,33.6626173 17.0091936,34.2134386 C16.9157438,34.2638955 16.1072005,34.8904023 16.0096878,34.4867469 C15.9528053,34.2554861 16.7369704,33.9485398 16.8751135,33.8686497 C17.8074646,33.3412906 18.7071396,32.7542912 19.5689035,32.111067 C19.6989205,32.111067 19.6745423,32.2330046 19.7354878,32.2834615 C19.7560422,31.5547544 19.8348634,30.8290595 19.9711436,30.113814 C19.0488354,30.6604306 18.1346533,31.3289848 17.2407864,31.9386726 C17.1676518,31.9891295 16.3509824,32.6450694 16.3103521,32.2161856 C16.3103521,32.0395864 16.931996,31.686388 17.1229584,31.5602457 C18.0168254,30.9421484 18.9228815,30.3997366 19.7192357,29.8068678 C19.8614418,29.7648203 19.8533157,29.8068678 19.9873957,29.8405057 C20.1377279,28.7682962 20.1661691,27.5699444 20.2514928,26.430459 C19.629849,26.7752479 19.0691506,27.4816448 18.354057,27.8432527 C18.4016146,28.0707262 18.4355379,28.3010247 18.4556328,28.5328306 C19.0325833,28.3015697 19.4510756,27.6119918 20.0199,27.2714076 C20.3408795,27.5909681 19.8817569,27.822229 19.6867314,27.9946234 C19.4917059,28.1670179 19.2072937,28.4697594 18.98789,28.6463586 C18.5399335,29.1005669 18.0620563,29.5220539 17.5577028,29.9077816 C16.0015617,30.8244156 12.832397,31.5896789 10.8049442,30.6646354 C10.5042799,30.2441611 9.99233792,29.8236867 9.83794271,29.2182037 C9.66764009,28.683638 9.7160861,28.1002405 9.97202276,27.6035823 C10.4433344,26.888776 11.8694585,26.0730558 12.8161449,25.8123617 C13.7559749,25.5354964 14.741404,25.4653136 15.7090234,25.6063293 C16.4897024,25.7418991 17.2302944,26.059684 17.8746193,26.5355776 C18.5247044,25.7829285 19.4510756,25.3246115 20.1702322,24.6392384 C20.271808,24.5887815 20.3124383,24.6602621 20.4343292,24.6770811 C20.4871486,24.0505743 20.4627705,23.3483822 20.4668335,22.679828 C20.1621061,22.8858605 19.8330005,23.3483822 19.503895,23.6427142 C18.9182792,24.1085888 18.2813551,24.500967 17.6064592,24.8116328 C17.4683161,24.8873182 17.0051305,25.2321072 16.9726263,24.8831135 C16.9726263,24.7023095 17.3382991,24.5593483 17.5048834,24.4626392 C18.6262802,23.8151087 19.5404623,23.2432636 20.2514928,22.255149 C20.2961862,22.1752589 20.4790226,22.255149 20.4830856,22.1205972 C20.4902806,21.8391291 20.5133437,21.5583354 20.5521571,21.2796486 C19.5880443,22.2924669 18.5291748,23.2037565 17.3911185,24.0001174 C17.322047,23.9328415 17.2285973,23.8949988 17.2245342,23.760447 C18.0046363,23.0498454 19.0732136,22.3098106 19.8533157,21.485681 C20.1470509,21.2218911 20.3944804,20.9075071 20.5846614,20.5564327 C20.6342796,20.1802619 20.6451754,19.7997032 20.6171657,19.4211521 C19.7817968,20.9181038 18.6113454,22.1856162 17.2042191,23.1171213 C17.0213827,23.2306494 16.7979159,23.4955482 16.5378819,23.3609964 C16.4728734,23.0456407 16.8019789,22.9405221 16.9685632,22.843813 C18.4718849,21.9397932 19.5445253,20.4891568 20.4627705,19.0217015 C20.531842,18.9039687 20.6821742,19.0511347 20.6984263,18.9165829 C20.7146784,18.7820311 20.8162542,18.6474793 20.661859,18.6432746 C20.4038096,18.7326713 20.1365427,18.7905292 19.8655048,18.8156691 L19.8655048,18.8156691 Z M18.0330775,26.6995625 C18.1343907,26.9442923 18.2238878,27.1940819 18.3012376,27.4480068 C19.0277026,26.9542954 19.7078495,26.3912 20.3327534,25.7661096 C20.3043122,25.4465491 20.4708965,25.1480123 20.3693207,24.8704993 C19.6211223,25.5208879 18.8413621,26.1313684 18.0330775,26.6995625 L18.0330775,26.6995625 Z M10.5002169,28.9701239 C10.6417726,29.3083061 10.8709872,29.5993603 11.162491,29.8110725 C11.4347569,30.0518421 11.7727621,30.1988144 12.1294926,30.2315468 C12.7301196,30.366652 13.3490918,30.3908509 13.9578568,30.3030275 C14.8501094,30.1804372 15.7229762,29.9372924 16.554134,29.5798116 C17.070139,29.3737792 17.7730435,28.9406907 17.8177369,28.5454448 C17.8121716,28.0181897 17.6869112,27.4996726 17.452064,27.0317373 C17.196093,26.6533104 15.9365532,26.2580645 15.3230354,26.1907886 C13.5189332,26.0012577 11.7334184,26.6986546 10.5002169,28.0745136 L10.5002169,28.9701239 Z" id="Shape"></path>
                    <path d="M13.5674579,11.2957796 C13.3681404,11.4954316 13.0589948,11.4092182 12.7986616,11.4092182 C10.7037934,11.4092182 8.83264889,11.381993 7.23810839,12.0444747 C6.83133786,12.2078264 5.48899509,12.6525059 5.37103164,13.1198732 C5.33442229,13.2696122 5.39950557,13.4148137 5.37103164,13.5327899 C5.4930628,13.7188293 5.70051577,13.8095802 5.83881775,13.9865445 C6.94523361,12.8476204 9.19467467,12.4982293 11.2732721,12.2985773 C12.1885058,12.2123639 13.1322134,12.2123639 13.9701608,12.2259766 C14.1369367,12.7523319 13.5633902,12.6343557 13.2705154,12.6343557 C11.7536886,12.6604549 10.2400021,12.7968708 8.73909167,13.0427349 C8.6862115,13.6643787 8.33232113,13.9502441 8.24283161,14.5310501 C8.29571178,14.671714 8.45435229,14.5310501 8.57231575,14.6036508 C8.77570102,14.4085363 8.81637807,14.0954456 8.97908628,13.7505921 C9.07264351,13.541865 9.25162254,12.9882843 9.44280469,13.0064345 C9.80483047,13.0381973 9.44280469,13.6099282 9.37772141,13.7505921 C9.24753788,14.0126827 9.13601093,14.2857753 9.04416957,14.5673504 C9.27719343,14.6079936 9.51517903,14.5956459 9.74381489,14.5310501 C9.78042424,14.4629869 9.71940866,14.2497222 9.77635653,14.1226709 C9.9060626,13.8854984 10.0176405,13.636567 10.1099084,13.3785133 C10.2197364,13.1697862 10.3458353,12.8657706 10.6102361,12.8566955 C10.7444704,13.4601891 10.170924,13.8957936 10.0448251,14.4539118 C9.98380951,14.5582753 10.2238041,14.5855006 10.14245,14.8259906 C9.62178373,15.01203 9.00349252,14.9076664 8.34452425,14.9757296 C7.76347486,15.0354293 7.17755717,14.9847987 6.61168177,14.8259906 C6.25352082,14.6439797 5.8869058,14.4834247 5.51340132,14.3450107 C5.19067836,14.1443135 4.9933611,13.7615688 5.00017074,13.3494754 C5.00698039,12.9373819 5.21680864,12.563009 5.54594297,12.3757156 C5.8106402,12.2451373 6.08234202,12.1329959 6.35948404,12.0399372 C7.31590945,11.5828153 8.32500728,11.2773462 9.35738288,11.1324279 C10.419054,11.0053766 12.379688,11.1959536 13.3193279,11.0235268 C13.3884789,10.9826889 13.5552548,10.9554636 13.5674579,11.2957796 Z M7.97029536,13.2287743 C7.88191293,13.6984168 7.74542688,14.1551695 7.56352482,14.5900382 C7.66068395,14.6199963 7.76330818,14.6199963 7.86046731,14.5900382 C7.93368601,14.0364575 8.21028997,13.7142917 8.32825343,13.2287743 C8.26723785,13.1153356 8.10452963,13.2559996 7.97029536,13.2287743 Z M7.03879083,14.4902121 C7.29912397,14.5174374 7.30319168,14.1907341 7.37234267,14.0092322 C7.46897604,13.8073617 7.54929183,13.5962874 7.61233729,13.3785133 C7.26251462,13.5781653 7.2421761,14.1408211 7.03879083,14.4902121 Z M6.57100471,14.381311 C6.75811916,14.381311 6.97777525,13.79143 6.90455655,13.6371534 C6.75517373,13.8615092 6.64227483,14.1133878 6.57100471,14.381311 L6.57100471,14.381311 Z" id="Shape"></path>
                </g>
            </g>
        </g>
    </g>
</svg>