<?xml version="1.0" encoding="UTF-8"?>
<svg width="266px" height="256px" viewBox="0 0 266 256" version="1.1" xmlns="http://www.w3.org/2000/svg" xmlns:xlink="http://www.w3.org/1999/xlink">
    <title>85BE4029-2F38-4966-87C3-DB1EC7C14097</title>
    <g id="Page-1" stroke="none" stroke-width="1" fill="none" fill-rule="evenodd">
        <g id="31.-Favourite-empty" transform="translate(-78.000000, -197.000000)">
            <g id="Group-2" transform="translate(78.000000, 197.000000)">
                <g id="Additional-Elements">
                    <circle id="Oval-11" fill="#DBB497" opacity="0.162430037" cx="251" cy="137" r="5"></circle>
                    <circle id="Oval-11" fill="#DBB497" opacity="0.162430037" cx="81" cy="15" r="5"></circle>
                    <circle id="Oval-11" fill="#DBB497" opacity="0.170184235" cx="2.5" cy="144.5" r="2.5"></circle>
                    <circle id="Oval-11" fill="#DBB497" opacity="0.301364272" cx="252" cy="47" r="5"></circle>
                    <circle id="Oval-11" fill="#DBB497" opacity="0.40500726" cx="25" cy="27" r="5"></circle>
                    <circle id="Oval-11" fill="#48D2A0" opacity="0.149778451" cx="40.5" cy="57.5" r="2.5"></circle>
                    <g id="Group-23" opacity="0.364272388" transform="translate(152.500000, 20.000000) rotate(-120.000000) translate(-152.500000, -20.000000) translate(145.000000, 12.000000)" stroke="#DBB497" stroke-linecap="round" stroke-width="7">
                        <line x1="1.68937126e-12" y1="7.409086" x2="14.1678" y2="7.409086" id="Line"></line>
                        <g id="Group-22" transform="translate(6.658543, 7.825434) rotate(-270.000000) translate(-6.658543, -7.825434) translate(-0.841457, 5.325434)">
                            <line x1="-2.10374535e-13" y1="2.07454408" x2="14.1678" y2="2.07454408" id="Line"></line>
                        </g>
                    </g>
                    <g id="Group-23" transform="translate(232.000000, 216.500000) rotate(-330.000000) translate(-232.000000, -216.500000) translate(224.000000, 208.000000)" stroke="#EFD2BC" stroke-linecap="round" stroke-width="6">
                        <line x1="0.225009252" y1="8.37170362" x2="15.9727924" y2="8.37170362" id="Line"></line>
                        <g id="Group-22" transform="translate(8.066602, 8.498193) rotate(-270.000000) translate(-8.066602, -8.498193) translate(0.066602, 6.498193)">
                            <line x1="8.2747317e-13" y1="1.9679259" x2="15.7477832" y2="1.9679259" id="Line"></line>
                        </g>
                    </g>
                    <circle id="Oval-11" fill="#DBB497" opacity="0.223822295" cx="12" cy="209" r="5"></circle>
                    <circle id="Oval-11" fill="#DBB497" opacity="0.223822295" cx="177" cy="5" r="5"></circle>
                    <circle id="Oval-11" fill="#48D2A0" opacity="0.135377799" cx="165.5" cy="222.5" r="2.5"></circle>
                    <g id="Group-23" opacity="0.608514695" transform="translate(255.500000, 92.000000) rotate(-15.000000) translate(-255.500000, -92.000000) translate(250.000000, 86.000000)" stroke="#60951D" stroke-linecap="round" stroke-width="6">
                        <line x1="1.30559711e-12" y1="5.29474582" x2="10.3384955" y2="5.29474582" id="Line"></line>
                        <g id="Group-22" transform="translate(4.999543, 5.630707) rotate(-270.000000) translate(-4.999543, -5.630707) translate(-0.500457, 4.130707)">
                            <line x1="1.51087166e-13" y1="1.32368646" x2="10.3384955" y2="1.32368646" id="Line"></line>
                        </g>
                    </g>
                    <circle id="Oval" stroke="#8BC442" stroke-width="3" cx="111.5" cy="23.5" r="4.5"></circle>
                    <circle id="Oval" stroke="#8BC442" stroke-width="3" cx="9.5" cy="67.5" r="4.5"></circle>
                    <circle id="Oval" stroke="#8BC442" stroke-width="4" cx="217.5" cy="45.5" r="6.5"></circle>
                    <circle id="Oval" fill="#8BC442" cx="211.5" cy="11.5" r="3.5"></circle>
                    <circle id="Oval" fill="#8BC442" cx="66.5" cy="38.5" r="3.5"></circle>
                    <circle id="Oval" stroke="#8BC442" stroke-width="3" cx="8.5" cy="166.5" r="4.5"></circle>
                    <circle id="Oval" fill="#8BC442" cx="29.5" cy="205.5" r="3.5"></circle>
                    <circle id="Oval-11" fill="#DBB497" opacity="0.223822295" cx="163" cy="251" r="5"></circle>
                    <circle id="Oval" stroke="#8BC442" stroke-width="3" cx="72.5" cy="247.5" r="4.5"></circle>
                    <circle id="Oval" fill="#8BC442" cx="129.5" cy="236.5" r="3.5"></circle>
                    <circle id="Oval" fill="#BC2C3D" cx="11.5" cy="97.5" r="1.5"></circle>
                    <circle id="Oval" stroke="#8BC442" stroke-width="3" cx="234.5" cy="155.5" r="4.5"></circle>
                    <circle id="Oval" fill="#BC2C3D" cx="191.5" cy="99.5" r="3.5"></circle>
                </g>
                <g id="heart-(2)" transform="translate(18.000000, 44.000000)" fill-rule="nonzero">
                    <polygon id="Path" fill="#F69583" points="27 99 194 99 194 124 27 124"></polygon>
                    <g id="Group" transform="translate(46.000000, 132.000000)" fill="#FFCEC0">
                        <polygon id="Path" points="0.1833 0.0826 53.326 0.0826 53.326 58.9755259 0.1833 58.9755259"></polygon>
                        <polygon id="Path" points="76.6831 0.0826 129.8258 0.0826 129.8258 58.9755259 76.6831 58.9755259"></polygon>
                    </g>
                    <g id="Group">
                        <g transform="translate(3.029240, 63.223214)" id="Path">
                            <g>
                                <path d="M32.9992398,40.9296696 L20.6823509,7.06627679 C18.6899766,1.58880804 12.6375556,-1.23545089 7.1637193,0.758245536 C1.68988304,2.75194196 -1.13250292,8.80837946 0.859871345,14.2858482 L13.1767602,48.1492411 L32.9992398,40.9296696 Z" fill="#FDB0A0"></path>
                                <path d="M20.6823509,7.06800893 L32.998807,40.9301027 L19.8281053,45.7272723 L7.51164912,11.8651786 C6.43973099,8.9179375 4.19116959,6.73716964 1.49254971,5.66540625 C2.67352047,3.46818304 4.63776608,1.68017857 7.1637193,0.759977679 C12.6388538,-1.23415179 18.6895439,1.58880804 20.6823509,7.06800893 L20.6823509,7.06800893 Z" fill="#F69583"></path>
                            </g>
                            <g transform="translate(182.187135, 0.000000)">
                                <path d="M20.1535322,48.1492411 L32.4704211,14.2858482 C34.4627953,8.80837946 31.6404094,2.75194196 26.1665731,0.758245536 C20.6927368,-1.23545089 14.6403158,1.58880804 12.6479415,7.06627679 L0.331052632,40.9296696 L20.1535322,48.1492411 Z" fill="#FDB0A0"></path>
                                <path d="M32.4708538,14.2875804 L20.1543977,48.1496741 L10.2431579,44.5398884 L22.559614,10.6777946 C23.8955088,7.00478571 23.0667953,3.07325446 20.7273567,0.285370536 C22.4938363,-0.0298794643 24.3620117,0.102629464 26.1670058,0.759977679 C31.6382456,2.752375 34.4636608,8.80837946 32.4708538,14.2875804 L32.4708538,14.2875804 Z" fill="#F69583"></path>
                            </g>
                        </g>
                        <g transform="translate(13.847953, 3.464286)" id="Path">
                            <path d="M177.106234,96.8072991 C199.192421,74.6510268 199.176842,38.7740179 177.056468,16.6389643 C154.935661,-5.49695536 119.081579,-5.51211161 96.94,16.5900312 C74.7984211,-5.51211161 38.9443392,-5.49695536 16.8235322,16.6389643 C-5.29727485,38.7740179 -5.3128538,74.6510268 16.7737661,96.8072991 L94.1877193,174.275223 C95.7075322,175.796045 98.1720351,175.796045 99.6922807,174.275223 L177.106234,96.8072991 Z" fill="#8BC442"></path>
                            <path d="M177.107532,96.806 L99.6935789,174.275656 C98.1737661,175.796478 95.7058012,175.796478 94.1864211,174.275656 L84.509731,164.588214 L158.455637,90.5932366 C180.540959,68.4365313 180.523649,32.5590893 158.403708,10.4244688 C154.433673,6.45136607 150.017041,3.18930804 145.319556,0.641758929 C156.935825,2.36177679 168.119345,7.69504464 177.056035,16.6372321 C199.175977,38.776183 199.193287,74.6497277 177.107532,96.806 Z" fill="#A8DA68"></path>
                        </g>
                        <g transform="translate(8.222222, 79.245536)" id="Path">
                            <path d="M27.8750643,39.3516875 L22.0022339,9.06257143 C20.7347135,2.50424554 13.9275789,-1.39957143 7.61940351,0.84875 C2.49176608,2.67616071 -0.424093567,8.10599554 0.61580117,13.4522545 L6.62364912,44.3372277 L9.38025731,58.5087545 C13.4952632,79.6625491 33.9685965,93.4733571 55.1083626,89.3556205 L67.0206316,87.0354152 L64.0878947,71.9584107 C60.8080936,55.0994643 47.2345029,42.158625 30.2478246,39.6959509 L27.8750643,39.3516875 Z" fill="#FFDFD0"></path>
                            <path d="M67.0219298,87.033683 L56.3373684,89.1152857 L53.9035906,76.593192 C50.622924,59.7351116 37.0484678,46.7929732 20.0617895,44.3328973 C18.641076,44.1259063 17.5064094,43.0428839 17.2329123,41.6324866 L11.8149006,13.6977857 C10.8818947,8.85168304 6.91445614,5.45365179 2.36367251,4.91885268 C3.61345029,3.09230804 5.40978947,1.63600893 7.61767251,0.850482143 C13.9280117,-1.39957143 20.7360117,2.50424554 22.0022339,9.06170536 L27.8767953,39.3512545 L30.2486901,39.696817 C47.2353684,42.1568929 60.8102573,55.0985982 64.0865965,71.9571116 L67.0219298,87.033683 Z" fill="#FFCEC0"></path>
                        </g>
                        <g transform="translate(146.269006, 79.245536)" id="Path">
                            <path d="M39.209614,39.3516875 L45.0824444,9.06257143 C46.3499649,2.50424554 53.1570994,-1.39957143 59.4652749,0.84875 C64.5929123,2.67616071 67.5087719,8.10599554 66.4688772,13.4522545 L60.4610292,44.3372277 L57.7044211,58.5087545 C53.5894152,79.6625491 33.1160819,93.4733571 11.9763158,89.3556205 L0.0640467836,87.0354152 L2.99678363,71.9584107 C6.2765848,55.0994643 19.8501754,42.158625 36.8368538,39.6959509 L39.209614,39.3516875 Z" fill="#FFDFD0"></path>
                            <path d="M66.4684444,13.4509554 L60.4623275,44.3372277 L57.7039883,58.5091875 C53.5889825,79.6621161 33.1160819,93.472058 11.9771813,89.3543214 L7.89895906,88.560567 C26.559076,89.0005313 43.3687602,75.9479688 47.0566433,56.9957277 L49.8110877,42.8237679 L55.8215322,11.9418259 C56.6394269,7.7418125 55.0118596,3.48810268 51.7926433,0.978660714 C54.1480936,0.0450357143 56.8532047,-0.0827098214 59.4678713,0.851348214 C64.5937778,2.67702679 67.5083392,8.10729464 66.4684444,13.4509554 Z" fill="#FFCEC0"></path>
                        </g>
                        <g fill="#60951D">
                            <path d="M185.564737,101.101714 L111.244503,175.443554 C111.088281,175.599879 110.909988,175.633223 110.78752,175.633223 C110.665053,175.633223 110.48676,175.600312 110.330105,175.443554 L36.0111696,101.102147 L33.4112164,87.6918973 C32.6266433,83.6321875 30.118,80.1271964 26.5287836,78.0767723 C24.4390409,76.8824598 22.1099883,76.2597545 19.759731,76.218183 C13.7752515,57.1187098 18.7734971,36.6023437 32.9663509,22.4000714 C40.8298246,14.5313795 50.7592398,9.38258482 61.6809474,7.51057143 C63.4478596,7.20744643 64.6348889,5.529 64.3319649,3.76091518 C64.0294737,1.99283036 62.3525731,0.805013393 60.5852281,1.10813839 C48.332386,3.20836161 37.1943041,8.98289286 28.3761871,17.8068616 C20.3197076,25.8686875 14.7515322,35.9852679 12.2744795,47.0614554 C11.2886784,51.4693259 10.8139532,55.9508125 10.8290994,60.4227723 C10.2379649,60.5539821 9.65418713,60.721567 9.08252632,60.9298571 C5.62053801,62.1908571 2.85614035,64.7254152 1.29911111,68.0662857 C-0.257918129,71.4075893 -0.421497076,75.1555134 0.838666667,78.6202321 L5.30419883,90.8976607 C5.33059649,90.9708437 5.36824561,91.0362321 5.39940351,91.1063839 C5.42753216,91.8408125 5.50802339,92.5800045 5.65169591,93.3191964 L14.416152,138.375263 C16.5721053,149.457946 22.9118713,159.036696 32.267462,165.348192 C35.5740936,167.578759 39.1191696,169.299643 42.8074854,170.506513 L42.8074854,190.511897 C42.8074854,192.305531 44.260655,193.759665 46.0530994,193.759665 C47.8455439,193.759665 49.2987135,192.305531 49.2987135,190.511897 L49.2987135,172.070638 C51.4390877,172.406674 53.6080234,172.581187 55.790807,172.580754 C58.5002456,172.580754 61.2313216,172.319201 63.949848,171.789165 L75.862117,169.46896 C77.6212398,169.125996 78.7701871,167.421134 78.427883,165.660411 C78.0855789,163.899687 76.381848,162.749978 74.6218596,163.092942 L62.7095906,165.413147 C53.3366901,167.239692 43.8136257,165.303156 35.8956257,159.961661 C27.9776257,154.620598 22.6119766,146.513304 20.7875088,137.13375 L12.0239181,92.077683 C11.2800234,88.2526786 13.3892398,84.4164152 16.9304211,83.1541161 C19.0418012,82.4015 21.3669591,82.607192 23.31,83.7174955 C25.2543392,84.8282321 26.6127368,86.7262277 27.0381287,88.9273482 L32.9109591,119.216464 C33.1740702,120.572732 34.265462,121.614183 35.6320819,121.81208 L38.0048421,122.155911 C53.6062924,124.417656 66.1122924,136.340429 69.124655,151.82492 C69.4673918,153.585643 71.1719883,154.735353 72.9306784,154.392388 C74.6902339,154.049424 75.8387485,152.344562 75.4964444,150.583839 C75.4289357,150.236112 75.3493099,149.892714 75.2735789,149.548018 L95.8797661,170.168312 L95.8797661,190.511897 C95.8797661,192.305531 97.3329357,193.759665 99.1253801,193.759665 C100.917825,193.759665 102.370994,192.305531 102.370994,190.511897 L102.370994,176.664281 L105.740807,180.03633 C107.088819,181.38567 108.881263,182.128759 110.788386,182.128759 C112.695509,182.128759 114.487953,181.38567 115.835532,180.03633 L119.205345,176.664281 L119.205345,190.511897 C119.205345,192.305531 120.658082,193.759665 122.450959,193.759665 C124.243836,193.759665 125.696573,192.305531 125.696573,190.511897 L125.696573,170.168746 L146.30276,149.548018 C146.227029,149.892714 146.147404,150.236112 146.079895,150.583839 C145.737158,152.344562 146.885673,154.049424 148.645228,154.392388 C148.854678,154.433094 149.063696,154.453013 149.268819,154.453013 C150.791228,154.453013 152.149193,153.376054 152.451251,151.825353 C155.464047,136.341295 167.969614,124.418089 183.571064,122.156344 L185.943825,121.812513 C187.310012,121.614616 188.401836,120.573165 188.664515,119.216897 L194.537778,88.9256161 C194.962737,86.7266607 196.321567,84.8286652 198.265474,83.7179286 C200.208515,82.607625 202.534971,82.4023661 204.645053,83.1545491 C208.186667,84.4168482 210.295883,88.2526786 209.551988,92.0781161 L205.884012,110.931625 C205.541275,112.692348 206.689789,114.39721 208.449345,114.740174 C210.214094,115.084004 211.913497,113.932996 212.255801,112.172705 L215.923778,93.3191964 C216.07048,92.5648482 216.151836,91.810067 216.177801,91.0604821 C216.238819,90.9409643 216.298971,90.8205804 216.34614,90.6915357 L220.736807,78.6202321 C223.338058,71.4686473 219.639789,63.5332679 212.492947,60.9302902 C211.914795,60.7194018 211.324526,60.5483527 210.726468,60.4167098 C210.750702,48.2575 207.118643,36.1827321 200.094702,26.0596562 C199.072982,24.5864687 197.049883,24.2214196 195.577673,25.24425 C194.105462,26.2670804 193.740222,28.2910893 194.762374,29.7642768 C204.09676,43.2178304 206.714023,60.5392589 201.817041,76.2186161 C199.466784,76.2597545 197.137298,76.8828929 195.04669,78.0772054 C191.457474,80.1280625 188.94883,83.6326205 188.165123,87.6905982 L185.564737,101.101714 Z M8.71815205,81.2894643 L6.93912281,76.3983259 C6.27182456,74.5644196 6.35837427,72.58025 7.18276023,70.8117321 C7.99373099,69.0713616 9.42569591,67.7475714 11.2172749,67.0698705 C11.6253567,70.6298571 12.347614,74.156933 13.390538,77.6086607 C11.5604444,78.4942188 9.97961404,79.7617143 8.71815205,81.2894643 L8.71815205,81.2894643 Z M38.8443743,115.713638 L38.2138596,112.461973 L42.0480117,116.29867 C41.0228304,116.073058 39.9859649,115.879058 38.9352515,115.727062 L38.8443743,115.713638 Z M182.640222,115.727062 C181.589942,115.879491 180.553076,116.073491 179.527895,116.29867 L183.361614,112.461973 L182.731099,115.713638 L182.640222,115.727062 Z M208.181474,77.6064955 C209.225696,74.1456741 209.947953,70.6168661 210.348678,67.0655402 C214.081135,68.4724732 216.004269,72.6387098 214.636784,76.3978929 L212.857754,81.2890313 C211.595427,79.7604152 210.013298,78.4920536 208.181474,77.6064955 Z" id="Shape"></path>
                            <path d="M76.3502573,7.03336607 C88.4520702,8.30086161 99.8684094,13.7419554 108.495684,22.3537366 C109.129228,22.9859687 109.958374,23.3020848 110.787953,23.3020848 C111.617532,23.3020848 112.446678,22.9859687 113.080222,22.3537366 C132.673345,2.7948125 163.51317,1.33158482 184.816947,18.951375 C186.197848,20.0937232 188.244316,19.8997232 189.386772,18.5174732 C190.528795,17.1347902 190.334058,15.0878304 188.952725,13.9450491 C177.523404,4.49144643 163.037579,-0.352924107 148.167041,0.301825893 C134.252877,0.915004464 121.096889,6.31539286 110.787088,15.5845223 C101.425439,7.1840625 89.5534152,1.8854375 77.0262105,0.57290625 C75.244152,0.389732143 73.6468772,1.68104464 73.4603626,3.46515179 C73.2734152,5.24925893 74.5673333,6.84672768 76.3502573,7.03336607 L76.3502573,7.03336607 Z" id="Path"></path>
                            <path d="M206.738257,123.542491 C204.976538,123.199094 203.274538,124.34967 202.932234,126.10996 L200.787099,137.134183 C198.962632,146.513737 193.597415,154.620598 185.678982,159.962094 C177.761848,165.303156 168.240947,167.240125 158.865018,165.41358 L146.952749,163.093375 C145.194491,162.751277 143.489029,163.900554 143.146725,165.660844 C142.804421,167.421567 143.952936,169.126429 145.712924,169.469393 L157.625193,171.789598 C160.344152,172.319201 163.074363,172.581187 165.784234,172.581187 C167.967018,172.581187 170.135953,172.407107 172.27676,172.070638 L172.27676,190.51233 C172.27676,192.305964 173.729497,193.760098 175.522374,193.760098 C177.315251,193.760098 178.767988,192.305964 178.767988,190.51233 L178.767988,170.506513 C182.456304,169.299643 186.00138,167.578759 189.307579,165.348625 C198.663602,159.037562 205.003368,149.458379 207.158889,138.375696 L209.303591,127.351473 C209.646327,125.590317 208.49738,123.885455 206.738257,123.542491 L206.738257,123.542491 Z" id="Path"></path>
                        </g>
                    </g>
                </g>
            </g>
        </g>
    </g>
</svg>