<?xml version="1.0" encoding="UTF-8"?>
<svg width="263px" height="281px" viewBox="0 0 263 281" version="1.1" xmlns="http://www.w3.org/2000/svg" xmlns:xlink="http://www.w3.org/1999/xlink">
    <title>8F36C6E9-B523-4DD1-82B9-212C29042C8E</title>
    <g id="Page-1" stroke="none" stroke-width="1" fill="none" fill-rule="evenodd">
        <g id="15.-Cart-screen-empty" transform="translate(-81.000000, -180.000000)">
            <g id="Group-2" transform="translate(83.000000, 183.000000)">
                <g id="Additional-Elements">
                    <circle id="Oval-11" fill="#DBB497" opacity="0.162430037" cx="228" cy="7" r="5"></circle>
                    <circle id="Oval-11" fill="#DBB497" opacity="0.162430037" cx="148" cy="89" r="5"></circle>
                    <circle id="Oval-11" fill="#DBB497" opacity="0.170184235" cx="258.5" cy="9.5" r="2.5"></circle>
                    <circle id="Oval-11" fill="#DBB497" opacity="0.301364272" cx="247" cy="61" r="5"></circle>
                    <circle id="Oval-11" fill="#DBB497" opacity="0.40500726" cx="53" cy="86" r="5"></circle>
                    <circle id="Oval-11" fill="#48D2A0" opacity="0.149778451" cx="35.5" cy="71.5" r="2.5"></circle>
                    <g id="Group-23" opacity="0.364272388" transform="translate(147.800077, 10.921885) rotate(-120.000000) translate(-147.800077, -10.921885) translate(140.300077, 2.921885)" stroke="#DBB497" stroke-linecap="round" stroke-width="7">
                        <line x1="1.68937126e-12" y1="7.409086" x2="14.1678" y2="7.409086" id="Line"></line>
                        <g id="Group-22" transform="translate(6.658543, 7.825434) rotate(-270.000000) translate(-6.658543, -7.825434) translate(-0.841457, 5.325434)">
                            <line x1="-2.10374535e-13" y1="2.07454408" x2="14.1678" y2="2.07454408" id="Line"></line>
                        </g>
                    </g>
                    <g id="Group-23" transform="translate(226.805136, 225.887495) rotate(-330.000000) translate(-226.805136, -225.887495) translate(218.805136, 217.387495)" stroke="#EFD2BC" stroke-linecap="round" stroke-width="6">
                        <line x1="0.225009252" y1="8.37170362" x2="15.9727924" y2="8.37170362" id="Line"></line>
                        <g id="Group-22" transform="translate(8.066602, 8.498193) rotate(-270.000000) translate(-8.066602, -8.498193) translate(0.066602, 6.498193)">
                            <line x1="8.2747317e-13" y1="1.9679259" x2="15.7477832" y2="1.9679259" id="Line"></line>
                        </g>
                    </g>
                    <circle id="Oval-11" fill="#DBB497" opacity="0.223822295" cx="7" cy="223" r="5"></circle>
                    <circle id="Oval-11" fill="#DBB497" opacity="0.223822295" cx="112" cy="74" r="5"></circle>
                    <circle id="Oval-11" fill="#48D2A0" opacity="0.135377799" cx="160.5" cy="236.5" r="2.5"></circle>
                    <g id="Group-23" opacity="0.608514695" transform="translate(250.500000, 106.000000) rotate(-15.000000) translate(-250.500000, -106.000000) translate(245.000000, 100.000000)" stroke="#60951D" stroke-linecap="round" stroke-width="6">
                        <line x1="1.30559711e-12" y1="5.29474582" x2="10.3384955" y2="5.29474582" id="Line"></line>
                        <g id="Group-22" transform="translate(4.999543, 5.630707) rotate(-270.000000) translate(-4.999543, -5.630707) translate(-0.500457, 4.130707)">
                            <line x1="1.51087166e-13" y1="1.32368646" x2="10.3384955" y2="1.32368646" id="Line"></line>
                        </g>
                    </g>
                    <circle id="Oval" stroke="#8BC442" stroke-width="3" cx="106.5" cy="37.5" r="4.5"></circle>
                    <circle id="Oval" stroke="#8BC442" stroke-width="3" cx="76.5" cy="117.5" r="4.5"></circle>
                    <circle id="Oval" stroke="#8BC442" stroke-width="4" cx="225.5" cy="35.5" r="6.5"></circle>
                    <circle id="Oval" fill="#8BC442" cx="206.5" cy="18.5" r="3.5"></circle>
                    <circle id="Oval" fill="#8BC442" cx="61.5" cy="52.5" r="3.5"></circle>
                    <circle id="Oval" stroke="#8BC442" stroke-width="3" cx="4.5" cy="201.5" r="4.5"></circle>
                    <circle id="Oval" fill="#8BC442" cx="24.5" cy="219.5" r="3.5"></circle>
                    <circle id="Oval-11" fill="#DBB497" opacity="0.223822295" cx="160" cy="273" r="5"></circle>
                    <circle id="Oval" stroke="#8BC442" stroke-width="3" cx="67.5" cy="261.5" r="4.5"></circle>
                    <circle id="Oval" fill="#8BC442" cx="127.5" cy="250.5" r="3.5"></circle>
                    <circle id="Oval" fill="#BC2C3D" cx="6.5" cy="111.5" r="1.5"></circle>
                    <circle id="Oval" stroke="#8BC442" stroke-width="3" cx="229.5" cy="169.5" r="4.5"></circle>
                    <circle id="Oval" fill="#8BC442" cx="186.5" cy="113.5" r="3.5"></circle>
                </g>
                <g id="Group" transform="translate(13.000000, 32.000000)">
                    <path d="M215.289,95.3010203 L6.395,95.3010203 C2.863,95.3010203 0,98.1630203 0,101.69502 L0,111.44202 C0,114.97402 2.863,117.83702 6.395,117.83702 L215.289,117.83702 C218.821,117.83702 221.684,114.97402 221.684,111.44202 L221.684,101.69502 C221.684,98.1630203 218.821,95.3010203 215.289,95.3010203" id="Fill-19" fill="#60951D"></path>
                    <path d="M55.597,219.10902 L166.087,219.10902 C180.963,219.10902 193.75,208.56202 196.58,193.95802 L25.104,193.95802 C27.934,208.56202 40.721,219.10902 55.597,219.10902" id="Fill-20" fill="#60951D"></path>
                    <path d="M193.295,146.51802 C192.526,151.40502 188.316,155.00302 183.369,155.00302 L160.339,155.00302 L161.836,139.43102 C162.331,134.27802 166.661,130.34402 171.838,130.34402 L195.843,130.34402 L193.295,146.51802 Z M188.307,178.19202 C187.536,183.07702 183.326,186.67602 178.38,186.67602 L157.294,186.67602 L158.502,174.10902 C158.998,168.95402 163.328,165.02102 168.505,165.02102 L190.381,165.02102 L188.307,178.19202 Z M149.101,145.68602 C148.718,150.93902 144.345,155.00302 139.078,155.00302 L116.801,155.00302 L116.972,140.27702 C117.035,134.77302 121.515,130.34402 127.02,130.34402 L150.221,130.34402 L149.101,145.68602 Z M146.789,177.35902 C146.406,182.61102 142.033,186.67602 136.768,186.67602 L116.435,186.67602 L116.57,174.95302 C116.634,169.45002 121.113,165.02102 126.618,165.02102 L147.69,165.02102 L146.789,177.35902 Z M84.917,186.67602 C79.651,186.67602 75.278,182.61102 74.894,177.35902 L73.994,165.02102 L95.066,165.02102 C100.57,165.02102 105.05,169.45002 105.114,174.95302 L105.25,186.67602 L84.917,186.67602 Z M71.464,130.34402 L94.664,130.34402 C100.169,130.34402 104.649,134.77302 104.713,140.27702 L104.883,155.00302 L82.605,155.00302 C77.339,155.00302 72.966,150.93902 72.583,145.68602 L71.464,130.34402 Z M43.304,186.67602 C38.358,186.67602 34.147,183.07702 33.378,178.19202 L31.303,165.02102 L53.179,165.02102 C58.356,165.02102 62.686,168.95402 63.181,174.10902 L64.389,186.67602 L43.304,186.67602 Z M28.389,146.51802 L25.841,130.34402 L49.846,130.34402 C55.023,130.34402 59.353,134.27802 59.848,139.43102 L61.345,155.00302 L38.315,155.00302 C33.369,155.00302 29.158,151.40502 28.389,146.51802 Z M10.353,117.83702 L25.104,193.95802 L196.58,193.95802 L211.33,117.83702 L10.353,117.83702 L10.353,117.83702 Z" id="Fill-21" fill="#8BC442"></path>
                    <path d="M91.939,121.51402 L99.406,127.77902 C101.377,129.43302 103.878,130.34402 106.449,130.34402 C109.699,130.34402 112.761,128.91702 114.85,126.42802 L122.06,117.83702 L89.098,117.83702 C89.764,119.23402 90.718,120.49002 91.939,121.51402" id="Fill-22" fill="#2C2627"></path>
                    <path d="M94.087,109.00602 L183.637,2.28502026 C185.907,-0.420979744 189.941,-0.773979744 192.647,1.49602026 L200.112,7.76202026 C202.819,10.0320203 203.171,14.0650203 200.901,16.7710203 L111.351,123.49202 C109.081,126.19802 105.047,126.55102 102.342,124.28102 L94.875,118.01502 C92.17,115.74502 91.817,111.71202 94.087,109.00602" id="Fill-23" fill="#8BC442"></path>
                    <path d="M115.216,110.23902 C113.189,112.65402 109.588,112.97002 107.172,110.94202 C104.757,108.91502 104.441,105.31402 106.468,102.89902 C108.495,100.48302 112.096,100.16802 114.512,102.19502 C116.928,104.22202 117.242,107.82302 115.216,110.23902" id="Fill-24" fill="#2C2627"></path>
                </g>
            </g>
        </g>
    </g>
</svg>