<?xml version="1.0" encoding="UTF-8"?>
<svg width="179px" height="208px" viewBox="0 0 179 208" version="1.1" xmlns="http://www.w3.org/2000/svg" xmlns:xlink="http://www.w3.org/1999/xlink">
    <title>25B6914A-DB10-4B35-BC18-FC5DA925AE15</title>
    <g id="Page-1" stroke="none" stroke-width="1" fill="none" fill-rule="evenodd">
        <g id="36.-Enable-location" transform="translate(-115.000000, -228.000000)">
            <g id="Group-4" transform="translate(117.000000, 231.000000)">
                <g id="Additional-Elements">
                    <circle id="Oval-11" fill="#DBB497" opacity="0.162430037" cx="159" cy="47" r="5"></circle>
                    <circle id="Oval-11" fill="#DBB497" opacity="0.162430037" cx="95" cy="56" r="5"></circle>
                    <circle id="Oval-11" fill="#DBB497" opacity="0.170184235" cx="25.5" cy="58.5" r="2.5"></circle>
                    <circle id="Oval-11" fill="#DBB497" opacity="0.301364272" cx="161" cy="137" r="5"></circle>
                    <circle id="Oval-11" fill="#DBB497" opacity="0.40500726" cx="32" cy="81" r="5"></circle>
                    <g id="Group-23" opacity="0.364272388" transform="translate(102.500000, 11.000000) rotate(-120.000000) translate(-102.500000, -11.000000) translate(95.000000, 3.000000)" stroke="#DBB497" stroke-linecap="round" stroke-width="7">
                        <line x1="1.68937126e-12" y1="7.409086" x2="14.1678" y2="7.409086" id="Line"></line>
                        <g id="Group-22" transform="translate(6.658543, 7.825434) rotate(-270.000000) translate(-6.658543, -7.825434) translate(-0.841457, 5.325434)">
                            <line x1="-2.10374535e-13" y1="2.07454408" x2="14.1678" y2="2.07454408" id="Line"></line>
                        </g>
                    </g>
                    <g id="Group-23" transform="translate(159.000000, 95.500000) rotate(-330.000000) translate(-159.000000, -95.500000) translate(151.000000, 87.000000)" stroke="#EFD2BC" stroke-linecap="round" stroke-width="6">
                        <line x1="0.225009252" y1="8.37170362" x2="15.9727924" y2="8.37170362" id="Line"></line>
                        <g id="Group-22" transform="translate(8.066602, 8.498193) rotate(-270.000000) translate(-8.066602, -8.498193) translate(0.066602, 6.498193)">
                            <line x1="8.2747317e-13" y1="1.9679259" x2="15.7477832" y2="1.9679259" id="Line"></line>
                        </g>
                    </g>
                    <circle id="Oval-11" fill="#DBB497" opacity="0.223822295" cx="32" cy="153" r="5"></circle>
                    <circle id="Oval-11" fill="#DBB497" opacity="0.223822295" cx="159" cy="16" r="5"></circle>
                    <g id="Group-23" opacity="0.608514695" transform="translate(140.500000, 182.000000) rotate(-15.000000) translate(-140.500000, -182.000000) translate(135.000000, 176.000000)" stroke="#BC2C3D" stroke-linecap="round" stroke-width="6">
                        <line x1="1.30559711e-12" y1="5.29474582" x2="10.3384955" y2="5.29474582" id="Line"></line>
                        <g id="Group-22" transform="translate(4.999543, 5.630707) rotate(-270.000000) translate(-4.999543, -5.630707) translate(-0.500457, 4.130707)">
                            <line x1="1.51087166e-13" y1="1.32368646" x2="10.3384955" y2="1.32368646" id="Line"></line>
                        </g>
                    </g>
                    <circle id="Oval" stroke="#8BC442" stroke-width="3" cx="53.5" cy="7.5" r="4.5"></circle>
                    <circle id="Oval" stroke="#8BC442" stroke-width="3" cx="170.5" cy="63.5" r="4.5"></circle>
                    <circle id="Oval" stroke="#8BC442" stroke-width="3" cx="4.5" cy="76.5" r="4.5"></circle>
                    <circle id="Oval" fill="#8BC442" cx="140.5" cy="24.5" r="3.5"></circle>
                    <circle id="Oval" fill="#8BC442" cx="28.5" cy="31.5" r="3.5"></circle>
                    <circle id="Oval" fill="#8BC442" cx="27.5" cy="113.5" r="3.5"></circle>
                    <circle id="Oval-11" fill="#DBB497" opacity="0.223822295" cx="97" cy="200" r="5"></circle>
                    <circle id="Oval" stroke="#8BC442" stroke-width="3" cx="37.5" cy="186.5" r="4.5"></circle>
                    <circle id="Oval" fill="#8BC442" cx="61.5" cy="147.5" r="3.5"></circle>
                    <circle id="Oval" stroke="#8BC442" stroke-width="3" cx="130.5" cy="142.5" r="4.5"></circle>
                    <circle id="Oval" fill="#BC2C3D" cx="133.5" cy="80.5" r="3.5"></circle>
                </g>
                <g id="location" transform="translate(32.000000, 14.000000)" fill-rule="nonzero">
                    <g id="Group" transform="translate(4.000000, 4.000000)">
                        <path d="M66.0103125,136.069106 L65.9003125,135.982724 L44.1546875,136.051829 C26.6303125,138.045528 13.75,144.755691 13.75,152.723577 C13.75,162.263618 32.2196875,170 55,170 C77.7803125,170 96.25,162.263618 96.25,152.723577 C96.25,144.779878 83.4453125,138.086992 66.0103125,136.069106 Z" id="Path" fill="#C5DBA9"></path>
                        <path d="M44.1546875,136.051829 C28.1290625,115.793496 0,77.1219512 0,55.2845528 C0,24.7502033 24.6228125,0 55,0 C85.3771875,0 110,24.7502033 110,55.2845528 C110,77.0977642 81.9328125,115.707114 65.9003125,135.982724 C59.489375,144.092276 55,149.268293 55,149.268293 C55,149.268293 50.538125,144.119919 44.1546875,136.051829 Z" id="Path" fill="#8BC442"></path>
                    </g>
                    <g id="Group" fill="#60951D">
                        <ellipse id="Oval" cx="97.0411765" cy="19.359375" rx="3.44117647" ry="3.45703125"></ellipse>
                        <path d="M41.2734706,137.028422 C30.07485,139.080516 13.7647059,144.842004 13.7647059,156.257812 C13.7647059,168.082934 32.9967529,177 58.5,177 C84.0032471,177 103.235294,168.082934 103.235294,156.257812 C103.235294,144.826102 86.8824794,139.073256 75.7268735,137.02773 C89.6034176,119.072256 117,81.3764414 117,58.7695313 C117,48.6732715 114.408106,38.7135645 109.504774,29.9676211 C108.571871,28.303752 106.472753,27.7153652 104.817891,28.651875 C103.161653,29.5887305 102.575621,31.6968281 103.508179,33.3603516 C107.832018,41.0729883 110.117647,49.8593789 110.117647,58.7695313 C110.117647,73.8522129 94.2989029,102.496482 66.7178735,137.357877 C63.3073235,141.669832 60.4280912,145.164891 58.5006882,147.468311 C56.7133412,145.332211 54.1076824,142.170756 51.01785,138.285053 C50.7893559,137.704963 6.88235294,84.7878398 6.88235294,58.7695313 C6.88235294,30.1764258 30.0380294,6.9140625 58.5,6.9140625 C67.0520118,6.9140625 75.5210912,9.05673047 82.9925735,13.110791 C84.6642971,14.017916 86.7524029,13.3918477 87.6557118,11.7117305 C88.5586765,10.031959 87.9354794,7.93457813 86.2630676,7.02710742 C77.7902029,2.42994727 68.1896647,8.59728955e-15 58.5,8.59728955e-15 C26.2431,8.59728955e-15 -2.93412353e-14,26.3640117 -2.93412353e-14,58.7695313 C-2.93412353e-14,81.4120488 27.4781382,119.178732 41.2734706,137.028422 L41.2734706,137.028422 Z M58.4993118,156.257812 L58.5,156.257812 C59.4945,156.257812 60.4404794,155.825684 61.0939588,155.072396 C61.1362853,155.023652 65.1204794,150.424764 70.8448765,143.246584 C86.8501324,145.429354 96.3529412,151.472244 96.3529412,156.257812 C96.3529412,166.095141 69.9573971,170.085938 58.5,170.085938 C42.9121588,170.085938 20.6470588,164.819496 20.6470588,156.257812 C20.6470588,151.463256 30.1426412,145.433156 46.1575324,143.249004 C51.8815853,150.424418 55.8633706,155.022615 55.9053529,155.071705 C56.5584882,155.824992 57.5044676,156.257812 58.4993118,156.257812 L58.4993118,156.257812 Z" id="Shape"></path>
                    </g>
                    <g id="tick" transform="translate(25.000000, 41.000000)" fill="#FFFFFF">
                        <path d="M65.0806247,1.00934579 C63.7433516,-0.336448598 61.6260025,-0.336448598 60.4001688,1.00934579 L21.7306881,39.9252336 L5.68341072,23.7757009 C4.34613761,22.4299065 2.22878852,22.4299065 1.00295483,23.7757009 C-0.334318278,25.1214953 -0.334318278,27.2523364 1.00295483,28.4859813 L19.3904601,46.9906542 C20.0590967,47.6635514 20.9506121,48 21.7306881,48 C22.510764,48 23.4022794,47.6635514 24.070916,46.9906542 L65.0806247,5.71962617 C66.3064584,4.48598131 66.3064584,2.35514019 65.0806247,1.00934579 L65.0806247,1.00934579 Z" id="Path"></path>
                    </g>
                </g>
            </g>
        </g>
    </g>
</svg>