<?xml version="1.0" encoding="UTF-8"?>
<svg width="17px" height="15px" viewBox="0 0 17 15" version="1.1" xmlns="http://www.w3.org/2000/svg" xmlns:xlink="http://www.w3.org/1999/xlink">
    <title>E20CC914-5E0C-4AE6-BFCC-E7459A3D2CB3</title>
    <g id="Page-1" stroke="none" stroke-width="1" fill="none" fill-rule="evenodd">
        <g id="22.-Profile" transform="translate(-51.000000, -455.000000)" fill-rule="nonzero" stroke="#60951D">
            <g id="My-Account" transform="translate(52.000000, 288.000000)">
                <path d="M13.8100433,169.272219 C13.0335617,168.451832 11.9681168,168 10.8097458,168 C9.94388581,168 9.15092467,168.266662 8.4528351,168.792517 C8.10058594,169.057953 7.78141022,169.382696 7.5,169.761731 C7.21870424,169.382808 6.89941406,169.057953 6.54705047,168.792517 C5.84907533,168.266662 5.05611419,168 4.19025422,168 C3.03188323,168 1.96632387,168.451832 1.18984222,169.272219 C0.422630303,170.083019 0,171.190692 0,172.391341 C0,173.627105 0.472755439,174.758301 1.48773193,175.951369 C2.39570619,177.018574 3.70067596,178.101945 5.2118683,179.356438 C5.72788239,179.784859 6.3127899,180.27047 6.92012786,180.787741 C7.08057404,180.924639 7.28645326,181 7.5,181 C7.7134323,181 7.91942596,180.924639 8.07964324,180.787964 C8.6869812,180.270581 9.27223207,179.784748 9.78847503,179.356104 C11.2994385,178.101833 12.6044083,177.018574 13.5123825,175.951257 C14.527359,174.758301 15,173.627105 15,172.391229 C15,171.190692 14.5773697,170.083019 13.8100433,169.272219 Z" id="Fav-icon"></path>
            </g>
        </g>
    </g>
</svg>