<?xml version="1.0" encoding="UTF-8"?>
<svg width="15px" height="17px" viewBox="0 0 15 17" version="1.1" xmlns="http://www.w3.org/2000/svg" xmlns:xlink="http://www.w3.org/1999/xlink">
    <title>3DEDDBEE-1FAA-4B84-A426-E97A2AD10917</title>
    <g id="Page-1" stroke="none" stroke-width="1" fill="none" fill-rule="evenodd">
        <g id="22.-Profile" transform="translate(-55.000000, -582.000000)" fill="#BC2C3D" fill-rule="nonzero">
            <g id="Notifications" transform="translate(52.000000, 538.000000)">
                <g id="Bell-Icon---Light-_-Font-Awesome-32" transform="translate(3.000000, 44.000000)">
                    <path d="M7.50003991,15.9375 C6.90875475,15.9375 6.42862852,15.4600391 6.42862852,14.8740039 L5.35721713,14.8740039 C5.35721713,16.0464063 6.31880885,17 7.50003991,17 C8.68127096,17 9.64286268,16.0464062 9.64286268,14.8740039 L8.57145129,14.8740039 C8.57145129,15.4600391 8.09132507,15.9375 7.50003991,15.9375 Z M14.5104185,11.1167383 C13.5742728,10.2328711 12.8584361,9.30783203 12.8584361,6.17246094 C12.8584361,3.52982422 10.7360371,1.37460938 8.0357456,1.11396484 L8.0357456,0.53125 C8.0357456,0.237734375 7.7960173,0 7.50003991,0 C7.20406251,0 6.96433421,0.237734375 6.96433421,0.53125 L6.96433421,1.11429688 C4.2640427,1.37494141 2.14164371,3.52982422 2.14164371,6.17246094 C2.14164371,9.3075 1.42547216,10.2328711 0.48932646,11.1167383 C0.0215884262,11.5583398 -0.126065456,12.2260547 0.112658394,12.8177344 C0.356404485,13.4220313 0.943002219,13.8125 1.60727728,13.8125 L13.3928025,13.8125 C14.0570776,13.8125 14.6436753,13.4216992 14.8874214,12.8174023 C15.1261453,12.2257227 14.9781566,11.5583398 14.5104185,11.1167383 Z M13.3928025,12.75 L1.60727728,12.75 C1.13083403,12.75 0.89277981,12.2031445 1.2282655,11.8863867 C2.39543428,10.784375 3.21305509,9.55087891 3.21305509,6.17279297 C3.21305509,3.93556641 5.13054666,2.125 7.50003991,2.125 C9.86919834,2.125 11.7870247,3.93523438 11.7870247,6.17246094 C11.7870247,9.53759766 12.5976144,10.7777344 13.7718143,11.8860547 C14.1086393,12.2044727 13.8672369,12.75 13.3928025,12.75 Z" id="Shape"></path>
                </g>
            </g>
        </g>
    </g>
</svg>