<?xml version="1.0" encoding="UTF-8"?>
<svg width="22px" height="22px" viewBox="0 0 22 22" version="1.1" xmlns="http://www.w3.org/2000/svg" xmlns:xlink="http://www.w3.org/1999/xlink">
    <title>ABA2A86A-7C3A-4FDD-B63B-53DB31A0EE68</title>
    <g id="Page-1" stroke="none" stroke-width="1" fill="none" fill-rule="evenodd">
        <g id="5.-Login" transform="translate(-110.000000, -688.000000)" fill="#BC2C3D" fill-rule="nonzero">
            <g id="Group-3" transform="translate(40.000000, 670.000000)">
                <g id="Google-Icon---Brands-_-Font-Awesome-23" transform="translate(70.000000, 18.000000)">
                    <path d="M22,11.2572581 C22,17.5334677 17.6315574,22 11.1803279,22 C4.99508197,22 0,17.0854839 0,11 C0,4.91451613 4.99508197,0 11.1803279,0 C14.1918033,0 16.7254098,1.08669355 18.677459,2.87862903 L15.6344262,5.75725806 C11.6536885,1.97822581 4.25122951,4.81693548 4.25122951,11 C4.25122951,14.8366935 7.36639344,17.9459677 11.1803279,17.9459677 C15.607377,17.9459677 17.2663934,14.8233871 17.5278689,13.2044355 L11.1803279,13.2044355 L11.1803279,9.42096774 L21.8241803,9.42096774 C21.9278689,9.98427419 22,10.5254032 22,11.2572581 Z" id="Path"></path>
                </g>
            </g>
        </g>
    </g>
</svg>