<?xml version="1.0" encoding="UTF-8"?>
<svg width="18px" height="18px" viewBox="0 0 18 18" version="1.1" xmlns="http://www.w3.org/2000/svg" xmlns:xlink="http://www.w3.org/1999/xlink">
    <title>0FFAE7D6-94AE-4A52-B0C2-BA7CB1408DF1</title>
    <g id="Page-1" stroke="none" stroke-width="1" fill="none" fill-rule="evenodd">
        <g id="22.-Profile" transform="translate(-54.000000, -705.000000)" fill="#BC2C3D" fill-rule="nonzero">
            <g id="more" transform="translate(52.000000, 665.000000)">
                <g id="help" transform="translate(2.000000, 40.000000)">
                    <path d="M9,1.26 C13.274684,1.26 16.74,4.72531604 16.74,9 C16.74,13.274684 13.274684,16.74 9,16.74 C4.72531604,16.74 1.26,13.274684 1.26,9 C1.26,4.72531604 4.72531604,1.26 9,1.26 M9,0 C4.02943725,0 0,4.02943725 0,9 C0,13.9705627 4.02943725,18 9,18 C13.9705627,18 18,13.9705627 18,9 C18,6.61305159 17.0517884,4.32386638 15.363961,2.63603897 C13.6761336,0.948211563 11.3869484,0 9,0 Z" id="Shape"></path>
                    <path d="M8.94242659,4 C9.99990901,4.04019509 10.8337599,4.43690313 11.4578479,5.22332876 C12.3246368,6.32082941 12.1322096,7.86397126 11.0227199,8.77447738 C10.7453474,9.00166701 10.4437049,9.20089483 10.143796,9.40012266 C9.83803728,9.57216993 9.66499704,9.91277833 9.7052008,10.2634432 C9.7147654,10.3517265 9.7147654,10.4407971 9.7052008,10.5290803 C9.67692068,10.8076507 9.43647694,11.0146444 9.15912381,10.9991881 C8.88812833,10.9932986 8.66450926,10.7836492 8.63905049,10.5116042 C8.56103949,9.68847872 8.80374037,9.00690984 9.50583936,8.53155924 C9.77107675,8.35679799 10.0259127,8.162813 10.3032851,7.98630414 C11.170074,7.42007768 11.170074,5.86645016 10.0917886,5.34216641 C9.38860132,4.97800309 8.55353903,4.98191552 7.85373977,5.35265208 C7.48489401,5.543071 7.19675382,5.86147401 7.04242539,6.2491773 C6.97665317,6.44267143 6.8080828,6.58209783 6.60699235,6.60932874 C6.40590191,6.63655965 6.20680861,6.54692089 6.09271574,6.37778342 C5.97862286,6.20864595 5.96911448,5.98904227 6.06815471,5.81052656 C6.54142143,4.83011594 7.34926865,4.29010368 8.38421456,4.06291405 C8.56903765,4.03191154 8.75537519,4.01091011 8.94242659,4 L8.94242659,4 Z" id="Path"></path>
                    <path d="M9.00375675,13.5075306 C9.00375675,13.1587014 9.27124958,12.9449028 9.61242308,13.0124182 C9.7974465,13.0391039 9.94317356,13.165382 9.97602112,13.3274897 C10.0176667,13.5370685 10.028879,13.7494605 9.80623525,13.9027765 C9.65431046,14.0154104 9.43804836,14.0317527 9.26644432,13.943567 C9.08331065,13.8610727 8.97837719,13.6868931 9.00375675,13.5075306 Z" id="Path"></path>
                </g>
            </g>
        </g>
    </g>
</svg>