<?xml version="1.0" encoding="UTF-8"?>
<svg width="14px" height="17px" viewBox="0 0 14 17" version="1.1" xmlns="http://www.w3.org/2000/svg" xmlns:xlink="http://www.w3.org/1999/xlink">
    <title>D08B5C75-975C-4F81-B036-6D6155AA229C</title>
    <g id="Page-1" stroke="none" stroke-width="1" fill="none" fill-rule="evenodd">
        <g id="22.-Profile" transform="translate(-52.000000, -335.000000)" fill="#BC2C3D" fill-rule="nonzero">
            <g id="My-Account" transform="translate(52.000000, 288.000000)">
                <g id="Group" transform="translate(0.000000, 47.000000)">
                    <path d="M7,3.81511628 C5.43529412,3.81511628 4.15882353,5.04069767 4.15882353,6.54302326 C4.15882353,8.04534884 5.43529412,9.27093023 7,9.27093023 C8.56470588,9.27093023 9.84117647,8.04534884 9.84117647,6.54302326 C9.84117647,5.04069767 8.56470588,3.81511628 7,3.81511628 Z M7,8.48023256 C5.88823529,8.48023256 4.98235294,7.61046512 4.98235294,6.54302326 C4.98235294,5.4755814 5.88823529,4.60581395 7,4.60581395 C8.11176471,4.60581395 9.01764706,5.4755814 9.01764706,6.54302326 C9.01764706,7.61046512 8.11176471,8.48023256 7,8.48023256 Z" id="Shape"></path>
                    <path d="M7,0.0790697674 C3.19117647,0.0790697674 0.102941176,2.96511628 0.102941176,6.54302326 C0.102941176,7.94651163 0.576470588,9.29069767 1.46176471,10.4174419 L6.34117647,16.6046512 C6.50588235,16.8023256 6.73235294,16.9209302 7,16.9209302 C7,16.9209302 7,16.9209302 7,16.9209302 C7.26764706,16.9209302 7.49411765,16.8023256 7.65882353,16.6046512 L12.5176471,10.3976744 C13.4029412,9.27093023 13.8765729,7.92674419 13.8765729,6.52325581 C13.8970588,2.96511628 10.8088235,0.0790697674 7,0.0790697674 Z M11.8588235,9.94302326 L7,16.1302326 L2.14117647,9.92325581 C1.35882353,8.93488372 0.947058824,7.76860465 0.947058824,6.52325581 C0.947058824,3.4 3.66470588,0.85 7.02058824,0.85 C10.3558824,0.85 13.0941176,3.4 13.0941176,6.52325581 C13.0735294,7.76860465 12.6617647,8.95465116 11.8588235,9.94302326 Z" id="Shape"></path>
                </g>
            </g>
        </g>
    </g>
</svg>