<?xml version="1.0" encoding="UTF-8"?>
<svg width="18px" height="14px" viewBox="0 0 18 14" version="1.1" xmlns="http://www.w3.org/2000/svg" xmlns:xlink="http://www.w3.org/1999/xlink">
    <title>CDE613E4-EC13-48DF-B875-E04A32BD9A14</title>
    <g id="Page-1" stroke="none" stroke-width="1" fill="none" fill-rule="evenodd">
        <g id="22.-Profile" transform="translate(-54.000000, -747.000000)" fill="#BC2C3D" fill-rule="nonzero">
            <g id="more" transform="translate(52.000000, 665.000000)">
                <g id="logout" transform="translate(2.000000, 82.000000)">
                    <path d="M7.0724137,14 C9.40344444,13.9989013 11.5840518,12.8597693 12.9010841,10.955148 C13.0137122,10.7964929 13.0314799,10.5901158 12.9475985,10.4148698 C12.8637171,10.2396239 12.6911484,10.122589 12.495828,10.1084823 C12.3005076,10.0943756 12.1126175,10.1853769 12.0039473,10.3467162 C10.5225997,12.4889609 7.80501845,13.4260353 5.30043341,12.658217 C2.79584837,11.8903986 1.08823962,9.59671541 1.08823962,7.00034121 C1.08823962,4.40396701 2.79584837,2.1102838 5.30043341,1.34246546 C7.80501845,0.57464711 10.5225997,1.51172151 12.0039473,3.65396625 C12.1751506,3.89513406 12.5103643,3.95512495 12.7559774,3.78855189 C13.0015905,3.62197884 13.0662711,3.29078244 12.9010841,3.04553444 C11.0012901,0.298155957 7.41004601,-0.743602777 4.31359533,0.554450237 C1.21714466,1.85250325 -0.527291596,5.13101519 0.14224792,8.39412465 C0.811787435,11.6572341 3.70994749,14.0015823 7.0724137,14 L7.0724137,14 Z" id="Path"></path>
                    <polygon id="Path" points="13.854 6.87343358 6 6.87343358 6 8.12656642 13.854 8.12656642 13.854 10 18 7.5 13.854 5"></polygon>
                </g>
            </g>
        </g>
    </g>
</svg>