<?xml version="1.0" encoding="UTF-8"?>
<svg width="17px" height="17px" viewBox="0 0 17 17" version="1.1" xmlns="http://www.w3.org/2000/svg" xmlns:xlink="http://www.w3.org/1999/xlink">
    <title>AD4BCD5F-9922-4BB2-993F-CEFDDE556ED1</title>
    <g id="Page-1" stroke="none" stroke-width="1" fill="none" fill-rule="evenodd">
        <g id="22.-Profile" transform="translate(-52.000000, -494.000000)" fill="#BC2C3D" fill-rule="nonzero">
            <g id="My-Account" transform="translate(52.000000, 288.000000)">
                <g id="Offer-icon" transform="translate(0.000000, 206.000000)">
                    <path d="M9.5,12 C10.327,12 11,11.3271667 11,10.5 C11,9.67283333 10.327,9 9.5,9 C8.673,9 8,9.67283333 8,10.5 C8,11.3271667 8.673,12 9.5,12 Z M9.5,9.69230769 C9.94536154,9.69230769 10.3076923,10.0546385 10.3076923,10.5 C10.3076923,10.9453615 9.94536154,11.3076923 9.5,11.3076923 C9.05463846,11.3076923 8.69230769,10.9453615 8.69230769,10.5 C8.69230769,10.0546385 9.05463846,9.69230769 9.5,9.69230769 Z" id="Shape"></path>
                    <path d="M6.5,8 C7.327,8 8,7.32716667 8,6.5 C8,5.67283333 7.327,5 6.5,5 C5.673,5 5,5.67283333 5,6.5 C5,7.32716667 5.673,8 6.5,8 Z M6.5,5.69230769 C6.94536154,5.69230769 7.30769231,6.05463846 7.30769231,6.5 C7.30769231,6.94536154 6.94536154,7.30769231 6.5,7.30769231 C6.05463846,7.30769231 5.69230769,6.94536154 5.69230769,6.5 C5.69230769,6.05463846 6.05463846,5.69230769 6.5,5.69230769 Z" id="Shape"></path>
                    <path d="M5.14480234,11.9368492 C5.21323859,11.9792997 5.2942371,12 5.37486063,12 C5.48660858,12 5.59723155,11.9600995 5.67110519,11.8841985 L10.921009,6.48412967 C11.0481316,6.353478 11.0186947,6.1649256 10.8551977,6.0630743 C10.6917007,5.96152301 10.4560175,5.98507331 10.3288948,6.11587497 L5.07899105,11.5159438 C4.95186838,11.6465955 4.98130534,11.8349979 5.14480234,11.9368492 Z" id="Path"></path>
                    <path d="M15.9275336,6.50965074 L16.0428797,5.04664522 C16.0874557,4.48161765 15.7735855,3.93795956 15.2618806,3.69370404 L13.9372381,3.06227022 L13.3055916,1.73759191 C13.0615725,1.2254136 12.5174695,0.912913603 11.9529168,0.956571691 L10.4901806,1.07192096 L9.28088422,0.240579044 C8.81375531,-0.0801930147 8.18578515,-0.0801930147 7.71888601,0.240579044 L6.50958965,1.07192096 L5.04708323,0.956571691 C4.48207093,0.914292279 3.93819777,1.22587316 3.69417863,1.73759191 L3.0625321,3.06227022 L1.7378896,3.69370404 C1.22618468,3.93795956 0.912314492,4.48161765 0.956890493,5.04664522 L1.07223664,6.50965074 L0.240917201,7.71875 C-0.0803057335,8.18589154 -0.0803057335,8.81387868 0.240917201,9.28079044 L1.07223664,10.4901195 L0.956890493,11.953125 C0.912314492,12.5181526 1.22618468,13.0618107 1.7378896,13.3060662 L3.0625321,13.9375 L3.69417863,15.2621783 C3.93819777,15.7741268 4.48207093,16.0854779 5.04685346,16.0431985 L6.50958965,15.9278493 L7.71888601,16.7591912 C7.95256535,16.9195772 8.22622523,17 8.49988511,17 C8.77354499,17 9.04743465,16.9195772 9.28088422,16.7591912 L10.6243681,15.8354779 C10.8336915,15.691636 10.8865393,15.4055607 10.7427013,15.1964614 C10.5990931,14.9871324 10.3127957,14.9342831 10.1037021,15.0778952 L8.76021815,16.0016085 C8.60443192,16.1089154 8.39556808,16.1089154 8.23955208,16.0016085 L6.7621104,14.9857537 L4.9744749,15.1266085 C4.78629065,15.1454504 4.60522937,15.0369945 4.52388965,14.8664982 L3.75231125,13.247932 L2.13378882,12.4761029 C1.96306734,12.394761 1.85852053,12.2134651 1.87345579,12.0252757 L2.01430676,10.2378217 L0.998709215,8.75988051 C0.891634904,8.60431985 0.891634904,8.39522059 0.998709215,8.23943015 L2.01430676,6.76171875 L1.87345579,4.97426471 C1.8587503,4.78607537 1.96329711,4.60477941 2.13378882,4.5234375 L3.75231125,3.75160846 L4.52388965,2.13304228 C4.60522937,1.96254596 4.78514178,1.85409007 4.97470467,1.87293199 L6.7621104,2.01378676 L8.23978185,0.997931985 C8.39556808,0.890625 8.60443192,0.890625 8.76044792,0.997931985 L10.2378896,2.01378676 L12.0255251,1.87293199 C12.2146284,1.85615809 12.3950004,1.96277574 12.4761103,2.13304228 L13.2476888,3.75160846 L14.8662112,4.5234375 C15.0369327,4.60477941 15.1414795,4.78607537 15.1265442,4.97426471 L14.9856932,6.76171875 L16.0012908,8.23965993 C16.1083651,8.39522059 16.1083651,8.60431985 16.0012908,8.76011029 L14.9856932,10.2378217 L15.1265442,12.0252757 C15.1412497,12.2134651 15.0367029,12.394761 14.8662112,12.4761029 L13.2476888,13.247932 L12.4761103,14.8664982 C12.3947706,15.0369945 12.2121009,15.1410846 12.0250656,15.1266085 L11.7527843,15.105239 C11.4991147,15.0854779 11.2785324,15.2743566 11.2587719,15.5275735 C11.2390114,15.7807904 11.4281148,16.0016085 11.6810951,16.0215993 L11.9529168,16.0429687 C12.5209161,16.0859375 13.062032,15.7738971 13.3058214,15.2619485 L13.9374679,13.9372702 L15.2621104,13.3058364 C15.7738153,13.0615809 16.0876855,12.5179228 16.0431095,11.9528952 L15.9277634,10.4898897 L16.7590828,9.28079044 C17.0803057,8.8136489 17.0803057,8.18566176 16.7590828,7.71875 L15.9275336,6.50965074 Z" id="Path"></path>
                </g>
            </g>
        </g>
    </g>
</svg>