<?xml version="1.0" encoding="UTF-8"?>
<svg width="28px" height="23px" viewBox="0 0 28 23" version="1.1" xmlns="http://www.w3.org/2000/svg" xmlns:xlink="http://www.w3.org/1999/xlink">
    <title>DDC30840-9D4E-432C-A0E9-F82C40E1E6BC</title>
    <g id="Page-1" stroke="none" stroke-width="1" fill="none" fill-rule="evenodd">
        <g id="29.-Orders-status" transform="translate(-34.000000, -405.000000)" fill-rule="nonzero">
            <g id="delivery-motorbike" transform="translate(34.000000, 405.000000)">
                <path d="M25.5943039,0 L22.6060416,0 L22.6060416,1.20649929 C22.6060416,1.3574294 22.4805733,1.48005665 22.3253589,1.48005665 L21.6748687,1.48005665 C21.5195973,1.48005665 21.3940152,1.35737401 21.3940152,1.20649929 L21.3940152,0 L18.4059236,0 C18.1818324,0 18,0.176962091 18,0.395187644 L18,6.60481236 C18,6.82320407 18.1818324,7 18.4059236,7 L25.5943039,7 C25.8183382,7 26,6.82325946 26,6.60481236 L26,0.395132257 C26,0.176962091 25.8183382,0 25.5943039,0 Z" id="Path" fill="#60951D"></path>
                <g id="Group" transform="translate(0.000000, 2.000000)">
                    <g transform="translate(0.000000, 13.309264)" fill="#60951D" id="Shape">
                        <path d="M21.6487429,6.65824594 C19.8250857,6.65824594 18.3413714,5.16881314 18.3413714,3.33764205 C18.3413714,1.50647096 19.8250857,0.0169234171 21.6487429,0.0169234171 C23.4728571,0.0169234171 24.9566857,1.50647096 24.9566857,3.33764205 C24.9566857,5.16881314 23.4728,6.65824594 21.6487429,6.65824594 Z M21.6487429,1.69033384 C20.7441714,1.69033384 20.0078857,2.42939954 20.0078857,3.33764205 C20.0078857,4.24576982 20.7441714,4.98506499 21.6487429,4.98506499 C22.5536,4.98506499 23.2897143,4.24576982 23.2897143,3.33764205 C23.2896571,2.42939954 22.5536,1.69033384 21.6487429,1.69033384 Z"></path>
                        <path d="M3.3076,6.65824594 C1.48388571,6.65824594 0,5.16881314 0,3.33764205 C0,1.50647096 1.48388571,0.0169234171 3.3076,0.0169234171 C5.13137143,0.0169234171 6.6152,1.50647096 6.6152,3.33764205 C6.6152,5.16881314 5.13137143,6.65824594 3.3076,6.65824594 Z M3.3076,1.69033384 C2.4028,1.69033384 1.66668571,2.42939954 1.66668571,3.33764205 C1.66668571,4.24576982 2.4028,4.98506499 3.3076,4.98506499 C4.21245714,4.98506499 4.94851429,4.24576982 4.94851429,3.33764205 C4.94851429,2.42939954 4.21245714,1.69033384 3.3076,1.69033384 Z"></path>
                    </g>
                    <path d="M23.2284,10.1483135 L23.2284,9.23829258 L25.534,9.23829258 C26.0557143,9.23829258 26.4787429,8.81400244 26.4787429,8.29029439 L26.4787429,7.6153082 C26.4787429,7.09182963 26.0557143,6.66731001 25.534,6.66731001 L13.9782857,6.66731001 C13.4566286,6.66731001 13.0336,7.09182963 13.0336,7.6153082 L13.0336,8.30033371 C13.0336,8.82392702 13.4566286,9.24844663 13.9782857,9.24844663 L15.2559429,9.24844663 L15.2559429,12.8924886 L8.85451429,12.8924886 C8.38554286,12.1582418 7.77062857,11.5267401 7.05114286,11.0387721 L9.5692,1.92181177 L11.8964,1.92181177 C12.4180571,1.92181177 12.8408,1.49706268 12.8408,0.973469369 C12.8408,0.449990791 12.4180571,0.0254711769 11.8964,0.0254711769 C11.8964,0.0254711769 9.44794286,0.0254711769 8.58851429,0.0254711769 C8.47091429,0.0254711769 8.26594286,0.0749793427 8.16548571,0.124716979 C8.01988571,0.197573723 7.89274286,0.307604618 7.79994286,0.447523988 L1.09874286,10.5334216 C0.899085714,10.8289791 0.751771429,11.2002042 0.862,11.5262812 C1.0332,12.0329511 1.61205714,12.2142324 2.20502857,12.0376552 C2.65542857,11.9036447 3.02925714,11.8449577 3.50457143,11.8449577 C5.96502857,11.8449577 7.96674286,13.8545992 7.96674286,16.324787 C7.96674286,16.8484951 8.38937143,17.2731294 8.91102857,17.2731294 L16.2422857,17.2731294 C16.7639429,17.2731294 17.1869143,16.8484951 17.1869143,16.324787 C17.1869143,13.8545992 19.1883429,11.8449577 21.6487429,11.8449577 C24.1091429,11.8449577 26.1110286,13.8545992 26.1110286,16.324787 C26.1110286,16.8484951 26.5341143,17.2731294 27.0554286,17.2731294 C27.5773143,17.2731294 28,16.8484951 28,16.324787 C28,13.3561902 25.9685714,10.8550239 23.2284,10.1483135 Z" id="Path" fill="#8BC442"></path>
                </g>
            </g>
        </g>
    </g>
</svg>