<?xml version="1.0" encoding="UTF-8"?>
<svg width="201px" height="219px" viewBox="0 0 201 219" version="1.1" xmlns="http://www.w3.org/2000/svg" xmlns:xlink="http://www.w3.org/1999/xlink">
    <title>8EF9E5BF-B2FC-4D80-9823-B63FF7B725CD</title>
    <g id="Page-1" stroke="none" stroke-width="1" fill="none" fill-rule="evenodd">
        <g id="21.-Payment-Done" transform="translate(-105.000000, -224.000000)">
            <g id="Group-2" transform="translate(105.000000, 227.000000)">
                <g id="Additional-Elements">
                    <circle id="Oval-11" fill="#DBB497" opacity="0.162430037" cx="162" cy="52" r="5"></circle>
                    <circle id="Oval-11" fill="#DBB497" opacity="0.162430037" cx="106" cy="60" r="5"></circle>
                    <circle id="Oval-11" fill="#DBB497" opacity="0.170184235" cx="106.5" cy="39.5" r="2.5"></circle>
                    <circle id="Oval-11" fill="#DBB497" opacity="0.301364272" cx="193" cy="70" r="5"></circle>
                    <circle id="Oval-11" fill="#DBB497" opacity="0.40500726" cx="5" cy="101" r="5"></circle>
                    <g id="Group-23" opacity="0.364272388" transform="translate(118.500000, 11.000000) rotate(-120.000000) translate(-118.500000, -11.000000) translate(111.000000, 3.000000)" stroke="#DBB497" stroke-linecap="round" stroke-width="7">
                        <line x1="1.68937126e-12" y1="7.409086" x2="14.1678" y2="7.409086" id="Line"></line>
                        <g id="Group-22" transform="translate(6.658543, 7.825434) rotate(-270.000000) translate(-6.658543, -7.825434) translate(-0.841457, 5.325434)">
                            <line x1="-2.10374535e-13" y1="2.07454408" x2="14.1678" y2="2.07454408" id="Line"></line>
                        </g>
                    </g>
                    <g id="Group-23" transform="translate(185.000000, 108.500000) rotate(-330.000000) translate(-185.000000, -108.500000) translate(177.000000, 100.000000)" stroke="#EFD2BC" stroke-linecap="round" stroke-width="6">
                        <line x1="0.225009252" y1="8.37170362" x2="15.9727924" y2="8.37170362" id="Line"></line>
                        <g id="Group-22" transform="translate(8.066602, 8.498193) rotate(-270.000000) translate(-8.066602, -8.498193) translate(0.066602, 6.498193)">
                            <line x1="8.2747317e-13" y1="1.9679259" x2="15.7477832" y2="1.9679259" id="Line"></line>
                        </g>
                    </g>
                    <circle id="Oval-11" fill="#DBB497" opacity="0.223822295" cx="34" cy="160" r="5"></circle>
                    <circle id="Oval-11" fill="#DBB497" opacity="0.223822295" cx="70" cy="45" r="5"></circle>
                    <g id="Group-23" opacity="0.608514695" transform="translate(147.500000, 189.000000) rotate(-15.000000) translate(-147.500000, -189.000000) translate(142.000000, 183.000000)" stroke="#BC2C3D" stroke-linecap="round" stroke-width="6">
                        <line x1="1.30559711e-12" y1="5.29474582" x2="10.3384955" y2="5.29474582" id="Line"></line>
                        <g id="Group-22" transform="translate(4.999543, 5.630707) rotate(-270.000000) translate(-4.999543, -5.630707) translate(-0.500457, 4.130707)">
                            <line x1="1.51087166e-13" y1="1.32368646" x2="10.3384955" y2="1.32368646" id="Line"></line>
                        </g>
                    </g>
                    <circle id="Oval" stroke="#8BC442" stroke-width="3" cx="74.5" cy="15.5" r="4.5"></circle>
                    <circle id="Oval" stroke="#8BC442" stroke-width="3" cx="24.5" cy="83.5" r="4.5"></circle>
                    <circle id="Oval" stroke="#8BC442" fill="#8BC442" cx="144.5" cy="36.5" r="3.5"></circle>
                    <circle id="Oval" stroke="#8BC442" fill="#8BC442" cx="37.5" cy="45.5" r="3.5"></circle>
                    <circle id="Oval" stroke="#8BC442" fill="#8BC442" cx="9.5" cy="137.5" r="3.5"></circle>
                    <circle id="Oval-11" fill="#DBB497" opacity="0.223822295" cx="106" cy="211" r="5"></circle>
                    <circle id="Oval" stroke="#8BC442" stroke-width="3" cx="36.5" cy="194.5" r="4.5"></circle>
                    <circle id="Oval" stroke="#8BC442" fill="#8BC442" cx="82.5" cy="189.5" r="3.5"></circle>
                    <circle id="Oval" stroke="#8BC442" stroke-width="3" cx="187.5" cy="140.5" r="4.5"></circle>
                    <circle id="Oval" fill="#BC2C3D" cx="144.5" cy="84.5" r="3.5"></circle>
                </g>
                <circle id="Oval" stroke="#60951D" stroke-width="4" fill="#FFFFFF" cx="102.5" cy="113.5" r="63.5"></circle>
                <g id="noun_tick_2349168" transform="translate(66.000000, 87.000000)" fill="#8BC442" fill-rule="nonzero">
                    <path d="M72.9691853,1.13551402 C71.4698185,-0.378504673 69.095821,-0.378504673 67.7214014,1.13551402 L24.3647108,44.9158879 L6.37230899,26.7476636 C4.87294217,25.2336449 2.4989447,25.2336449 1.12452512,26.7476636 C-0.374841705,28.2616822 -0.374841705,30.6588785 1.12452512,32.046729 L21.7408189,52.864486 C22.4905023,53.6214953 23.4900802,54 24.3647108,54 C25.2393415,54 26.2389194,53.6214953 26.9886028,52.864486 L72.9691853,6.43457944 C74.3436049,5.04672897 74.3436049,2.64953271 72.9691853,1.13551402 L72.9691853,1.13551402 Z" id="Path"></path>
                </g>
            </g>
        </g>
    </g>
</svg>