<?xml version="1.0" encoding="UTF-8"?>
<svg width="27px" height="27px" viewBox="0 0 27 27" version="1.1" xmlns="http://www.w3.org/2000/svg" xmlns:xlink="http://www.w3.org/1999/xlink">
    <title>14B95CEA-DFD0-4AFB-9986-FA908CE62612</title>
    <g id="Page-1" stroke="none" stroke-width="1" fill="none" fill-rule="evenodd">
        <g id="29.-Orders-status" transform="translate(-35.000000, -587.000000)" fill="#CFCFCF" fill-rule="nonzero">
            <g id="confirm" transform="translate(35.000000, 587.000000)">
                <path d="M13.2540039,26.500166 C7.72967203,26.5015833 2.78417238,23.0753666 0.844340339,17.9028144 C-1.0954917,12.7302622 0.37746772,6.89696821 4.54041396,3.26542265 C8.70336021,-0.366122907 14.6825915,-1.03374643 19.5440039,1.59016558 C19.7573372,1.69683224 19.9673372,1.81683224 20.1740039,1.95016558 C20.6417369,2.23859499 20.7891051,2.85039653 20.5040039,3.32016558 C20.3653784,3.54761966 20.1417355,3.71036755 19.8826707,3.77231781 C19.623606,3.83426808 19.3505311,3.79030054 19.1240039,3.65016558 C18.9540039,3.55016558 18.7740039,3.44016558 18.5940039,3.35016558 C13.7269114,0.725799553 7.67423526,2.02753965 4.31641857,6.42082473 C0.958601871,10.8141098 1.29130738,16.9962391 5.10123361,21.0037756 C8.91115984,25.0113121 15.0685841,25.6559376 19.6259081,22.5243749 C24.1832321,19.3928122 25.7891141,13.4136352 23.4140039,8.42016558 L13.7140039,18.1201656 C13.5262373,18.3094782 13.2706414,18.4159639 13.0040039,18.4159639 C12.7373664,18.4159639 12.4817705,18.3094782 12.2940039,18.1201656 L8.2940039,14.1201656 C7.9062803,13.7301281 7.9062803,13.100203 8.2940039,12.7101656 C8.4817705,12.5208529 8.73736636,12.4143673 9.0040039,12.4143673 C9.27064143,12.4143673 9.5262373,12.5208529 9.7140039,12.7101656 L13.0040039,16.0001656 L22.9440039,6.06016558 C23.1599424,5.84305605 23.4634502,5.73684942 23.7676443,5.77194873 C24.0718384,5.80704805 24.3431836,5.97958388 24.5040039,6.24016558 C27.0444757,10.3273363 27.1711205,15.4701038 24.8349058,19.6773668 C22.4986912,23.8846298 18.0663778,26.4958929 13.2540039,26.500166 L13.2540039,26.500166 Z" id="Path"></path>
            </g>
        </g>
    </g>
</svg>