<?xml version="1.0" encoding="UTF-8"?>
<svg width="16px" height="20px" viewBox="0 0 16 20" version="1.1" xmlns="http://www.w3.org/2000/svg" xmlns:xlink="http://www.w3.org/1999/xlink">
    <title>853B5857-EBC8-4721-9941-F674D24869E1</title>
    <g id="Page-1" stroke="none" stroke-width="1" fill="none" fill-rule="evenodd">
        <g id="22.-Profile" transform="translate(-52.000000, -411.000000)" fill="#BC2C3D" fill-rule="nonzero">
            <g id="My-Account" transform="translate(52.000000, 288.000000)">
                <g id="product" transform="translate(0.000000, 123.000000)">
                    <path d="M15.7257843,6.85453613 L11.7220921,5.29281665 C12.297362,3.64658815 11.7387273,1.81503551 10.3450066,0.777872359 C8.95128583,-0.259290786 7.04871384,-0.259290786 5.65499312,0.777872359 C4.2612724,1.81503551 3.70263769,3.64658815 4.27790762,5.29281665 L0.274215409,6.85453613 C0.108807093,6.91951803 0,7.08004553 0,7.25884795 L0,16.6113166 C0,16.7903954 0.109171347,16.951101 0.27495387,17.0158763 L7.84418445,19.9707487 C7.89389017,19.9900821 7.94671555,20 8,20 C8.05273794,19.9989141 8.10481867,19.9879874 8.15359983,19.967774 L8.15581522,19.9707487 L15.7257843,17.0158763 C15.8912764,16.9508616 16.0001683,16.7902095 16,16.6113166 L16,7.25884795 C16,7.08004553 15.8911926,6.91951803 15.7257843,6.85453613 L15.7257843,6.85453613 Z M14.378092,7.25884795 L12.9806766,7.80421031 L10.6648613,6.90684134 C10.9286901,6.66237552 11.158392,6.38301901 11.3476921,6.0764032 L14.378092,7.25884795 Z M9.81759979,7.50822728 L11.7868305,8.27099091 L10.6749536,8.70480188 L8.6353229,7.90237553 C9.0477564,7.8352906 9.44688642,7.70222838 9.81759979,7.50822728 Z M11.1579075,9.44649468 L12.6045536,8.88179675 L12.6045536,10.6891772 L12.3625843,10.5302784 C12.1879157,10.415776 11.9569151,10.4435374 11.8139074,10.5962177 L11.1579075,11.2972562 L11.1579075,9.44649468 Z M7.99999984,0.878604138 C9.7034159,0.878604138 11.0843075,2.26924644 11.0843075,3.98469066 C11.0843075,5.70013488 9.7034159,7.09077719 7.99999984,7.09077719 C6.29658377,7.09077719 4.91569222,5.70013488 4.91569222,3.98469066 C4.91759142,2.2700393 6.29737107,0.880516746 7.99999984,0.878604138 L7.99999984,0.878604138 Z M4.89846145,6.43138452 L4.32196916,6.20456335 L4.65206146,6.07565952 C4.72769428,6.19890806 4.80994993,6.3179079 4.89846145,6.43212819 L4.89846145,6.43138452 Z M3.13378457,6.66836925 L9.48553826,9.16885567 L7.99999984,9.74867501 L1.62190768,7.25884795 L3.13378457,6.66836925 Z M0.861538471,16.3140941 L0.861538471,7.89245985 L7.56923062,10.5111907 L7.56923062,18.932825 L0.861538471,16.3140941 Z M8.43076906,18.932825 L8.43076906,10.5111907 L10.296369,9.78238832 L10.296369,12.3904599 C10.2964496,12.5682551 10.4042495,12.728002 10.568369,12.7935322 C10.6188591,12.8138887 10.6727522,12.8243227 10.7271382,12.8242708 C10.8458677,12.8243158 10.9593451,12.7749804 11.0407382,12.6879302 L12.193969,11.4551634 L12.8002459,11.8517906 C12.9326093,11.937954 13.1011317,11.9444414 13.2396404,11.8687052 C13.3781491,11.7929691 13.4645288,11.6471021 13.4648612,11.4883809 L13.4648612,8.54540733 L15.1384612,7.89245985 L15.1384612,16.3140941 L8.43076906,18.932825 Z" id="Shape"></path>
                    <path d="M7.24104222,5.88872886 C7.40241866,6.0404941 7.63983705,6.03659397 7.7971061,5.87959426 L9.84898181,3.83022124 C9.96738664,3.7197266 10.0221224,3.54625675 9.9917403,3.37778742 C9.96135824,3.20931808 9.85069752,3.07268228 9.70312152,3.02142199 C9.55554553,2.9701617 9.3945595,3.01244142 9.28324726,3.13169346 L7.50577698,4.90729733 L6.69634139,4.14697672 C6.51788633,3.9793081 6.25090564,4.004147 6.10002333,4.20245596 C5.94914102,4.40076491 5.97149314,4.69744837 6.14994818,4.865117 L7.24104222,5.88872886 Z" id="Path"></path>
                </g>
            </g>
        </g>
    </g>
</svg>