<?xml version="1.0" encoding="UTF-8"?>
<svg width="26px" height="26px" viewBox="0 0 26 26" version="1.1" xmlns="http://www.w3.org/2000/svg" xmlns:xlink="http://www.w3.org/1999/xlink">
    <title>21667316-3FDA-4BA5-A699-F73AE56FCE4A</title>
    <g id="Page-1" stroke="none" stroke-width="1" fill="none" fill-rule="evenodd">
        <g id="29.-Orders-status" transform="translate(-35.000000, -214.000000)" fill="#60951D" fill-rule="nonzero">
            <g id="watch-icon" transform="translate(35.000000, 214.000000)">
                <path d="M13,24.4705882 C13.4223354,24.4705882 13.7647059,24.8129589 13.7647059,25.2352941 C13.7647059,25.6576293 13.4223354,26 13,26 C5.82029825,26 0,20.1797016 0,13 C0,5.82029844 5.82029825,0 13,0 C13.4223354,0 13.7647059,0.342370676 13.7647059,0.764705882 C13.7647059,1.18704109 13.4223354,1.52941176 13,1.52941176 C6.66496904,1.52941176 1.52941176,6.66496924 1.52941176,13 C1.52941176,19.3350308 6.66496904,24.4705882 13,24.4705882 Z M13,13 L19.1176471,13 C19.5399823,13 19.8823529,13.3423707 19.8823529,13.7647059 C19.8823529,14.1870411 19.5399823,14.5294118 19.1176471,14.5294118 L12.2352941,14.5294118 C11.8129587,14.5294118 11.4705882,14.1870411 11.4705882,13.7647059 L11.4705882,4.58823529 C11.4705882,4.16590009 11.8129587,3.82352941 12.2352941,3.82352941 C12.6576295,3.82352941 13,4.16590009 13,4.58823529 L13,13 Z M15.9688067,1.9202625 C15.560862,1.81095429 15.3187695,1.39163776 15.428078,0.983692794 C15.5373864,0.575748206 15.9567029,0.333655706 16.3646476,0.442964294 C16.7725922,0.552272882 17.0146849,0.971589029 16.9053763,1.379534 C16.7960679,1.78747859 16.3767514,2.02957109 15.9688067,1.9202625 Z M18.7352941,3.06617924 C18.369541,2.85501144 18.2442245,2.38732459 18.4553923,2.0215715 C18.6665601,1.65581841 19.1342469,1.53050224 19.5,1.74166965 C19.8657531,1.95283744 19.9910696,2.42052429 19.7799019,2.78627738 C19.5687341,3.15203047 19.1010472,3.27734703 18.7352941,3.06617924 Z M21.1109306,4.88906944 C20.8122946,4.59043306 20.8122946,4.10624806 21.1109306,3.80761168 C21.4095669,3.50897568 21.8937519,3.50897568 22.1923883,3.80761168 C22.4910243,4.10624806 22.4910243,4.59043306 22.1923883,4.88906944 C21.8937519,5.18770544 21.4095669,5.18770544 21.1109306,4.88906944 Z M22.9338208,7.26470588 C22.722653,6.89895279 22.8479695,6.43126594 23.2137226,6.22009815 C23.5794757,6.00893035 24.0471626,6.13424691 24.2583304,6.5 C24.4694978,6.86575309 24.3441816,7.33343994 23.9784285,7.54460774 C23.6126754,7.75577553 23.1449886,7.63045897 22.9338208,7.26470588 Z M24.0797375,10.0311934 C23.9704289,9.62324847 24.2125214,9.20393232 24.620466,9.09462374 C25.028411,8.98531515 25.4477271,9.22740765 25.5570357,9.63535224 C25.6663443,10.0432972 25.4242518,10.4626137 25.0163072,10.5719219 C24.6083622,10.6812305 24.1890457,10.439138 24.0797375,10.0311934 Z M24.4705882,13 C24.4705882,12.5776648 24.8129589,12.2352941 25.2352941,12.2352941 C25.6576293,12.2352941 26,12.5776648 26,13 C26,13.4223352 25.6576293,13.7647059 25.2352941,13.7647059 C24.8129589,13.7647059 24.4705882,13.4223352 24.4705882,13 Z M24.0797375,15.9688066 C24.1890457,15.560862 24.6083622,15.3187695 25.0163072,15.4280781 C25.4242518,15.5373863 25.6663443,15.9567028 25.5570357,16.3646478 C25.4477271,16.7725924 25.028411,17.0146849 24.620466,16.9053763 C24.2125214,16.7960677 23.9704289,16.3767515 24.0797375,15.9688066 Z M22.9338208,18.7352941 C23.1449886,18.369541 23.6126754,18.2442245 23.9784285,18.4553923 C24.3441816,18.6665601 24.4694978,19.1342469 24.2583304,19.5 C24.0471626,19.8657531 23.5794757,19.9910696 23.2137226,19.7799019 C22.8479695,19.5687341 22.722653,19.1010472 22.9338208,18.7352941 Z M21.1109306,21.1109306 C21.4095669,20.8122946 21.8937519,20.8122946 22.1923883,21.1109306 C22.4910243,21.4095669 22.4910243,21.8937519 22.1923883,22.1923883 C21.8937519,22.4910243 21.4095669,22.4910243 21.1109306,22.1923883 C20.8122946,21.8937519 20.8122946,21.4095669 21.1109306,21.1109306 Z M18.7352941,22.9338208 C19.1010472,22.722653 19.5687341,22.8479695 19.7799019,23.2137226 C19.9910696,23.5794757 19.8657531,24.0471626 19.5,24.2583304 C19.1342469,24.4694978 18.6665601,24.3441816 18.4553923,23.9784285 C18.2442245,23.6126754 18.369541,23.1449886 18.7352941,22.9338208 Z M15.9688067,24.0797375 C16.3767514,23.9704289 16.7960679,24.2125214 16.9053763,24.620466 C17.0146849,25.028411 16.7725922,25.4477271 16.3646476,25.5570357 C15.9567029,25.6663443 15.5373864,25.4242518 15.428078,25.0163072 C15.3187695,24.6083622 15.560862,24.1890457 15.9688067,24.0797375 Z" id="Shape"></path>
            </g>
        </g>
    </g>
</svg>