<?xml version="1.0" encoding="UTF-8"?>
<svg width="15px" height="11px" viewBox="0 0 15 11" version="1.1" xmlns="http://www.w3.org/2000/svg" xmlns:xlink="http://www.w3.org/1999/xlink">
    <title>28C98A0C-DF07-4FEC-BD63-E02208023CE8</title>
    <g id="Page-1" stroke="none" stroke-width="1" fill="none" fill-rule="evenodd">
        <g id="22.-Profile" transform="translate(-52.000000, -377.000000)" fill="#BC2C3D" fill-rule="nonzero">
            <g id="My-Account" transform="translate(52.000000, 288.000000)">
                <g id="card-icon" transform="translate(0.000000, 89.000000)">
                    <path d="M1.46713655,0 C0.659402843,0 0,0.659734197 0,1.4704425 L0,2.6639968 L0,4.2393211 L0,9.52955679 C0,10.3402648 0.659402843,11 1.46713655,11 L13.5328635,11 C14.3405972,11 15,10.3402648 15,9.52955679 L15,4.2393211 L15,2.6639968 L15,1.4704425 C15,0.659734197 14.3405972,0 13.5328635,0 L1.46713655,0 Z M1.46713655,0.536994676 L13.5328635,0.536994676 C14.0534526,0.536994676 14.4649768,0.947940795 14.4649768,1.4704425 L14.4649768,2.39445072 L0.535023191,2.39445072 L0.535023191,1.4704425 C0.535023191,0.947940795 0.946545349,0.536994676 1.46713655,0.536994676 L1.46713655,0.536994676 Z M0.535023191,2.9314454 L14.4649768,2.9314454 L14.4649768,3.96977472 L0.535023191,3.96977472 L0.535023191,2.9314454 Z M0.535023191,4.50729374 L14.4649768,4.50729374 L14.4649768,9.52955679 C14.4649768,10.0520595 14.0534526,10.463005 13.5328635,10.463005 L1.46713655,10.463005 C0.946545349,10.463005 0.535023191,10.0520595 0.535023191,9.52955679 L0.535023191,4.50729374 Z M9.7197755,6.16652367 C9.31537733,6.16656426 8.92731621,6.32788997 8.64136474,6.61489272 C8.35541631,6.90189648 8.19464122,7.29138815 8.19464122,7.69727289 C8.19464122,8.10315762 8.35541631,8.49264939 8.64136474,8.77965316 C8.92731621,9.06665692 9.31537733,9.22850626 9.7197755,9.22854685 C10.0439919,9.22833577 10.3565233,9.1228247 10.6153114,8.93382863 C10.8744908,9.12317785 11.1878918,9.22854685 11.5124175,9.22854685 C11.9168642,9.22854685 12.3048335,9.06721912 12.5908254,8.78017679 C12.8768062,8.49313548 13.037549,8.10321039 13.037549,7.69727289 C13.037549,7.29133437 12.8768062,6.90193403 12.5908254,6.61489272 C12.3048335,6.32785141 11.9168642,6.16652367 11.5124175,6.16652367 C11.1878321,6.16652367 10.8745201,6.27182671 10.6153114,6.46124088 C10.3565233,6.27224481 10.0439919,6.16673475 9.7197755,6.16652367 L9.7197755,6.16652367 Z M2.23727669,6.57451309 C2.14028743,6.57235084 2.04972934,6.623048 2.00060213,6.70701064 C1.95147493,6.79097329 1.95147493,6.89504777 2.00060213,6.97901041 C2.04972934,7.06297306 2.14028743,7.11367021 2.23727669,7.11150797 L5.60416587,7.11150797 C5.70115513,7.11367021 5.79171322,7.06297306 5.84084043,6.97901041 C5.88996763,6.89504777 5.88996763,6.79097329 5.84084043,6.70701064 C5.79171322,6.623048 5.70115513,6.57235084 5.60416587,6.57451309 L2.23727669,6.57451309 Z M9.7197755,6.70351764 C9.9056079,6.70365768 10.085472,6.75630717 10.2406902,6.85297432 C10.2020876,6.91153803 10.1684292,6.97292692 10.1382841,7.03599326 C10.1347454,7.04350273 10.1313078,7.05100205 10.1278297,7.05854196 C10.0698955,7.18498213 10.0296044,7.31878563 10.0076581,7.45709279 C10.0060404,7.46742338 10.0044227,7.4776525 10.0029061,7.48803383 C9.99340204,7.55717168 9.98670876,7.62669312 9.98670876,7.69727299 C9.98670876,7.76785184 9.99338181,7.83789895 10.0029061,7.90703679 C10.0043216,7.91740798 10.0059393,7.92764724 10.0076581,7.93797783 C10.0296084,8.07628398 10.0698995,8.21008849 10.1278297,8.33652866 C10.1312673,8.34403813 10.134705,8.35158819 10.1382841,8.35907736 C10.168323,8.42192349 10.2017186,8.48318959 10.2401685,8.54157165 C10.0850382,8.63808862 9.9054522,8.69088728 9.7197755,8.69102834 C9.45712916,8.69097354 9.205368,8.58638491 9.019646,8.39998062 C8.83391267,8.21356416 8.72970586,7.96090404 8.72966542,7.69727299 C8.72970586,7.43364194 8.83391267,7.18150545 9.019646,6.9950901 C9.205368,6.80868581 9.45712916,6.70357254 9.7197755,6.70351764 L9.7197755,6.70351764 Z M11.5124175,6.70351764 C11.7751336,6.70351764 12.0267816,6.80811134 12.2125452,6.99456433 C12.398319,7.18101824 12.5025248,7.43358805 12.5025248,7.69727289 C12.5025248,7.96095772 12.398319,8.21352753 12.2125452,8.39998052 C12.0267816,8.58643453 11.7751336,8.69155187 11.5124175,8.69155187 C11.2496994,8.69155187 10.9980515,8.58643453 10.8122888,8.39998052 C10.81057,8.39825538 10.8092556,8.39642875 10.8075368,8.3947036 C10.8073636,8.39436496 10.8071897,8.3940267 10.8070151,8.39368881 C10.6249014,8.20792587 10.5224842,7.95787782 10.5222628,7.6972739 C10.5224842,7.43666998 10.6249125,7.18714557 10.8070151,7.00138273 C10.8098858,6.99830343 10.8126839,6.9951567 10.815407,6.99194515 C11.0008976,6.80732183 11.2510775,6.70351764 11.5124175,6.70351764 L11.5124175,6.70351764 Z M2.21167542,8.02712628 C2.06643986,8.03739972 1.95597017,8.16221897 1.96292881,8.30818408 C1.96988744,8.4541492 2.09172634,8.5678118 2.23727568,8.56412025 L3.67672006,8.56412025 C3.77371176,8.56628652 3.86427389,8.51559036 3.91340351,8.43162619 C3.96253313,8.34766203 3.96253313,8.2435845 3.91340351,8.15962034 C3.86427389,8.07565618 3.77371176,8.02496001 3.67672006,8.02712628 L2.23727568,8.02712628 C2.22874715,8.02671627 2.22020395,8.02671627 2.21167542,8.02712628 L2.21167542,8.02712628 Z" id="Shape"></path>
                </g>
            </g>
        </g>
    </g>
</svg>