<?xml version="1.0" encoding="UTF-8"?>
<svg width="19px" height="22px" viewBox="0 0 19 22" version="1.1" xmlns="http://www.w3.org/2000/svg" xmlns:xlink="http://www.w3.org/1999/xlink">
    <title>FD527BAE-9DBD-42F7-B7BE-C24B3A89C663</title>
    <g id="Page-1" stroke="none" stroke-width="1" fill="none" fill-rule="evenodd">
        <g id="19.-Payment-method" transform="translate(-35.000000, -578.000000)" fill-rule="nonzero">
            <g id="Wallet-Method" transform="translate(34.000000, 528.000000)">
                <g id="paypal-(1)" transform="translate(1.000000, 50.000000)">
                    <path d="M16.8351241,5.06336611 C16.6973229,4.98440967 16.5277758,4.97891108 16.384897,5.0487175 C16.2422389,5.11869575 16.1457648,5.25431352 16.1286777,5.40887568 C16.1117229,5.55918501 16.0853637,5.70945139 16.0523814,5.86710651 C15.130248,9.93881845 13.2783869,11.9192159 10.3895065,11.9192159 L6.15082759,11.9192159 C5.92732559,11.9196025 5.73490723,12.0727471 5.69022449,12.2857748 L4.27733153,18.7292297 L4.02490937,20.3696592 C3.87977877,21.1156213 4.38365172,21.8348208 5.15032277,21.9760231 C5.23487558,21.9915738 5.32066467,21.9996069 5.40671868,22 L8.24190917,22 C8.89175162,22.0019266 9.4583217,21.5704155 9.61241534,20.956162 L10.7577858,16.5013954 L13.2152924,16.5013954 C16.1154759,16.5013954 18.1199295,14.2515666 18.8593141,10.1661082 L18.8593141,10.1661082 C19.3473803,8.22072132 18.539912,6.18529492 16.8351241,5.06336611 Z" id="Path" fill="#03A9F4"></path>
                    <path d="M15.8403015,1.61231584 C14.9325843,0.598319846 13.629921,0.0121199783 12.2573207,0 L4.65037696,0 C3.51196234,-0.00598936507 2.54274881,0.814274826 2.37750966,1.92352512 L0.0154984982,17.4410694 C-0.0976323969,18.1822802 0.420737068,18.8734464 1.17337835,18.9849015 C1.24167892,18.9950377 1.31071159,19 1.37978733,19 L4.90764531,19 C5.12563868,18.999618 5.31331453,18.8484241 5.35689598,18.6381097 L6.65688925,12.6666916 L10.423627,12.6666916 C13.6924079,12.6666916 15.8523165,10.4165527 16.8445266,5.97145108 C16.8844045,5.79425942 16.9150665,5.6152017 16.9363835,5.43491407 C17.1666934,4.06356602 16.7649431,2.6624457 15.8403015,1.61231584 Z" id="Path" fill="#283593"></path>
                </g>
            </g>
        </g>
    </g>
</svg>