<?xml version="1.0" encoding="UTF-8"?>
<svg width="38px" height="36px" viewBox="0 0 38 36" version="1.1" xmlns="http://www.w3.org/2000/svg" xmlns:xlink="http://www.w3.org/1999/xlink">
    <title>9825BE2D-47D7-4603-BE64-C2028E3E4286</title>
    <g id="Page-1" stroke="none" stroke-width="1" fill="none" fill-rule="evenodd">
        <g id="13.-Landing-screen" transform="translate(-101.000000, -579.000000)" fill="#60951D">
            <g id="Categories" transform="translate(6.000000, 570.000000)">
                <g id="Asset-3" transform="translate(95.000000, 9.000000)">
                    <path d="M31.1499626,1 C31.1233823,0.944087238 31.0694886,0.899861098 31.0013538,0.87804878 C30.9537989,0.487804878 32.1723914,0 32.5647187,0 C32.855992,0 33.0164896,0.0634146341 32.9986565,0.23902439 C32.9808235,0.414634146 32.2556123,0.536585366 31.9762277,0.63902439 C31.5839004,0.785365854 31.5422899,0.975609756 31.1499626,1 Z" id="Path"></path>
                    <path d="M33.5462258,0.0257778575 C33.9344718,-0.0383375441 34.9176923,-0.0169657436 34.9882825,0.49595747 C35.1092943,1.30808589 34.2571698,0.581444672 34.0806944,0.552948938 C33.2142752,0.546290277 32.3637798,0.881862078 31.6251641,1.5218039 C31.5041524,1.66428257 31.5041524,2.08459465 31.2117073,1.98485958 C30.4251309,1.72839797 32.0840004,0.410470268 32.0789582,0.410470268 C32.5541943,0.193015128 33.0474101,0.0637024026 33.5462258,0.0257778575 L33.5462258,0.0257778575 Z" id="Path"></path>
                    <path d="M37.8436238,4 C37.4792417,3.96907097 37.64559,3.5257549 37.6178653,3.31268827 C37.5465732,2.82469693 37.0712922,2.53258945 37,2.10301961 C37.0396068,2.04116156 37.158427,1.96555727 37.2257585,2.01710565 C37.6039221,2.40154525 37.8677404,2.86053958 37.9941295,3.35392697 C37.9941295,3.50169899 38.0456182,3.90377636 37.8436238,4 Z" id="Path"></path>
                    <path d="M33.9519787,3.32569938 C34.2012803,4.61900046 33.4215497,5.25702899 32.9547722,6.01145462 C32.7107748,6.38651193 32.5993848,7.03316247 32,6.99867444 C32.0754099,6.57017271 32.2674937,6.16074171 32.5622547,5.80021544 C32.7910975,5.42389792 33.0684767,5.06840125 33.389724,4.73970856 C33.389724,4.3086082 33.5965913,4.03701497 33.5170269,3.53693856 C33.0343365,2.9851301 32.6046891,3.96803892 32.0848686,3.67920168 C32.1718642,3.35372555 32.4817387,3.09808204 32.8808605,3.02251581 C33.2799823,2.94694957 33.6969616,3.06497695 33.9519787,3.32569938 L33.9519787,3.32569938 Z" id="Path"></path>
                    <path d="M26.7301219,5.01717134 C26.8182957,5.01717134 26.9760804,4.99141433 26.999284,5.15883493 C27.0224876,5.32625552 26.4748819,5.54948299 26.3495823,5.65251105 C25.7416408,6.18364203 25.095065,6.67560884 24.4143992,7.12495374 C23.2224545,7.81977396 21.9623332,8.40907018 20.6507698,8.88501644 C20.4605,8.96228749 20.0567568,9.09965823 20.0057088,8.88501644 C19.9546608,8.67037465 20.2563081,8.6403248 20.4976259,8.5330039 C21.6534057,8.10988575 22.772065,7.60468553 23.8435898,7.02192568 C24.3450271,6.72681565 24.826973,6.4042793 25.2868558,6.05603762 C25.8019765,5.62675403 26.0015278,5.23181314 26.6187444,5 C26.6564874,5.0015089 26.69389,5.00727536 26.7301219,5.01717134 Z" id="Path"></path>
                    <path d="M32.8563926,5.04016336 C33.1183569,5.70451476 33.1096248,6.98006946 32.0704994,7 C31.8085351,6.51502347 32.3673924,5.80416747 32.2800709,5.09331147 C32.4423997,4.99210627 32.6669837,4.97139524 32.8563926,5.04016336 L32.8563926,5.04016336 Z" id="Path"></path>
                    <path d="M30.2948607,5.08396262 C31.1161157,4.69733762 31.0175651,5.74349938 30.9682898,6.23928908 C30.9682898,6.66685084 30.7958262,7.22631995 30.7711886,7.54016848 C30.7465509,7.85401701 30.9682898,8.936567 30.5001744,8.99569788 C29.8595956,9.07302288 30.0074215,8.08599201 30.0320591,7.80398319 C30.0320591,7.39461554 30.2045227,6.82150084 30.2291603,6.43942437 C30.1974602,5.98729439 30.2194076,5.53449939 30.2948607,5.08396262 L30.2948607,5.08396262 Z" id="Path"></path>
                    <path d="M31.1290706,5.10331742 C31.1713261,5.05548812 31.2626683,5.01838052 31.377323,5.00246534 C32.2511716,4.94363496 31.9433386,5.95215573 31.9433386,6.48162914 C31.9433386,7.01110254 32.2015211,7.93137774 31.6156454,7.99441029 C30.7517269,8.08685803 31.0496298,7.00690037 31.0496298,6.6539181 C30.9939636,6.1368819 31.0205037,5.61884687 31.1290706,5.10331742 L31.1290706,5.10331742 Z" id="Path"></path>
                    <path d="M34.3905561,8.00276753 C34.9883461,8.27978447 34.6774953,9.03363385 34.7811122,9.6376216 C34.8687881,10.1371603 35.4028138,11 34.3905561,11 C34.0318821,10.8047258 34.3028802,10.4550486 34.2630276,10.1462429 C34.1673812,9.43326484 34.0318821,8.64308537 34,8.06180392 C34.1354991,8.06180392 34.1833223,7.98460248 34.3905561,8.00276753 Z" id="Path"></path>
                    <path d="M36,11.9789563 C36.048551,11.5492621 36.3823392,11.0894894 36.443028,10.5008085 C36.5067973,10.03353 36.5067973,9.56298712 36.443028,9.09570864 C36.3823392,8.73046863 36.0182066,8.38671332 36.2488239,8.11170908 C36.270145,8.06139818 36.3243484,8.02142157 36.394477,8.00428554 C36.8071606,7.96561307 36.6493698,8.19335096 36.7464718,8.4984338 C36.788954,8.65742063 36.9164004,8.79921969 36.9406759,8.92812793 C37.0197747,9.51260575 37.0197747,10.1010991 36.9406759,10.6855769 C36.8678494,11.3215242 36.6736453,12.14224 36,11.9789563 Z" id="Path"></path>
                    <path d="M31.9216809,9.42023174 C31.9216809,9.80023174 31.6916809,9.95023174 31.2716809,9.91023174 C30.6516809,9.39023174 31.7016809,8.64023174 31.9216809,9.42023174 Z" id="Path"></path>
                    <path d="M13.3593919,12.5682231 C13.3593919,12.7800382 13.3593919,12.9755598 13.1961086,13 C12.8345528,12.8981658 13.0717023,12.4623155 13.1339054,12.234207 C13.3373485,11.4667513 13.7412866,10.7740656 14.3002145,10.2341836 C14.4207331,10.1282761 14.9805615,9.80648008 15,10.1649364 C15,10.3360178 14.6695458,10.4093384 14.5529148,10.4989525 C13.9604836,11.0428555 13.5435118,11.7657804 13.3593919,12.5682231 L13.3593919,12.5682231 Z" id="Path"></path>
                    <path d="M37.9192654,10.0757898 C38.0019993,10.7433741 38.2685862,12.1341747 37,11.9895314 C37,11.4332112 37.3033576,10.7545005 37.3033576,10.0757898 C37.4747073,9.97473674 37.7479156,9.97473674 37.9192654,10.0757898 Z" id="Path"></path>
                    <path d="M24.4180701,11.019956 C24.5543392,10.9765444 24.7015113,11.0048243 24.8156877,11.0963605 C24.9298641,11.1878966 24.9978489,11.3321097 24.9993637,11.4859838 C25.0342413,12.4621231 23.6216978,11.8701418 24.0983586,11.1773978 C24.1448621,11.0892304 24.2553079,11.057742 24.4180701,11.019956 Z" id="Path"></path>
                    <path d="M34.8883473,11.2342705 C34.9683473,11.7542705 34.7583473,11.9742705 34.2283473,11.8842705 C34.0488548,11.7020166 34.0510934,11.4087631 34.2333473,11.2292705 C34.4156013,11.049778 34.7088548,11.0520166 34.8883473,11.2342705 L34.8883473,11.2342705 Z" id="Path"></path>
                    <path d="M24.1007816,11.0105819 C24.8971652,10.8836137 24.7100368,11.9237763 24.7796659,12.8125537 C24.8188323,13.364377 25.1495709,15.0393805 24.9189243,15.6107374 C24.6882777,16.1820943 23.4393046,16.0990766 23.1781952,15.5277197 C23.1061159,15.1740592 23.082635,14.810113 23.1085661,14.44849 C22.9910668,12.6221014 22.6951429,11.235218 24.1007816,11.0105819 Z M23.7439322,12.0898116 C23.7787467,12.6318681 23.7047658,13.2960095 23.7439322,13.8527162 C23.7830986,14.3410554 23.722173,15.2835501 24.2095772,15.2102992 C24.2120869,14.1101959 24.1276206,13.0120115 23.9571715,11.9286597 C23.9180051,12.0019106 23.8048577,12.0263275 23.7439322,12.0898116 L23.7439322,12.0898116 Z" id="Shape"></path>
                    <path d="M25.3221539,11.0466714 C26.1754675,10.7346609 26.2386759,12.0928246 25.4232874,11.9949389 C25.1979139,11.9565595 25.0262202,11.7780876 25.0027233,11.5577719 C24.9792265,11.3374562 25.1096328,11.1288013 25.3221539,11.0466714 L25.3221539,11.0466714 Z" id="Path"></path>
                    <path d="M31,11.1281039 C30.8944318,11.5180754 30.6708037,11.8723271 30.3552007,12.1495371 C29.7420619,13.955782 28.9446289,15.7043565 27.9736034,17.3717946 C27.9816373,17.62122 27.8525434,17.8575183 27.6304038,18 C27.3184042,17.9040908 27.3912041,17.6547268 27.0792044,17.6067722 C27.0480045,16.1345655 26.4500052,14.9261093 26.1016056,13.717653 C26.0236056,13.4586981 25.8676058,13.0175156 26.2264054,12.8161063 C26.590405,12.8688563 26.4760051,13.2956524 26.5228051,13.5210391 C26.7880048,14.7103135 27.490004,15.889997 27.505604,17.3574082 C27.7968036,16.7292027 28.2596031,16.1537474 28.5456028,15.4727919 C28.6808026,15.1802687 28.7016026,14.8254046 28.8472024,14.5136996 C28.9252024,14.3506539 29.1124021,14.2115855 29.1852021,14.0341535 C29.4764017,13.3484025 29.5960016,12.6434697 29.9080012,12.0296506 C30.090001,11.6747865 30.4592006,11.3822633 30.6360004,11.0082173 C30.8752001,10.9698536 30.9012001,11.0753538 31,11.1281039 Z" id="Path"></path>
                    <path d="M22.3964379,12.0137178 C23.1472343,11.8658702 23.182705,12.9610372 22.585615,12.9993681 C22.1067605,13.0267472 21.6456415,12.1560895 22.3964379,12.0137178 Z" id="Path"></path>
                    <path d="M27.483058,14 C27.7953088,14.6546088 27.968669,15.3252177 28,15.9996856 C27.2139649,16.0182012 27.2918602,15.2146238 27.1360695,14.7258118 C27.0935811,14.5924994 26.895302,14.2592185 27.0723369,14.0888749 C27.0723369,14.0407343 27.1289881,14.0370312 27.1360695,14 L27.483058,14 Z" id="Path"></path>
                    <path d="" id="Path"></path>
                    <path d="M26.8407709,19.9990921 C26.5290705,20.0237208 26.6480088,19.5409986 26.6398061,19.3144147 C26.5704591,17.8893136 26.3555805,16.4798446 26,15.1176872 C26.3609163,14.5660047 26.6439075,16.1028345 26.7382379,16.6495913 C26.849178,17.3565838 26.9285835,18.070191 26.9761145,18.7873609 C27.0048237,19.2306772 27.045837,19.8020626 26.8407709,19.9990921 Z" id="Path"></path>
                    <path d="M6,16.812105 C6.32785661,16.582439 6.71185143,16.4266186 7.12003974,16.3576066 C7.51356722,16.2303471 7.94241126,16.1576274 8.35611963,16.0212778 C9.26930519,15.7167639 9.89491297,15.2077257 10.5861087,15.0168364 C10.7425106,14.9713866 10.9846814,15.0168364 10.999817,15.1668209 C11.0149527,15.3168053 10.0866315,15.6213193 9.84446073,15.7622138 C9.02797842,16.1608472 8.16940658,16.4851453 7.28148691,16.7302953 C6.91823078,16.8530099 6.292623,17.2211536 6,16.812105 Z" id="Path"></path>
                    <path d="M25.2737114,16.0324387 C25.6683651,16.3457297 25.6365382,16.9478357 25.7447497,17.5009899 C25.8529612,18.0541442 26.1966918,18.5975082 25.8465958,18.9695412 C25.7065574,18.9695412 25.7447497,19.0380735 25.6429036,18.9695412 C25.3055383,18.9010088 25.4710383,18.6268792 25.432846,18.4506531 C25.1729615,17.6726348 25.0277657,16.8745945 25,16.0716001 C25.0954807,16.0764953 25.2291537,15.9394305 25.2737114,16.0324387 Z" id="Path"></path>
                    <path d="M16,16.0733199 C15.8958754,16.8553341 15.7275619,17.6288316 15.4965264,18.3870702 C15.4300299,18.6338703 15.3825324,19.0128846 15.1450449,18.9996632 C14.7888136,18.9732203 15.1925424,17.8758416 15.2590389,17.5893773 C15.4015314,17.0076343 15.5107757,16.5581057 15.6485184,16.0733199 C15.6817667,16.0424699 15.7577627,16.0733199 15.7672622,16.0028056 C15.8907557,15.985177 15.9192542,16.0556913 16,16.0733199 Z" id="Path"></path>
                    <path d="M17,17.127907 C16.8831621,17.4341085 16.7438554,17.7713178 16.6315113,18.1124031 C16.5191672,18.4534884 16.4832171,18.8139535 16.1821349,19 C15.7866836,18.8449612 16.141691,18.3953488 16.2540351,18.0503876 C16.3933418,17.627907 16.4607483,17.1705426 16.770818,17 C16.8606933,17 16.8831621,17.0503876 16.9550624,17.0658915 C16.9550624,17.1007752 16.9685436,17.120155 17,17.127907 Z" id="Path"></path>
                    <path d="M20.3908321,17.0278921 C20.5507307,16.968029 20.7274707,17.0059966 20.8551997,17.1276483 C21.4215017,17.8758198 20.1529853,18.3746009 20.0227358,17.6388989 C19.9547796,17.2585783 20.0283988,17.1151788 20.3908321,17.0278921 Z" id="Path"></path>
                    <path d="M24.7172247,19.0355344 C24.9766257,19.5035782 25.0618662,20.0644688 24.955054,20.6004751 C24.6631726,20.7159542 24.3784981,21.0225711 24.0109437,20.9986789 C23.6433893,20.9747867 22.9299013,20.2819121 23.0055743,19.7244269 C23.0740403,19.2784387 24.2667904,18.8762529 24.7172247,19.0355344 Z M24.2451695,19.6527502 C24.0758062,19.7562832 23.8632012,19.8199958 23.686631,19.9155647 C23.7915059,20.0839453 23.9326893,20.2208009 24.0974271,20.3137684 C24.2009336,20.2539853 24.3112193,20.20979 24.4253433,20.1823612 C24.3712912,19.9832593 24.3748946,19.7483191 24.2451695,19.6527502 Z" id="Shape"></path>
                    <path d="M2.99574719,18.0592315 C3.0445321,18.2803308 2.66122209,18.3757069 2.480021,18.5577886 C1.68598413,19.3768472 1.40324799,20.3488032 1.68552389,21.2890143 C1.76915517,21.5057782 2.25003499,21.7225422 1.90854062,22 C0.988596609,21.9089591 0.911934608,20.8554864 1.05828934,20.0491245 C1.1697977,19.4205091 1.9921719,17.6560506 2.99574719,18.0592315 Z" id="Path"></path>
                    <path d="M20.0441169,22.9376091 C19.9251624,23.8621034 20.6653234,25.3045081 19.9383796,25.7498142 C19.6828478,25.9095436 19.3436074,25.7836962 18.9647155,25.832099 C18.6827494,25.865981 18.4580576,26.0499118 18.2421774,25.9869881 C17.7046795,25.832099 17.6385937,23.939548 17.7355196,22.9763314 C17.7402802,22.802922 17.7907896,22.6347659 17.8809083,22.492303 C17.2552961,21.7033367 16.6869582,20.4787448 17.1980217,19.4816463 C17.5592908,18.7652843 18.7224008,18.1505682 19.5418648,18.0295611 C20.6124548,17.8456303 21.158764,18.5523118 21.5596846,19.254153 C21.9379844,19.8699297 22.0804266,20.6245698 21.9561994,21.3548363 C21.8064049,22.2599694 20.9428838,22.7391575 20.0441169,22.9376091 Z M19.8634823,18.8136871 L19.8634823,18.9346942 C19.8781695,19.1953302 19.8543645,19.4568599 19.7929908,19.7091397 C19.7445279,20.3528974 19.9604082,21.1612249 19.6123563,21.4952045 C19.1409443,21.0886206 19.5022133,19.6074937 19.4669675,18.9588956 C18.6298807,18.8862914 19.3920703,21.3790377 18.9999612,21.4564822 C18.7400237,21.5194059 18.6915608,21.0208566 18.6739379,20.7836827 C18.6431629,20.2530754 18.6682953,19.7203384 18.7488352,19.1960695 C18.3606826,19.2763605 18.0298259,19.5532888 17.8563188,19.9431093 C17.6828116,20.3329298 17.6870274,20.7898693 17.8676912,21.1757457 C18.0749136,21.6697895 18.4495886,22.0553684 18.9118468,22.2502888 C19.1113749,22.2282034 19.3088594,22.1877251 19.5022133,22.1292817 C20.3084601,22.10024 20.9516952,21.8824272 21.238067,21.1612249 C21.3405422,20.4272674 21.0784869,19.6890535 20.5507747,19.2251112 C20.566697,19.6236491 20.5430605,20.0229068 20.4802832,20.4158211 C20.4538488,20.7498007 20.5992376,21.2096277 20.2644029,21.2870723 C20.0044654,21.1273429 20.0529283,20.7110785 20.0837684,20.3770989 C20.1776899,19.8823905 20.213228,19.3764529 20.1895056,18.8717705 C20.0856439,18.8278998 19.9746407,18.8081237 19.8634823,18.8136871 L19.8634823,18.8136871 Z M18.4580576,23.1360608 C18.4295675,23.7839205 18.4665073,24.4332538 18.5682006,25.0721744 C18.8585046,25.0114497 19.1539456,24.9854831 19.4493447,24.9947299 C19.4201594,24.3302581 19.3598681,23.6678766 19.2687101,23.0102134 C18.9964165,23.0340312 18.7256972,23.0760582 18.4580576,23.1360608 Z" id="Shape"></path>
                    <path d="M0.994642158,19.1359599 C1.02977167,19.3598939 0.884235119,19.4398703 0.788883585,19.5598349 C0.623273027,19.7517783 0.623273027,21.0314009 0.171607867,20.9994104 C-0.164631751,20.9794163 0.0812748353,20.5075554 0.171607867,20.1996462 C0.342236927,19.6518078 0.342236927,19.311908 0.708587557,19 C0.874198115,19.0039988 0.884235119,19.1039693 0.994642158,19.1359599 Z" id="Path"></path>
                    <path d="M31.9966777,19.5524255 C32.0558385,20.1953997 31.3089331,19.9994457 31.0279193,19.8524801 C30.461244,19.4160136 30.0974753,18.8287407 30,18.1929942 C30.0428353,18.110229 30.1259864,18.0463507 30.2288641,18.0171766 C30.3317418,17.9880024 30.4447267,17.9962602 30.5398425,18.0399051 C30.8282515,18.7134972 31.0648948,19.4177071 31.9966777,19.5524255 Z" id="Path"></path>
                    <path d="M9.75812653,20.0324821 C10.307035,20.2116055 9.75812653,20.5773157 9.70034668,20.9169038 C9.64256684,21.2564919 9.96757846,21.9692538 9.40422498,21.9991077 C8.8408715,22.0289616 9.02143352,21.3012728 9.05032344,21.0811003 C9.14314692,20.7306846 9.28312061,20.3840372 9.46922731,20.0436773 C9.61367692,20.0697994 9.71479165,19.9429204 9.75812653,20.0324821 Z" id="Path"></path>
                    <path d="M25.3743862,21.9936228 C24.6543862,21.7582449 25.2243862,20.5679048 25.9443862,21.1664373 C25.9643862,21.5833926 26.0443862,22.0608737 25.3743862,21.9936228 Z" id="Path"></path>
                    <path d="M6.98667039,24.9984188 C6.6750849,25.0224894 6.50108262,24.7657356 6.22591621,24.6373587 C5.95074981,24.5089818 5.59869868,24.5129936 5.32757884,24.3725814 C4.83466692,23.9991484 4.43805386,23.5152055 4.17026132,22.9604354 C4.04026071,22.6949747 3.98304023,22.4002628 4.00435216,22.1059267 C4.30379795,21.7047488 4.38472925,22.5552458 4.50207963,22.7959525 C4.72474404,23.3049669 5.07765174,23.7474952 5.52586051,24.0797216 C5.75605305,24.1470126 5.98974577,24.2019204 6.22591621,24.2442045 C6.54964139,24.3685696 7.09188107,24.5771821 6.98667039,24.9984188 Z" id="Path"></path>
                    <path d="M29,22.1218774 C28.916744,22.6745975 28.4808743,23.1177696 28.1968244,23.6704897 C27.9349173,24.2808464 27.7076311,24.9059639 27.516084,25.5427671 C27.4524177,25.7070893 27.3838539,26.0407131 27.1144962,25.995898 C26.8304463,25.6871714 27.1487781,25.293794 27.2761108,25 C27.6923909,23.9493396 28.0694916,22.809043 28.7453346,22.0123292 C28.8726673,21.977473 28.9706155,22.0173087 29,22.1218774 Z" id="Path"></path>
                    <path d="M21.2920579,24.0508275 C22.1567098,23.7363636 22.217175,24.9831854 21.5399651,24.9997361 C21.0320577,25.0162869 20.753918,24.2494363 21.2920579,24.0508275 Z" id="Path"></path>
                    <path d="M8.90801498,25.720882 C8.67934571,25.9418633 8.31668425,25.9418633 8.08801498,25.720882 C7.91801498,24.910882 9.09801498,24.910882 8.90801498,25.720882 Z" id="Path"></path>
                    <path d="M21.593142,26 C22.0786732,26.4653925 21.6527686,27.5672193 21.7975762,28.183765 C21.7975762,28.322985 22.3682883,29.0270404 21.593142,28.9991964 C21.218346,28.9991964 21.0565023,28.3190073 21.030948,28.2474084 C20.9733862,27.5313551 20.9961322,26.8143856 21.0990927,26.0994429 C21.1371816,26.0538498 21.2144097,26.0177864 21.312045,26 L21.593142,26 Z" id="Path"></path>
                    <path d="M6.8772134,29 C6.58141483,29 6.56754927,28.7409609 6.49822148,28.6203126 C6.35245939,28.2681192 6.0762194,27.9561549 5.70326283,27.7225471 C5.35951422,27.5582251 4.98986265,27.4282476 4.6032619,27.3357628 C4.41376594,27.3038265 4.09023625,27.4067324 4.00242105,27.2186629 C3.96082438,26.9525269 4.46460632,26.9773663 4.79275785,27.0447874 C5.33091895,27.1741625 5.830425,27.3840029 6.262507,27.662223 C6.46223668,27.8573764 6.6270081,28.0721965 6.75242338,28.3009494 C6.90494451,28.5209552 7.14990271,28.8580608 6.8772134,29 Z" id="Path"></path>
                    <path d="M13.9134835,31.9972508 C13.6790616,32.0280291 13.6884385,31.7920622 13.5665391,31.704857 C12.4042029,31.2532046 11.2859438,30.675818 10.2283709,29.9812728 C9.58136637,29.2887613 9.38914039,28.0935377 9,27.1240216 C9.34225601,26.6469581 9.63293919,27.6831605 9.72670796,27.9242571 C10.026768,28.6885846 10.0408333,29.186167 10.5706269,29.6888791 C10.918303,29.9456728 11.2929419,30.1557897 11.6864752,30.3147043 C12.1037463,30.5250226 12.4928867,30.8276758 12.7601277,30.9456592 C13.1773987,31.1457181 14.3213777,31.1867558 13.9134835,31.9972508 Z" id="Path"></path>
                    <path d="M26.8424299,30.0351226 C27.0260031,30.7046067 27.0497267,31.4263423 26.9107095,32.1123745 C26.7792648,33.1674372 26.3167387,34.1135963 25.6254459,34.7415532 C25.4888867,34.8619736 25.0591267,35.1780771 25.0028964,34.8669911 C24.9466661,34.5559051 25.7258571,34.1294162 25.8905315,33.8634878 C26.4689001,32.9804049 26.6938213,31.7260257 26.6456239,30.0852978 C26.6938213,30.0852978 26.7299693,30.0250876 26.7781667,30 L26.8424299,30.0351226 Z" id="Path"></path>
                    <path d="M15.902688,31.2461114 C15.9586074,31.4775769 15.8947699,31.7216616 15.732688,31.8961114 C15.4632586,31.9710109 15.1812223,31.8278233 15.082688,31.5661114 C15.012688,31.0861114 15.662688,30.9361114 15.902688,31.2461114 Z" id="Path"></path>
                    <path d="M17,32.0476084 C17.5399061,31.809235 17.7840376,32.5319226 18.1173709,32.7589449 C18.8243912,33.0216624 19.5559009,33.2392627 20.3051643,33.4097421 C20.8169684,33.5802646 21.3664183,33.6652238 21.9201878,33.6594666 C22.3047854,33.6053678 22.6719838,33.4895668 23,33.3189332 C23.1596244,33.2546102 23.9389671,32.872456 24,33.2243405 C24,33.3794724 23.7699531,33.3908235 23.5305164,33.474065 C23.049422,33.702574 22.533307,33.8793854 21.9953052,34 C21.788141,33.9983256 21.581856,33.9780201 21.3802817,33.9394607 C20.5986892,33.8444219 19.8361786,33.6662974 19.1126761,33.4097421 C18.6821219,33.332201 18.2677951,33.2047514 17.8826291,33.0313716 C17.6986861,32.8883232 17.5305982,32.7325996 17.3802817,32.5659759 C17.2002197,32.4224799 17.0692243,32.2439183 17,32.0476084 Z" id="Path"></path>
                    <path d="M15,33.8062372 C14.8604651,34.1621819 14.3302326,33.9311965 14.0465116,33.8668235 C12.7534884,33.5828251 11.3860465,33.0754146 11,32.09846 C11.0697674,32.0719535 11.1116279,32.0265137 11.1906977,32.0075805 C11.2697674,31.9886473 11.227907,32.0075805 11.227907,32.0378737 C11.762732,32.6099514 12.4712223,33.0588655 13.2837209,33.3404798 C13.5716974,33.4254057 13.865158,33.4974593 14.1627907,33.5563186 C14.4372093,33.6131182 14.8046512,33.594185 15,33.8062372 Z" id="Path"></path>
                    <path d="M27.8687445,32 C28.162321,32.4282445 27.9013641,33.002092 27.6893366,33.4389014 C27.5588582,33.7001305 27.3848869,34.0427261 27.0206346,33.9956192 C26.8901562,33.5673747 27.4175065,33.1776723 27.5099288,32.6295193 C27.5425484,32.4667865 27.5099288,32.3040536 27.5099288,32.1027787 C27.602351,32.1027787 27.5969144,32.0085649 27.6893366,32 L27.8687445,32 Z" id="Path"></path>
                    <path d="M14,34.5322583 C13.9825784,35.0917121 13.6515679,35.0074108 13.4843206,34.9767558 C12.9224023,34.7596052 12.4043107,34.168435 12,33.2830668 C12.2543554,32.3174342 12.8118467,34.1184157 13.3937282,34.2870182 C13.6480836,34.355992 13.7944251,34.0571057 14,34.5322583 Z" id="Path"></path>
                    <path d="M35.545092,4.67258769 C35.3495819,4.83255059 35.1920706,5.03104671 35.0832164,5.25464464 C35.1247852,5.77894021 35.0277914,6.30767897 35.0832164,6.85419046 C35.110929,7.13411098 35.2402541,7.40958831 35.2725854,7.69395202 C35.3049167,7.97831572 35.2448729,8.21824759 35.2725854,8.49372493 C35.318773,8.93804321 35.5312357,9.38236149 35.5728045,9.82667978 C35.6005171,10.0932707 35.5728045,10.342089 35.5728045,10.5909072 C35.6865494,11.106062 35.6770731,11.6393504 35.545092,12.1504644 C35.4002945,12.3895687 35.2232453,12.6091907 35.0185539,12.8036123 C34.8245661,13.0213282 34.6305784,13.2790328 34.334978,13.3145783 C33.9627232,13.3234131 33.6126115,13.1449075 33.4112269,12.8436009 C32.9077825,12.212669 32.8292637,11.021896 32.6953198,10.075498 C32.3212006,10.853055 32.4690008,12.3992826 32.4690008,13.7855557 C32.4690008,14.8608059 32.5429009,15.9716016 32.4690008,16.9179996 C32.3951007,17.8643975 32.4412882,19.5839093 31.596056,19.7172048 C31.2705241,19.7352433 30.9531402,19.6150644 30.7277299,19.3884092 C30.1827167,18.726375 30.6168798,16.6558518 30.3120419,15.713897 C29.8501663,16.5536586 29.76241,17.4911702 29.3882908,18.3353749 C29.076675,18.9349582 28.8111553,19.5557042 28.5938648,20.1926253 C28.4117142,20.8455041 28.1594018,21.4783663 27.8410077,22.080978 C27.6193074,22.4853077 27.3006133,22.8452055 27.1204818,23.2450919 C26.9403503,23.6449784 26.8295002,24.0581944 26.6586062,24.4491945 C26.4877123,24.8401946 26.4184309,25.2756265 26.2429182,25.6843993 C26.1182118,25.968763 25.8780365,26.2664563 25.7117613,26.5730359 C25.3689929,27.1739913 25.0606162,27.7925158 24.7880102,28.4258431 C24.5907197,29.0697029 24.3244843,29.692122 23.9935842,30.2830936 C24.5986412,30.9229119 25.6147675,31.3272415 25.245267,32.7179577 C25.0916462,33.1240325 24.873514,33.5047428 24.5986412,33.8465262 C24.0795262,34.5923645 23.3438814,35.1748877 22.4832512,35.5216061 C22.2569321,35.6015834 21.9890443,35.6237993 21.7627253,35.7037766 C21.5196804,35.8215596 21.2661803,35.9182129 21.0052494,35.9925835 C20.1655983,36.0345521 19.3266486,35.8980196 18.5480714,35.592697 C17.8961634,35.2741652 17.2774995,34.8962471 16.7005692,34.4641286 C16.0468452,34.0977934 15.3642546,33.7813567 14.6590792,33.5177307 C13.8369407,33.2067079 13.0840835,33.0334237 12.414364,32.6868555 C12.0956698,32.5269009 11.7954507,32.2958554 11.4675191,32.140344 C11.1395874,31.9848326 10.770087,31.8870826 10.4467741,31.6960257 C10.2758801,31.6027189 10.1557925,31.4205484 9.957186,31.2961392 C9.76206244,31.2090764 9.57237262,31.1111608 9.38907906,31.0028892 C9.09465504,30.7220881 8.81708096,30.4253962 8.55770305,30.1142526 C8.27134021,29.8121162 7.91569603,29.5499684 7.689377,29.2789342 C7.11203255,28.5991273 6.71020082,27.6305134 5.98505619,27.1684224 C5.56474943,26.8973882 5.06130507,26.7996382 4.62252329,26.55082 C3.96098136,26.218526 3.34111895,25.814533 2.77502105,25.3467174 C2.59027083,25.1778765 2.3639518,25.0356946 2.20691411,24.87574 C1.67708571,24.2760263 1.28936557,23.572516 1.07070023,22.8141032 C0.812049922,21.9032507 1.32011304,20.5925118 1.67575722,20.0859889 C2.11357589,19.4593996 2.79383173,19.0274014 3.56482826,18.8863296 C4.02670382,18.8285682 4.32230417,19.0729433 4.65947333,19.0685001 C5.0457024,18.9706075 5.41573426,18.821042 5.75873716,18.6241818 C6.75859651,18.1170111 7.72989013,17.5593543 8.66855319,16.953545 C9.33827275,16.5714313 10.0172298,16.2381926 10.6730931,15.8960675 C11.3289564,15.5539425 12.0956698,15.2695788 12.7561519,14.9141241 C13.2180274,14.6697491 13.5505778,14.2343171 14.1417786,14.1143512 C14.1837095,13.3495675 14.5118142,12.6251911 15.0655297,12.0749303 C15.7290145,11.4272261 16.6601283,11.1009167 17.6012265,11.1862937 C17.8124954,11.2456476 18.0267767,11.2945864 18.2432335,11.3329188 C18.7051091,11.3329188 19.7166166,10.6531118 20.1323046,10.4220663 C20.7927866,10.0577253 21.3978436,9.72892975 21.9105255,9.40457741 C23.1714458,8.59591813 24.3677035,7.99608845 25.3468796,7.26296328 C25.6009112,7.07190642 25.8087552,6.7919859 26.1043556,6.60537222 C26.247537,6.5076222 26.4230497,6.45874719 26.5662311,6.3521108 C27.68397,5.46347423 29.0511216,4.65481496 30.2335231,3.76617839 C30.7269943,3.32386991 31.2585101,2.92255002 31.822375,2.56651902 C32.6381297,2.23928075 33.5074116,2.05278166 34.3904031,2.01556435 C35.0601227,1.95780297 35.7760298,2.05110981 36.1640052,2.45988264 C36.3465499,2.72821625 36.5116029,3.0071922 36.6582121,3.29520101 C36.8630767,3.58641555 36.9812679,3.92597413 37,4.27714441 C36.8845311,4.64592859 36.1593865,4.67703087 35.545092,4.67258769 Z M35.545092,2.92641683 C35.230712,2.77089405 34.8757962,2.70755287 34.524347,2.74424634 C34.0162839,2.78867816 33.3558018,2.86421227 33.0140139,2.92641683 C32.1595441,3.08192823 31.6283872,3.57067834 31.009474,4.05498527 C29.5268534,5.18355371 27.9195265,6.27657669 26.4322872,7.32961102 C26.6408116,7.22476162 26.878413,7.18588925 27.1112443,7.21853145 C27.4484134,7.29406556 28.0349954,8.10716802 27.9056702,8.71144088 C27.7154657,9.12195677 27.3230162,9.41262245 26.8618315,9.4845547 C27.0003941,9.75558885 27.4068446,10.0221798 27.4668885,10.537589 C27.5407885,11.2040665 27.1712881,12.0349416 26.6355124,12.1060326 C25.3838297,12.2659872 25.2036982,10.586464 25.6147675,9.70227066 C25.3191671,9.66672519 25.0328043,9.84445251 24.7833915,9.73781612 C24.4508411,9.60452063 24.5524537,9.15131599 24.4046535,8.79141818 C22.6726201,9.84445251 20.917493,10.8708277 19.1069408,11.848328 C19.8218183,12.8045906 20.0957911,14.0018523 19.8644167,15.1584992 C19.7397103,15.8871812 19.0007095,16.2559653 18.4279838,16.5803177 C17.641667,17.0073331 16.6981746,17.0741423 15.8553369,16.7624882 C15.6806353,16.5047133 15.4093146,16.3216901 15.097861,16.2515222 C14.6694527,17.2280235 14.3159426,18.2333894 14.0401659,19.2595569 C13.9477908,19.5794661 13.9246971,20.0282276 13.5782904,20.2059549 C13.227265,19.9304775 13.5782904,19.4906024 13.6521905,19.1840228 C13.9382087,18.0939952 14.3087469,17.0261216 14.7606918,15.9893744 C14.5002236,15.6549379 14.3189361,15.2697498 14.2295349,14.8608059 C13.444764,15.3690236 12.6092518,15.8006682 11.7354069,16.149329 C9.47221666,17.1979201 7.50924553,18.8152387 5.11673014,19.7038752 C5.16580061,19.8472509 5.19074828,19.9972468 5.19063022,20.1481935 C5.48246902,20.4519485 5.79909334,20.7327642 6.13747512,20.9879551 C6.22985023,21.0634892 6.34531912,21.2323301 6.43769424,21.1656824 C6.4447868,20.957983 6.47106322,20.7513017 6.51621308,20.54808 C6.60396944,20.2370572 6.81181344,19.6283411 7.04275122,19.6594434 C7.52772056,19.7527502 6.58087566,20.9923982 6.85338224,21.4767052 C7.04575558,21.6225922 7.24787572,21.7561749 7.45843922,21.8765916 C7.61085816,21.0368301 7.49077051,19.9082616 8.0634962,19.5483638 C8.37295283,19.6949889 8.11892127,19.9926821 8.0634962,20.2415003 C7.9623162,20.819154 7.89906793,21.4023661 7.87412722,21.9876712 C8.33600278,22.4319895 9.09809746,22.5786145 9.84171711,22.7518986 C9.83173203,22.0926417 9.8952175,21.4342536 10.0310861,20.7880118 C9.65696688,20.3970117 9.08424119,19.5750229 9.35212901,18.7841364 C9.51268417,18.4366657 9.75831975,18.1317648 10.0680361,17.8954998 C10.3082114,17.6688975 10.7377557,17.2334656 11.0933999,17.2778974 C11.4490441,17.3223292 11.5044691,17.753318 11.7354069,18.166534 C11.8732754,18.3409977 11.9997641,18.5235185 12.1141449,18.7130454 C12.5205954,19.8993753 11.3335752,20.1881821 10.4837241,20.4592163 C10.3519139,21.1441029 10.2762414,21.8378929 10.2574051,22.5341827 C10.4421553,22.5608418 10.5299117,22.6808077 10.4837241,22.9340691 C10.6474821,22.985569 10.8029468,23.0588509 10.9455997,23.1517851 C10.9289124,22.7977418 10.9537018,22.4430165 11.0194998,22.0943076 C11.0656873,21.5922279 10.959456,20.9657391 11.3612877,20.7880118 C11.6938381,20.9213073 11.4582816,21.3123074 11.4351878,21.5877847 C11.3890002,22.129853 11.3520502,22.7652282 11.3612877,23.3339556 C11.6245568,23.4450352 11.8508758,23.5916602 12.1187636,23.6982966 C12.24347,23.1295692 12.0402448,22.2409326 12.2296137,21.7344098 C11.9894385,21.4811484 11.9894385,20.9524096 12.451314,20.9746255 C13.1256523,21.0012846 12.5714017,21.6899779 12.5298329,22.0987508 C12.4559328,22.7696714 12.6129705,23.4983534 12.4882641,23.9204557 C12.7832191,24.1177044 13.0087602,24.3966628 13.1348898,24.7202286 L13.1348898,23.2584215 C13.1348898,22.8141032 12.9824709,22.1876144 13.3612089,22.0232167 C13.6845218,22.2587054 13.5505778,22.8496487 13.5505778,23.3561715 C13.5505778,23.8626944 13.5875279,24.3825467 13.5505778,24.8490809 C13.4997715,25.4444674 13.4166339,25.8532403 13.7768969,26.1198312 C14.1925849,25.6177516 14.0863535,24.6535809 14.2387724,23.9737739 C13.8092282,23.902683 13.7768969,23.1562283 14.3172913,23.174001 C14.3680976,23.0584783 14.4050476,22.9207396 14.5805603,22.9207396 C14.8946357,23.0806942 14.6498417,23.6227625 14.6544604,23.9382285 C14.8327897,24.0215293 14.9359727,24.2050127 14.910869,24.394183 C14.8857653,24.5833532 14.7379745,24.7360154 14.5436103,24.7735468 C14.4511763,25.2298653 14.4511763,25.6990582 14.5436103,26.1553767 C14.3080538,26.4975018 14.28496,27.3550361 14.8068794,27.3950247 C14.8715419,26.5641495 14.8946357,25.5644334 14.9962484,24.8490809 C15.0285796,24.6047059 14.9962484,24.2092626 15.2964675,24.1559444 C15.6705867,24.48474 15.3380363,25.1156719 15.2964675,25.6488539 C15.2225674,26.3108881 15.2548987,27.0484564 15.2225674,27.7016043 C15.3520648,27.7715971 15.4924188,27.8211039 15.6382554,27.8482294 C15.7537243,27.2972747 15.3842238,26.1820358 15.8645744,25.9954221 C16.118606,26.1687062 16.0169933,26.6130245 16.0169933,26.9773655 L16.0169933,28.1014908 C16.2690067,28.2895393 16.5344718,28.4602835 16.8114193,28.6124568 C16.8077125,28.1996845 16.7815036,27.7873832 16.7329005,27.377252 C16.6867129,27.0528996 16.4188251,26.5730359 16.8483693,26.430854 C17.1301134,26.501945 17.0100258,26.8040814 17.0377383,27.012911 C17.1704634,27.6220881 17.2339593,28.2433394 17.2271073,28.8657182 C17.4857576,28.9368092 17.6520328,29.0923206 17.9060644,29.1589683 L17.9060644,27.9593089 C17.9060644,27.6793884 17.7721205,26.9462632 18.1323834,26.9773655 C18.4926463,27.0084678 18.3217524,27.6793884 18.3217524,28.0303999 L18.3217524,29.3055933 C18.5630859,29.3691335 18.7934044,29.4664418 19.0053282,29.5944002 L19.0053282,27.9593089 C19.0053282,27.6527293 18.8529093,26.4441836 19.2685973,26.5374904 C19.5503414,26.6041382 19.4210162,27.6749452 19.4210162,28.0659453 L19.4210162,29.7765707 C20.1369233,29.6965934 20.6588427,29.9898435 21.3100872,29.8476616 C21.2361872,28.8568319 21.3100872,27.8793316 21.2361872,27.0840019 C21.2361872,26.84407 20.9267305,26.3553199 21.3470373,26.2486835 C21.5548813,26.3464336 21.5918313,26.6441268 21.6149251,26.866286 C21.6980627,27.6838316 21.5317875,28.7990705 21.8042941,29.4477752 C21.7460553,29.5889548 21.7193044,29.7403314 21.7257753,29.8920935 C22.0542638,29.9113443 22.3839406,29.8979439 22.7095702,29.8521048 C22.6218138,29.2122865 22.7095702,28.4125136 22.6726201,27.7060475 C22.580245,27.7060475 22.2615509,28.0526158 22.1414633,27.7460362 C22.1414633,27.4172406 22.6033388,27.328377 22.6726201,27.0173542 C22.7372827,26.7818655 22.543295,26.4352972 22.8250391,26.2886722 C22.9358892,26.1998085 23.0236456,26.3686495 23.1252582,26.3997518 C23.3284834,25.9554335 23.5871338,25.6577402 23.808834,25.2711833 C24.0767218,24.7557741 24.3492284,24.2847967 24.60326,23.8138193 C24.7233476,23.587217 24.8249603,23.2539783 25.1297981,23.1962169 C25.4069235,23.3472851 25.1806044,23.6405352 25.0928481,23.7782739 C24.5385974,24.7335582 24.0905781,25.6621834 23.5039962,26.5819223 C23.356196,26.8174109 23.1391145,26.9684792 23.0883082,27.1995247 C23.0466987,27.6711353 23.0466987,28.1452894 23.0883082,28.6169 C23.0629779,29.0614463 23.0753354,29.507239 23.1252582,29.9498548 C23.6887464,29.5499684 23.5039962,28.1014908 23.5871338,27.3683656 C23.6102275,27.1062178 23.6933651,26.5419336 23.8873529,26.5286041 C24.3492284,26.501945 23.827309,28.0126271 23.9658717,28.2392294 C24.1761869,27.7473124 24.4231631,27.2706516 24.7048726,26.8129678 C24.9496667,26.3064449 25.3099296,25.8310244 25.4992986,25.3556038 C25.6563363,24.9690469 25.7025238,24.5513877 25.8780365,24.1559444 C26.0535492,23.7605011 26.1736369,23.4006033 26.3399121,23.027376 C26.5509842,22.634693 26.7918098,22.2574849 27.060438,21.8988075 C27.6747325,20.912421 27.8871952,19.6105684 28.344452,18.5530909 C28.4183521,18.3886931 28.5661523,18.2553976 28.6492899,18.0821135 C28.8724358,17.50922 29.062101,16.9247694 29.2173968,16.3314994 C29.3631039,15.7578524 29.6304186,15.2193433 30.0025853,14.7497264 C30.367467,14.3054081 30.9263364,14.1943285 31.0602803,14.8608059 C31.2311743,15.7761016 31.0325678,16.8735678 31.1341804,17.8421816 C31.1626802,18.2140801 31.2386922,18.5811853 31.3604994,18.9352046 C31.5516696,18.2463831 31.6540507,17.5375585 31.6653373,16.8246927 C31.8316125,14.8163741 31.4343995,12.2882031 31.6653373,10.5287027 C31.7438561,9.93331616 32.1734004,8.72921362 32.8385012,8.82252046 C33.2126204,8.87139547 33.3465643,9.52898653 33.4435582,10.1288162 C33.5913584,11.0796573 33.5959771,12.0527144 34.1225153,12.5681236 C34.3303593,12.3726235 34.6629097,12.1860099 34.8060911,11.8749871 C34.9862226,11.4795438 34.8060911,10.9463619 34.7645223,10.5686913 C34.7645223,10.2621117 34.7968536,9.91110025 34.7645223,9.72892975 C34.6575868,9.38261376 34.5697085,9.03111434 34.5012532,8.67589542 C34.5012532,8.41819082 34.5289658,8.15604303 34.5012532,7.87612251 C34.4735407,7.59620199 34.3442155,7.30295193 34.3118842,7.03636096 C34.1995463,6.31063833 34.2261572,5.57126861 34.3904031,4.85475818 C34.5746466,4.48890695 34.8629129,4.18078654 35.2217791,3.96612162 C35.4573356,3.90836024 35.8083611,4.06387164 36.0162051,3.89503069 C35.9746363,3.58845108 35.6697984,3.26409873 35.545092,2.92641683 Z M26.8248814,7.9827589 C26.5439721,8.11216297 26.2537875,8.22204269 25.9565554,8.31155443 C25.5824362,8.45817946 25.0974668,8.52038402 25.1990795,8.89361138 C25.8832751,9.08299087 26.6205683,8.93314584 27.1666693,8.49372493 C27.1186899,8.29006041 26.9976824,8.10915667 26.8248814,7.9827589 L26.8248814,7.9827589 Z M26.5200436,11.3329188 C26.7371251,10.9374755 26.7971689,10.2621117 26.2937245,10.1288162 C26.2198244,10.5020436 25.9842679,11.2840437 26.5200436,11.3329188 Z M18.5018838,12.2793167 C18.200207,12.0748253 17.8484597,11.9492739 17.4811389,11.9149757 C16.8216626,11.8824141 16.1764831,12.1075387 15.6920608,12.5392444 C15.2076385,12.9709502 14.925067,13.5726156 14.908492,14.2076581 C14.908492,14.6164309 15.079386,15.3806583 15.4765989,15.5139538 C15.3703676,14.93634 15.6428741,14.4920218 15.7814368,14.0254876 C15.8322431,13.8388739 15.758343,13.5811693 16.0077558,13.550067 C16.3772563,13.6700329 16.1463185,14.0788058 16.0447059,14.3853854 C15.8922869,14.8652491 15.9338557,15.4606356 15.6290179,15.6605788 C15.8091493,15.6916811 15.9015244,15.8116471 16.0908934,15.8427493 C16.1416997,15.2340333 16.3680188,14.5675559 16.4326813,13.9499534 C16.4326813,13.7277943 16.3541625,13.4078851 16.6220503,13.2968056 C16.9453632,13.3279079 16.8668444,13.7411239 16.8483693,13.9499534 C16.8206568,14.278749 16.6913317,14.7008513 16.6220503,15.0785219 C16.552769,15.4561924 16.344925,15.9449425 16.6959504,16.0604653 C16.8993342,15.622961 17.0257612,15.155996 17.0700696,14.6786354 C17.1116384,14.1898853 16.9176507,13.5856125 17.2594386,13.2968056 C17.5596577,13.2968056 17.4811389,13.6344875 17.4857576,13.8433171 C17.4927487,14.6427786 17.3791769,15.4389897 17.1485885,16.2070903 C17.5781327,16.3359426 17.6335578,15.8471925 17.7120766,15.5139538 C17.7905955,15.1807151 17.9199206,14.8297036 17.9799645,14.5320104 C18.0723396,14.0654762 17.8414018,13.3767829 18.2062835,13.1146351 C18.4695526,13.1635101 18.3910337,13.4878624 18.3956525,13.696692 C18.3884698,14.4515154 18.2607326,15.200793 18.0169145,15.9182834 C18.386415,15.7716584 18.4787901,15.2340333 18.5480714,14.7541695 C18.6034965,14.3853854 18.5480714,13.9010784 18.8482905,13.7366807 C19.3101661,14.0654762 18.7605342,15.007431 18.8482905,15.4473061 C19.4163975,14.7586127 19.0607533,12.7280782 18.5018838,12.2793167 Z M10.2204551,19.8327275 C10.5160554,19.7127616 11.0425936,19.503932 11.393619,19.3217615 C11.4167128,18.7663636 11.0379748,18.5930795 10.8624621,18.2287385 C10.3959678,18.5264318 9.81400457,19.0729433 10.2204551,19.8105116 L10.2204551,19.8327275 Z M3.67567839,19.5883525 C3.41649549,19.6355006 3.17081235,19.7354922 2.95515252,19.8816025 C2.0899614,20.540662 1.65957846,21.5960808 1.82817615,22.6452623 C1.96961494,23.0886408 2.16007286,23.5161496 2.39628309,23.9204557 C2.63434882,24.2457784 2.92979185,24.528487 3.2692279,24.7557741 C3.48630941,24.9512741 3.65258461,25.1645469 3.79576604,25.2667401 C4.17450399,25.5333311 4.61328578,25.6843993 5.00588,25.919888 C5.39847423,26.1553767 5.88344356,26.2708995 6.28989406,26.501945 C7.21364517,27.0306837 7.62009567,28.034843 8.22053389,28.7590818 C8.44223416,29.0212296 8.78402208,29.2878206 9.08885995,29.5944002 C9.3501194,29.9053458 9.62921849,30.2020195 9.92485471,30.4830368 C10.0541799,30.5763436 10.2851176,30.6252186 10.4513928,30.7362982 C10.617668,30.8473778 10.7331369,31.0251051 10.8670808,31.1006392 C11.2458188,31.3094688 11.7123131,31.4249915 12.1187636,31.6471507 C12.4952618,31.8750315 12.88546,32.0812601 13.2873088,32.2647531 C14.1510161,32.602435 15.0424359,32.8823555 15.9338557,33.2466965 C17.0146445,33.6910148 17.8691143,34.61964 18.9221906,34.9928674 C19.5522436,35.2094502 20.2227013,35.2957492 20.8897805,35.2461288 C21.0514369,35.2150265 21.2592809,35.0684015 21.4948375,34.9928674 C21.730394,34.9173332 22.0029006,34.8951173 22.2153633,34.8106969 C22.9008981,34.5205748 23.4801369,34.0391985 23.8781154,33.428867 C24.2815416,32.9914973 24.4744115,32.4106817 24.4092723,31.8293212 C24.0028218,31.4383211 23.7026026,30.9406846 23.0836894,30.7362982 C22.3862573,30.4963663 21.4070811,30.7007527 20.5110425,30.6296618 C19.6150039,30.5585709 18.839053,30.5807868 18.3587024,30.0831503 C17.1288426,29.7086589 15.9767359,29.1296901 14.9546796,28.3725249 C14.6590792,28.1725817 14.3172913,28.0526158 14.0817347,27.8615589 C13.7474805,27.5274976 13.4672342,27.1470715 13.2503587,26.7329905 C12.9770752,26.3283378 12.7376845,25.9034142 12.5344516,25.4622402 C12.48596,25.1959028 12.3956306,24.9382122 12.2665638,24.6980127 C11.9657576,24.4461387 11.619896,24.2489188 11.2458188,24.1159558 C10.8439871,23.9293421 10.4513928,23.707183 10.1511737,23.6049898 C9.61539808,23.4272624 9.06576617,23.3606147 8.56232181,23.2051033 C7.8596609,22.9730318 7.19660382,22.6421272 6.59473193,22.2231599 C5.83777688,21.7282822 5.12967244,21.1675669 4.47934186,20.54808 C4.44239182,20.063773 4.26226035,19.5616934 3.67567839,19.5883525 Z" id="Shape"></path>
                </g>
            </g>
        </g>
    </g>
</svg>