<?xml version="1.0" encoding="UTF-8"?>
<svg width="21px" height="25px" viewBox="0 0 21 25" version="1.1" xmlns="http://www.w3.org/2000/svg" xmlns:xlink="http://www.w3.org/1999/xlink">
    <title>59D2594C-2094-4840-A418-1E8DDA4B8E64</title>
    <g id="Page-1" stroke="none" stroke-width="1" fill="none" fill-rule="evenodd">
        <g id="24.-Manage-address" transform="translate(-34.000000, -314.000000)" fill="#000000" fill-rule="nonzero">
            <g id="Home-address" transform="translate(33.500000, 314.000000)">
                <g id="Group" transform="translate(0.500000, 0.000000)">
                    <path d="M20.6761474,2.93093325 L9.30114745,0.0142665833 C9.16976926,-0.01930275 9.02941891,0.006942375 8.92132566,0.0858811667 C8.81344603,0.164819875 8.75,0.287093625 8.75,0.416691583 L8.75,12.0833582 L0.4375,12.0833582 C0.195892331,12.0833582 0,12.2699224 0,12.5000257 L0,17.5000257 C0,17.7301282 0.195892331,17.9166924 0.4375,17.9166924 L1.75,17.9166924 L1.75,24.583359 C1.75,24.8134616 1.94589233,25.0000257 2.1875,25.0000257 L4.8125,25.0000257 L7.4375,25.0000257 L12.6875,25.0000257 L20.5625,25.0000257 C20.8041077,25.0000257 21,24.8134616 21,24.583359 L21,3.33335904 C21,3.14496317 20.8673401,2.97996483 20.6761474,2.93093325 Z M0.875,12.9166921 L9.1875,12.9166921 L14,12.9166921 L14,17.0833587 L12.6875,17.0833587 L2.1875,17.0833587 L0.875,17.0833587 L0.875,12.9166921 Z M2.625,17.9166921 L12.25,17.9166921 L12.25,24.1666921 L10.5,24.1666921 L10.5,20.4166921 C10.5,20.1865895 10.3041077,20.0000254 10.0625,20.0000254 C9.82089233,20.0000254 9.625,20.1865895 9.625,20.4166921 L9.625,24.1666921 L7.875,24.1666921 L7.875,21.2500254 C7.875,21.0199229 7.67910767,20.8333587 7.4375,20.8333587 L4.8125,20.8333587 C4.57089233,20.8333587 4.375,21.0199229 4.375,21.2500254 L4.375,24.1666921 L2.625,24.1666921 L2.625,17.9166921 Z M5.25,24.1666921 L5.25,21.6666921 L7,21.6666921 L7,24.1666921 L5.25,24.1666921 Z M20.125,24.1666921 L13.125,24.1666921 L13.125,17.9166921 L14.4375,17.9166921 C14.6791077,17.9166921 14.875,17.730128 14.875,17.5000254 L14.875,12.5000254 C14.875,12.2699221 14.6791077,12.083358 14.4375,12.083358 L9.625,12.083358 L9.625,0.960311292 L20.125,3.65277567 L20.125,24.1666921 Z" id="Shape"></path>
                    <path d="M11.375,9.16669129 L18.375,9.16669129 C18.6166077,9.16669129 18.8125,8.98012717 18.8125,8.75002462 L18.8125,5.83335796 C18.8125,5.60325583 18.6166077,5.41669171 18.375,5.41669171 L11.375,5.41669171 C11.1333923,5.41669171 10.9375,5.60325583 10.9375,5.83335796 L10.9375,8.75002462 C10.9375,8.98012717 11.1333923,9.16669129 11.375,9.16669129 Z M11.8125,6.25002463 L17.9375,6.25002463 L17.9375,8.33335796 L11.8125,8.33335796 L11.8125,6.25002463 Z" id="Shape"></path>
                    <path d="M11.375,11.2500246 L18.375,11.2500246 C18.6166077,11.2500246 18.8125,11.0634605 18.8125,10.833358 C18.8125,10.6032554 18.6166077,10.4166913 18.375,10.4166913 L11.375,10.4166913 C11.1333923,10.4166913 10.9375,10.6032554 10.9375,10.833358 C10.9375,11.0634605 11.1333923,11.2500246 11.375,11.2500246 Z" id="Path"></path>
                    <path d="M18.375,12.083358 L16.1875,12.083358 C15.9458923,12.083358 15.75,12.2699221 15.75,12.5000254 C15.75,12.730128 15.9458923,12.9166921 16.1875,12.9166921 L18.375,12.9166921 C18.6166077,12.9166921 18.8125,12.730128 18.8125,12.5000254 C18.8125,12.2699221 18.6166077,12.083358 18.375,12.083358 Z" id="Path"></path>
                    <path d="M18.375,13.7500254 L16.1875,13.7500254 C15.9458923,13.7500254 15.75,13.9365895 15.75,14.1666921 C15.75,14.3967946 15.9458923,14.5833588 16.1875,14.5833588 L18.375,14.5833588 C18.6166077,14.5833588 18.8125,14.3967946 18.8125,14.1666921 C18.8125,13.9365895 18.6166077,13.7500254 18.375,13.7500254 Z" id="Path"></path>
                    <path d="M18.375,15.4166921 L16.625,15.4166921 C16.3833923,15.4166921 16.1875,15.6032562 16.1875,15.8333588 C16.1875,16.0634613 16.3833923,16.2500254 16.625,16.2500254 L18.375,16.2500254 C18.6166077,16.2500254 18.8125,16.0634613 18.8125,15.8333588 C18.8125,15.6032562 18.6166077,15.4166921 18.375,15.4166921 Z" id="Path"></path>
                    <path d="M18.375,17.0833587 L16.1875,17.0833587 C15.9458923,17.0833587 15.75,17.2699229 15.75,17.5000254 C15.75,17.730128 15.9458923,17.9166921 16.1875,17.9166921 L18.375,17.9166921 C18.6166077,17.9166921 18.8125,17.730128 18.8125,17.5000254 C18.8125,17.2699229 18.6166077,17.0833587 18.375,17.0833587 Z" id="Path"></path>
                    <path d="M18.375,18.7500254 L14.4375,18.7500254 C14.1958923,18.7500254 14,18.9365895 14,19.1666921 C14,19.3967946 14.1958923,19.5833587 14.4375,19.5833587 L18.375,19.5833587 C18.6166077,19.5833587 18.8125,19.3967946 18.8125,19.1666921 C18.8125,18.9365895 18.6166077,18.7500254 18.375,18.7500254 Z" id="Path"></path>
                    <path d="M18.375,20.4166921 L14.4375,20.4166921 C14.1958923,20.4166921 14,20.6032562 14,20.8333588 C14,21.0634613 14.1958923,21.2500254 14.4375,21.2500254 L18.375,21.2500254 C18.6166077,21.2500254 18.8125,21.0634613 18.8125,20.8333588 C18.8125,20.6032562 18.6166077,20.4166921 18.375,20.4166921 Z" id="Path"></path>
                    <path d="M2.625,16.2500254 L7.4375,16.2500254 C7.67910767,16.2500254 7.875,16.0634613 7.875,15.8333588 L7.875,14.1666921 C7.875,13.9365895 7.67910767,13.7500254 7.4375,13.7500254 L2.625,13.7500254 C2.38339233,13.7500254 2.1875,13.9365895 2.1875,14.1666921 L2.1875,15.8333588 C2.1875,16.0634613 2.38339233,16.2500254 2.625,16.2500254 Z M3.0625,14.5833588 L7,14.5833588 L7,15.4166921 L3.0625,15.4166921 L3.0625,14.5833588 Z" id="Shape"></path>
                </g>
            </g>
        </g>
    </g>
</svg>