<?xml version="1.0" encoding="UTF-8"?>
<svg width="21px" height="26px" viewBox="0 0 21 26" version="1.1" xmlns="http://www.w3.org/2000/svg" xmlns:xlink="http://www.w3.org/1999/xlink">
    <title>9C838C01-A000-41CB-92E5-B4CC3A1C8CC8</title>
    <g id="Page-1" stroke="none" stroke-width="1" fill="none" fill-rule="evenodd">
        <g id="24.-Manage-address" transform="translate(-35.000000, -154.000000)" fill="#2C2627" fill-rule="nonzero">
            <g id="Home-address" transform="translate(34.500000, 154.000000)">
                <g id="Group" transform="translate(0.500000, 0.000000)">
                    <path d="M10.5,5.83488372 C8.15294118,5.83488372 6.23823529,7.70930233 6.23823529,10.0069767 C6.23823529,12.3046512 8.15294118,14.1790698 10.5,14.1790698 C12.8470588,14.1790698 14.7617647,12.3046512 14.7617647,10.0069767 C14.7617647,7.70930233 12.8470588,5.83488372 10.5,5.83488372 Z M10.5,12.9697674 C8.83235294,12.9697674 7.47352941,11.6395349 7.47352941,10.0069767 C7.47352941,8.3744186 8.83235294,7.04418605 10.5,7.04418605 C12.1676471,7.04418605 13.5264706,8.3744186 13.5264706,10.0069767 C13.5264706,11.6395349 12.1676471,12.9697674 10.5,12.9697674 Z" id="Shape"></path>
                    <path d="M10.5,0.120930233 C4.78676471,0.120930233 0.154411765,4.53488372 0.154411765,10.0069767 C0.154411765,12.1534884 0.864705882,14.2093023 2.19264706,15.9325581 L9.51176471,25.3953488 C9.75882353,25.6976744 10.0985294,25.8790698 10.5,25.8790698 C10.5,25.8790698 10.5,25.8790698 10.5,25.8790698 C10.9014706,25.8790698 11.2411765,25.6976744 11.4882353,25.3953488 L18.7764706,15.9023256 C20.1044118,14.1790698 20.8148594,12.1232558 20.8148594,9.97674419 C20.8455882,4.53488372 16.2132353,0.120930233 10.5,0.120930233 Z M17.7882353,15.2069767 L10.5,24.6697674 L3.21176471,15.1767442 C2.03823529,13.6651163 1.42058824,11.8813953 1.42058824,9.97674419 C1.42058824,5.2 5.49705882,1.3 10.5308824,1.3 C15.5338235,1.3 19.6411765,5.2 19.6411765,9.97674419 C19.6102941,11.8813953 18.9926471,13.6953488 17.7882353,15.2069767 Z" id="Shape"></path>
                </g>
            </g>
        </g>
    </g>
</svg>