<?xml version="1.0" encoding="UTF-8"?>
<svg width="25px" height="20px" viewBox="0 0 25 20" version="1.1" xmlns="http://www.w3.org/2000/svg" xmlns:xlink="http://www.w3.org/1999/xlink">
    <title>52FE59A8-F9D6-4978-9765-177B5738D8FC</title>
    <g id="Page-1" stroke="none" stroke-width="1" fill="none" fill-rule="evenodd">
        <g id="19.-Payment-method" transform="translate(-35.000000, -104.000000)" fill="#2C2627" fill-rule="nonzero">
            <g id="Top-Resto" transform="translate(35.000000, 100.000000)">
                <g id="Group" transform="translate(0.000000, 4.000000)">
                    <path d="M3.14231667,0.102022535 C2.9309043,0.121633659 2.74899113,0.261698262 2.67356667,0.462938028 L0.425302778,6.59850141 C0.418661015,6.61580617 0.412866907,6.63343332 0.407941667,6.65131831 C0.225861111,7.35963099 0.432413889,8.07216338 0.859330556,8.59674085 C1.28625556,9.12131831 1.93134444,9.48601408 2.66488611,9.60026197 C3.71919361,9.76447239 4.75747528,9.37516338 5.36453889,8.6231493 C5.89420528,9.25991099 6.75770111,9.65307887 7.69092778,9.65307887 L8.02078889,9.65307887 C8.93920472,9.65307887 9.78325917,9.26958338 10.3124556,8.64955775 C10.8079622,9.26266394 11.5970972,9.65307887 12.4999556,9.65307887 C13.4028156,9.65307887 14.1919494,9.26266394 14.6874556,8.64955775 C14.8878381,8.88433324 15.1298247,9.08897352 15.4079417,9.2481493 L15.4079417,17.2499099 C15.4051089,17.4530845 15.5103733,17.6420671 15.6834272,17.7444928 C15.8564811,17.8469185 16.0705134,17.8469185 16.2435673,17.7444928 C16.4166212,17.6420671 16.5218856,17.4530845 16.5190528,17.2499099 L16.5190528,9.61786761 C16.6701322,9.63945296 16.8226744,9.65307887 16.9791222,9.65307887 L17.3089833,9.65307887 C18.24221,9.65307887 19.1057058,9.25991099 19.6353722,8.6231493 C20.1940342,9.31062648 21.1142128,9.70168282 22.0746083,9.63547324 L22.0746083,18.6935718 L2.92530278,18.6935718 L2.92530278,11.0439239 C2.92874933,10.8816726 2.86303865,10.7257934 2.7449992,10.6162071 C2.62695976,10.5066208 2.46805607,10.4539708 2.30898333,10.4717408 C2.02276327,10.5036366 1.80799879,10.7519929 1.81419167,11.0439239 L1.81419167,18.6935718 L0.833288889,18.6935718 C0.815937323,18.6927462 0.798557121,18.6927462 0.781205556,18.6935718 C0.582696347,18.7029677 0.404214111,18.8190586 0.313007059,18.9981042 C0.221800006,19.1771498 0.231728512,19.3919412 0.339051733,19.5615496 C0.446374953,19.731158 0.634783402,19.8298087 0.833288889,19.8203324 L24.1666222,19.8203324 C24.366975,19.8232051 24.5533329,19.7164581 24.654336,19.5409668 C24.7553391,19.3654755 24.7553391,19.1484287 24.654336,18.9729374 C24.5533329,18.7974461 24.366975,18.6906992 24.1666222,18.6935718 L23.1857194,18.6935718 L23.1857194,9.33617746 C23.5609933,9.1567107 23.8896789,8.90503239 24.1405806,8.59674085 C24.5675056,8.07216338 24.77405,7.35963099 24.5919694,6.65131831 C24.5870442,6.63343332 24.5812501,6.61580617 24.5746083,6.59850141 L22.3263444,0.462938028 C22.243439,0.244662832 22.036167,0.101032109 21.8055111,0.102022535 L3.1944,0.102022535 C3.17704843,0.1011969 3.15966823,0.1011969 3.14231667,0.102022535 Z M3.57634444,1.2287831 L21.4235667,1.2287831 L23.5155806,6.93300845 L23.5155806,6.95061408 C23.5956528,7.28479155 23.5136361,7.59810141 23.2812056,7.88371268 C23.0445361,8.17451549 22.6479361,8.41668451 22.1700944,8.49110704 C21.214925,8.63987606 20.3723944,8.07559437 20.22565,7.35554366 C20.2227885,7.35257706 20.2198948,7.34964261 20.2169694,7.34674085 L20.1735667,7.15307887 C20.1748151,7.06134687 20.1539563,6.97069323 20.1128028,6.88899437 L19.0711361,2.39075493 C19.0441423,2.17744034 18.8997568,1.99831429 18.6989789,1.92905291 C18.498201,1.85979153 18.2760545,1.91247687 18.1263908,2.06485073 C17.976727,2.21722459 17.9256534,2.44270668 17.9947472,2.64603662 L19.053775,7.24990986 C18.9914189,7.92236254 18.2938167,8.52631831 17.3089833,8.52631831 L16.9791222,8.52631831 C15.9469028,8.52631831 15.2258222,7.86363662 15.22565,7.15307887 C15.2264642,7.13548292 15.2264642,7.11785793 15.22565,7.10026197 L14.8437056,2.4787831 C14.8253191,2.18147917 14.5819002,1.95005976 14.28815,1.95061408 C14.1296547,1.94966751 13.9783057,2.01740985 13.8721846,2.13679615 C13.7660634,2.25618245 13.7152735,2.41584635 13.7325944,2.57561408 L14.1145389,7.15307887 L14.1145389,7.18829014 C14.1098124,7.21445882 14.1069117,7.24093294 14.1058583,7.26751549 C14.0424167,7.95802535 13.4600556,8.52631831 12.4999556,8.52631831 C11.5398583,8.52631831 10.9574944,7.95802535 10.8940528,7.26751549 C10.8926215,7.24387965 10.8897222,7.22035883 10.8853722,7.19709296 L10.8853722,7.15307887 L11.2586361,2.57561408 C11.2759906,2.40421663 11.2150569,2.23418793 11.0932355,2.11408229 C10.971414,1.99397665 10.8020972,1.93699779 10.6336361,1.9594169 C10.3734129,1.99628175 10.1742302,2.21295993 10.1562056,2.4787831 L9.77426111,7.10026197 C9.77344694,7.11785793 9.77344694,7.13548292 9.77426111,7.15307887 C9.77408889,7.86363662 9.05300833,8.52631831 8.02078889,8.52631831 L7.69092778,8.52631831 C6.69324889,8.52631831 5.99234667,7.90646085 5.94613611,7.22350141 L7.00516389,2.64603662 C7.05013222,2.44947765 6.98827813,2.24352145 6.84290147,2.10574975 C6.6975248,1.96797805 6.49071173,1.91932163 6.30036674,1.9781089 C6.11002175,2.03689618 5.96506277,2.19419595 5.92009444,2.39075493 L4.86974722,6.93300845 C4.84506334,6.99169186 4.83038707,7.05420039 4.82634444,7.11786761 L4.77426111,7.34674085 C4.77423851,7.34967507 4.77423851,7.35260943 4.77426111,7.35554366 C4.62751667,8.07559437 3.78498611,8.63987606 2.82981667,8.49110704 C2.351975,8.41668451 1.955375,8.17451549 1.71870556,7.88371268 C1.48626389,7.59810141 1.40425833,7.28479155 1.48433056,6.95061408 C1.48571944,6.94452958 1.48266389,6.93909296 1.48433056,6.93300845 L3.57634444,1.2287831 Z M17.5520389,13.2006141 C17.3516861,13.1977414 17.1653282,13.3044884 17.0643251,13.4799797 C16.9633221,13.6554709 16.9633221,13.8725178 17.0643251,14.0480091 C17.1653282,14.2235004 17.3516861,14.3302473 17.5520389,14.3273746 L18.9409278,14.3273746 C19.1412806,14.3302473 19.3276384,14.2235004 19.4286415,14.0480091 C19.5296446,13.8725178 19.5296446,13.6554709 19.4286415,13.4799797 C19.3276384,13.3044884 19.1412806,13.1977414 18.9409278,13.2006141 L17.5520389,13.2006141 Z" id="Shape"></path>
                </g>
            </g>
        </g>
    </g>
</svg>