<?xml version="1.0" encoding="UTF-8"?>
<svg width="22px" height="22px" viewBox="0 0 22 22" version="1.1" xmlns="http://www.w3.org/2000/svg" xmlns:xlink="http://www.w3.org/1999/xlink">
    <title>69FB7406-BA67-4491-8BE7-AF158D129E88</title>
    <g id="Page-1" stroke="none" stroke-width="1" fill="none" fill-rule="evenodd">
        <g id="27.-Orders-list" transform="translate(-34.000000, -392.000000)" fill="#BC2C3D" fill-rule="nonzero">
            <g id="Order-1" transform="translate(33.000000, 107.000000)">
                <g id="watch-icon" transform="translate(1.000000, 285.000000)">
                    <path d="M11,20.7058824 C11.3573607,20.7058824 11.6470588,20.9955806 11.6470588,21.3529412 C11.6470588,21.7103017 11.3573607,22 11,22 C4.92486775,22 0,17.0751321 0,11 C0,4.92486791 4.92486775,0 11,0 C11.3573607,0 11.6470588,0.289698265 11.6470588,0.647058824 C11.6470588,1.00441938 11.3573607,1.29411765 11,1.29411765 C5.63958919,1.29411765 1.29411765,5.63958935 1.29411765,11 C1.29411765,16.3604106 5.63958919,20.7058824 11,20.7058824 Z M11,11 L16.1764706,11 C16.5338311,11 16.8235294,11.2896983 16.8235294,11.6470588 C16.8235294,12.0044194 16.5338311,12.2941176 16.1764706,12.2941176 L10.3529412,12.2941176 C9.99558046,12.2941176 9.70588235,12.0044194 9.70588235,11.6470588 L9.70588235,3.88235294 C9.70588235,3.52499238 9.99558046,3.23529412 10.3529412,3.23529412 C10.7103019,3.23529412 11,3.52499238 11,3.88235294 L11,11 Z M13.5120672,1.6248375 C13.1668832,1.53234594 12.9620358,1.17753965 13.0545275,0.832355441 C13.1470193,0.487171559 13.5018255,0.282324059 13.8470095,0.374815941 C14.1921934,0.467307824 14.397041,0.822113794 14.3045491,1.167298 C14.2120574,1.51248188 13.8572512,1.71732938 13.5120672,1.6248375 Z M15.8529412,2.59445935 C15.5434578,2.41577891 15.4374207,2.02004388 15.6161011,1.7105605 C15.7947816,1.40107712 16.1905166,1.29504035 16.5,1.47372047 C16.8094834,1.65240091 16.9155205,2.04813594 16.73684,2.35761932 C16.5581596,2.66710271 16.1624246,2.77313979 15.8529412,2.59445935 Z M17.8630951,4.13690491 C17.6104031,3.88421259 17.6104031,3.47451759 17.8630951,3.22182526 C18.1157874,2.96913326 18.5254824,2.96913326 18.7781747,3.22182526 C19.0308667,3.47451759 19.0308667,3.88421259 18.7781747,4.13690491 C18.5254824,4.38959691 18.1157874,4.38959691 17.8630951,4.13690491 Z M19.4055406,6.14705882 C19.2268602,5.83757544 19.3328973,5.44184041 19.6423807,5.26315997 C19.9518641,5.08447953 20.3475991,5.19051662 20.5262795,5.5 C20.7049596,5.80948338 20.5989229,6.20521841 20.2894395,6.38389885 C19.9799561,6.56257929 19.5842211,6.45654221 19.4055406,6.14705882 Z M20.3751625,8.48793291 C20.2826706,8.14274871 20.4875181,7.78794274 20.832702,7.69545085 C21.1778862,7.60295897 21.5326922,7.80780647 21.6251841,8.15299035 C21.7176759,8.49817456 21.5128284,8.85298085 21.1676446,8.94547241 C20.8224604,9.03796429 20.4676541,8.83311679 20.3751625,8.48793291 Z M20.7058824,11 C20.7058824,10.6426394 20.9955806,10.3529412 21.3529412,10.3529412 C21.7103017,10.3529412 22,10.6426394 22,11 C22,11.3573606 21.7103017,11.6470588 21.3529412,11.6470588 C20.9955806,11.6470588 20.7058824,11.3573606 20.7058824,11 Z M20.3751625,13.5120671 C20.4676541,13.1668832 20.8224604,12.9620357 21.1676446,13.0545276 C21.5128284,13.1470191 21.7176759,13.5018254 21.6251841,13.8470096 C21.5326922,14.1921935 21.1778862,14.397041 20.832702,14.3045491 C20.4875181,14.2120573 20.2826706,13.8572513 20.3751625,13.5120671 Z M19.4055406,15.8529412 C19.5842211,15.5434578 19.9799561,15.4374207 20.2894395,15.6161011 C20.5989229,15.7947816 20.7049596,16.1905166 20.5262795,16.5 C20.3475991,16.8094834 19.9518641,16.9155205 19.6423807,16.73684 C19.3328973,16.5581596 19.2268602,16.1624246 19.4055406,15.8529412 Z M17.8630951,17.8630951 C18.1157874,17.6104031 18.5254824,17.6104031 18.7781747,17.8630951 C19.0308667,18.1157874 19.0308667,18.5254824 18.7781747,18.7781747 C18.5254824,19.0308667 18.1157874,19.0308667 17.8630951,18.7781747 C17.6104031,18.5254824 17.6104031,18.1157874 17.8630951,17.8630951 Z M15.8529412,19.4055406 C16.1624246,19.2268602 16.5581596,19.3328973 16.73684,19.6423807 C16.9155205,19.9518641 16.8094834,20.3475991 16.5,20.5262795 C16.1905166,20.7049596 15.7947816,20.5989229 15.6161011,20.2894395 C15.4374207,19.9799561 15.5434578,19.5842211 15.8529412,19.4055406 Z M13.5120672,20.3751625 C13.8572512,20.2826706 14.2120574,20.4875181 14.3045491,20.832702 C14.397041,21.1778862 14.1921934,21.5326922 13.8470095,21.6251841 C13.5018255,21.7176759 13.1470193,21.5128284 13.0545275,21.1676446 C12.9620358,20.8224604 13.1668832,20.4676541 13.5120672,20.3751625 Z" id="Shape"></path>
                </g>
            </g>
        </g>
    </g>
</svg>