<?xml version="1.0" encoding="UTF-8"?>
<svg width="199px" height="144px" viewBox="0 0 199 144" version="1.1" xmlns="http://www.w3.org/2000/svg" xmlns:xlink="http://www.w3.org/1999/xlink">
    <title>317D9FD9-A21F-4307-ADB7-59BA2C835EDC</title>
    <g id="Page-1" stroke="none" stroke-width="1" fill="none" fill-rule="evenodd">
        <g id="9.-Verify" transform="translate(-113.000000, -190.000000)">
            <g id="Group-3" transform="translate(113.000000, 193.000000)">
                <g id="OBJECT" transform="translate(19.000000, 17.000000)">
                    <path d="M82.6929054,14.0114 C45.1265541,14.0114 14.6746853,45.866 14.6746853,85.1598 C14.6476559,96.766514 17.3725689,108.214409 22.6261937,118.5648 L142.756216,118.5648 C148.011019,108.2147 150.737101,96.7667901 150.71111,85.1598 C150.71111,45.866 120.255856,14.0114 82.6929054,14.0114 Z" id="Path" fill="#F6F6F6" fill-rule="nonzero"></path>
                    <g id="Group" style="mix-blend-mode: multiply;" transform="translate(16.324324, 13.940000)" fill-rule="nonzero">
                        <path d="M127.193694,58.7554 C127.951269,59.63151 129.048556,60.1403875 130.206892,60.1528 C131.314833,60.1781725 132.401396,59.8454933 133.305113,59.2042 C132.37048,59.7138177 131.303333,59.9283759 130.244302,59.8196 C129.215319,59.7365265 128.266411,59.2320528 127.622207,58.4256 C127.50009,58.2574517 127.393111,58.0788204 127.302523,57.8918 C128.155866,57.7077177 128.921795,57.2403736 129.475698,56.5658 C129.868057,56.0844907 130.089368,55.4865115 130.104865,54.8658 C130.110664,54.5285081 130.015955,54.1971172 129.832793,53.9138 C129.632665,53.6192729 129.329245,53.4105749 128.982568,53.329 C128.654151,53.2507975 128.30998,53.2708984 127.992905,53.3868 C127.693517,53.4965639 127.421861,53.6706562 127.197095,53.8968 C126.766234,54.3251019 126.472629,54.8719142 126.353671,55.4676 C126.225242,56.1268475 126.273345,56.8083171 126.493108,57.443 L126.38768,57.443 C125.339515,57.4673689 124.299274,57.25589 123.343874,56.8242 C122.350859,56.4170628 121.420089,55.8722549 120.578941,55.2058 C121.347247,55.9806071 122.233374,56.6289614 123.204437,57.1268 C124.188845,57.6616157 125.287874,57.95088 126.408086,57.97 C126.506712,57.97 126.608739,57.97 126.707365,57.97 C126.840872,58.2484567 127.003917,58.5117677 127.193694,58.7554 L127.193694,58.7554 Z M126.969234,55.6172 C127.07063,55.1482562 127.307072,54.719226 127.649414,54.383 C127.943324,54.0627597 128.382083,53.9174032 128.809122,53.9988 C129.206379,54.0967322 129.470544,54.4725596 129.428086,54.8794 C129.413691,55.3507368 129.247945,55.8049281 128.95536,56.1748 C128.654421,56.5633445 128.268087,56.8774486 127.826261,57.0928 C127.583855,57.20933 127.329584,57.299384 127.06786,57.3614 C126.873524,56.8005485 126.838212,56.1968744 126.965833,55.6172 L126.969234,55.6172 Z" id="Shape" fill="#A1AAAD"></path>
                        <polygon id="Path" fill="#EFEFEF" points="33.8627703 69.785 2.56087838 70.193 12.5629279 74.9564 9.16202703 82.6438 15.2564414 79.8048 13.7192342 77.5404 21.0685811 88.3592"></polygon>
                        <path d="M5.68970721,85.0204 C4.83046016,85.6322661 3.92020406,86.1691749 2.96898649,86.6252 C2.07376494,87.0525319 1.11838161,87.3403322 0.136036036,87.4786 C0.176846847,87.652 0.214256757,87.8186 0.255067568,87.9954 C1.26741243,87.8162941 2.24523959,87.4789642 3.15263514,86.9958 C3.62782033,86.7429523 4.08980832,86.4660599 4.5368018,86.1662 C4.97891892,85.8636 5.40403153,85.5406 5.82234234,85.2074 C6.65216216,84.5274 7.44117117,83.827 8.20297297,83.096 C7.38335586,83.7488 6.55353604,84.4118 5.68970721,85.0204 Z" id="Path" fill="#CBCFD1"></path>
                        <path d="M98.6261261,97.2196 L98.6261261,41.1196 L99.7008108,40.7354 L99.7008108,28.1758 L98.6261261,27.7916 L98.6261261,25.3878 L99.7008108,25.0036 L99.7008108,18.36 L98.6261261,17.9758 L98.6261261,16.6158 L99.7008108,16.2316 L99.7008108,9.605 L98.6261261,9.2208 L98.6261261,8.5612 C79.6743966,-2.16473503 56.6271774,-2.76249377 37.1446396,6.9666 L37.1446396,24.7758 L28.3533108,24.7758 C27.5692311,22.8514513 26.0037223,21.3511456 24.0474538,20.649281 C22.0911854,19.9474164 19.928683,20.1101966 18.0995946,21.097 C16.941021,22.3164667 15.8266592,23.5778667 14.756509,24.8812 C14.0022021,26.798253 14.0928285,28.9446317 15.0060515,30.791314 C15.9192745,32.6379962 17.5701484,34.0132087 19.5517793,34.578 L19.5517793,51.255 C19.5517793,52.8528763 20.1867014,54.3853078 21.3168699,55.5151769 C22.4470385,56.6450461 23.979876,57.2798 25.5781757,57.2798 L37.1412387,57.2798 L37.1412387,97.2196 C37.1921637,100.169503 38.6443468,102.919083 41.0522748,104.6248 L94.545045,104.6248 C97.0683725,103.003215 98.6031107,100.218403 98.6261261,97.2196 Z" id="Path" fill="#EFEFEF"></path>
                        <polygon id="Path" fill="#F3F3F3" points="102.863649 45.9782 111.709392 58.82 115.725856 52.9074 119.942973 54.8692 117.58955 49.555 124.506982 46.2604"></polygon>
                    </g>
                    <line x1="148.541149" y1="118.5648" x2="16.8446622" y2="118.5648" id="Path" stroke="#F1F1F1" stroke-width="2.07" stroke-linecap="round" stroke-linejoin="round"></line>
                    <path d="M113.970991,28.1486 L113.970991,21.505 L112.90991,21.1208 L112.90991,18.5504 C112.902415,13.7882823 109.041805,9.93021645 104.278423,9.9246 L60.0667117,9.9246 C55.3025542,9.92834699 51.4408507,13.7875064 51.4352252,18.5504 L51.4352252,109.1196 C51.4352252,113.5702 54.9721622,117.5686 59.4885586,118.2248 C59.5780468,118.228682 59.6677415,118.228682 59.7572297,118.2248 L103.968941,118.2248 C104.044807,118.229976 104.120937,118.229976 104.196802,118.2248 C109.243739,117.606 112.90991,113.7776 112.90991,109.1162 L112.90991,53.0162 L113.984595,52.632 L113.984595,40.0758 L112.90991,39.6916 L112.90991,37.2878 L113.984595,36.9036 L113.984595,30.26 L112.90991,29.8758 L112.90991,28.5158 L113.970991,28.1486 Z" id="Path" fill="#60951D" fill-rule="nonzero"></path>
                    <path d="M59.7368243,116.3684 C56.3189189,115.8754 53.2751126,112.846 53.2751126,109.1196 L53.2751126,18.5504 C53.2788619,14.8208284 56.3021429,11.7983483 60.0327027,11.7946 L104.244414,11.7946 C107.974199,11.8002171 110.996386,14.8216038 111.002005,18.5504 L111.002005,109.1196 C111.002005,112.8596 107.968401,115.8754 103.934932,116.3684 L59.7368243,116.3684 Z" id="Path" fill="#8AC341" fill-rule="nonzero"></path>
                    <path d="M104.26482,14.4397648 L96.5549775,14.4397648 C96.5549775,14.4397648 94.0043018,18.037 92.7561712,18.037 L72.6908559,18.037 C71.4427252,18.037 68.8920495,14.4397648 68.8920495,14.4397648 L60.0497072,14.4397648 C58.9586303,14.4397648 57.9119322,14.8715793 57.1401051,15.6425641 C56.3682781,16.413549 55.9346171,17.4596118 55.9346171,18.5504 L55.9346171,100.4904 C55.9346171,103.425352 58.3144959,105.8046 61.2502252,105.8046 L103.081306,105.8046 C104.490781,105.8046 105.842477,105.244604 106.838807,104.247901 C107.835137,103.251197 108.394416,101.899501 108.393515,100.4904 L108.393515,18.5504 C108.393515,17.4572493 107.957995,16.4091175 107.183222,15.6377399 C106.408449,14.8663623 105.358251,14.4352791 104.26482,14.4397648 Z" id="Path" fill="#FFFFFF" fill-rule="nonzero"></path>
                    <rect id="Rectangle" fill="#DBB497" fill-rule="nonzero" x="60.2605631" y="23.7354" width="44.3783559" height="4.437"></rect>
                    <rect id="Rectangle" fill="#DBB497" fill-rule="nonzero" x="60.2605631" y="33.1466" width="44.3783559" height="2.2168"></rect>
                    <rect id="Rectangle" fill="#DBB497" fill-rule="nonzero" x="60.2605631" y="38.6104" width="44.3783559" height="2.2168"></rect>
                    <rect id="Rectangle" fill="#DBB497" fill-rule="nonzero" x="60.2605631" y="44.0742" width="44.3783559" height="2.2168"></rect>
                    <rect id="Rectangle" fill="#DBB497" fill-rule="nonzero" x="60.2605631" y="49.538" width="44.3783559" height="2.2168"></rect>
                    <rect id="Rectangle" fill="#DBB497" fill-rule="nonzero" x="60.2605631" y="54.9984" width="44.3783559" height="2.2168"></rect>
                    <rect id="Rectangle" fill="#DBB497" fill-rule="nonzero" x="60.2605631" y="60.4622" width="44.3783559" height="2.2168"></rect>
                    <rect id="Rectangle" fill="#DBB497" fill-rule="nonzero" x="60.2605631" y="65.926" width="44.3783559" height="2.2168"></rect>
                    <rect id="Rectangle" fill="#DBB497" fill-rule="nonzero" x="60.2605631" y="71.3898" width="44.3783559" height="2.2168"></rect>
                    <rect id="Rectangle" fill="#DBB497" fill-rule="nonzero" x="60.2605631" y="76.8502" width="44.3783559" height="2.2168"></rect>
                    <rect id="Rectangle" fill="#DBB497" fill-rule="nonzero" x="60.2605631" y="82.314" width="44.3783559" height="2.2168"></rect>
                    <rect id="Rectangle" fill="#DBB497" fill-rule="nonzero" x="60.2605631" y="87.7778" width="44.3783559" height="2.2168"></rect>
                    <rect id="Rectangle" fill="#DBB497" fill-rule="nonzero" x="60.2605631" y="93.2416" width="28.519955" height="2.2168"></rect>
                    <rect id="Rectangle" fill="#DBB497" fill-rule="nonzero" x="60.2605631" y="98.702" width="17.2119595" height="2.2168"></rect>
                    <path d="M88.1173423,15.759 L73.9491892,15.759 C73.5893066,15.748359 73.3000582,15.4591872 73.2894144,15.0994 L73.2894144,15.0994 C73.3000582,14.7396128 73.5893066,14.450441 73.9491892,14.4398 L88.1173423,14.4398 C88.4817259,14.4398 88.7771171,14.735113 88.7771171,15.0994 L88.7771171,15.0994 C88.7771171,15.463687 88.4817259,15.759 88.1173423,15.759 L88.1173423,15.759 Z" id="Path" fill="#FFFFFF" fill-rule="nonzero"></path>
                    <path d="M92.1644144,15.1062 C92.1644144,15.4817536 91.8598874,15.7862 91.4842342,15.7862 C91.1085811,15.7862 90.8040541,15.4817536 90.8040541,15.1062 C90.8040541,14.7306464 91.1085811,14.4262 91.4842342,14.4262 C91.8598874,14.4262 92.1644144,14.7306464 92.1644144,15.1062 Z" id="Path" fill="#FFFFFF" fill-rule="nonzero"></path>
                    <ellipse id="Oval" fill="#FFFFFF" fill-rule="nonzero" cx="82.6929054" cy="111.2786" rx="3.27846847" ry="3.2776"></ellipse>
                    <g id="Group" style="mix-blend-mode: soft-light;" transform="translate(55.774775, 14.280000)" fill="#FFFFFF" fill-rule="nonzero">
                        <path d="M49.7109685,0.34 L0.156441441,83.1708 L0.156441441,86.2308 C0.156441441,89.1657516 2.53632026,91.545 5.47204955,91.545 L14.6238739,91.545 L52.6017342,28.0568 L52.6017342,4.2568 C52.5969714,2.46022391 51.4266498,0.874514072 49.7109685,0.34 Z" id="Path"></path>
                        <path d="M40.7802027,0.1598 C40.7802027,0.1598 38.229527,3.757 36.9813964,3.757 L19.0076351,3.757 L0.156441441,35.2648 L0.156441441,76.2484 L45.6775,0.1598 L40.7802027,0.1598 Z" id="Path"></path>
                        <polygon id="Path" points="31.6011712 91.5314 52.6017342 56.4264 52.6017342 34.9826 18.772973 91.5314"></polygon>
                    </g>
                    <path d="M112.22973,0.187 C112.42718,0.914137293 112.561447,1.6569638 112.631036,2.4072 C112.704542,3.14497309 112.740864,3.88597682 112.739865,4.6274 C112.742633,5.36999544 112.706306,6.11222195 112.631036,6.851 C112.563102,7.601461 112.428808,8.34443106 112.22973,9.0712 C112.033924,8.34369289 111.899681,7.60100754 111.828423,6.851 C111.75485,6.11209512 111.718528,5.36995605 111.719595,4.6274 C111.719595,3.8896 111.757005,3.1484 111.831824,2.4072 C111.901904,1.65728141 112.035009,0.91459213 112.22973,0.187 L112.22973,0.187 Z" id="Path" fill="#BC2C3D" fill-rule="nonzero"></path>
                    <path d="M124.00705,12.1992 C123.279629,12.3954989 122.536603,12.5285939 121.786261,12.597 C120.308267,12.7443432 118.819278,12.7443432 117.341284,12.597 C116.590849,12.5274295 115.847825,12.3931975 115.120495,12.1958 C115.844596,12.0001262 116.58418,11.8670364 117.331081,11.798 C118.809188,11.6529367 120.297952,11.6529367 121.776059,11.798 C122.529927,11.8669879 123.276389,12.0012244 124.00705,12.1992 L124.00705,12.1992 Z" id="Path" fill="#BC2C3D" fill-rule="nonzero"></path>
                    <path d="M120.068806,4.233 C119.693201,4.88546717 119.261952,5.50429811 118.779865,6.0826 C118.311026,6.65768079 117.812693,7.20808552 117.286869,7.7316 C116.761864,8.25836256 116.208991,8.75661074 115.630631,9.2242 C115.050406,9.70541888 114.430347,10.1365015 113.77714,10.5128 C114.150348,9.85749432 114.580521,9.23629772 115.06268,8.6564 C115.534272,8.08293333 116.031937,7.5344 116.555676,7.0108 C117.079414,6.4872 117.629227,5.98966667 118.205113,5.5182 C118.787812,5.03647832 119.411404,4.60645087 120.068806,4.233 Z" id="Path" fill="#BC2C3D" fill-rule="nonzero"></path>
                    <path d="M121.589009,20.3626 C120.935285,19.9871168 120.315158,19.5559871 119.735518,19.074 C118.587477,18.1336633 117.534914,17.082518 116.593086,15.9358 C116.111727,15.3565005 115.681598,14.7365048 115.307545,14.0828 C115.961423,14.4567536 116.581583,14.8867689 117.161036,15.368 C117.734421,15.8376035 118.283795,16.3357673 118.807072,16.8606 C119.332895,17.3841145 119.831229,17.9345192 120.300068,18.5096 C120.781414,19.0896713 121.212611,19.7095658 121.589009,20.3626 L121.589009,20.3626 Z" id="Path" fill="#BC2C3D" fill-rule="nonzero"></path>
                    <path d="M110.216396,8.993 C109.563189,8.61670145 108.94313,8.18561888 108.362905,7.7044 C107.787672,7.2356855 107.237122,6.7374841 106.713468,6.2118 C106.186846,5.69023792 105.688471,5.14092181 105.220473,4.5662 C104.73944,3.98906466 104.309319,3.37135571 103.934932,2.72 C104.58881,3.09395357 105.20897,3.52396893 105.788423,4.0052 C106.364309,4.47666667 106.912988,4.9742 107.434459,5.4978 C107.959281,6.01989461 108.457573,6.5679835 108.927455,7.14 C109.408801,7.72007129 109.839998,8.33996576 110.216396,8.993 Z" id="Path" fill="#BC2C3D" fill-rule="nonzero"></path>
                    <path d="M55.7747748,63.0394 C55.7747748,63.0394 60.5122297,80.291 81.9617117,78.2306 C81.9617117,78.2306 71.2216667,76.4184 71.2216667,63.0394 L55.7747748,63.0394 Z" id="Path" stroke="#60951D" fill="#8AC341" fill-rule="nonzero"></path>
                    <rect id="Rectangle" stroke="#60951D" fill="#8AC341" fill-rule="nonzero" x="33.8355631" y="36.6758" width="51.5950676" height="32.504" rx="16.252"></rect>
                    <rect id="Rectangle" fill="#211D1E" fill-rule="nonzero" x="46.8712162" y="46.7772" width="25.5237613" height="18.3396"></rect>
                    <rect id="Rectangle" fill="#FFFFFF" fill-rule="nonzero" x="50.1496847" y="40.7354" width="18.9634234" height="23.4974"></rect>
                    <rect id="Rectangle" fill="#D0D0D0" fill-rule="nonzero" x="52.2616441" y="43.282" width="14.7395045" height="1.3838"></rect>
                    <rect id="Rectangle" fill="#D0D0D0" fill-rule="nonzero" x="52.2616441" y="46.121" width="14.7395045" height="1.3838"></rect>
                    <rect id="Rectangle" fill="#D0D0D0" fill-rule="nonzero" x="52.2616441" y="48.9566" width="14.7395045" height="1.3838"></rect>
                    <rect id="Rectangle" fill="#D0D0D0" fill-rule="nonzero" x="52.2616441" y="51.7922" width="14.7395045" height="1.3838"></rect>
                    <rect id="Rectangle" fill="#D0D0D0" fill-rule="nonzero" x="52.2616441" y="54.6312" width="14.7395045" height="1.3838"></rect>
                    <rect id="Rectangle" fill="#D0D0D0" fill-rule="nonzero" x="52.2616441" y="57.4668" width="14.7395045" height="1.3838"></rect>
                    <rect id="Rectangle" fill="#D0D0D0" fill-rule="nonzero" x="52.2616441" y="60.3024" width="14.7395045" height="1.3838"></rect>
                    <polygon id="Path" fill="#453E40" fill-rule="nonzero" points="52.574527 55.3656 46.8712162 46.7772 46.8712162 65.1168 72.3949775 65.1168 72.3949775 46.7772 66.7120721 55.3656"></polygon>
                    <polygon id="Path" fill="#453E40" fill-rule="nonzero" points="72.3949775 65.1168 46.8712162 65.1168 52.574527 55.3656 66.6882658 55.3656"></polygon>
                    <path d="M46.8712162,65.1168 C47.3133333,64.2838 47.7656532,63.4576 48.2315766,62.6348 C48.6975,61.812 49.1328153,60.979 49.5919369,60.1596 L50.9761036,57.698 L52.3670721,55.2398 L52.4350901,55.1208 L52.5813288,55.1208 C54.9347523,55.0936 57.2847748,55.0902 59.6381982,55.0834 C61.9916216,55.0766 64.3416441,55.0834 66.6950676,55.1208 L66.8413063,55.1208 L66.9093243,55.2432 C67.8445721,56.8786 68.7594144,58.5242 69.6844595,60.163 C70.1503829,60.9824 70.5993018,61.812 71.0448198,62.6382 C71.4903378,63.4644 71.9528604,64.2872 72.4051802,65.1202 C71.895045,64.328 71.3849099,63.529 70.8985811,62.7402 C70.4122523,61.9514 69.8987162,61.1456 69.4123874,60.3398 C68.4363288,58.7282 67.4500676,57.1234 66.4842117,55.5084 L66.6984685,55.6308 C64.345045,55.658 61.9950225,55.6614 59.6415991,55.6682 C57.2881757,55.675 54.9381532,55.6682 52.5847297,55.6308 L52.7989865,55.5084 L51.3365991,57.9258 L49.8708108,60.3364 C49.384482,61.1456 48.8811486,61.9412 48.3846171,62.7402 C47.8880856,63.5392 47.3779505,64.3246 46.8712162,65.1168 Z" id="Path" fill="#1E1B1C" fill-rule="nonzero"></path>
                    <path d="M81.230518,47.5422 C80.8564654,48.1959048 80.4263361,48.8159005 79.9449775,49.3952 C79.4733859,49.9686667 78.9757207,50.5183333 78.451982,51.0442 C77.9282432,51.5700667 77.3795646,52.0676 76.8059459,52.5368 C76.2258946,53.0188317 75.6045334,53.4488909 74.9490541,53.822 C75.3254523,53.1689658 75.7566491,52.5490713 76.2379955,51.969 C76.7059934,51.3942782 77.2043687,50.8449621 77.730991,50.3234 C78.2546442,49.7977159 78.8051948,49.2995145 79.3804279,48.8308 C79.9588831,48.3488402 80.577878,47.9177062 81.230518,47.5422 Z" id="Path" fill="#FFFFFF" fill-rule="nonzero"></path>
                    <path d="M81.0570721,64.3518 C80.4038648,63.9755015 79.7838061,63.5444189 79.2035811,63.0632 C78.0555401,62.1228633 77.0029771,61.071718 76.0611486,59.925 C75.5797901,59.3457005 75.1496608,58.7257048 74.7756081,58.072 C75.4294861,58.4459536 76.0496461,58.8759689 76.6290991,59.3572 C77.2027177,59.8286667 77.7513964,60.3262 78.2751351,60.8498 C78.8001322,61.3741016 79.2984265,61.9244631 79.7681306,62.4988 C80.249477,63.0788713 80.6806738,63.6987658 81.0570721,64.3518 Z" id="Path" fill="#FFFFFF" fill-rule="nonzero"></path>
                    <path d="M83.907027,55.9334 C83.1797646,56.1310965 82.4367152,56.2653333 81.6862387,56.3346 C80.9482753,56.4081549 80.2070717,56.4444676 79.4654505,56.4434 C78.7237897,56.4461675 77.9824986,56.4098505 77.2446622,56.3346 C76.4939615,56.2669856 75.750768,56.1327228 75.0238739,55.9334 C75.7511363,55.7357035 76.4941857,55.6014667 77.2446622,55.5322 C77.9826256,55.4586451 78.7238292,55.4223324 79.4654505,55.4234 C80.2068468,55.4234 80.9448423,55.4608 81.6862387,55.5356 C82.4363953,55.6053722 83.1793055,55.7384465 83.907027,55.9334 Z" id="Path" fill="#FFFFFF" fill-rule="nonzero"></path>
                    <path d="M38.0322748,47.5422 C38.6854821,47.9184985 39.3055408,48.3495811 39.8857658,48.8308 C40.4591505,49.3004035 41.0085245,49.7985673 41.5318018,50.3234 C42.0584241,50.8449621 42.5567994,51.3942782 43.0247973,51.969 C43.5072504,52.5482292 43.9385154,53.1682216 44.3137387,53.822 C43.6588251,53.4496892 43.0385246,53.0195764 42.4602477,52.5368 C41.885837,52.0671293 41.3353341,51.568971 40.8108108,51.0442 C40.2870721,50.5206 39.7894069,49.9709333 39.3178153,49.3952 C38.8364567,48.8159005 38.4063274,48.1959048 38.0322748,47.5422 L38.0322748,47.5422 Z" id="Path" fill="#FFFFFF" fill-rule="nonzero"></path>
                    <path d="M38.2091216,64.3518 C38.5831743,63.6980952 39.0133036,63.0780995 39.4946622,62.4988 C39.968521,61.9253333 40.4661862,61.3756667 40.9876577,60.8498 C41.5091291,60.3239333 42.0578078,59.8264 42.6336937,59.3572 C43.2137451,58.8751683 43.8351063,58.4451091 44.4905856,58.072 C44.1141873,58.7250342 43.6829905,59.3449287 43.2016441,59.925 C42.2598157,61.071718 41.2072527,62.1228633 40.0592117,63.0632 C39.4807566,63.5451598 38.8617617,63.9762938 38.2091216,64.3518 Z" id="Path" fill="#FFFFFF" fill-rule="nonzero"></path>
                    <path d="M35.3693694,55.9334 C36.0970909,55.7384465 36.8400011,55.6053722 37.5901577,55.5356 C38.3315541,55.4608 39.0729505,55.4268 39.8109459,55.4234 C40.5525691,55.4222515 41.2937768,55.4585644 42.0317342,55.5322 C42.7822501,55.6011771 43.5253245,55.7354184 44.2525225,55.9334 C43.5256966,56.1330226 42.7824761,56.2672903 42.0317342,56.3346 C41.2870735,56.4095178 40.5389477,56.444701 39.7905405,56.44 C39.0489209,56.4409986 38.3077208,56.404686 37.5697523,56.3312 C36.8262438,56.2618846 36.0900723,56.1287945 35.3693694,55.9334 L35.3693694,55.9334 Z" id="Path" fill="#FFFFFF" fill-rule="nonzero"></path>
                    <ellipse id="Oval" stroke="#60951D" stroke-width="2.1" fill="#FFFFFF" fill-rule="nonzero" transform="translate(35.858372, 39.443822) rotate(-22.500000) translate(-35.858372, -39.443822) " cx="35.858372" cy="39.443822" rx="6.96817314" ry="6.96686786"></ellipse>
                    <path d="M36.583491,35.482377 L35.8012838,35.482377 C35.6974896,35.4812494 35.6033506,35.5430958 35.5632207,35.6388 C35.3897748,36.0638 34.764009,36.3528 33.8967793,36.414 C33.7625902,36.4229632 33.658417,36.5345477 33.6587156,36.669 L33.6587156,37.451 C33.6587156,37.5918326 33.7729139,37.706 33.9137838,37.706 L35.2061261,37.706 L35.2061261,43.146 C35.2079578,43.2860671 35.3210895,43.3991688 35.4611937,43.401 L36.583491,43.401 C36.7243609,43.401 36.8385586,43.2868326 36.8385586,43.146 L36.8385586,35.734 C36.8385586,35.6666782 36.8115836,35.6021621 36.7636488,35.554879 C36.715714,35.5075959 36.6508244,35.4814902 36.583491,35.482377 Z" id="Path" fill="#2C2627" fill-rule="nonzero"></path>
                    <polygon id="Path" fill="#D9E1E4" fill-rule="nonzero" points="28.003018 89.4404 48.1465541 81.685 35.3523649 100.2592"></polygon>
                    <polygon id="Path" fill="#A1AAAD" fill-rule="nonzero" points="23.4458108 94.5438 28.003018 89.4404 29.5402252 91.7048"></polygon>
                    <polygon id="Path" fill="#CBCFD1" fill-rule="nonzero" points="26.8467117 86.8564 23.4458108 94.5438 28.003018 89.4404 48.1465541 81.685"></polygon>
                    <polygon id="Path" fill="#FFFFFF" fill-rule="nonzero" points="16.8446622 82.093 26.8467117 86.8564 48.1465541 81.685"></polygon>
                    <path d="M22.5071622,94.996 C20.3475901,96.8456 18.085991,98.753 15.3380631,99.4704 C12.5901351,100.1878 9.21644144,99.3344 7.9240991,96.7912 C7.32894144,95.608 7.30853604,94.0508 8.17916667,93.0512 C9.0497973,92.0516 11.3964189,90.9772 11.6208784,93.0716 C9.38308559,96.5464 2.70711712,92.5276 0.289076577,88.9916" id="Path" stroke="#CBCFD1"></path>
                    <polygon id="Path" fill="#D9E1E4" fill-rule="nonzero" points="131.074122 63.24 117.147432 57.8782 125.993176 70.72"></polygon>
                    <polygon id="Path" fill="#A1AAAD" fill-rule="nonzero" points="134.226757 66.7692 131.074122 63.24 130.00964 64.8074"></polygon>
                    <polygon id="Path" fill="#CBCFD1" fill-rule="nonzero" points="131.873333 61.455 134.226757 66.7692 131.074122 63.24 117.147432 57.8782"></polygon>
                    <polygon id="Path" fill="#FFFFFF" fill-rule="nonzero" points="138.790766 58.1604 131.873333 61.455 117.147432 57.8782"></polygon>
                    <path d="M134.845721,67.1296 C135.686869,67.7960549 136.617638,68.3408628 137.610653,68.748 C138.566054,69.17969 139.606294,69.3911689 140.654459,69.3668 C141.157003,69.3367665 141.648981,69.2097638 142.103243,68.9928 C142.545069,68.7774486 142.931403,68.4633445 143.232342,68.0748 C143.524927,67.7049281 143.690673,67.2507368 143.705068,66.7794 C143.747526,66.3725596 143.483361,65.9967322 143.086104,65.8988 C142.659065,65.8174032 142.220306,65.9627597 141.926396,66.283 C141.584054,66.619226 141.347612,67.0482562 141.246216,67.5172 C141.043872,68.5017128 141.276976,69.5256137 141.885586,70.3256 C142.52979,71.1320528 143.478698,71.6365265 144.50768,71.7196 C145.566712,71.8283759 146.633858,71.6138177 147.568491,71.1042 C146.664775,71.7454933 145.578212,72.0781725 144.47027,72.0528 C143.311934,72.0403875 142.214648,71.53151 141.457072,70.6554 C140.69829,69.7445779 140.385326,68.5429139 140.603446,67.3778 C140.722404,66.7821142 141.016009,66.2353019 141.446869,65.807 C141.671636,65.5808562 141.943292,65.4067639 142.24268,65.297 C142.559754,65.1810984 142.903926,65.1609975 143.232342,65.2392 C143.57902,65.3207749 143.88244,65.5294729 144.082568,65.824 C144.26573,66.1073172 144.360438,66.4387081 144.35464,66.776 C144.339143,67.3967115 144.117832,67.9946907 143.725473,68.476 C142.970625,69.3862745 141.847368,69.9103222 140.664662,69.904 C139.544451,69.88488 138.445422,69.5956157 137.461014,69.0608 C136.492854,68.5589456 135.610185,67.9071596 134.845721,67.1296 Z" id="Path" fill="#D9E1E4" fill-rule="nonzero"></path>
                </g>
                <g id="Additional-Elements">
                    <circle id="Oval-11" fill="#DBB497" opacity="0.162430037" cx="175" cy="5" r="3"></circle>
                    <circle id="Oval-11" fill="#8AC341" cx="104.5" cy="19.5" r="1.5"></circle>
                    <circle id="Oval-11" fill="#DBB497" opacity="0.40500726" cx="15" cy="44" r="3"></circle>
                    <circle id="Oval-11" fill="#BC2C3D" opacity="0.149778451" cx="6.5" cy="27.5" r="1.5"></circle>
                    <g id="Group-23" opacity="0.364272388" transform="translate(78.834847, 7.340754) rotate(-120.000000) translate(-78.834847, -7.340754) translate(73.834847, 1.840754)" stroke="#DBB497" stroke-linecap="round" stroke-width="7">
                        <line x1="1.08363156e-12" y1="4.76621081" x2="9.0878042" y2="4.76621081" id="Line"></line>
                        <g id="Group-22" transform="translate(4.379141, 5.223269) rotate(-270.000000) translate(-4.379141, -5.223269) translate(-0.620859, 3.723269)">
                            <line x1="-1.34942799e-13" y1="1.33453903" x2="9.0878042" y2="1.33453903" id="Line"></line>
                        </g>
                    </g>
                    <g id="Group-23" transform="translate(181.916139, 78.130911) rotate(-330.000000) translate(-181.916139, -78.130911) translate(176.416139, 72.130911)" stroke="#EFD2BC" stroke-linecap="round" stroke-width="6">
                        <line x1="8.37463186e-13" y1="5.06380934" x2="10.1012698" y2="5.06380934" id="Line"></line>
                        <g id="Group-22" transform="translate(4.816910, 5.513786) rotate(-270.000000) translate(-4.816910, -5.513786) translate(-0.683090, 4.013786)">
                            <line x1="5.30775008e-13" y1="1.26595233" x2="10.1012698" y2="1.26595233" id="Line"></line>
                        </g>
                    </g>
                    <circle id="Oval-11" fill="#DBB497" opacity="0.223822295" cx="52" cy="138" r="3"></circle>
                    <circle id="Oval" stroke="#8AC341" stroke-width="3" cx="45" cy="37" r="3"></circle>
                    <circle id="Oval" stroke="#8AC341" stroke-width="4" cx="171" cy="35" r="4"></circle>
                    <circle id="Oval" fill="#8AC341" cx="161.5" cy="12.5" r="2.5"></circle>
                    <circle id="Oval" fill="#8AC341" cx="35.5" cy="49.5" r="2.5"></circle>
                    <circle id="Oval" stroke="#8AC341" stroke-width="3" cx="27" cy="129" r="3"></circle>
                    <circle id="Oval" fill="#8AC341" cx="15.5" cy="116.5" r="2.5"></circle>
                    <circle id="Oval" fill="#8AC341" cx="1" cy="71" r="1"></circle>
                    <circle id="Oval" stroke="#8AC341" stroke-width="3" cx="188" cy="110" r="3"></circle>
                    <circle id="Oval" fill="#8AC341" cx="196.5" cy="112.5" r="2.5"></circle>
                </g>
            </g>
        </g>
    </g>
</svg>